%TF.GenerationSoftware,KiCad,Pcbnew,5.1.8*%
%TF.CreationDate,2020-11-23T13:22:29+09:00*%
%TF.ProjectId,rasp_usb,72617370-5f75-4736-922e-6b696361645f,rev?*%
%TF.SameCoordinates,Original*%
%TF.FileFunction,Copper,L2,Bot*%
%TF.FilePolarity,Positive*%
%FSLAX46Y46*%
G04 Gerber Fmt 4.6, Leading zero omitted, Abs format (unit mm)*
G04 Created by KiCad (PCBNEW 5.1.8) date 2020-11-23 13:22:29*
%MOMM*%
%LPD*%
G01*
G04 APERTURE LIST*
%TA.AperFunction,ComponentPad*%
%ADD10R,1.700000X1.700000*%
%TD*%
%TA.AperFunction,ComponentPad*%
%ADD11O,1.700000X1.700000*%
%TD*%
%TA.AperFunction,ComponentPad*%
%ADD12O,1.100000X1.500000*%
%TD*%
%TA.AperFunction,ComponentPad*%
%ADD13O,1.350000X1.700000*%
%TD*%
%TA.AperFunction,ViaPad*%
%ADD14C,0.800000*%
%TD*%
%TA.AperFunction,ViaPad*%
%ADD15C,0.600000*%
%TD*%
%TA.AperFunction,Conductor*%
%ADD16C,0.500000*%
%TD*%
%TA.AperFunction,Conductor*%
%ADD17C,0.250000*%
%TD*%
%TA.AperFunction,Conductor*%
%ADD18C,0.254000*%
%TD*%
%TA.AperFunction,Conductor*%
%ADD19C,0.100000*%
%TD*%
G04 APERTURE END LIST*
D10*
%TO.P,J2,1*%
%TO.N,3V3*%
X120250000Y-68500000D03*
D11*
%TO.P,J2,2*%
%TO.N,5V*%
X122790000Y-68500000D03*
%TO.P,J2,3*%
%TO.N,Net-(J2-Pad3)*%
X120250000Y-71040000D03*
%TO.P,J2,4*%
%TO.N,5V*%
X122790000Y-71040000D03*
%TO.P,J2,5*%
%TO.N,Net-(J2-Pad5)*%
X120250000Y-73580000D03*
%TO.P,J2,6*%
%TO.N,GND*%
X122790000Y-73580000D03*
%TO.P,J2,7*%
%TO.N,Net-(J2-Pad7)*%
X120250000Y-76120000D03*
%TO.P,J2,8*%
%TO.N,UART_TXD*%
X122790000Y-76120000D03*
%TO.P,J2,9*%
%TO.N,GND*%
X120250000Y-78660000D03*
%TO.P,J2,10*%
%TO.N,UART_RXD*%
X122790000Y-78660000D03*
%TD*%
D12*
%TO.P,J1,6*%
%TO.N,GND*%
X109695000Y-64885000D03*
X104855000Y-64885000D03*
D13*
X110005000Y-61885000D03*
X104545000Y-61885000D03*
%TD*%
D14*
%TO.N,+5V*%
X107750000Y-73250000D03*
X107750000Y-79400000D03*
X110500000Y-73750000D03*
X105000000Y-73750000D03*
X107750000Y-75000000D03*
X113250000Y-75025000D03*
D15*
%TO.N,GND*%
X117225000Y-66600000D03*
D14*
X105500000Y-79500000D03*
X103350000Y-79200000D03*
X103350000Y-77650000D03*
D15*
X114025000Y-66625000D03*
%TO.N,USB_DP*%
X107275000Y-66490000D03*
%TO.N,USB_DM*%
X108742500Y-67232500D03*
%TO.N,Net-(C7-Pad1)*%
X111525000Y-70900000D03*
X117025000Y-67725000D03*
%TO.N,Net-(R3-Pad2)*%
X108750000Y-68250000D03*
X111525000Y-69925000D03*
%TO.N,Net-(R4-Pad2)*%
X107275000Y-67525000D03*
X111525000Y-69000000D03*
%TD*%
D16*
%TO.N,+5V*%
X107750000Y-75000000D02*
X107750000Y-79400000D01*
X111975000Y-73750000D02*
X113250000Y-75025000D01*
X110500000Y-73750000D02*
X111975000Y-73750000D01*
D17*
%TO.N,GND*%
X117225000Y-66600000D02*
X117225000Y-65675000D01*
X117225000Y-65675000D02*
X117025000Y-65475000D01*
X117025000Y-65475000D02*
X114275000Y-65475000D01*
X114025000Y-65725000D02*
X114025000Y-66625000D01*
X114275000Y-65475000D02*
X114025000Y-65725000D01*
X121614999Y-74755001D02*
X122790000Y-73580000D01*
X121614999Y-77295001D02*
X121614999Y-74755001D01*
X120250000Y-78660000D02*
X121614999Y-77295001D01*
%TO.N,Net-(C7-Pad1)*%
X117025000Y-67725000D02*
X117025000Y-70850000D01*
X117025000Y-70850000D02*
X116250000Y-71625000D01*
X112250000Y-71625000D02*
X111525000Y-70900000D01*
X116250000Y-71625000D02*
X112250000Y-71625000D01*
D16*
%TO.N,5V*%
X122790000Y-71040000D02*
X122790000Y-68500000D01*
D17*
%TO.N,Net-(R3-Pad2)*%
X109850000Y-68250000D02*
X111525000Y-69925000D01*
X108750000Y-68250000D02*
X109850000Y-68250000D01*
%TO.N,Net-(R4-Pad2)*%
X108192501Y-66607499D02*
X109132499Y-66607499D01*
X109132499Y-66607499D02*
X111525000Y-69000000D01*
X107275000Y-67525000D02*
X108192501Y-66607499D01*
%TD*%
D18*
%TO.N,GND*%
X103734804Y-60676522D02*
X103548750Y-60854441D01*
X103400981Y-61065239D01*
X103297176Y-61300815D01*
X103241325Y-61552116D01*
X103391427Y-61758000D01*
X104418000Y-61758000D01*
X104418000Y-61738000D01*
X104672000Y-61738000D01*
X104672000Y-61758000D01*
X105698573Y-61758000D01*
X105848675Y-61552116D01*
X105792824Y-61300815D01*
X105689019Y-61065239D01*
X105541250Y-60854441D01*
X105355196Y-60676522D01*
X105329231Y-60660000D01*
X109220769Y-60660000D01*
X109194804Y-60676522D01*
X109008750Y-60854441D01*
X108860981Y-61065239D01*
X108757176Y-61300815D01*
X108701325Y-61552116D01*
X108851427Y-61758000D01*
X109878000Y-61758000D01*
X109878000Y-61738000D01*
X110132000Y-61738000D01*
X110132000Y-61758000D01*
X111158573Y-61758000D01*
X111308675Y-61552116D01*
X111252824Y-61300815D01*
X111149019Y-61065239D01*
X111001250Y-60854441D01*
X110815196Y-60676522D01*
X110789231Y-60660000D01*
X123967721Y-60660000D01*
X124065424Y-60669580D01*
X124128356Y-60688580D01*
X124186405Y-60719445D01*
X124237343Y-60760989D01*
X124279248Y-60811644D01*
X124310515Y-60869471D01*
X124329956Y-60932272D01*
X124340000Y-61027835D01*
X124340001Y-80967711D01*
X124330420Y-81065424D01*
X124311420Y-81128357D01*
X124280554Y-81186406D01*
X124239011Y-81237343D01*
X124188356Y-81279248D01*
X124130529Y-81310515D01*
X124067728Y-81329956D01*
X123972165Y-81340000D01*
X102032279Y-81340000D01*
X101934576Y-81330420D01*
X101871643Y-81311420D01*
X101813594Y-81280554D01*
X101762657Y-81239011D01*
X101720752Y-81188356D01*
X101689485Y-81130529D01*
X101670044Y-81067728D01*
X101660000Y-80972165D01*
X101660000Y-73648061D01*
X103965000Y-73648061D01*
X103965000Y-73851939D01*
X104004774Y-74051898D01*
X104082795Y-74240256D01*
X104196063Y-74409774D01*
X104340226Y-74553937D01*
X104509744Y-74667205D01*
X104698102Y-74745226D01*
X104898061Y-74785000D01*
X105101939Y-74785000D01*
X105301898Y-74745226D01*
X105490256Y-74667205D01*
X105659774Y-74553937D01*
X105803937Y-74409774D01*
X105917205Y-74240256D01*
X105995226Y-74051898D01*
X106035000Y-73851939D01*
X106035000Y-73648061D01*
X105995226Y-73448102D01*
X105917205Y-73259744D01*
X105842582Y-73148061D01*
X106715000Y-73148061D01*
X106715000Y-73351939D01*
X106754774Y-73551898D01*
X106832795Y-73740256D01*
X106946063Y-73909774D01*
X107090226Y-74053937D01*
X107196580Y-74125000D01*
X107090226Y-74196063D01*
X106946063Y-74340226D01*
X106832795Y-74509744D01*
X106754774Y-74698102D01*
X106715000Y-74898061D01*
X106715000Y-75101939D01*
X106754774Y-75301898D01*
X106832795Y-75490256D01*
X106865000Y-75538455D01*
X106865001Y-78861544D01*
X106832795Y-78909744D01*
X106754774Y-79098102D01*
X106715000Y-79298061D01*
X106715000Y-79501939D01*
X106754774Y-79701898D01*
X106832795Y-79890256D01*
X106946063Y-80059774D01*
X107090226Y-80203937D01*
X107259744Y-80317205D01*
X107448102Y-80395226D01*
X107648061Y-80435000D01*
X107851939Y-80435000D01*
X108051898Y-80395226D01*
X108240256Y-80317205D01*
X108409774Y-80203937D01*
X108553937Y-80059774D01*
X108667205Y-79890256D01*
X108745226Y-79701898D01*
X108785000Y-79501939D01*
X108785000Y-79298061D01*
X108745226Y-79098102D01*
X108711587Y-79016890D01*
X118808524Y-79016890D01*
X118853175Y-79164099D01*
X118978359Y-79426920D01*
X119152412Y-79660269D01*
X119368645Y-79855178D01*
X119618748Y-80004157D01*
X119893109Y-80101481D01*
X120123000Y-79980814D01*
X120123000Y-78787000D01*
X118929845Y-78787000D01*
X118808524Y-79016890D01*
X108711587Y-79016890D01*
X108667205Y-78909744D01*
X108635000Y-78861546D01*
X108635000Y-75538454D01*
X108667205Y-75490256D01*
X108745226Y-75301898D01*
X108785000Y-75101939D01*
X108785000Y-74898061D01*
X108745226Y-74698102D01*
X108667205Y-74509744D01*
X108553937Y-74340226D01*
X108409774Y-74196063D01*
X108303420Y-74125000D01*
X108409774Y-74053937D01*
X108553937Y-73909774D01*
X108667205Y-73740256D01*
X108705393Y-73648061D01*
X109465000Y-73648061D01*
X109465000Y-73851939D01*
X109504774Y-74051898D01*
X109582795Y-74240256D01*
X109696063Y-74409774D01*
X109840226Y-74553937D01*
X110009744Y-74667205D01*
X110198102Y-74745226D01*
X110398061Y-74785000D01*
X110601939Y-74785000D01*
X110801898Y-74745226D01*
X110990256Y-74667205D01*
X111038454Y-74635000D01*
X111608422Y-74635000D01*
X112243465Y-75270044D01*
X112254774Y-75326898D01*
X112332795Y-75515256D01*
X112446063Y-75684774D01*
X112590226Y-75828937D01*
X112759744Y-75942205D01*
X112948102Y-76020226D01*
X113148061Y-76060000D01*
X113351939Y-76060000D01*
X113551898Y-76020226D01*
X113740256Y-75942205D01*
X113909774Y-75828937D01*
X114053937Y-75684774D01*
X114167205Y-75515256D01*
X114245226Y-75326898D01*
X114285000Y-75126939D01*
X114285000Y-74923061D01*
X114245226Y-74723102D01*
X114167205Y-74534744D01*
X114053937Y-74365226D01*
X113909774Y-74221063D01*
X113740256Y-74107795D01*
X113551898Y-74029774D01*
X113495044Y-74018465D01*
X112631534Y-73154956D01*
X112603817Y-73121183D01*
X112469059Y-73010589D01*
X112315313Y-72928411D01*
X112148490Y-72877805D01*
X112018477Y-72865000D01*
X112018469Y-72865000D01*
X111975000Y-72860719D01*
X111931531Y-72865000D01*
X111038454Y-72865000D01*
X110990256Y-72832795D01*
X110801898Y-72754774D01*
X110601939Y-72715000D01*
X110398061Y-72715000D01*
X110198102Y-72754774D01*
X110009744Y-72832795D01*
X109840226Y-72946063D01*
X109696063Y-73090226D01*
X109582795Y-73259744D01*
X109504774Y-73448102D01*
X109465000Y-73648061D01*
X108705393Y-73648061D01*
X108745226Y-73551898D01*
X108785000Y-73351939D01*
X108785000Y-73148061D01*
X108745226Y-72948102D01*
X108667205Y-72759744D01*
X108553937Y-72590226D01*
X108409774Y-72446063D01*
X108240256Y-72332795D01*
X108051898Y-72254774D01*
X107851939Y-72215000D01*
X107648061Y-72215000D01*
X107448102Y-72254774D01*
X107259744Y-72332795D01*
X107090226Y-72446063D01*
X106946063Y-72590226D01*
X106832795Y-72759744D01*
X106754774Y-72948102D01*
X106715000Y-73148061D01*
X105842582Y-73148061D01*
X105803937Y-73090226D01*
X105659774Y-72946063D01*
X105490256Y-72832795D01*
X105301898Y-72754774D01*
X105101939Y-72715000D01*
X104898061Y-72715000D01*
X104698102Y-72754774D01*
X104509744Y-72832795D01*
X104340226Y-72946063D01*
X104196063Y-73090226D01*
X104082795Y-73259744D01*
X104004774Y-73448102D01*
X103965000Y-73648061D01*
X101660000Y-73648061D01*
X101660000Y-66397911D01*
X106340000Y-66397911D01*
X106340000Y-66582089D01*
X106375932Y-66762729D01*
X106446414Y-66932889D01*
X106496267Y-67007500D01*
X106446414Y-67082111D01*
X106375932Y-67252271D01*
X106340000Y-67432911D01*
X106340000Y-67617089D01*
X106375932Y-67797729D01*
X106446414Y-67967889D01*
X106548738Y-68121028D01*
X106678972Y-68251262D01*
X106832111Y-68353586D01*
X107002271Y-68424068D01*
X107182911Y-68460000D01*
X107367089Y-68460000D01*
X107547729Y-68424068D01*
X107717889Y-68353586D01*
X107815000Y-68288699D01*
X107815000Y-68342089D01*
X107850932Y-68522729D01*
X107921414Y-68692889D01*
X108023738Y-68846028D01*
X108153972Y-68976262D01*
X108307111Y-69078586D01*
X108477271Y-69149068D01*
X108657911Y-69185000D01*
X108842089Y-69185000D01*
X109022729Y-69149068D01*
X109192889Y-69078586D01*
X109295535Y-69010000D01*
X109535199Y-69010000D01*
X110601847Y-70076649D01*
X110625932Y-70197729D01*
X110696414Y-70367889D01*
X110726222Y-70412500D01*
X110696414Y-70457111D01*
X110625932Y-70627271D01*
X110590000Y-70807911D01*
X110590000Y-70992089D01*
X110625932Y-71172729D01*
X110696414Y-71342889D01*
X110798738Y-71496028D01*
X110928972Y-71626262D01*
X111082111Y-71728586D01*
X111252271Y-71799068D01*
X111373351Y-71823153D01*
X111686201Y-72136002D01*
X111709999Y-72165001D01*
X111825724Y-72259974D01*
X111957753Y-72330546D01*
X112101014Y-72374003D01*
X112212667Y-72385000D01*
X112212677Y-72385000D01*
X112250000Y-72388676D01*
X112287323Y-72385000D01*
X116212678Y-72385000D01*
X116250000Y-72388676D01*
X116287322Y-72385000D01*
X116287333Y-72385000D01*
X116398986Y-72374003D01*
X116542247Y-72330546D01*
X116674276Y-72259974D01*
X116790001Y-72165001D01*
X116813803Y-72135998D01*
X117536002Y-71413799D01*
X117565001Y-71390001D01*
X117659974Y-71274276D01*
X117730546Y-71142247D01*
X117774003Y-70998986D01*
X117785000Y-70887333D01*
X117788677Y-70850000D01*
X117785000Y-70812667D01*
X117785000Y-68270535D01*
X117853586Y-68167889D01*
X117924068Y-67997729D01*
X117960000Y-67817089D01*
X117960000Y-67650000D01*
X118761928Y-67650000D01*
X118761928Y-69350000D01*
X118774188Y-69474482D01*
X118810498Y-69594180D01*
X118869463Y-69704494D01*
X118948815Y-69801185D01*
X119045506Y-69880537D01*
X119155820Y-69939502D01*
X119228380Y-69961513D01*
X119096525Y-70093368D01*
X118934010Y-70336589D01*
X118822068Y-70606842D01*
X118765000Y-70893740D01*
X118765000Y-71186260D01*
X118822068Y-71473158D01*
X118934010Y-71743411D01*
X119096525Y-71986632D01*
X119303368Y-72193475D01*
X119477760Y-72310000D01*
X119303368Y-72426525D01*
X119096525Y-72633368D01*
X118934010Y-72876589D01*
X118822068Y-73146842D01*
X118765000Y-73433740D01*
X118765000Y-73726260D01*
X118822068Y-74013158D01*
X118934010Y-74283411D01*
X119096525Y-74526632D01*
X119303368Y-74733475D01*
X119477760Y-74850000D01*
X119303368Y-74966525D01*
X119096525Y-75173368D01*
X118934010Y-75416589D01*
X118822068Y-75686842D01*
X118765000Y-75973740D01*
X118765000Y-76266260D01*
X118822068Y-76553158D01*
X118934010Y-76823411D01*
X119096525Y-77066632D01*
X119303368Y-77273475D01*
X119485534Y-77395195D01*
X119368645Y-77464822D01*
X119152412Y-77659731D01*
X118978359Y-77893080D01*
X118853175Y-78155901D01*
X118808524Y-78303110D01*
X118929845Y-78533000D01*
X120123000Y-78533000D01*
X120123000Y-78513000D01*
X120377000Y-78513000D01*
X120377000Y-78533000D01*
X120397000Y-78533000D01*
X120397000Y-78787000D01*
X120377000Y-78787000D01*
X120377000Y-79980814D01*
X120606891Y-80101481D01*
X120881252Y-80004157D01*
X121131355Y-79855178D01*
X121347588Y-79660269D01*
X121518900Y-79430594D01*
X121636525Y-79606632D01*
X121843368Y-79813475D01*
X122086589Y-79975990D01*
X122356842Y-80087932D01*
X122643740Y-80145000D01*
X122936260Y-80145000D01*
X123223158Y-80087932D01*
X123493411Y-79975990D01*
X123736632Y-79813475D01*
X123943475Y-79606632D01*
X124105990Y-79363411D01*
X124217932Y-79093158D01*
X124275000Y-78806260D01*
X124275000Y-78513740D01*
X124217932Y-78226842D01*
X124105990Y-77956589D01*
X123943475Y-77713368D01*
X123736632Y-77506525D01*
X123562240Y-77390000D01*
X123736632Y-77273475D01*
X123943475Y-77066632D01*
X124105990Y-76823411D01*
X124217932Y-76553158D01*
X124275000Y-76266260D01*
X124275000Y-75973740D01*
X124217932Y-75686842D01*
X124105990Y-75416589D01*
X123943475Y-75173368D01*
X123736632Y-74966525D01*
X123554466Y-74844805D01*
X123671355Y-74775178D01*
X123887588Y-74580269D01*
X124061641Y-74346920D01*
X124186825Y-74084099D01*
X124231476Y-73936890D01*
X124110155Y-73707000D01*
X122917000Y-73707000D01*
X122917000Y-73727000D01*
X122663000Y-73727000D01*
X122663000Y-73707000D01*
X122643000Y-73707000D01*
X122643000Y-73453000D01*
X122663000Y-73453000D01*
X122663000Y-73433000D01*
X122917000Y-73433000D01*
X122917000Y-73453000D01*
X124110155Y-73453000D01*
X124231476Y-73223110D01*
X124186825Y-73075901D01*
X124061641Y-72813080D01*
X123887588Y-72579731D01*
X123671355Y-72384822D01*
X123554466Y-72315195D01*
X123736632Y-72193475D01*
X123943475Y-71986632D01*
X124105990Y-71743411D01*
X124217932Y-71473158D01*
X124275000Y-71186260D01*
X124275000Y-70893740D01*
X124217932Y-70606842D01*
X124105990Y-70336589D01*
X123943475Y-70093368D01*
X123736632Y-69886525D01*
X123675000Y-69845344D01*
X123675000Y-69694656D01*
X123736632Y-69653475D01*
X123943475Y-69446632D01*
X124105990Y-69203411D01*
X124217932Y-68933158D01*
X124275000Y-68646260D01*
X124275000Y-68353740D01*
X124217932Y-68066842D01*
X124105990Y-67796589D01*
X123943475Y-67553368D01*
X123736632Y-67346525D01*
X123493411Y-67184010D01*
X123223158Y-67072068D01*
X122936260Y-67015000D01*
X122643740Y-67015000D01*
X122356842Y-67072068D01*
X122086589Y-67184010D01*
X121843368Y-67346525D01*
X121711513Y-67478380D01*
X121689502Y-67405820D01*
X121630537Y-67295506D01*
X121551185Y-67198815D01*
X121454494Y-67119463D01*
X121344180Y-67060498D01*
X121224482Y-67024188D01*
X121100000Y-67011928D01*
X119400000Y-67011928D01*
X119275518Y-67024188D01*
X119155820Y-67060498D01*
X119045506Y-67119463D01*
X118948815Y-67198815D01*
X118869463Y-67295506D01*
X118810498Y-67405820D01*
X118774188Y-67525518D01*
X118761928Y-67650000D01*
X117960000Y-67650000D01*
X117960000Y-67632911D01*
X117924068Y-67452271D01*
X117853586Y-67282111D01*
X117751262Y-67128972D01*
X117621028Y-66998738D01*
X117467889Y-66896414D01*
X117297729Y-66825932D01*
X117117089Y-66790000D01*
X116932911Y-66790000D01*
X116752271Y-66825932D01*
X116582111Y-66896414D01*
X116428972Y-66998738D01*
X116298738Y-67128972D01*
X116196414Y-67282111D01*
X116125932Y-67452271D01*
X116090000Y-67632911D01*
X116090000Y-67817089D01*
X116125932Y-67997729D01*
X116196414Y-68167889D01*
X116265000Y-68270536D01*
X116265001Y-70535197D01*
X115935199Y-70865000D01*
X112564802Y-70865000D01*
X112448153Y-70748351D01*
X112424068Y-70627271D01*
X112353586Y-70457111D01*
X112323778Y-70412500D01*
X112353586Y-70367889D01*
X112424068Y-70197729D01*
X112460000Y-70017089D01*
X112460000Y-69832911D01*
X112424068Y-69652271D01*
X112353586Y-69482111D01*
X112340482Y-69462500D01*
X112353586Y-69442889D01*
X112424068Y-69272729D01*
X112460000Y-69092089D01*
X112460000Y-68907911D01*
X112424068Y-68727271D01*
X112353586Y-68557111D01*
X112251262Y-68403972D01*
X112121028Y-68273738D01*
X111967889Y-68171414D01*
X111797729Y-68100932D01*
X111676649Y-68076847D01*
X109822002Y-66222201D01*
X109822002Y-66103362D01*
X110004744Y-66228803D01*
X110043526Y-66224011D01*
X110259039Y-66134131D01*
X110452877Y-66003934D01*
X110617590Y-65838422D01*
X110746848Y-65643957D01*
X110835684Y-65428011D01*
X110880684Y-65198884D01*
X110725152Y-65012000D01*
X109822000Y-65012000D01*
X109822000Y-65032000D01*
X109568000Y-65032000D01*
X109568000Y-65012000D01*
X108664848Y-65012000D01*
X108509316Y-65198884D01*
X108554316Y-65428011D01*
X108643152Y-65643957D01*
X108772410Y-65838422D01*
X108781443Y-65847499D01*
X108229823Y-65847499D01*
X108192500Y-65843823D01*
X108155177Y-65847499D01*
X108155168Y-65847499D01*
X108043515Y-65858496D01*
X107983877Y-65876587D01*
X107871028Y-65763738D01*
X107717889Y-65661414D01*
X107547729Y-65590932D01*
X107367089Y-65555000D01*
X107182911Y-65555000D01*
X107002271Y-65590932D01*
X106832111Y-65661414D01*
X106678972Y-65763738D01*
X106548738Y-65893972D01*
X106446414Y-66047111D01*
X106375932Y-66217271D01*
X106340000Y-66397911D01*
X101660000Y-66397911D01*
X101660000Y-65198884D01*
X103669316Y-65198884D01*
X103714316Y-65428011D01*
X103803152Y-65643957D01*
X103932410Y-65838422D01*
X104097123Y-66003934D01*
X104290961Y-66134131D01*
X104506474Y-66224011D01*
X104545256Y-66228803D01*
X104728000Y-66103361D01*
X104728000Y-65012000D01*
X104982000Y-65012000D01*
X104982000Y-66103361D01*
X105164744Y-66228803D01*
X105203526Y-66224011D01*
X105419039Y-66134131D01*
X105612877Y-66003934D01*
X105777590Y-65838422D01*
X105906848Y-65643957D01*
X105995684Y-65428011D01*
X106040684Y-65198884D01*
X105885152Y-65012000D01*
X104982000Y-65012000D01*
X104728000Y-65012000D01*
X103824848Y-65012000D01*
X103669316Y-65198884D01*
X101660000Y-65198884D01*
X101660000Y-64571116D01*
X103669316Y-64571116D01*
X103824848Y-64758000D01*
X104728000Y-64758000D01*
X104728000Y-63666639D01*
X104982000Y-63666639D01*
X104982000Y-64758000D01*
X105885152Y-64758000D01*
X106040684Y-64571116D01*
X108509316Y-64571116D01*
X108664848Y-64758000D01*
X109568000Y-64758000D01*
X109568000Y-63666639D01*
X109822000Y-63666639D01*
X109822000Y-64758000D01*
X110725152Y-64758000D01*
X110880684Y-64571116D01*
X110835684Y-64341989D01*
X110746848Y-64126043D01*
X110617590Y-63931578D01*
X110452877Y-63766066D01*
X110259039Y-63635869D01*
X110043526Y-63545989D01*
X110004744Y-63541197D01*
X109822000Y-63666639D01*
X109568000Y-63666639D01*
X109385256Y-63541197D01*
X109346474Y-63545989D01*
X109130961Y-63635869D01*
X108937123Y-63766066D01*
X108772410Y-63931578D01*
X108643152Y-64126043D01*
X108554316Y-64341989D01*
X108509316Y-64571116D01*
X106040684Y-64571116D01*
X105995684Y-64341989D01*
X105906848Y-64126043D01*
X105777590Y-63931578D01*
X105612877Y-63766066D01*
X105419039Y-63635869D01*
X105203526Y-63545989D01*
X105164744Y-63541197D01*
X104982000Y-63666639D01*
X104728000Y-63666639D01*
X104545256Y-63541197D01*
X104506474Y-63545989D01*
X104290961Y-63635869D01*
X104097123Y-63766066D01*
X103932410Y-63931578D01*
X103803152Y-64126043D01*
X103714316Y-64341989D01*
X103669316Y-64571116D01*
X101660000Y-64571116D01*
X101660000Y-62217884D01*
X103241325Y-62217884D01*
X103297176Y-62469185D01*
X103400981Y-62704761D01*
X103548750Y-62915559D01*
X103734804Y-63093478D01*
X103951993Y-63231681D01*
X104191971Y-63324857D01*
X104215600Y-63327910D01*
X104418000Y-63204224D01*
X104418000Y-62012000D01*
X104672000Y-62012000D01*
X104672000Y-63204224D01*
X104874400Y-63327910D01*
X104898029Y-63324857D01*
X105138007Y-63231681D01*
X105355196Y-63093478D01*
X105541250Y-62915559D01*
X105689019Y-62704761D01*
X105792824Y-62469185D01*
X105848675Y-62217884D01*
X108701325Y-62217884D01*
X108757176Y-62469185D01*
X108860981Y-62704761D01*
X109008750Y-62915559D01*
X109194804Y-63093478D01*
X109411993Y-63231681D01*
X109651971Y-63324857D01*
X109675600Y-63327910D01*
X109878000Y-63204224D01*
X109878000Y-62012000D01*
X110132000Y-62012000D01*
X110132000Y-63204224D01*
X110334400Y-63327910D01*
X110358029Y-63324857D01*
X110410472Y-63304495D01*
X119515000Y-63304495D01*
X119515000Y-63695505D01*
X119591282Y-64079003D01*
X119740915Y-64440250D01*
X119958149Y-64765364D01*
X120234636Y-65041851D01*
X120559750Y-65259085D01*
X120920997Y-65408718D01*
X121304495Y-65485000D01*
X121695505Y-65485000D01*
X122079003Y-65408718D01*
X122440250Y-65259085D01*
X122765364Y-65041851D01*
X123041851Y-64765364D01*
X123259085Y-64440250D01*
X123408718Y-64079003D01*
X123485000Y-63695505D01*
X123485000Y-63304495D01*
X123408718Y-62920997D01*
X123259085Y-62559750D01*
X123041851Y-62234636D01*
X122765364Y-61958149D01*
X122440250Y-61740915D01*
X122079003Y-61591282D01*
X121695505Y-61515000D01*
X121304495Y-61515000D01*
X120920997Y-61591282D01*
X120559750Y-61740915D01*
X120234636Y-61958149D01*
X119958149Y-62234636D01*
X119740915Y-62559750D01*
X119591282Y-62920997D01*
X119515000Y-63304495D01*
X110410472Y-63304495D01*
X110598007Y-63231681D01*
X110815196Y-63093478D01*
X111001250Y-62915559D01*
X111149019Y-62704761D01*
X111252824Y-62469185D01*
X111308675Y-62217884D01*
X111158573Y-62012000D01*
X110132000Y-62012000D01*
X109878000Y-62012000D01*
X108851427Y-62012000D01*
X108701325Y-62217884D01*
X105848675Y-62217884D01*
X105698573Y-62012000D01*
X104672000Y-62012000D01*
X104418000Y-62012000D01*
X103391427Y-62012000D01*
X103241325Y-62217884D01*
X101660000Y-62217884D01*
X101660000Y-61032279D01*
X101669580Y-60934576D01*
X101688580Y-60871644D01*
X101719445Y-60813595D01*
X101760989Y-60762657D01*
X101811644Y-60720752D01*
X101869471Y-60689485D01*
X101932272Y-60670044D01*
X102027835Y-60660000D01*
X103760769Y-60660000D01*
X103734804Y-60676522D01*
%TA.AperFunction,Conductor*%
D19*
G36*
X103734804Y-60676522D02*
G01*
X103548750Y-60854441D01*
X103400981Y-61065239D01*
X103297176Y-61300815D01*
X103241325Y-61552116D01*
X103391427Y-61758000D01*
X104418000Y-61758000D01*
X104418000Y-61738000D01*
X104672000Y-61738000D01*
X104672000Y-61758000D01*
X105698573Y-61758000D01*
X105848675Y-61552116D01*
X105792824Y-61300815D01*
X105689019Y-61065239D01*
X105541250Y-60854441D01*
X105355196Y-60676522D01*
X105329231Y-60660000D01*
X109220769Y-60660000D01*
X109194804Y-60676522D01*
X109008750Y-60854441D01*
X108860981Y-61065239D01*
X108757176Y-61300815D01*
X108701325Y-61552116D01*
X108851427Y-61758000D01*
X109878000Y-61758000D01*
X109878000Y-61738000D01*
X110132000Y-61738000D01*
X110132000Y-61758000D01*
X111158573Y-61758000D01*
X111308675Y-61552116D01*
X111252824Y-61300815D01*
X111149019Y-61065239D01*
X111001250Y-60854441D01*
X110815196Y-60676522D01*
X110789231Y-60660000D01*
X123967721Y-60660000D01*
X124065424Y-60669580D01*
X124128356Y-60688580D01*
X124186405Y-60719445D01*
X124237343Y-60760989D01*
X124279248Y-60811644D01*
X124310515Y-60869471D01*
X124329956Y-60932272D01*
X124340000Y-61027835D01*
X124340001Y-80967711D01*
X124330420Y-81065424D01*
X124311420Y-81128357D01*
X124280554Y-81186406D01*
X124239011Y-81237343D01*
X124188356Y-81279248D01*
X124130529Y-81310515D01*
X124067728Y-81329956D01*
X123972165Y-81340000D01*
X102032279Y-81340000D01*
X101934576Y-81330420D01*
X101871643Y-81311420D01*
X101813594Y-81280554D01*
X101762657Y-81239011D01*
X101720752Y-81188356D01*
X101689485Y-81130529D01*
X101670044Y-81067728D01*
X101660000Y-80972165D01*
X101660000Y-73648061D01*
X103965000Y-73648061D01*
X103965000Y-73851939D01*
X104004774Y-74051898D01*
X104082795Y-74240256D01*
X104196063Y-74409774D01*
X104340226Y-74553937D01*
X104509744Y-74667205D01*
X104698102Y-74745226D01*
X104898061Y-74785000D01*
X105101939Y-74785000D01*
X105301898Y-74745226D01*
X105490256Y-74667205D01*
X105659774Y-74553937D01*
X105803937Y-74409774D01*
X105917205Y-74240256D01*
X105995226Y-74051898D01*
X106035000Y-73851939D01*
X106035000Y-73648061D01*
X105995226Y-73448102D01*
X105917205Y-73259744D01*
X105842582Y-73148061D01*
X106715000Y-73148061D01*
X106715000Y-73351939D01*
X106754774Y-73551898D01*
X106832795Y-73740256D01*
X106946063Y-73909774D01*
X107090226Y-74053937D01*
X107196580Y-74125000D01*
X107090226Y-74196063D01*
X106946063Y-74340226D01*
X106832795Y-74509744D01*
X106754774Y-74698102D01*
X106715000Y-74898061D01*
X106715000Y-75101939D01*
X106754774Y-75301898D01*
X106832795Y-75490256D01*
X106865000Y-75538455D01*
X106865001Y-78861544D01*
X106832795Y-78909744D01*
X106754774Y-79098102D01*
X106715000Y-79298061D01*
X106715000Y-79501939D01*
X106754774Y-79701898D01*
X106832795Y-79890256D01*
X106946063Y-80059774D01*
X107090226Y-80203937D01*
X107259744Y-80317205D01*
X107448102Y-80395226D01*
X107648061Y-80435000D01*
X107851939Y-80435000D01*
X108051898Y-80395226D01*
X108240256Y-80317205D01*
X108409774Y-80203937D01*
X108553937Y-80059774D01*
X108667205Y-79890256D01*
X108745226Y-79701898D01*
X108785000Y-79501939D01*
X108785000Y-79298061D01*
X108745226Y-79098102D01*
X108711587Y-79016890D01*
X118808524Y-79016890D01*
X118853175Y-79164099D01*
X118978359Y-79426920D01*
X119152412Y-79660269D01*
X119368645Y-79855178D01*
X119618748Y-80004157D01*
X119893109Y-80101481D01*
X120123000Y-79980814D01*
X120123000Y-78787000D01*
X118929845Y-78787000D01*
X118808524Y-79016890D01*
X108711587Y-79016890D01*
X108667205Y-78909744D01*
X108635000Y-78861546D01*
X108635000Y-75538454D01*
X108667205Y-75490256D01*
X108745226Y-75301898D01*
X108785000Y-75101939D01*
X108785000Y-74898061D01*
X108745226Y-74698102D01*
X108667205Y-74509744D01*
X108553937Y-74340226D01*
X108409774Y-74196063D01*
X108303420Y-74125000D01*
X108409774Y-74053937D01*
X108553937Y-73909774D01*
X108667205Y-73740256D01*
X108705393Y-73648061D01*
X109465000Y-73648061D01*
X109465000Y-73851939D01*
X109504774Y-74051898D01*
X109582795Y-74240256D01*
X109696063Y-74409774D01*
X109840226Y-74553937D01*
X110009744Y-74667205D01*
X110198102Y-74745226D01*
X110398061Y-74785000D01*
X110601939Y-74785000D01*
X110801898Y-74745226D01*
X110990256Y-74667205D01*
X111038454Y-74635000D01*
X111608422Y-74635000D01*
X112243465Y-75270044D01*
X112254774Y-75326898D01*
X112332795Y-75515256D01*
X112446063Y-75684774D01*
X112590226Y-75828937D01*
X112759744Y-75942205D01*
X112948102Y-76020226D01*
X113148061Y-76060000D01*
X113351939Y-76060000D01*
X113551898Y-76020226D01*
X113740256Y-75942205D01*
X113909774Y-75828937D01*
X114053937Y-75684774D01*
X114167205Y-75515256D01*
X114245226Y-75326898D01*
X114285000Y-75126939D01*
X114285000Y-74923061D01*
X114245226Y-74723102D01*
X114167205Y-74534744D01*
X114053937Y-74365226D01*
X113909774Y-74221063D01*
X113740256Y-74107795D01*
X113551898Y-74029774D01*
X113495044Y-74018465D01*
X112631534Y-73154956D01*
X112603817Y-73121183D01*
X112469059Y-73010589D01*
X112315313Y-72928411D01*
X112148490Y-72877805D01*
X112018477Y-72865000D01*
X112018469Y-72865000D01*
X111975000Y-72860719D01*
X111931531Y-72865000D01*
X111038454Y-72865000D01*
X110990256Y-72832795D01*
X110801898Y-72754774D01*
X110601939Y-72715000D01*
X110398061Y-72715000D01*
X110198102Y-72754774D01*
X110009744Y-72832795D01*
X109840226Y-72946063D01*
X109696063Y-73090226D01*
X109582795Y-73259744D01*
X109504774Y-73448102D01*
X109465000Y-73648061D01*
X108705393Y-73648061D01*
X108745226Y-73551898D01*
X108785000Y-73351939D01*
X108785000Y-73148061D01*
X108745226Y-72948102D01*
X108667205Y-72759744D01*
X108553937Y-72590226D01*
X108409774Y-72446063D01*
X108240256Y-72332795D01*
X108051898Y-72254774D01*
X107851939Y-72215000D01*
X107648061Y-72215000D01*
X107448102Y-72254774D01*
X107259744Y-72332795D01*
X107090226Y-72446063D01*
X106946063Y-72590226D01*
X106832795Y-72759744D01*
X106754774Y-72948102D01*
X106715000Y-73148061D01*
X105842582Y-73148061D01*
X105803937Y-73090226D01*
X105659774Y-72946063D01*
X105490256Y-72832795D01*
X105301898Y-72754774D01*
X105101939Y-72715000D01*
X104898061Y-72715000D01*
X104698102Y-72754774D01*
X104509744Y-72832795D01*
X104340226Y-72946063D01*
X104196063Y-73090226D01*
X104082795Y-73259744D01*
X104004774Y-73448102D01*
X103965000Y-73648061D01*
X101660000Y-73648061D01*
X101660000Y-66397911D01*
X106340000Y-66397911D01*
X106340000Y-66582089D01*
X106375932Y-66762729D01*
X106446414Y-66932889D01*
X106496267Y-67007500D01*
X106446414Y-67082111D01*
X106375932Y-67252271D01*
X106340000Y-67432911D01*
X106340000Y-67617089D01*
X106375932Y-67797729D01*
X106446414Y-67967889D01*
X106548738Y-68121028D01*
X106678972Y-68251262D01*
X106832111Y-68353586D01*
X107002271Y-68424068D01*
X107182911Y-68460000D01*
X107367089Y-68460000D01*
X107547729Y-68424068D01*
X107717889Y-68353586D01*
X107815000Y-68288699D01*
X107815000Y-68342089D01*
X107850932Y-68522729D01*
X107921414Y-68692889D01*
X108023738Y-68846028D01*
X108153972Y-68976262D01*
X108307111Y-69078586D01*
X108477271Y-69149068D01*
X108657911Y-69185000D01*
X108842089Y-69185000D01*
X109022729Y-69149068D01*
X109192889Y-69078586D01*
X109295535Y-69010000D01*
X109535199Y-69010000D01*
X110601847Y-70076649D01*
X110625932Y-70197729D01*
X110696414Y-70367889D01*
X110726222Y-70412500D01*
X110696414Y-70457111D01*
X110625932Y-70627271D01*
X110590000Y-70807911D01*
X110590000Y-70992089D01*
X110625932Y-71172729D01*
X110696414Y-71342889D01*
X110798738Y-71496028D01*
X110928972Y-71626262D01*
X111082111Y-71728586D01*
X111252271Y-71799068D01*
X111373351Y-71823153D01*
X111686201Y-72136002D01*
X111709999Y-72165001D01*
X111825724Y-72259974D01*
X111957753Y-72330546D01*
X112101014Y-72374003D01*
X112212667Y-72385000D01*
X112212677Y-72385000D01*
X112250000Y-72388676D01*
X112287323Y-72385000D01*
X116212678Y-72385000D01*
X116250000Y-72388676D01*
X116287322Y-72385000D01*
X116287333Y-72385000D01*
X116398986Y-72374003D01*
X116542247Y-72330546D01*
X116674276Y-72259974D01*
X116790001Y-72165001D01*
X116813803Y-72135998D01*
X117536002Y-71413799D01*
X117565001Y-71390001D01*
X117659974Y-71274276D01*
X117730546Y-71142247D01*
X117774003Y-70998986D01*
X117785000Y-70887333D01*
X117788677Y-70850000D01*
X117785000Y-70812667D01*
X117785000Y-68270535D01*
X117853586Y-68167889D01*
X117924068Y-67997729D01*
X117960000Y-67817089D01*
X117960000Y-67650000D01*
X118761928Y-67650000D01*
X118761928Y-69350000D01*
X118774188Y-69474482D01*
X118810498Y-69594180D01*
X118869463Y-69704494D01*
X118948815Y-69801185D01*
X119045506Y-69880537D01*
X119155820Y-69939502D01*
X119228380Y-69961513D01*
X119096525Y-70093368D01*
X118934010Y-70336589D01*
X118822068Y-70606842D01*
X118765000Y-70893740D01*
X118765000Y-71186260D01*
X118822068Y-71473158D01*
X118934010Y-71743411D01*
X119096525Y-71986632D01*
X119303368Y-72193475D01*
X119477760Y-72310000D01*
X119303368Y-72426525D01*
X119096525Y-72633368D01*
X118934010Y-72876589D01*
X118822068Y-73146842D01*
X118765000Y-73433740D01*
X118765000Y-73726260D01*
X118822068Y-74013158D01*
X118934010Y-74283411D01*
X119096525Y-74526632D01*
X119303368Y-74733475D01*
X119477760Y-74850000D01*
X119303368Y-74966525D01*
X119096525Y-75173368D01*
X118934010Y-75416589D01*
X118822068Y-75686842D01*
X118765000Y-75973740D01*
X118765000Y-76266260D01*
X118822068Y-76553158D01*
X118934010Y-76823411D01*
X119096525Y-77066632D01*
X119303368Y-77273475D01*
X119485534Y-77395195D01*
X119368645Y-77464822D01*
X119152412Y-77659731D01*
X118978359Y-77893080D01*
X118853175Y-78155901D01*
X118808524Y-78303110D01*
X118929845Y-78533000D01*
X120123000Y-78533000D01*
X120123000Y-78513000D01*
X120377000Y-78513000D01*
X120377000Y-78533000D01*
X120397000Y-78533000D01*
X120397000Y-78787000D01*
X120377000Y-78787000D01*
X120377000Y-79980814D01*
X120606891Y-80101481D01*
X120881252Y-80004157D01*
X121131355Y-79855178D01*
X121347588Y-79660269D01*
X121518900Y-79430594D01*
X121636525Y-79606632D01*
X121843368Y-79813475D01*
X122086589Y-79975990D01*
X122356842Y-80087932D01*
X122643740Y-80145000D01*
X122936260Y-80145000D01*
X123223158Y-80087932D01*
X123493411Y-79975990D01*
X123736632Y-79813475D01*
X123943475Y-79606632D01*
X124105990Y-79363411D01*
X124217932Y-79093158D01*
X124275000Y-78806260D01*
X124275000Y-78513740D01*
X124217932Y-78226842D01*
X124105990Y-77956589D01*
X123943475Y-77713368D01*
X123736632Y-77506525D01*
X123562240Y-77390000D01*
X123736632Y-77273475D01*
X123943475Y-77066632D01*
X124105990Y-76823411D01*
X124217932Y-76553158D01*
X124275000Y-76266260D01*
X124275000Y-75973740D01*
X124217932Y-75686842D01*
X124105990Y-75416589D01*
X123943475Y-75173368D01*
X123736632Y-74966525D01*
X123554466Y-74844805D01*
X123671355Y-74775178D01*
X123887588Y-74580269D01*
X124061641Y-74346920D01*
X124186825Y-74084099D01*
X124231476Y-73936890D01*
X124110155Y-73707000D01*
X122917000Y-73707000D01*
X122917000Y-73727000D01*
X122663000Y-73727000D01*
X122663000Y-73707000D01*
X122643000Y-73707000D01*
X122643000Y-73453000D01*
X122663000Y-73453000D01*
X122663000Y-73433000D01*
X122917000Y-73433000D01*
X122917000Y-73453000D01*
X124110155Y-73453000D01*
X124231476Y-73223110D01*
X124186825Y-73075901D01*
X124061641Y-72813080D01*
X123887588Y-72579731D01*
X123671355Y-72384822D01*
X123554466Y-72315195D01*
X123736632Y-72193475D01*
X123943475Y-71986632D01*
X124105990Y-71743411D01*
X124217932Y-71473158D01*
X124275000Y-71186260D01*
X124275000Y-70893740D01*
X124217932Y-70606842D01*
X124105990Y-70336589D01*
X123943475Y-70093368D01*
X123736632Y-69886525D01*
X123675000Y-69845344D01*
X123675000Y-69694656D01*
X123736632Y-69653475D01*
X123943475Y-69446632D01*
X124105990Y-69203411D01*
X124217932Y-68933158D01*
X124275000Y-68646260D01*
X124275000Y-68353740D01*
X124217932Y-68066842D01*
X124105990Y-67796589D01*
X123943475Y-67553368D01*
X123736632Y-67346525D01*
X123493411Y-67184010D01*
X123223158Y-67072068D01*
X122936260Y-67015000D01*
X122643740Y-67015000D01*
X122356842Y-67072068D01*
X122086589Y-67184010D01*
X121843368Y-67346525D01*
X121711513Y-67478380D01*
X121689502Y-67405820D01*
X121630537Y-67295506D01*
X121551185Y-67198815D01*
X121454494Y-67119463D01*
X121344180Y-67060498D01*
X121224482Y-67024188D01*
X121100000Y-67011928D01*
X119400000Y-67011928D01*
X119275518Y-67024188D01*
X119155820Y-67060498D01*
X119045506Y-67119463D01*
X118948815Y-67198815D01*
X118869463Y-67295506D01*
X118810498Y-67405820D01*
X118774188Y-67525518D01*
X118761928Y-67650000D01*
X117960000Y-67650000D01*
X117960000Y-67632911D01*
X117924068Y-67452271D01*
X117853586Y-67282111D01*
X117751262Y-67128972D01*
X117621028Y-66998738D01*
X117467889Y-66896414D01*
X117297729Y-66825932D01*
X117117089Y-66790000D01*
X116932911Y-66790000D01*
X116752271Y-66825932D01*
X116582111Y-66896414D01*
X116428972Y-66998738D01*
X116298738Y-67128972D01*
X116196414Y-67282111D01*
X116125932Y-67452271D01*
X116090000Y-67632911D01*
X116090000Y-67817089D01*
X116125932Y-67997729D01*
X116196414Y-68167889D01*
X116265000Y-68270536D01*
X116265001Y-70535197D01*
X115935199Y-70865000D01*
X112564802Y-70865000D01*
X112448153Y-70748351D01*
X112424068Y-70627271D01*
X112353586Y-70457111D01*
X112323778Y-70412500D01*
X112353586Y-70367889D01*
X112424068Y-70197729D01*
X112460000Y-70017089D01*
X112460000Y-69832911D01*
X112424068Y-69652271D01*
X112353586Y-69482111D01*
X112340482Y-69462500D01*
X112353586Y-69442889D01*
X112424068Y-69272729D01*
X112460000Y-69092089D01*
X112460000Y-68907911D01*
X112424068Y-68727271D01*
X112353586Y-68557111D01*
X112251262Y-68403972D01*
X112121028Y-68273738D01*
X111967889Y-68171414D01*
X111797729Y-68100932D01*
X111676649Y-68076847D01*
X109822002Y-66222201D01*
X109822002Y-66103362D01*
X110004744Y-66228803D01*
X110043526Y-66224011D01*
X110259039Y-66134131D01*
X110452877Y-66003934D01*
X110617590Y-65838422D01*
X110746848Y-65643957D01*
X110835684Y-65428011D01*
X110880684Y-65198884D01*
X110725152Y-65012000D01*
X109822000Y-65012000D01*
X109822000Y-65032000D01*
X109568000Y-65032000D01*
X109568000Y-65012000D01*
X108664848Y-65012000D01*
X108509316Y-65198884D01*
X108554316Y-65428011D01*
X108643152Y-65643957D01*
X108772410Y-65838422D01*
X108781443Y-65847499D01*
X108229823Y-65847499D01*
X108192500Y-65843823D01*
X108155177Y-65847499D01*
X108155168Y-65847499D01*
X108043515Y-65858496D01*
X107983877Y-65876587D01*
X107871028Y-65763738D01*
X107717889Y-65661414D01*
X107547729Y-65590932D01*
X107367089Y-65555000D01*
X107182911Y-65555000D01*
X107002271Y-65590932D01*
X106832111Y-65661414D01*
X106678972Y-65763738D01*
X106548738Y-65893972D01*
X106446414Y-66047111D01*
X106375932Y-66217271D01*
X106340000Y-66397911D01*
X101660000Y-66397911D01*
X101660000Y-65198884D01*
X103669316Y-65198884D01*
X103714316Y-65428011D01*
X103803152Y-65643957D01*
X103932410Y-65838422D01*
X104097123Y-66003934D01*
X104290961Y-66134131D01*
X104506474Y-66224011D01*
X104545256Y-66228803D01*
X104728000Y-66103361D01*
X104728000Y-65012000D01*
X104982000Y-65012000D01*
X104982000Y-66103361D01*
X105164744Y-66228803D01*
X105203526Y-66224011D01*
X105419039Y-66134131D01*
X105612877Y-66003934D01*
X105777590Y-65838422D01*
X105906848Y-65643957D01*
X105995684Y-65428011D01*
X106040684Y-65198884D01*
X105885152Y-65012000D01*
X104982000Y-65012000D01*
X104728000Y-65012000D01*
X103824848Y-65012000D01*
X103669316Y-65198884D01*
X101660000Y-65198884D01*
X101660000Y-64571116D01*
X103669316Y-64571116D01*
X103824848Y-64758000D01*
X104728000Y-64758000D01*
X104728000Y-63666639D01*
X104982000Y-63666639D01*
X104982000Y-64758000D01*
X105885152Y-64758000D01*
X106040684Y-64571116D01*
X108509316Y-64571116D01*
X108664848Y-64758000D01*
X109568000Y-64758000D01*
X109568000Y-63666639D01*
X109822000Y-63666639D01*
X109822000Y-64758000D01*
X110725152Y-64758000D01*
X110880684Y-64571116D01*
X110835684Y-64341989D01*
X110746848Y-64126043D01*
X110617590Y-63931578D01*
X110452877Y-63766066D01*
X110259039Y-63635869D01*
X110043526Y-63545989D01*
X110004744Y-63541197D01*
X109822000Y-63666639D01*
X109568000Y-63666639D01*
X109385256Y-63541197D01*
X109346474Y-63545989D01*
X109130961Y-63635869D01*
X108937123Y-63766066D01*
X108772410Y-63931578D01*
X108643152Y-64126043D01*
X108554316Y-64341989D01*
X108509316Y-64571116D01*
X106040684Y-64571116D01*
X105995684Y-64341989D01*
X105906848Y-64126043D01*
X105777590Y-63931578D01*
X105612877Y-63766066D01*
X105419039Y-63635869D01*
X105203526Y-63545989D01*
X105164744Y-63541197D01*
X104982000Y-63666639D01*
X104728000Y-63666639D01*
X104545256Y-63541197D01*
X104506474Y-63545989D01*
X104290961Y-63635869D01*
X104097123Y-63766066D01*
X103932410Y-63931578D01*
X103803152Y-64126043D01*
X103714316Y-64341989D01*
X103669316Y-64571116D01*
X101660000Y-64571116D01*
X101660000Y-62217884D01*
X103241325Y-62217884D01*
X103297176Y-62469185D01*
X103400981Y-62704761D01*
X103548750Y-62915559D01*
X103734804Y-63093478D01*
X103951993Y-63231681D01*
X104191971Y-63324857D01*
X104215600Y-63327910D01*
X104418000Y-63204224D01*
X104418000Y-62012000D01*
X104672000Y-62012000D01*
X104672000Y-63204224D01*
X104874400Y-63327910D01*
X104898029Y-63324857D01*
X105138007Y-63231681D01*
X105355196Y-63093478D01*
X105541250Y-62915559D01*
X105689019Y-62704761D01*
X105792824Y-62469185D01*
X105848675Y-62217884D01*
X108701325Y-62217884D01*
X108757176Y-62469185D01*
X108860981Y-62704761D01*
X109008750Y-62915559D01*
X109194804Y-63093478D01*
X109411993Y-63231681D01*
X109651971Y-63324857D01*
X109675600Y-63327910D01*
X109878000Y-63204224D01*
X109878000Y-62012000D01*
X110132000Y-62012000D01*
X110132000Y-63204224D01*
X110334400Y-63327910D01*
X110358029Y-63324857D01*
X110410472Y-63304495D01*
X119515000Y-63304495D01*
X119515000Y-63695505D01*
X119591282Y-64079003D01*
X119740915Y-64440250D01*
X119958149Y-64765364D01*
X120234636Y-65041851D01*
X120559750Y-65259085D01*
X120920997Y-65408718D01*
X121304495Y-65485000D01*
X121695505Y-65485000D01*
X122079003Y-65408718D01*
X122440250Y-65259085D01*
X122765364Y-65041851D01*
X123041851Y-64765364D01*
X123259085Y-64440250D01*
X123408718Y-64079003D01*
X123485000Y-63695505D01*
X123485000Y-63304495D01*
X123408718Y-62920997D01*
X123259085Y-62559750D01*
X123041851Y-62234636D01*
X122765364Y-61958149D01*
X122440250Y-61740915D01*
X122079003Y-61591282D01*
X121695505Y-61515000D01*
X121304495Y-61515000D01*
X120920997Y-61591282D01*
X120559750Y-61740915D01*
X120234636Y-61958149D01*
X119958149Y-62234636D01*
X119740915Y-62559750D01*
X119591282Y-62920997D01*
X119515000Y-63304495D01*
X110410472Y-63304495D01*
X110598007Y-63231681D01*
X110815196Y-63093478D01*
X111001250Y-62915559D01*
X111149019Y-62704761D01*
X111252824Y-62469185D01*
X111308675Y-62217884D01*
X111158573Y-62012000D01*
X110132000Y-62012000D01*
X109878000Y-62012000D01*
X108851427Y-62012000D01*
X108701325Y-62217884D01*
X105848675Y-62217884D01*
X105698573Y-62012000D01*
X104672000Y-62012000D01*
X104418000Y-62012000D01*
X103391427Y-62012000D01*
X103241325Y-62217884D01*
X101660000Y-62217884D01*
X101660000Y-61032279D01*
X101669580Y-60934576D01*
X101688580Y-60871644D01*
X101719445Y-60813595D01*
X101760989Y-60762657D01*
X101811644Y-60720752D01*
X101869471Y-60689485D01*
X101932272Y-60670044D01*
X102027835Y-60660000D01*
X103760769Y-60660000D01*
X103734804Y-60676522D01*
G37*
%TD.AperFunction*%
D18*
X121636525Y-77066632D02*
X121843368Y-77273475D01*
X122017760Y-77390000D01*
X121843368Y-77506525D01*
X121636525Y-77713368D01*
X121518900Y-77889406D01*
X121347588Y-77659731D01*
X121131355Y-77464822D01*
X121014466Y-77395195D01*
X121196632Y-77273475D01*
X121403475Y-77066632D01*
X121520000Y-76892240D01*
X121636525Y-77066632D01*
%TA.AperFunction,Conductor*%
D19*
G36*
X121636525Y-77066632D02*
G01*
X121843368Y-77273475D01*
X122017760Y-77390000D01*
X121843368Y-77506525D01*
X121636525Y-77713368D01*
X121518900Y-77889406D01*
X121347588Y-77659731D01*
X121131355Y-77464822D01*
X121014466Y-77395195D01*
X121196632Y-77273475D01*
X121403475Y-77066632D01*
X121520000Y-76892240D01*
X121636525Y-77066632D01*
G37*
%TD.AperFunction*%
D18*
X121692412Y-74580269D02*
X121908645Y-74775178D01*
X122025534Y-74844805D01*
X121843368Y-74966525D01*
X121636525Y-75173368D01*
X121520000Y-75347760D01*
X121403475Y-75173368D01*
X121196632Y-74966525D01*
X121022240Y-74850000D01*
X121196632Y-74733475D01*
X121403475Y-74526632D01*
X121521100Y-74350594D01*
X121692412Y-74580269D01*
%TA.AperFunction,Conductor*%
D19*
G36*
X121692412Y-74580269D02*
G01*
X121908645Y-74775178D01*
X122025534Y-74844805D01*
X121843368Y-74966525D01*
X121636525Y-75173368D01*
X121520000Y-75347760D01*
X121403475Y-75173368D01*
X121196632Y-74966525D01*
X121022240Y-74850000D01*
X121196632Y-74733475D01*
X121403475Y-74526632D01*
X121521100Y-74350594D01*
X121692412Y-74580269D01*
G37*
%TD.AperFunction*%
%TD*%
M02*
