%TF.GenerationSoftware,KiCad,Pcbnew,5.1.8*%
%TF.CreationDate,2021-01-10T17:00:31+09:00*%
%TF.ProjectId,rasp_usb,72617370-5f75-4736-922e-6b696361645f,rev?*%
%TF.SameCoordinates,Original*%
%TF.FileFunction,Paste,Top*%
%TF.FilePolarity,Positive*%
%FSLAX46Y46*%
G04 Gerber Fmt 4.6, Leading zero omitted, Abs format (unit mm)*
G04 Created by KiCad (PCBNEW 5.1.8) date 2021-01-10 17:00:31*
%MOMM*%
%LPD*%
G01*
G04 APERTURE LIST*
%ADD10R,3.800000X2.000000*%
%ADD11R,1.500000X2.000000*%
%ADD12R,0.900000X1.200000*%
%ADD13R,1.800000X1.900000*%
%ADD14R,2.300000X1.900000*%
%ADD15R,0.400000X1.400000*%
G04 APERTURE END LIST*
D10*
%TO.C,U1*%
X114000000Y-72600000D03*
D11*
X114000000Y-78900000D03*
X116300000Y-78900000D03*
X111700000Y-78900000D03*
%TD*%
%TO.C,C4*%
G36*
G01*
X110800000Y-67080000D02*
X110800000Y-67420000D01*
G75*
G02*
X110660000Y-67560000I-140000J0D01*
G01*
X110380000Y-67560000D01*
G75*
G02*
X110240000Y-67420000I0J140000D01*
G01*
X110240000Y-67080000D01*
G75*
G02*
X110380000Y-66940000I140000J0D01*
G01*
X110660000Y-66940000D01*
G75*
G02*
X110800000Y-67080000I0J-140000D01*
G01*
G37*
G36*
G01*
X111760000Y-67080000D02*
X111760000Y-67420000D01*
G75*
G02*
X111620000Y-67560000I-140000J0D01*
G01*
X111340000Y-67560000D01*
G75*
G02*
X111200000Y-67420000I0J140000D01*
G01*
X111200000Y-67080000D01*
G75*
G02*
X111340000Y-66940000I140000J0D01*
G01*
X111620000Y-66940000D01*
G75*
G02*
X111760000Y-67080000I0J-140000D01*
G01*
G37*
%TD*%
%TO.C,C5*%
G36*
G01*
X109350000Y-75175000D02*
X109850000Y-75175000D01*
G75*
G02*
X110075000Y-75400000I0J-225000D01*
G01*
X110075000Y-75850000D01*
G75*
G02*
X109850000Y-76075000I-225000J0D01*
G01*
X109350000Y-76075000D01*
G75*
G02*
X109125000Y-75850000I0J225000D01*
G01*
X109125000Y-75400000D01*
G75*
G02*
X109350000Y-75175000I225000J0D01*
G01*
G37*
G36*
G01*
X109350000Y-76725000D02*
X109850000Y-76725000D01*
G75*
G02*
X110075000Y-76950000I0J-225000D01*
G01*
X110075000Y-77400000D01*
G75*
G02*
X109850000Y-77625000I-225000J0D01*
G01*
X109350000Y-77625000D01*
G75*
G02*
X109125000Y-77400000I0J225000D01*
G01*
X109125000Y-76950000D01*
G75*
G02*
X109350000Y-76725000I225000J0D01*
G01*
G37*
%TD*%
%TO.C,C6*%
G36*
G01*
X111760000Y-68080000D02*
X111760000Y-68420000D01*
G75*
G02*
X111620000Y-68560000I-140000J0D01*
G01*
X111340000Y-68560000D01*
G75*
G02*
X111200000Y-68420000I0J140000D01*
G01*
X111200000Y-68080000D01*
G75*
G02*
X111340000Y-67940000I140000J0D01*
G01*
X111620000Y-67940000D01*
G75*
G02*
X111760000Y-68080000I0J-140000D01*
G01*
G37*
G36*
G01*
X110800000Y-68080000D02*
X110800000Y-68420000D01*
G75*
G02*
X110660000Y-68560000I-140000J0D01*
G01*
X110380000Y-68560000D01*
G75*
G02*
X110240000Y-68420000I0J140000D01*
G01*
X110240000Y-68080000D01*
G75*
G02*
X110380000Y-67940000I140000J0D01*
G01*
X110660000Y-67940000D01*
G75*
G02*
X110800000Y-68080000I0J-140000D01*
G01*
G37*
%TD*%
%TO.C,C8*%
G36*
G01*
X109850000Y-79125000D02*
X109350000Y-79125000D01*
G75*
G02*
X109125000Y-78900000I0J225000D01*
G01*
X109125000Y-78450000D01*
G75*
G02*
X109350000Y-78225000I225000J0D01*
G01*
X109850000Y-78225000D01*
G75*
G02*
X110075000Y-78450000I0J-225000D01*
G01*
X110075000Y-78900000D01*
G75*
G02*
X109850000Y-79125000I-225000J0D01*
G01*
G37*
G36*
G01*
X109850000Y-80675000D02*
X109350000Y-80675000D01*
G75*
G02*
X109125000Y-80450000I0J225000D01*
G01*
X109125000Y-80000000D01*
G75*
G02*
X109350000Y-79775000I225000J0D01*
G01*
X109850000Y-79775000D01*
G75*
G02*
X110075000Y-80000000I0J-225000D01*
G01*
X110075000Y-80450000D01*
G75*
G02*
X109850000Y-80675000I-225000J0D01*
G01*
G37*
%TD*%
%TO.C,FB1*%
G36*
G01*
X114525000Y-70756250D02*
X114525000Y-70243750D01*
G75*
G02*
X114743750Y-70025000I218750J0D01*
G01*
X115181250Y-70025000D01*
G75*
G02*
X115400000Y-70243750I0J-218750D01*
G01*
X115400000Y-70756250D01*
G75*
G02*
X115181250Y-70975000I-218750J0D01*
G01*
X114743750Y-70975000D01*
G75*
G02*
X114525000Y-70756250I0J218750D01*
G01*
G37*
G36*
G01*
X116100000Y-70756250D02*
X116100000Y-70243750D01*
G75*
G02*
X116318750Y-70025000I218750J0D01*
G01*
X116756250Y-70025000D01*
G75*
G02*
X116975000Y-70243750I0J-218750D01*
G01*
X116975000Y-70756250D01*
G75*
G02*
X116756250Y-70975000I-218750J0D01*
G01*
X116318750Y-70975000D01*
G75*
G02*
X116100000Y-70756250I0J218750D01*
G01*
G37*
%TD*%
%TO.C,R3*%
G36*
G01*
X114815000Y-68490000D02*
X115185000Y-68490000D01*
G75*
G02*
X115320000Y-68625000I0J-135000D01*
G01*
X115320000Y-68895000D01*
G75*
G02*
X115185000Y-69030000I-135000J0D01*
G01*
X114815000Y-69030000D01*
G75*
G02*
X114680000Y-68895000I0J135000D01*
G01*
X114680000Y-68625000D01*
G75*
G02*
X114815000Y-68490000I135000J0D01*
G01*
G37*
G36*
G01*
X114815000Y-67470000D02*
X115185000Y-67470000D01*
G75*
G02*
X115320000Y-67605000I0J-135000D01*
G01*
X115320000Y-67875000D01*
G75*
G02*
X115185000Y-68010000I-135000J0D01*
G01*
X114815000Y-68010000D01*
G75*
G02*
X114680000Y-67875000I0J135000D01*
G01*
X114680000Y-67605000D01*
G75*
G02*
X114815000Y-67470000I135000J0D01*
G01*
G37*
%TD*%
%TO.C,R4*%
G36*
G01*
X113315000Y-66970000D02*
X113685000Y-66970000D01*
G75*
G02*
X113820000Y-67105000I0J-135000D01*
G01*
X113820000Y-67375000D01*
G75*
G02*
X113685000Y-67510000I-135000J0D01*
G01*
X113315000Y-67510000D01*
G75*
G02*
X113180000Y-67375000I0J135000D01*
G01*
X113180000Y-67105000D01*
G75*
G02*
X113315000Y-66970000I135000J0D01*
G01*
G37*
G36*
G01*
X113315000Y-67990000D02*
X113685000Y-67990000D01*
G75*
G02*
X113820000Y-68125000I0J-135000D01*
G01*
X113820000Y-68395000D01*
G75*
G02*
X113685000Y-68530000I-135000J0D01*
G01*
X113315000Y-68530000D01*
G75*
G02*
X113180000Y-68395000I0J135000D01*
G01*
X113180000Y-68125000D01*
G75*
G02*
X113315000Y-67990000I135000J0D01*
G01*
G37*
%TD*%
%TO.C,F1*%
G36*
G01*
X109343750Y-72175000D02*
X109856250Y-72175000D01*
G75*
G02*
X110075000Y-72393750I0J-218750D01*
G01*
X110075000Y-72831250D01*
G75*
G02*
X109856250Y-73050000I-218750J0D01*
G01*
X109343750Y-73050000D01*
G75*
G02*
X109125000Y-72831250I0J218750D01*
G01*
X109125000Y-72393750D01*
G75*
G02*
X109343750Y-72175000I218750J0D01*
G01*
G37*
G36*
G01*
X109343750Y-73750000D02*
X109856250Y-73750000D01*
G75*
G02*
X110075000Y-73968750I0J-218750D01*
G01*
X110075000Y-74406250D01*
G75*
G02*
X109856250Y-74625000I-218750J0D01*
G01*
X109343750Y-74625000D01*
G75*
G02*
X109125000Y-74406250I0J218750D01*
G01*
X109125000Y-73968750D01*
G75*
G02*
X109343750Y-73750000I218750J0D01*
G01*
G37*
%TD*%
D12*
%TO.C,D1*%
X110100000Y-70100000D03*
X113400000Y-70100000D03*
%TD*%
%TO.C,C9*%
G36*
G01*
X111650000Y-84175000D02*
X111150000Y-84175000D01*
G75*
G02*
X110925000Y-83950000I0J225000D01*
G01*
X110925000Y-83500000D01*
G75*
G02*
X111150000Y-83275000I225000J0D01*
G01*
X111650000Y-83275000D01*
G75*
G02*
X111875000Y-83500000I0J-225000D01*
G01*
X111875000Y-83950000D01*
G75*
G02*
X111650000Y-84175000I-225000J0D01*
G01*
G37*
G36*
G01*
X111650000Y-85725000D02*
X111150000Y-85725000D01*
G75*
G02*
X110925000Y-85500000I0J225000D01*
G01*
X110925000Y-85050000D01*
G75*
G02*
X111150000Y-84825000I225000J0D01*
G01*
X111650000Y-84825000D01*
G75*
G02*
X111875000Y-85050000I0J-225000D01*
G01*
X111875000Y-85500000D01*
G75*
G02*
X111650000Y-85725000I-225000J0D01*
G01*
G37*
%TD*%
%TO.C,C10*%
G36*
G01*
X120525000Y-83750000D02*
X120525000Y-83250000D01*
G75*
G02*
X120750000Y-83025000I225000J0D01*
G01*
X121200000Y-83025000D01*
G75*
G02*
X121425000Y-83250000I0J-225000D01*
G01*
X121425000Y-83750000D01*
G75*
G02*
X121200000Y-83975000I-225000J0D01*
G01*
X120750000Y-83975000D01*
G75*
G02*
X120525000Y-83750000I0J225000D01*
G01*
G37*
G36*
G01*
X122075000Y-83750000D02*
X122075000Y-83250000D01*
G75*
G02*
X122300000Y-83025000I225000J0D01*
G01*
X122750000Y-83025000D01*
G75*
G02*
X122975000Y-83250000I0J-225000D01*
G01*
X122975000Y-83750000D01*
G75*
G02*
X122750000Y-83975000I-225000J0D01*
G01*
X122300000Y-83975000D01*
G75*
G02*
X122075000Y-83750000I0J225000D01*
G01*
G37*
%TD*%
%TO.C,R6*%
G36*
G01*
X114720000Y-87935000D02*
X114720000Y-87565000D01*
G75*
G02*
X114855000Y-87430000I135000J0D01*
G01*
X115125000Y-87430000D01*
G75*
G02*
X115260000Y-87565000I0J-135000D01*
G01*
X115260000Y-87935000D01*
G75*
G02*
X115125000Y-88070000I-135000J0D01*
G01*
X114855000Y-88070000D01*
G75*
G02*
X114720000Y-87935000I0J135000D01*
G01*
G37*
G36*
G01*
X115740000Y-87935000D02*
X115740000Y-87565000D01*
G75*
G02*
X115875000Y-87430000I135000J0D01*
G01*
X116145000Y-87430000D01*
G75*
G02*
X116280000Y-87565000I0J-135000D01*
G01*
X116280000Y-87935000D01*
G75*
G02*
X116145000Y-88070000I-135000J0D01*
G01*
X115875000Y-88070000D01*
G75*
G02*
X115740000Y-87935000I0J135000D01*
G01*
G37*
%TD*%
%TO.C,U3*%
G36*
G01*
X113600000Y-83112500D02*
X113600000Y-82987500D01*
G75*
G02*
X113662500Y-82925000I62500J0D01*
G01*
X114362500Y-82925000D01*
G75*
G02*
X114425000Y-82987500I0J-62500D01*
G01*
X114425000Y-83112500D01*
G75*
G02*
X114362500Y-83175000I-62500J0D01*
G01*
X113662500Y-83175000D01*
G75*
G02*
X113600000Y-83112500I0J62500D01*
G01*
G37*
G36*
G01*
X113600000Y-83612500D02*
X113600000Y-83487500D01*
G75*
G02*
X113662500Y-83425000I62500J0D01*
G01*
X114362500Y-83425000D01*
G75*
G02*
X114425000Y-83487500I0J-62500D01*
G01*
X114425000Y-83612500D01*
G75*
G02*
X114362500Y-83675000I-62500J0D01*
G01*
X113662500Y-83675000D01*
G75*
G02*
X113600000Y-83612500I0J62500D01*
G01*
G37*
G36*
G01*
X113600000Y-84112500D02*
X113600000Y-83987500D01*
G75*
G02*
X113662500Y-83925000I62500J0D01*
G01*
X114362500Y-83925000D01*
G75*
G02*
X114425000Y-83987500I0J-62500D01*
G01*
X114425000Y-84112500D01*
G75*
G02*
X114362500Y-84175000I-62500J0D01*
G01*
X113662500Y-84175000D01*
G75*
G02*
X113600000Y-84112500I0J62500D01*
G01*
G37*
G36*
G01*
X113600000Y-84612500D02*
X113600000Y-84487500D01*
G75*
G02*
X113662500Y-84425000I62500J0D01*
G01*
X114362500Y-84425000D01*
G75*
G02*
X114425000Y-84487500I0J-62500D01*
G01*
X114425000Y-84612500D01*
G75*
G02*
X114362500Y-84675000I-62500J0D01*
G01*
X113662500Y-84675000D01*
G75*
G02*
X113600000Y-84612500I0J62500D01*
G01*
G37*
G36*
G01*
X113600000Y-85112500D02*
X113600000Y-84987500D01*
G75*
G02*
X113662500Y-84925000I62500J0D01*
G01*
X114362500Y-84925000D01*
G75*
G02*
X114425000Y-84987500I0J-62500D01*
G01*
X114425000Y-85112500D01*
G75*
G02*
X114362500Y-85175000I-62500J0D01*
G01*
X113662500Y-85175000D01*
G75*
G02*
X113600000Y-85112500I0J62500D01*
G01*
G37*
G36*
G01*
X113600000Y-85612500D02*
X113600000Y-85487500D01*
G75*
G02*
X113662500Y-85425000I62500J0D01*
G01*
X114362500Y-85425000D01*
G75*
G02*
X114425000Y-85487500I0J-62500D01*
G01*
X114425000Y-85612500D01*
G75*
G02*
X114362500Y-85675000I-62500J0D01*
G01*
X113662500Y-85675000D01*
G75*
G02*
X113600000Y-85612500I0J62500D01*
G01*
G37*
G36*
G01*
X114575000Y-86587500D02*
X114575000Y-85887500D01*
G75*
G02*
X114637500Y-85825000I62500J0D01*
G01*
X114762500Y-85825000D01*
G75*
G02*
X114825000Y-85887500I0J-62500D01*
G01*
X114825000Y-86587500D01*
G75*
G02*
X114762500Y-86650000I-62500J0D01*
G01*
X114637500Y-86650000D01*
G75*
G02*
X114575000Y-86587500I0J62500D01*
G01*
G37*
G36*
G01*
X115075000Y-86587500D02*
X115075000Y-85887500D01*
G75*
G02*
X115137500Y-85825000I62500J0D01*
G01*
X115262500Y-85825000D01*
G75*
G02*
X115325000Y-85887500I0J-62500D01*
G01*
X115325000Y-86587500D01*
G75*
G02*
X115262500Y-86650000I-62500J0D01*
G01*
X115137500Y-86650000D01*
G75*
G02*
X115075000Y-86587500I0J62500D01*
G01*
G37*
G36*
G01*
X115575000Y-86587500D02*
X115575000Y-85887500D01*
G75*
G02*
X115637500Y-85825000I62500J0D01*
G01*
X115762500Y-85825000D01*
G75*
G02*
X115825000Y-85887500I0J-62500D01*
G01*
X115825000Y-86587500D01*
G75*
G02*
X115762500Y-86650000I-62500J0D01*
G01*
X115637500Y-86650000D01*
G75*
G02*
X115575000Y-86587500I0J62500D01*
G01*
G37*
G36*
G01*
X116075000Y-86587500D02*
X116075000Y-85887500D01*
G75*
G02*
X116137500Y-85825000I62500J0D01*
G01*
X116262500Y-85825000D01*
G75*
G02*
X116325000Y-85887500I0J-62500D01*
G01*
X116325000Y-86587500D01*
G75*
G02*
X116262500Y-86650000I-62500J0D01*
G01*
X116137500Y-86650000D01*
G75*
G02*
X116075000Y-86587500I0J62500D01*
G01*
G37*
G36*
G01*
X116575000Y-86587500D02*
X116575000Y-85887500D01*
G75*
G02*
X116637500Y-85825000I62500J0D01*
G01*
X116762500Y-85825000D01*
G75*
G02*
X116825000Y-85887500I0J-62500D01*
G01*
X116825000Y-86587500D01*
G75*
G02*
X116762500Y-86650000I-62500J0D01*
G01*
X116637500Y-86650000D01*
G75*
G02*
X116575000Y-86587500I0J62500D01*
G01*
G37*
G36*
G01*
X117075000Y-86587500D02*
X117075000Y-85887500D01*
G75*
G02*
X117137500Y-85825000I62500J0D01*
G01*
X117262500Y-85825000D01*
G75*
G02*
X117325000Y-85887500I0J-62500D01*
G01*
X117325000Y-86587500D01*
G75*
G02*
X117262500Y-86650000I-62500J0D01*
G01*
X117137500Y-86650000D01*
G75*
G02*
X117075000Y-86587500I0J62500D01*
G01*
G37*
G36*
G01*
X117475000Y-85612500D02*
X117475000Y-85487500D01*
G75*
G02*
X117537500Y-85425000I62500J0D01*
G01*
X118237500Y-85425000D01*
G75*
G02*
X118300000Y-85487500I0J-62500D01*
G01*
X118300000Y-85612500D01*
G75*
G02*
X118237500Y-85675000I-62500J0D01*
G01*
X117537500Y-85675000D01*
G75*
G02*
X117475000Y-85612500I0J62500D01*
G01*
G37*
G36*
G01*
X117475000Y-85112500D02*
X117475000Y-84987500D01*
G75*
G02*
X117537500Y-84925000I62500J0D01*
G01*
X118237500Y-84925000D01*
G75*
G02*
X118300000Y-84987500I0J-62500D01*
G01*
X118300000Y-85112500D01*
G75*
G02*
X118237500Y-85175000I-62500J0D01*
G01*
X117537500Y-85175000D01*
G75*
G02*
X117475000Y-85112500I0J62500D01*
G01*
G37*
G36*
G01*
X117475000Y-84612500D02*
X117475000Y-84487500D01*
G75*
G02*
X117537500Y-84425000I62500J0D01*
G01*
X118237500Y-84425000D01*
G75*
G02*
X118300000Y-84487500I0J-62500D01*
G01*
X118300000Y-84612500D01*
G75*
G02*
X118237500Y-84675000I-62500J0D01*
G01*
X117537500Y-84675000D01*
G75*
G02*
X117475000Y-84612500I0J62500D01*
G01*
G37*
G36*
G01*
X117475000Y-84112500D02*
X117475000Y-83987500D01*
G75*
G02*
X117537500Y-83925000I62500J0D01*
G01*
X118237500Y-83925000D01*
G75*
G02*
X118300000Y-83987500I0J-62500D01*
G01*
X118300000Y-84112500D01*
G75*
G02*
X118237500Y-84175000I-62500J0D01*
G01*
X117537500Y-84175000D01*
G75*
G02*
X117475000Y-84112500I0J62500D01*
G01*
G37*
G36*
G01*
X117475000Y-83612500D02*
X117475000Y-83487500D01*
G75*
G02*
X117537500Y-83425000I62500J0D01*
G01*
X118237500Y-83425000D01*
G75*
G02*
X118300000Y-83487500I0J-62500D01*
G01*
X118300000Y-83612500D01*
G75*
G02*
X118237500Y-83675000I-62500J0D01*
G01*
X117537500Y-83675000D01*
G75*
G02*
X117475000Y-83612500I0J62500D01*
G01*
G37*
G36*
G01*
X117475000Y-83112500D02*
X117475000Y-82987500D01*
G75*
G02*
X117537500Y-82925000I62500J0D01*
G01*
X118237500Y-82925000D01*
G75*
G02*
X118300000Y-82987500I0J-62500D01*
G01*
X118300000Y-83112500D01*
G75*
G02*
X118237500Y-83175000I-62500J0D01*
G01*
X117537500Y-83175000D01*
G75*
G02*
X117475000Y-83112500I0J62500D01*
G01*
G37*
G36*
G01*
X117075000Y-82712500D02*
X117075000Y-82012500D01*
G75*
G02*
X117137500Y-81950000I62500J0D01*
G01*
X117262500Y-81950000D01*
G75*
G02*
X117325000Y-82012500I0J-62500D01*
G01*
X117325000Y-82712500D01*
G75*
G02*
X117262500Y-82775000I-62500J0D01*
G01*
X117137500Y-82775000D01*
G75*
G02*
X117075000Y-82712500I0J62500D01*
G01*
G37*
G36*
G01*
X116575000Y-82712500D02*
X116575000Y-82012500D01*
G75*
G02*
X116637500Y-81950000I62500J0D01*
G01*
X116762500Y-81950000D01*
G75*
G02*
X116825000Y-82012500I0J-62500D01*
G01*
X116825000Y-82712500D01*
G75*
G02*
X116762500Y-82775000I-62500J0D01*
G01*
X116637500Y-82775000D01*
G75*
G02*
X116575000Y-82712500I0J62500D01*
G01*
G37*
G36*
G01*
X116075000Y-82712500D02*
X116075000Y-82012500D01*
G75*
G02*
X116137500Y-81950000I62500J0D01*
G01*
X116262500Y-81950000D01*
G75*
G02*
X116325000Y-82012500I0J-62500D01*
G01*
X116325000Y-82712500D01*
G75*
G02*
X116262500Y-82775000I-62500J0D01*
G01*
X116137500Y-82775000D01*
G75*
G02*
X116075000Y-82712500I0J62500D01*
G01*
G37*
G36*
G01*
X115575000Y-82712500D02*
X115575000Y-82012500D01*
G75*
G02*
X115637500Y-81950000I62500J0D01*
G01*
X115762500Y-81950000D01*
G75*
G02*
X115825000Y-82012500I0J-62500D01*
G01*
X115825000Y-82712500D01*
G75*
G02*
X115762500Y-82775000I-62500J0D01*
G01*
X115637500Y-82775000D01*
G75*
G02*
X115575000Y-82712500I0J62500D01*
G01*
G37*
G36*
G01*
X115075000Y-82712500D02*
X115075000Y-82012500D01*
G75*
G02*
X115137500Y-81950000I62500J0D01*
G01*
X115262500Y-81950000D01*
G75*
G02*
X115325000Y-82012500I0J-62500D01*
G01*
X115325000Y-82712500D01*
G75*
G02*
X115262500Y-82775000I-62500J0D01*
G01*
X115137500Y-82775000D01*
G75*
G02*
X115075000Y-82712500I0J62500D01*
G01*
G37*
G36*
G01*
X114575000Y-82712500D02*
X114575000Y-82012500D01*
G75*
G02*
X114637500Y-81950000I62500J0D01*
G01*
X114762500Y-81950000D01*
G75*
G02*
X114825000Y-82012500I0J-62500D01*
G01*
X114825000Y-82712500D01*
G75*
G02*
X114762500Y-82775000I-62500J0D01*
G01*
X114637500Y-82775000D01*
G75*
G02*
X114575000Y-82712500I0J62500D01*
G01*
G37*
G36*
G01*
X114775000Y-83925001D02*
X114775000Y-83374999D01*
G75*
G02*
X115024999Y-83125000I249999J0D01*
G01*
X115575001Y-83125000D01*
G75*
G02*
X115825000Y-83374999I0J-249999D01*
G01*
X115825000Y-83925001D01*
G75*
G02*
X115575001Y-84175000I-249999J0D01*
G01*
X115024999Y-84175000D01*
G75*
G02*
X114775000Y-83925001I0J249999D01*
G01*
G37*
G36*
G01*
X114775000Y-85225001D02*
X114775000Y-84674999D01*
G75*
G02*
X115024999Y-84425000I249999J0D01*
G01*
X115575001Y-84425000D01*
G75*
G02*
X115825000Y-84674999I0J-249999D01*
G01*
X115825000Y-85225001D01*
G75*
G02*
X115575001Y-85475000I-249999J0D01*
G01*
X115024999Y-85475000D01*
G75*
G02*
X114775000Y-85225001I0J249999D01*
G01*
G37*
G36*
G01*
X116075000Y-83925001D02*
X116075000Y-83374999D01*
G75*
G02*
X116324999Y-83125000I249999J0D01*
G01*
X116875001Y-83125000D01*
G75*
G02*
X117125000Y-83374999I0J-249999D01*
G01*
X117125000Y-83925001D01*
G75*
G02*
X116875001Y-84175000I-249999J0D01*
G01*
X116324999Y-84175000D01*
G75*
G02*
X116075000Y-83925001I0J249999D01*
G01*
G37*
G36*
G01*
X116075000Y-85225001D02*
X116075000Y-84674999D01*
G75*
G02*
X116324999Y-84425000I249999J0D01*
G01*
X116875001Y-84425000D01*
G75*
G02*
X117125000Y-84674999I0J-249999D01*
G01*
X117125000Y-85225001D01*
G75*
G02*
X116875001Y-85475000I-249999J0D01*
G01*
X116324999Y-85475000D01*
G75*
G02*
X116075000Y-85225001I0J249999D01*
G01*
G37*
%TD*%
%TO.C,D2*%
G36*
G01*
X108427500Y-85045000D02*
X108772500Y-85045000D01*
G75*
G02*
X108920000Y-85192500I0J-147500D01*
G01*
X108920000Y-85487500D01*
G75*
G02*
X108772500Y-85635000I-147500J0D01*
G01*
X108427500Y-85635000D01*
G75*
G02*
X108280000Y-85487500I0J147500D01*
G01*
X108280000Y-85192500D01*
G75*
G02*
X108427500Y-85045000I147500J0D01*
G01*
G37*
G36*
G01*
X108427500Y-86015000D02*
X108772500Y-86015000D01*
G75*
G02*
X108920000Y-86162500I0J-147500D01*
G01*
X108920000Y-86457500D01*
G75*
G02*
X108772500Y-86605000I-147500J0D01*
G01*
X108427500Y-86605000D01*
G75*
G02*
X108280000Y-86457500I0J147500D01*
G01*
X108280000Y-86162500D01*
G75*
G02*
X108427500Y-86015000I147500J0D01*
G01*
G37*
%TD*%
%TO.C,D3*%
G36*
G01*
X122272500Y-87260000D02*
X121927500Y-87260000D01*
G75*
G02*
X121780000Y-87112500I0J147500D01*
G01*
X121780000Y-86817500D01*
G75*
G02*
X121927500Y-86670000I147500J0D01*
G01*
X122272500Y-86670000D01*
G75*
G02*
X122420000Y-86817500I0J-147500D01*
G01*
X122420000Y-87112500D01*
G75*
G02*
X122272500Y-87260000I-147500J0D01*
G01*
G37*
G36*
G01*
X122272500Y-88230000D02*
X121927500Y-88230000D01*
G75*
G02*
X121780000Y-88082500I0J147500D01*
G01*
X121780000Y-87787500D01*
G75*
G02*
X121927500Y-87640000I147500J0D01*
G01*
X122272500Y-87640000D01*
G75*
G02*
X122420000Y-87787500I0J-147500D01*
G01*
X122420000Y-88082500D01*
G75*
G02*
X122272500Y-88230000I-147500J0D01*
G01*
G37*
%TD*%
%TO.C,D4*%
G36*
G01*
X121122500Y-88230000D02*
X120777500Y-88230000D01*
G75*
G02*
X120630000Y-88082500I0J147500D01*
G01*
X120630000Y-87787500D01*
G75*
G02*
X120777500Y-87640000I147500J0D01*
G01*
X121122500Y-87640000D01*
G75*
G02*
X121270000Y-87787500I0J-147500D01*
G01*
X121270000Y-88082500D01*
G75*
G02*
X121122500Y-88230000I-147500J0D01*
G01*
G37*
G36*
G01*
X121122500Y-87260000D02*
X120777500Y-87260000D01*
G75*
G02*
X120630000Y-87112500I0J147500D01*
G01*
X120630000Y-86817500D01*
G75*
G02*
X120777500Y-86670000I147500J0D01*
G01*
X121122500Y-86670000D01*
G75*
G02*
X121270000Y-86817500I0J-147500D01*
G01*
X121270000Y-87112500D01*
G75*
G02*
X121122500Y-87260000I-147500J0D01*
G01*
G37*
%TD*%
%TO.C,R1*%
G36*
G01*
X121915000Y-84720000D02*
X122285000Y-84720000D01*
G75*
G02*
X122420000Y-84855000I0J-135000D01*
G01*
X122420000Y-85125000D01*
G75*
G02*
X122285000Y-85260000I-135000J0D01*
G01*
X121915000Y-85260000D01*
G75*
G02*
X121780000Y-85125000I0J135000D01*
G01*
X121780000Y-84855000D01*
G75*
G02*
X121915000Y-84720000I135000J0D01*
G01*
G37*
G36*
G01*
X121915000Y-85740000D02*
X122285000Y-85740000D01*
G75*
G02*
X122420000Y-85875000I0J-135000D01*
G01*
X122420000Y-86145000D01*
G75*
G02*
X122285000Y-86280000I-135000J0D01*
G01*
X121915000Y-86280000D01*
G75*
G02*
X121780000Y-86145000I0J135000D01*
G01*
X121780000Y-85875000D01*
G75*
G02*
X121915000Y-85740000I135000J0D01*
G01*
G37*
%TD*%
%TO.C,R2*%
G36*
G01*
X121135000Y-85260000D02*
X120765000Y-85260000D01*
G75*
G02*
X120630000Y-85125000I0J135000D01*
G01*
X120630000Y-84855000D01*
G75*
G02*
X120765000Y-84720000I135000J0D01*
G01*
X121135000Y-84720000D01*
G75*
G02*
X121270000Y-84855000I0J-135000D01*
G01*
X121270000Y-85125000D01*
G75*
G02*
X121135000Y-85260000I-135000J0D01*
G01*
G37*
G36*
G01*
X121135000Y-86280000D02*
X120765000Y-86280000D01*
G75*
G02*
X120630000Y-86145000I0J135000D01*
G01*
X120630000Y-85875000D01*
G75*
G02*
X120765000Y-85740000I135000J0D01*
G01*
X121135000Y-85740000D01*
G75*
G02*
X121270000Y-85875000I0J-135000D01*
G01*
X121270000Y-86145000D01*
G75*
G02*
X121135000Y-86280000I-135000J0D01*
G01*
G37*
%TD*%
%TO.C,R5*%
G36*
G01*
X109810000Y-86605000D02*
X109440000Y-86605000D01*
G75*
G02*
X109305000Y-86470000I0J135000D01*
G01*
X109305000Y-86200000D01*
G75*
G02*
X109440000Y-86065000I135000J0D01*
G01*
X109810000Y-86065000D01*
G75*
G02*
X109945000Y-86200000I0J-135000D01*
G01*
X109945000Y-86470000D01*
G75*
G02*
X109810000Y-86605000I-135000J0D01*
G01*
G37*
G36*
G01*
X109810000Y-85585000D02*
X109440000Y-85585000D01*
G75*
G02*
X109305000Y-85450000I0J135000D01*
G01*
X109305000Y-85180000D01*
G75*
G02*
X109440000Y-85045000I135000J0D01*
G01*
X109810000Y-85045000D01*
G75*
G02*
X109945000Y-85180000I0J-135000D01*
G01*
X109945000Y-85450000D01*
G75*
G02*
X109810000Y-85585000I-135000J0D01*
G01*
G37*
%TD*%
D13*
%TO.C,J1*%
X112850000Y-62200000D03*
X115150000Y-62200000D03*
D14*
X110250000Y-62200000D03*
X117750000Y-62200000D03*
D15*
X112700000Y-65050000D03*
X113350000Y-65050000D03*
X114000000Y-65050000D03*
X114650000Y-65050000D03*
X115300000Y-65050000D03*
%TD*%
M02*
