%TF.GenerationSoftware,KiCad,Pcbnew,5.1.8*%
%TF.CreationDate,2020-11-25T12:11:16+09:00*%
%TF.ProjectId,rasp_usb,72617370-5f75-4736-922e-6b696361645f,rev?*%
%TF.SameCoordinates,Original*%
%TF.FileFunction,Copper,L2,Bot*%
%TF.FilePolarity,Positive*%
%FSLAX46Y46*%
G04 Gerber Fmt 4.6, Leading zero omitted, Abs format (unit mm)*
G04 Created by KiCad (PCBNEW 5.1.8) date 2020-11-25 12:11:16*
%MOMM*%
%LPD*%
G01*
G04 APERTURE LIST*
%TA.AperFunction,ComponentPad*%
%ADD10R,1.700000X1.700000*%
%TD*%
%TA.AperFunction,ComponentPad*%
%ADD11O,1.700000X1.700000*%
%TD*%
%TA.AperFunction,ComponentPad*%
%ADD12O,1.100000X1.500000*%
%TD*%
%TA.AperFunction,ComponentPad*%
%ADD13O,1.350000X1.700000*%
%TD*%
%TA.AperFunction,ViaPad*%
%ADD14C,0.800000*%
%TD*%
%TA.AperFunction,ViaPad*%
%ADD15C,0.600000*%
%TD*%
%TA.AperFunction,Conductor*%
%ADD16C,0.500000*%
%TD*%
%TA.AperFunction,Conductor*%
%ADD17C,0.250000*%
%TD*%
%TA.AperFunction,Conductor*%
%ADD18C,0.254000*%
%TD*%
%TA.AperFunction,Conductor*%
%ADD19C,0.100000*%
%TD*%
G04 APERTURE END LIST*
D10*
%TO.P,J2,1*%
%TO.N,3V3*%
X120250000Y-68500000D03*
D11*
%TO.P,J2,2*%
%TO.N,5V*%
X122790000Y-68500000D03*
%TO.P,J2,3*%
%TO.N,Net-(J2-Pad3)*%
X120250000Y-71040000D03*
%TO.P,J2,4*%
%TO.N,5V*%
X122790000Y-71040000D03*
%TO.P,J2,5*%
%TO.N,Net-(J2-Pad5)*%
X120250000Y-73580000D03*
%TO.P,J2,6*%
%TO.N,GND*%
X122790000Y-73580000D03*
%TO.P,J2,7*%
%TO.N,Net-(J2-Pad7)*%
X120250000Y-76120000D03*
%TO.P,J2,8*%
%TO.N,UART_TXD*%
X122790000Y-76120000D03*
%TO.P,J2,9*%
%TO.N,GND*%
X120250000Y-78660000D03*
%TO.P,J2,10*%
%TO.N,UART_RXD*%
X122790000Y-78660000D03*
%TD*%
D12*
%TO.P,J1,6*%
%TO.N,GND*%
X109695000Y-64885000D03*
X104855000Y-64885000D03*
D13*
X110005000Y-61885000D03*
X104545000Y-61885000D03*
%TD*%
D14*
%TO.N,VIO*%
X107750000Y-73250000D03*
X107750000Y-79400000D03*
X110500000Y-73750000D03*
X105000000Y-73750000D03*
X107750000Y-75000000D03*
%TO.N,GND*%
X105500000Y-79500000D03*
X103350000Y-79200000D03*
X103350000Y-77650000D03*
%TO.N,UART_TXD*%
X118250000Y-73500000D03*
D15*
%TO.N,USB_DP*%
X107275000Y-66490000D03*
%TO.N,USB_DM*%
X108742500Y-67232500D03*
%TO.N,Net-(R3-Pad2)*%
X108750000Y-68250000D03*
X111700000Y-68250000D03*
%TO.N,Net-(R4-Pad2)*%
X107275000Y-67525000D03*
X111700000Y-66600000D03*
%TO.N,VIO*%
X112120000Y-69420000D03*
X115700000Y-65900000D03*
%TD*%
D16*
%TO.N,VIO*%
X107750000Y-75000000D02*
X107750000Y-79400000D01*
D17*
%TO.N,UART_TXD*%
X121425001Y-74755001D02*
X122790000Y-76120000D01*
X119505001Y-74755001D02*
X121425001Y-74755001D01*
X118250000Y-73500000D02*
X119505001Y-74755001D01*
%TO.N,Net-(R3-Pad2)*%
X108750000Y-68250000D02*
X109850000Y-68250000D01*
X109850000Y-68250000D02*
X111700000Y-68250000D01*
%TO.N,Net-(R4-Pad2)*%
X111692501Y-66607499D02*
X111700000Y-66600000D01*
X107275000Y-67525000D02*
X108192501Y-66607499D01*
X108192501Y-66607499D02*
X111692501Y-66607499D01*
%TO.N,VIO*%
X112120000Y-69420000D02*
X112419999Y-69120001D01*
X112839998Y-65900000D02*
X112419999Y-66319999D01*
X115700000Y-65900000D02*
X112839998Y-65900000D01*
X112419999Y-69120001D02*
X112419999Y-66319999D01*
%TD*%
D18*
%TO.N,GND*%
X103734804Y-60676522D02*
X103548750Y-60854441D01*
X103400981Y-61065239D01*
X103297176Y-61300815D01*
X103241325Y-61552116D01*
X103391427Y-61758000D01*
X104418000Y-61758000D01*
X104418000Y-61738000D01*
X104672000Y-61738000D01*
X104672000Y-61758000D01*
X105698573Y-61758000D01*
X105848675Y-61552116D01*
X105792824Y-61300815D01*
X105689019Y-61065239D01*
X105541250Y-60854441D01*
X105355196Y-60676522D01*
X105329231Y-60660000D01*
X109220769Y-60660000D01*
X109194804Y-60676522D01*
X109008750Y-60854441D01*
X108860981Y-61065239D01*
X108757176Y-61300815D01*
X108701325Y-61552116D01*
X108851427Y-61758000D01*
X109878000Y-61758000D01*
X109878000Y-61738000D01*
X110132000Y-61738000D01*
X110132000Y-61758000D01*
X111158573Y-61758000D01*
X111308675Y-61552116D01*
X111252824Y-61300815D01*
X111149019Y-61065239D01*
X111001250Y-60854441D01*
X110815196Y-60676522D01*
X110789231Y-60660000D01*
X123967721Y-60660000D01*
X124065424Y-60669580D01*
X124128356Y-60688580D01*
X124186405Y-60719445D01*
X124237343Y-60760989D01*
X124279248Y-60811644D01*
X124310515Y-60869471D01*
X124329956Y-60932272D01*
X124340000Y-61027835D01*
X124340001Y-80967711D01*
X124330420Y-81065424D01*
X124311420Y-81128357D01*
X124280554Y-81186406D01*
X124239011Y-81237343D01*
X124188356Y-81279248D01*
X124130529Y-81310515D01*
X124067728Y-81329956D01*
X123972165Y-81340000D01*
X102032279Y-81340000D01*
X101934576Y-81330420D01*
X101871643Y-81311420D01*
X101813594Y-81280554D01*
X101762657Y-81239011D01*
X101720752Y-81188356D01*
X101689485Y-81130529D01*
X101670044Y-81067728D01*
X101660000Y-80972165D01*
X101660000Y-73648061D01*
X103965000Y-73648061D01*
X103965000Y-73851939D01*
X104004774Y-74051898D01*
X104082795Y-74240256D01*
X104196063Y-74409774D01*
X104340226Y-74553937D01*
X104509744Y-74667205D01*
X104698102Y-74745226D01*
X104898061Y-74785000D01*
X105101939Y-74785000D01*
X105301898Y-74745226D01*
X105490256Y-74667205D01*
X105659774Y-74553937D01*
X105803937Y-74409774D01*
X105917205Y-74240256D01*
X105995226Y-74051898D01*
X106035000Y-73851939D01*
X106035000Y-73648061D01*
X105995226Y-73448102D01*
X105917205Y-73259744D01*
X105842582Y-73148061D01*
X106715000Y-73148061D01*
X106715000Y-73351939D01*
X106754774Y-73551898D01*
X106832795Y-73740256D01*
X106946063Y-73909774D01*
X107090226Y-74053937D01*
X107196580Y-74125000D01*
X107090226Y-74196063D01*
X106946063Y-74340226D01*
X106832795Y-74509744D01*
X106754774Y-74698102D01*
X106715000Y-74898061D01*
X106715000Y-75101939D01*
X106754774Y-75301898D01*
X106832795Y-75490256D01*
X106865000Y-75538455D01*
X106865001Y-78861544D01*
X106832795Y-78909744D01*
X106754774Y-79098102D01*
X106715000Y-79298061D01*
X106715000Y-79501939D01*
X106754774Y-79701898D01*
X106832795Y-79890256D01*
X106946063Y-80059774D01*
X107090226Y-80203937D01*
X107259744Y-80317205D01*
X107448102Y-80395226D01*
X107648061Y-80435000D01*
X107851939Y-80435000D01*
X108051898Y-80395226D01*
X108240256Y-80317205D01*
X108409774Y-80203937D01*
X108553937Y-80059774D01*
X108667205Y-79890256D01*
X108745226Y-79701898D01*
X108785000Y-79501939D01*
X108785000Y-79298061D01*
X108745226Y-79098102D01*
X108711587Y-79016890D01*
X118808524Y-79016890D01*
X118853175Y-79164099D01*
X118978359Y-79426920D01*
X119152412Y-79660269D01*
X119368645Y-79855178D01*
X119618748Y-80004157D01*
X119893109Y-80101481D01*
X120123000Y-79980814D01*
X120123000Y-78787000D01*
X118929845Y-78787000D01*
X118808524Y-79016890D01*
X108711587Y-79016890D01*
X108667205Y-78909744D01*
X108635000Y-78861546D01*
X108635000Y-75538454D01*
X108667205Y-75490256D01*
X108745226Y-75301898D01*
X108785000Y-75101939D01*
X108785000Y-74898061D01*
X108745226Y-74698102D01*
X108667205Y-74509744D01*
X108553937Y-74340226D01*
X108409774Y-74196063D01*
X108303420Y-74125000D01*
X108409774Y-74053937D01*
X108553937Y-73909774D01*
X108667205Y-73740256D01*
X108705393Y-73648061D01*
X109465000Y-73648061D01*
X109465000Y-73851939D01*
X109504774Y-74051898D01*
X109582795Y-74240256D01*
X109696063Y-74409774D01*
X109840226Y-74553937D01*
X110009744Y-74667205D01*
X110198102Y-74745226D01*
X110398061Y-74785000D01*
X110601939Y-74785000D01*
X110801898Y-74745226D01*
X110990256Y-74667205D01*
X111159774Y-74553937D01*
X111303937Y-74409774D01*
X111417205Y-74240256D01*
X111495226Y-74051898D01*
X111535000Y-73851939D01*
X111535000Y-73648061D01*
X111495226Y-73448102D01*
X111474499Y-73398061D01*
X117215000Y-73398061D01*
X117215000Y-73601939D01*
X117254774Y-73801898D01*
X117332795Y-73990256D01*
X117446063Y-74159774D01*
X117590226Y-74303937D01*
X117759744Y-74417205D01*
X117948102Y-74495226D01*
X118148061Y-74535000D01*
X118210198Y-74535000D01*
X118941206Y-75266009D01*
X118965000Y-75295002D01*
X118993993Y-75318796D01*
X118993997Y-75318800D01*
X118997455Y-75321637D01*
X118934010Y-75416589D01*
X118822068Y-75686842D01*
X118765000Y-75973740D01*
X118765000Y-76266260D01*
X118822068Y-76553158D01*
X118934010Y-76823411D01*
X119096525Y-77066632D01*
X119303368Y-77273475D01*
X119485534Y-77395195D01*
X119368645Y-77464822D01*
X119152412Y-77659731D01*
X118978359Y-77893080D01*
X118853175Y-78155901D01*
X118808524Y-78303110D01*
X118929845Y-78533000D01*
X120123000Y-78533000D01*
X120123000Y-78513000D01*
X120377000Y-78513000D01*
X120377000Y-78533000D01*
X120397000Y-78533000D01*
X120397000Y-78787000D01*
X120377000Y-78787000D01*
X120377000Y-79980814D01*
X120606891Y-80101481D01*
X120881252Y-80004157D01*
X121131355Y-79855178D01*
X121347588Y-79660269D01*
X121518900Y-79430594D01*
X121636525Y-79606632D01*
X121843368Y-79813475D01*
X122086589Y-79975990D01*
X122356842Y-80087932D01*
X122643740Y-80145000D01*
X122936260Y-80145000D01*
X123223158Y-80087932D01*
X123493411Y-79975990D01*
X123736632Y-79813475D01*
X123943475Y-79606632D01*
X124105990Y-79363411D01*
X124217932Y-79093158D01*
X124275000Y-78806260D01*
X124275000Y-78513740D01*
X124217932Y-78226842D01*
X124105990Y-77956589D01*
X123943475Y-77713368D01*
X123736632Y-77506525D01*
X123562240Y-77390000D01*
X123736632Y-77273475D01*
X123943475Y-77066632D01*
X124105990Y-76823411D01*
X124217932Y-76553158D01*
X124275000Y-76266260D01*
X124275000Y-75973740D01*
X124217932Y-75686842D01*
X124105990Y-75416589D01*
X123943475Y-75173368D01*
X123736632Y-74966525D01*
X123554466Y-74844805D01*
X123671355Y-74775178D01*
X123887588Y-74580269D01*
X124061641Y-74346920D01*
X124186825Y-74084099D01*
X124231476Y-73936890D01*
X124110155Y-73707000D01*
X122917000Y-73707000D01*
X122917000Y-73727000D01*
X122663000Y-73727000D01*
X122663000Y-73707000D01*
X122643000Y-73707000D01*
X122643000Y-73453000D01*
X122663000Y-73453000D01*
X122663000Y-73433000D01*
X122917000Y-73433000D01*
X122917000Y-73453000D01*
X124110155Y-73453000D01*
X124231476Y-73223110D01*
X124186825Y-73075901D01*
X124061641Y-72813080D01*
X123887588Y-72579731D01*
X123671355Y-72384822D01*
X123554466Y-72315195D01*
X123736632Y-72193475D01*
X123943475Y-71986632D01*
X124105990Y-71743411D01*
X124217932Y-71473158D01*
X124275000Y-71186260D01*
X124275000Y-70893740D01*
X124217932Y-70606842D01*
X124105990Y-70336589D01*
X123943475Y-70093368D01*
X123736632Y-69886525D01*
X123562240Y-69770000D01*
X123736632Y-69653475D01*
X123943475Y-69446632D01*
X124105990Y-69203411D01*
X124217932Y-68933158D01*
X124275000Y-68646260D01*
X124275000Y-68353740D01*
X124217932Y-68066842D01*
X124105990Y-67796589D01*
X123943475Y-67553368D01*
X123736632Y-67346525D01*
X123493411Y-67184010D01*
X123223158Y-67072068D01*
X122936260Y-67015000D01*
X122643740Y-67015000D01*
X122356842Y-67072068D01*
X122086589Y-67184010D01*
X121843368Y-67346525D01*
X121711513Y-67478380D01*
X121689502Y-67405820D01*
X121630537Y-67295506D01*
X121551185Y-67198815D01*
X121454494Y-67119463D01*
X121344180Y-67060498D01*
X121224482Y-67024188D01*
X121100000Y-67011928D01*
X119400000Y-67011928D01*
X119275518Y-67024188D01*
X119155820Y-67060498D01*
X119045506Y-67119463D01*
X118948815Y-67198815D01*
X118869463Y-67295506D01*
X118810498Y-67405820D01*
X118774188Y-67525518D01*
X118761928Y-67650000D01*
X118761928Y-69350000D01*
X118774188Y-69474482D01*
X118810498Y-69594180D01*
X118869463Y-69704494D01*
X118948815Y-69801185D01*
X119045506Y-69880537D01*
X119155820Y-69939502D01*
X119228380Y-69961513D01*
X119096525Y-70093368D01*
X118934010Y-70336589D01*
X118822068Y-70606842D01*
X118765000Y-70893740D01*
X118765000Y-71186260D01*
X118822068Y-71473158D01*
X118934010Y-71743411D01*
X119096525Y-71986632D01*
X119303368Y-72193475D01*
X119477760Y-72310000D01*
X119303368Y-72426525D01*
X119096525Y-72633368D01*
X118996611Y-72782900D01*
X118909774Y-72696063D01*
X118740256Y-72582795D01*
X118551898Y-72504774D01*
X118351939Y-72465000D01*
X118148061Y-72465000D01*
X117948102Y-72504774D01*
X117759744Y-72582795D01*
X117590226Y-72696063D01*
X117446063Y-72840226D01*
X117332795Y-73009744D01*
X117254774Y-73198102D01*
X117215000Y-73398061D01*
X111474499Y-73398061D01*
X111417205Y-73259744D01*
X111303937Y-73090226D01*
X111159774Y-72946063D01*
X110990256Y-72832795D01*
X110801898Y-72754774D01*
X110601939Y-72715000D01*
X110398061Y-72715000D01*
X110198102Y-72754774D01*
X110009744Y-72832795D01*
X109840226Y-72946063D01*
X109696063Y-73090226D01*
X109582795Y-73259744D01*
X109504774Y-73448102D01*
X109465000Y-73648061D01*
X108705393Y-73648061D01*
X108745226Y-73551898D01*
X108785000Y-73351939D01*
X108785000Y-73148061D01*
X108745226Y-72948102D01*
X108667205Y-72759744D01*
X108553937Y-72590226D01*
X108409774Y-72446063D01*
X108240256Y-72332795D01*
X108051898Y-72254774D01*
X107851939Y-72215000D01*
X107648061Y-72215000D01*
X107448102Y-72254774D01*
X107259744Y-72332795D01*
X107090226Y-72446063D01*
X106946063Y-72590226D01*
X106832795Y-72759744D01*
X106754774Y-72948102D01*
X106715000Y-73148061D01*
X105842582Y-73148061D01*
X105803937Y-73090226D01*
X105659774Y-72946063D01*
X105490256Y-72832795D01*
X105301898Y-72754774D01*
X105101939Y-72715000D01*
X104898061Y-72715000D01*
X104698102Y-72754774D01*
X104509744Y-72832795D01*
X104340226Y-72946063D01*
X104196063Y-73090226D01*
X104082795Y-73259744D01*
X104004774Y-73448102D01*
X103965000Y-73648061D01*
X101660000Y-73648061D01*
X101660000Y-66397911D01*
X106340000Y-66397911D01*
X106340000Y-66582089D01*
X106375932Y-66762729D01*
X106446414Y-66932889D01*
X106496267Y-67007500D01*
X106446414Y-67082111D01*
X106375932Y-67252271D01*
X106340000Y-67432911D01*
X106340000Y-67617089D01*
X106375932Y-67797729D01*
X106446414Y-67967889D01*
X106548738Y-68121028D01*
X106678972Y-68251262D01*
X106832111Y-68353586D01*
X107002271Y-68424068D01*
X107182911Y-68460000D01*
X107367089Y-68460000D01*
X107547729Y-68424068D01*
X107717889Y-68353586D01*
X107815000Y-68288699D01*
X107815000Y-68342089D01*
X107850932Y-68522729D01*
X107921414Y-68692889D01*
X108023738Y-68846028D01*
X108153972Y-68976262D01*
X108307111Y-69078586D01*
X108477271Y-69149068D01*
X108657911Y-69185000D01*
X108842089Y-69185000D01*
X109022729Y-69149068D01*
X109192889Y-69078586D01*
X109295535Y-69010000D01*
X111154465Y-69010000D01*
X111251057Y-69074541D01*
X111220932Y-69147271D01*
X111185000Y-69327911D01*
X111185000Y-69512089D01*
X111220932Y-69692729D01*
X111291414Y-69862889D01*
X111393738Y-70016028D01*
X111523972Y-70146262D01*
X111677111Y-70248586D01*
X111847271Y-70319068D01*
X112027911Y-70355000D01*
X112212089Y-70355000D01*
X112392729Y-70319068D01*
X112562889Y-70248586D01*
X112716028Y-70146262D01*
X112846262Y-70016028D01*
X112948586Y-69862889D01*
X113019068Y-69692729D01*
X113046558Y-69554531D01*
X113054973Y-69544277D01*
X113125545Y-69412248D01*
X113169002Y-69268987D01*
X113179999Y-69157334D01*
X113179999Y-69157326D01*
X113183675Y-69120001D01*
X113179999Y-69082676D01*
X113179999Y-66660000D01*
X115154465Y-66660000D01*
X115257111Y-66728586D01*
X115427271Y-66799068D01*
X115607911Y-66835000D01*
X115792089Y-66835000D01*
X115972729Y-66799068D01*
X116142889Y-66728586D01*
X116296028Y-66626262D01*
X116426262Y-66496028D01*
X116528586Y-66342889D01*
X116599068Y-66172729D01*
X116635000Y-65992089D01*
X116635000Y-65807911D01*
X116599068Y-65627271D01*
X116528586Y-65457111D01*
X116426262Y-65303972D01*
X116296028Y-65173738D01*
X116142889Y-65071414D01*
X115972729Y-65000932D01*
X115792089Y-64965000D01*
X115607911Y-64965000D01*
X115427271Y-65000932D01*
X115257111Y-65071414D01*
X115154465Y-65140000D01*
X112877320Y-65140000D01*
X112839997Y-65136324D01*
X112802674Y-65140000D01*
X112802665Y-65140000D01*
X112691012Y-65150997D01*
X112547751Y-65194454D01*
X112415722Y-65265026D01*
X112299997Y-65359999D01*
X112276194Y-65389003D01*
X111965669Y-65699528D01*
X111792089Y-65665000D01*
X111607911Y-65665000D01*
X111427271Y-65700932D01*
X111257111Y-65771414D01*
X111143242Y-65847499D01*
X110608557Y-65847499D01*
X110617590Y-65838422D01*
X110746848Y-65643957D01*
X110835684Y-65428011D01*
X110880684Y-65198884D01*
X110725152Y-65012000D01*
X109822000Y-65012000D01*
X109822000Y-65032000D01*
X109568000Y-65032000D01*
X109568000Y-65012000D01*
X108664848Y-65012000D01*
X108509316Y-65198884D01*
X108554316Y-65428011D01*
X108643152Y-65643957D01*
X108772410Y-65838422D01*
X108781443Y-65847499D01*
X108229823Y-65847499D01*
X108192500Y-65843823D01*
X108155177Y-65847499D01*
X108155168Y-65847499D01*
X108043515Y-65858496D01*
X107983877Y-65876587D01*
X107871028Y-65763738D01*
X107717889Y-65661414D01*
X107547729Y-65590932D01*
X107367089Y-65555000D01*
X107182911Y-65555000D01*
X107002271Y-65590932D01*
X106832111Y-65661414D01*
X106678972Y-65763738D01*
X106548738Y-65893972D01*
X106446414Y-66047111D01*
X106375932Y-66217271D01*
X106340000Y-66397911D01*
X101660000Y-66397911D01*
X101660000Y-65198884D01*
X103669316Y-65198884D01*
X103714316Y-65428011D01*
X103803152Y-65643957D01*
X103932410Y-65838422D01*
X104097123Y-66003934D01*
X104290961Y-66134131D01*
X104506474Y-66224011D01*
X104545256Y-66228803D01*
X104728000Y-66103361D01*
X104728000Y-65012000D01*
X104982000Y-65012000D01*
X104982000Y-66103361D01*
X105164744Y-66228803D01*
X105203526Y-66224011D01*
X105419039Y-66134131D01*
X105612877Y-66003934D01*
X105777590Y-65838422D01*
X105906848Y-65643957D01*
X105995684Y-65428011D01*
X106040684Y-65198884D01*
X105885152Y-65012000D01*
X104982000Y-65012000D01*
X104728000Y-65012000D01*
X103824848Y-65012000D01*
X103669316Y-65198884D01*
X101660000Y-65198884D01*
X101660000Y-64571116D01*
X103669316Y-64571116D01*
X103824848Y-64758000D01*
X104728000Y-64758000D01*
X104728000Y-63666639D01*
X104982000Y-63666639D01*
X104982000Y-64758000D01*
X105885152Y-64758000D01*
X106040684Y-64571116D01*
X108509316Y-64571116D01*
X108664848Y-64758000D01*
X109568000Y-64758000D01*
X109568000Y-63666639D01*
X109822000Y-63666639D01*
X109822000Y-64758000D01*
X110725152Y-64758000D01*
X110880684Y-64571116D01*
X110835684Y-64341989D01*
X110746848Y-64126043D01*
X110617590Y-63931578D01*
X110452877Y-63766066D01*
X110259039Y-63635869D01*
X110043526Y-63545989D01*
X110004744Y-63541197D01*
X109822000Y-63666639D01*
X109568000Y-63666639D01*
X109385256Y-63541197D01*
X109346474Y-63545989D01*
X109130961Y-63635869D01*
X108937123Y-63766066D01*
X108772410Y-63931578D01*
X108643152Y-64126043D01*
X108554316Y-64341989D01*
X108509316Y-64571116D01*
X106040684Y-64571116D01*
X105995684Y-64341989D01*
X105906848Y-64126043D01*
X105777590Y-63931578D01*
X105612877Y-63766066D01*
X105419039Y-63635869D01*
X105203526Y-63545989D01*
X105164744Y-63541197D01*
X104982000Y-63666639D01*
X104728000Y-63666639D01*
X104545256Y-63541197D01*
X104506474Y-63545989D01*
X104290961Y-63635869D01*
X104097123Y-63766066D01*
X103932410Y-63931578D01*
X103803152Y-64126043D01*
X103714316Y-64341989D01*
X103669316Y-64571116D01*
X101660000Y-64571116D01*
X101660000Y-62217884D01*
X103241325Y-62217884D01*
X103297176Y-62469185D01*
X103400981Y-62704761D01*
X103548750Y-62915559D01*
X103734804Y-63093478D01*
X103951993Y-63231681D01*
X104191971Y-63324857D01*
X104215600Y-63327910D01*
X104418000Y-63204224D01*
X104418000Y-62012000D01*
X104672000Y-62012000D01*
X104672000Y-63204224D01*
X104874400Y-63327910D01*
X104898029Y-63324857D01*
X105138007Y-63231681D01*
X105355196Y-63093478D01*
X105541250Y-62915559D01*
X105689019Y-62704761D01*
X105792824Y-62469185D01*
X105848675Y-62217884D01*
X108701325Y-62217884D01*
X108757176Y-62469185D01*
X108860981Y-62704761D01*
X109008750Y-62915559D01*
X109194804Y-63093478D01*
X109411993Y-63231681D01*
X109651971Y-63324857D01*
X109675600Y-63327910D01*
X109878000Y-63204224D01*
X109878000Y-62012000D01*
X110132000Y-62012000D01*
X110132000Y-63204224D01*
X110334400Y-63327910D01*
X110358029Y-63324857D01*
X110410472Y-63304495D01*
X119515000Y-63304495D01*
X119515000Y-63695505D01*
X119591282Y-64079003D01*
X119740915Y-64440250D01*
X119958149Y-64765364D01*
X120234636Y-65041851D01*
X120559750Y-65259085D01*
X120920997Y-65408718D01*
X121304495Y-65485000D01*
X121695505Y-65485000D01*
X122079003Y-65408718D01*
X122440250Y-65259085D01*
X122765364Y-65041851D01*
X123041851Y-64765364D01*
X123259085Y-64440250D01*
X123408718Y-64079003D01*
X123485000Y-63695505D01*
X123485000Y-63304495D01*
X123408718Y-62920997D01*
X123259085Y-62559750D01*
X123041851Y-62234636D01*
X122765364Y-61958149D01*
X122440250Y-61740915D01*
X122079003Y-61591282D01*
X121695505Y-61515000D01*
X121304495Y-61515000D01*
X120920997Y-61591282D01*
X120559750Y-61740915D01*
X120234636Y-61958149D01*
X119958149Y-62234636D01*
X119740915Y-62559750D01*
X119591282Y-62920997D01*
X119515000Y-63304495D01*
X110410472Y-63304495D01*
X110598007Y-63231681D01*
X110815196Y-63093478D01*
X111001250Y-62915559D01*
X111149019Y-62704761D01*
X111252824Y-62469185D01*
X111308675Y-62217884D01*
X111158573Y-62012000D01*
X110132000Y-62012000D01*
X109878000Y-62012000D01*
X108851427Y-62012000D01*
X108701325Y-62217884D01*
X105848675Y-62217884D01*
X105698573Y-62012000D01*
X104672000Y-62012000D01*
X104418000Y-62012000D01*
X103391427Y-62012000D01*
X103241325Y-62217884D01*
X101660000Y-62217884D01*
X101660000Y-61032279D01*
X101669580Y-60934576D01*
X101688580Y-60871644D01*
X101719445Y-60813595D01*
X101760989Y-60762657D01*
X101811644Y-60720752D01*
X101869471Y-60689485D01*
X101932272Y-60670044D01*
X102027835Y-60660000D01*
X103760769Y-60660000D01*
X103734804Y-60676522D01*
%TA.AperFunction,Conductor*%
D19*
G36*
X103734804Y-60676522D02*
G01*
X103548750Y-60854441D01*
X103400981Y-61065239D01*
X103297176Y-61300815D01*
X103241325Y-61552116D01*
X103391427Y-61758000D01*
X104418000Y-61758000D01*
X104418000Y-61738000D01*
X104672000Y-61738000D01*
X104672000Y-61758000D01*
X105698573Y-61758000D01*
X105848675Y-61552116D01*
X105792824Y-61300815D01*
X105689019Y-61065239D01*
X105541250Y-60854441D01*
X105355196Y-60676522D01*
X105329231Y-60660000D01*
X109220769Y-60660000D01*
X109194804Y-60676522D01*
X109008750Y-60854441D01*
X108860981Y-61065239D01*
X108757176Y-61300815D01*
X108701325Y-61552116D01*
X108851427Y-61758000D01*
X109878000Y-61758000D01*
X109878000Y-61738000D01*
X110132000Y-61738000D01*
X110132000Y-61758000D01*
X111158573Y-61758000D01*
X111308675Y-61552116D01*
X111252824Y-61300815D01*
X111149019Y-61065239D01*
X111001250Y-60854441D01*
X110815196Y-60676522D01*
X110789231Y-60660000D01*
X123967721Y-60660000D01*
X124065424Y-60669580D01*
X124128356Y-60688580D01*
X124186405Y-60719445D01*
X124237343Y-60760989D01*
X124279248Y-60811644D01*
X124310515Y-60869471D01*
X124329956Y-60932272D01*
X124340000Y-61027835D01*
X124340001Y-80967711D01*
X124330420Y-81065424D01*
X124311420Y-81128357D01*
X124280554Y-81186406D01*
X124239011Y-81237343D01*
X124188356Y-81279248D01*
X124130529Y-81310515D01*
X124067728Y-81329956D01*
X123972165Y-81340000D01*
X102032279Y-81340000D01*
X101934576Y-81330420D01*
X101871643Y-81311420D01*
X101813594Y-81280554D01*
X101762657Y-81239011D01*
X101720752Y-81188356D01*
X101689485Y-81130529D01*
X101670044Y-81067728D01*
X101660000Y-80972165D01*
X101660000Y-73648061D01*
X103965000Y-73648061D01*
X103965000Y-73851939D01*
X104004774Y-74051898D01*
X104082795Y-74240256D01*
X104196063Y-74409774D01*
X104340226Y-74553937D01*
X104509744Y-74667205D01*
X104698102Y-74745226D01*
X104898061Y-74785000D01*
X105101939Y-74785000D01*
X105301898Y-74745226D01*
X105490256Y-74667205D01*
X105659774Y-74553937D01*
X105803937Y-74409774D01*
X105917205Y-74240256D01*
X105995226Y-74051898D01*
X106035000Y-73851939D01*
X106035000Y-73648061D01*
X105995226Y-73448102D01*
X105917205Y-73259744D01*
X105842582Y-73148061D01*
X106715000Y-73148061D01*
X106715000Y-73351939D01*
X106754774Y-73551898D01*
X106832795Y-73740256D01*
X106946063Y-73909774D01*
X107090226Y-74053937D01*
X107196580Y-74125000D01*
X107090226Y-74196063D01*
X106946063Y-74340226D01*
X106832795Y-74509744D01*
X106754774Y-74698102D01*
X106715000Y-74898061D01*
X106715000Y-75101939D01*
X106754774Y-75301898D01*
X106832795Y-75490256D01*
X106865000Y-75538455D01*
X106865001Y-78861544D01*
X106832795Y-78909744D01*
X106754774Y-79098102D01*
X106715000Y-79298061D01*
X106715000Y-79501939D01*
X106754774Y-79701898D01*
X106832795Y-79890256D01*
X106946063Y-80059774D01*
X107090226Y-80203937D01*
X107259744Y-80317205D01*
X107448102Y-80395226D01*
X107648061Y-80435000D01*
X107851939Y-80435000D01*
X108051898Y-80395226D01*
X108240256Y-80317205D01*
X108409774Y-80203937D01*
X108553937Y-80059774D01*
X108667205Y-79890256D01*
X108745226Y-79701898D01*
X108785000Y-79501939D01*
X108785000Y-79298061D01*
X108745226Y-79098102D01*
X108711587Y-79016890D01*
X118808524Y-79016890D01*
X118853175Y-79164099D01*
X118978359Y-79426920D01*
X119152412Y-79660269D01*
X119368645Y-79855178D01*
X119618748Y-80004157D01*
X119893109Y-80101481D01*
X120123000Y-79980814D01*
X120123000Y-78787000D01*
X118929845Y-78787000D01*
X118808524Y-79016890D01*
X108711587Y-79016890D01*
X108667205Y-78909744D01*
X108635000Y-78861546D01*
X108635000Y-75538454D01*
X108667205Y-75490256D01*
X108745226Y-75301898D01*
X108785000Y-75101939D01*
X108785000Y-74898061D01*
X108745226Y-74698102D01*
X108667205Y-74509744D01*
X108553937Y-74340226D01*
X108409774Y-74196063D01*
X108303420Y-74125000D01*
X108409774Y-74053937D01*
X108553937Y-73909774D01*
X108667205Y-73740256D01*
X108705393Y-73648061D01*
X109465000Y-73648061D01*
X109465000Y-73851939D01*
X109504774Y-74051898D01*
X109582795Y-74240256D01*
X109696063Y-74409774D01*
X109840226Y-74553937D01*
X110009744Y-74667205D01*
X110198102Y-74745226D01*
X110398061Y-74785000D01*
X110601939Y-74785000D01*
X110801898Y-74745226D01*
X110990256Y-74667205D01*
X111159774Y-74553937D01*
X111303937Y-74409774D01*
X111417205Y-74240256D01*
X111495226Y-74051898D01*
X111535000Y-73851939D01*
X111535000Y-73648061D01*
X111495226Y-73448102D01*
X111474499Y-73398061D01*
X117215000Y-73398061D01*
X117215000Y-73601939D01*
X117254774Y-73801898D01*
X117332795Y-73990256D01*
X117446063Y-74159774D01*
X117590226Y-74303937D01*
X117759744Y-74417205D01*
X117948102Y-74495226D01*
X118148061Y-74535000D01*
X118210198Y-74535000D01*
X118941206Y-75266009D01*
X118965000Y-75295002D01*
X118993993Y-75318796D01*
X118993997Y-75318800D01*
X118997455Y-75321637D01*
X118934010Y-75416589D01*
X118822068Y-75686842D01*
X118765000Y-75973740D01*
X118765000Y-76266260D01*
X118822068Y-76553158D01*
X118934010Y-76823411D01*
X119096525Y-77066632D01*
X119303368Y-77273475D01*
X119485534Y-77395195D01*
X119368645Y-77464822D01*
X119152412Y-77659731D01*
X118978359Y-77893080D01*
X118853175Y-78155901D01*
X118808524Y-78303110D01*
X118929845Y-78533000D01*
X120123000Y-78533000D01*
X120123000Y-78513000D01*
X120377000Y-78513000D01*
X120377000Y-78533000D01*
X120397000Y-78533000D01*
X120397000Y-78787000D01*
X120377000Y-78787000D01*
X120377000Y-79980814D01*
X120606891Y-80101481D01*
X120881252Y-80004157D01*
X121131355Y-79855178D01*
X121347588Y-79660269D01*
X121518900Y-79430594D01*
X121636525Y-79606632D01*
X121843368Y-79813475D01*
X122086589Y-79975990D01*
X122356842Y-80087932D01*
X122643740Y-80145000D01*
X122936260Y-80145000D01*
X123223158Y-80087932D01*
X123493411Y-79975990D01*
X123736632Y-79813475D01*
X123943475Y-79606632D01*
X124105990Y-79363411D01*
X124217932Y-79093158D01*
X124275000Y-78806260D01*
X124275000Y-78513740D01*
X124217932Y-78226842D01*
X124105990Y-77956589D01*
X123943475Y-77713368D01*
X123736632Y-77506525D01*
X123562240Y-77390000D01*
X123736632Y-77273475D01*
X123943475Y-77066632D01*
X124105990Y-76823411D01*
X124217932Y-76553158D01*
X124275000Y-76266260D01*
X124275000Y-75973740D01*
X124217932Y-75686842D01*
X124105990Y-75416589D01*
X123943475Y-75173368D01*
X123736632Y-74966525D01*
X123554466Y-74844805D01*
X123671355Y-74775178D01*
X123887588Y-74580269D01*
X124061641Y-74346920D01*
X124186825Y-74084099D01*
X124231476Y-73936890D01*
X124110155Y-73707000D01*
X122917000Y-73707000D01*
X122917000Y-73727000D01*
X122663000Y-73727000D01*
X122663000Y-73707000D01*
X122643000Y-73707000D01*
X122643000Y-73453000D01*
X122663000Y-73453000D01*
X122663000Y-73433000D01*
X122917000Y-73433000D01*
X122917000Y-73453000D01*
X124110155Y-73453000D01*
X124231476Y-73223110D01*
X124186825Y-73075901D01*
X124061641Y-72813080D01*
X123887588Y-72579731D01*
X123671355Y-72384822D01*
X123554466Y-72315195D01*
X123736632Y-72193475D01*
X123943475Y-71986632D01*
X124105990Y-71743411D01*
X124217932Y-71473158D01*
X124275000Y-71186260D01*
X124275000Y-70893740D01*
X124217932Y-70606842D01*
X124105990Y-70336589D01*
X123943475Y-70093368D01*
X123736632Y-69886525D01*
X123562240Y-69770000D01*
X123736632Y-69653475D01*
X123943475Y-69446632D01*
X124105990Y-69203411D01*
X124217932Y-68933158D01*
X124275000Y-68646260D01*
X124275000Y-68353740D01*
X124217932Y-68066842D01*
X124105990Y-67796589D01*
X123943475Y-67553368D01*
X123736632Y-67346525D01*
X123493411Y-67184010D01*
X123223158Y-67072068D01*
X122936260Y-67015000D01*
X122643740Y-67015000D01*
X122356842Y-67072068D01*
X122086589Y-67184010D01*
X121843368Y-67346525D01*
X121711513Y-67478380D01*
X121689502Y-67405820D01*
X121630537Y-67295506D01*
X121551185Y-67198815D01*
X121454494Y-67119463D01*
X121344180Y-67060498D01*
X121224482Y-67024188D01*
X121100000Y-67011928D01*
X119400000Y-67011928D01*
X119275518Y-67024188D01*
X119155820Y-67060498D01*
X119045506Y-67119463D01*
X118948815Y-67198815D01*
X118869463Y-67295506D01*
X118810498Y-67405820D01*
X118774188Y-67525518D01*
X118761928Y-67650000D01*
X118761928Y-69350000D01*
X118774188Y-69474482D01*
X118810498Y-69594180D01*
X118869463Y-69704494D01*
X118948815Y-69801185D01*
X119045506Y-69880537D01*
X119155820Y-69939502D01*
X119228380Y-69961513D01*
X119096525Y-70093368D01*
X118934010Y-70336589D01*
X118822068Y-70606842D01*
X118765000Y-70893740D01*
X118765000Y-71186260D01*
X118822068Y-71473158D01*
X118934010Y-71743411D01*
X119096525Y-71986632D01*
X119303368Y-72193475D01*
X119477760Y-72310000D01*
X119303368Y-72426525D01*
X119096525Y-72633368D01*
X118996611Y-72782900D01*
X118909774Y-72696063D01*
X118740256Y-72582795D01*
X118551898Y-72504774D01*
X118351939Y-72465000D01*
X118148061Y-72465000D01*
X117948102Y-72504774D01*
X117759744Y-72582795D01*
X117590226Y-72696063D01*
X117446063Y-72840226D01*
X117332795Y-73009744D01*
X117254774Y-73198102D01*
X117215000Y-73398061D01*
X111474499Y-73398061D01*
X111417205Y-73259744D01*
X111303937Y-73090226D01*
X111159774Y-72946063D01*
X110990256Y-72832795D01*
X110801898Y-72754774D01*
X110601939Y-72715000D01*
X110398061Y-72715000D01*
X110198102Y-72754774D01*
X110009744Y-72832795D01*
X109840226Y-72946063D01*
X109696063Y-73090226D01*
X109582795Y-73259744D01*
X109504774Y-73448102D01*
X109465000Y-73648061D01*
X108705393Y-73648061D01*
X108745226Y-73551898D01*
X108785000Y-73351939D01*
X108785000Y-73148061D01*
X108745226Y-72948102D01*
X108667205Y-72759744D01*
X108553937Y-72590226D01*
X108409774Y-72446063D01*
X108240256Y-72332795D01*
X108051898Y-72254774D01*
X107851939Y-72215000D01*
X107648061Y-72215000D01*
X107448102Y-72254774D01*
X107259744Y-72332795D01*
X107090226Y-72446063D01*
X106946063Y-72590226D01*
X106832795Y-72759744D01*
X106754774Y-72948102D01*
X106715000Y-73148061D01*
X105842582Y-73148061D01*
X105803937Y-73090226D01*
X105659774Y-72946063D01*
X105490256Y-72832795D01*
X105301898Y-72754774D01*
X105101939Y-72715000D01*
X104898061Y-72715000D01*
X104698102Y-72754774D01*
X104509744Y-72832795D01*
X104340226Y-72946063D01*
X104196063Y-73090226D01*
X104082795Y-73259744D01*
X104004774Y-73448102D01*
X103965000Y-73648061D01*
X101660000Y-73648061D01*
X101660000Y-66397911D01*
X106340000Y-66397911D01*
X106340000Y-66582089D01*
X106375932Y-66762729D01*
X106446414Y-66932889D01*
X106496267Y-67007500D01*
X106446414Y-67082111D01*
X106375932Y-67252271D01*
X106340000Y-67432911D01*
X106340000Y-67617089D01*
X106375932Y-67797729D01*
X106446414Y-67967889D01*
X106548738Y-68121028D01*
X106678972Y-68251262D01*
X106832111Y-68353586D01*
X107002271Y-68424068D01*
X107182911Y-68460000D01*
X107367089Y-68460000D01*
X107547729Y-68424068D01*
X107717889Y-68353586D01*
X107815000Y-68288699D01*
X107815000Y-68342089D01*
X107850932Y-68522729D01*
X107921414Y-68692889D01*
X108023738Y-68846028D01*
X108153972Y-68976262D01*
X108307111Y-69078586D01*
X108477271Y-69149068D01*
X108657911Y-69185000D01*
X108842089Y-69185000D01*
X109022729Y-69149068D01*
X109192889Y-69078586D01*
X109295535Y-69010000D01*
X111154465Y-69010000D01*
X111251057Y-69074541D01*
X111220932Y-69147271D01*
X111185000Y-69327911D01*
X111185000Y-69512089D01*
X111220932Y-69692729D01*
X111291414Y-69862889D01*
X111393738Y-70016028D01*
X111523972Y-70146262D01*
X111677111Y-70248586D01*
X111847271Y-70319068D01*
X112027911Y-70355000D01*
X112212089Y-70355000D01*
X112392729Y-70319068D01*
X112562889Y-70248586D01*
X112716028Y-70146262D01*
X112846262Y-70016028D01*
X112948586Y-69862889D01*
X113019068Y-69692729D01*
X113046558Y-69554531D01*
X113054973Y-69544277D01*
X113125545Y-69412248D01*
X113169002Y-69268987D01*
X113179999Y-69157334D01*
X113179999Y-69157326D01*
X113183675Y-69120001D01*
X113179999Y-69082676D01*
X113179999Y-66660000D01*
X115154465Y-66660000D01*
X115257111Y-66728586D01*
X115427271Y-66799068D01*
X115607911Y-66835000D01*
X115792089Y-66835000D01*
X115972729Y-66799068D01*
X116142889Y-66728586D01*
X116296028Y-66626262D01*
X116426262Y-66496028D01*
X116528586Y-66342889D01*
X116599068Y-66172729D01*
X116635000Y-65992089D01*
X116635000Y-65807911D01*
X116599068Y-65627271D01*
X116528586Y-65457111D01*
X116426262Y-65303972D01*
X116296028Y-65173738D01*
X116142889Y-65071414D01*
X115972729Y-65000932D01*
X115792089Y-64965000D01*
X115607911Y-64965000D01*
X115427271Y-65000932D01*
X115257111Y-65071414D01*
X115154465Y-65140000D01*
X112877320Y-65140000D01*
X112839997Y-65136324D01*
X112802674Y-65140000D01*
X112802665Y-65140000D01*
X112691012Y-65150997D01*
X112547751Y-65194454D01*
X112415722Y-65265026D01*
X112299997Y-65359999D01*
X112276194Y-65389003D01*
X111965669Y-65699528D01*
X111792089Y-65665000D01*
X111607911Y-65665000D01*
X111427271Y-65700932D01*
X111257111Y-65771414D01*
X111143242Y-65847499D01*
X110608557Y-65847499D01*
X110617590Y-65838422D01*
X110746848Y-65643957D01*
X110835684Y-65428011D01*
X110880684Y-65198884D01*
X110725152Y-65012000D01*
X109822000Y-65012000D01*
X109822000Y-65032000D01*
X109568000Y-65032000D01*
X109568000Y-65012000D01*
X108664848Y-65012000D01*
X108509316Y-65198884D01*
X108554316Y-65428011D01*
X108643152Y-65643957D01*
X108772410Y-65838422D01*
X108781443Y-65847499D01*
X108229823Y-65847499D01*
X108192500Y-65843823D01*
X108155177Y-65847499D01*
X108155168Y-65847499D01*
X108043515Y-65858496D01*
X107983877Y-65876587D01*
X107871028Y-65763738D01*
X107717889Y-65661414D01*
X107547729Y-65590932D01*
X107367089Y-65555000D01*
X107182911Y-65555000D01*
X107002271Y-65590932D01*
X106832111Y-65661414D01*
X106678972Y-65763738D01*
X106548738Y-65893972D01*
X106446414Y-66047111D01*
X106375932Y-66217271D01*
X106340000Y-66397911D01*
X101660000Y-66397911D01*
X101660000Y-65198884D01*
X103669316Y-65198884D01*
X103714316Y-65428011D01*
X103803152Y-65643957D01*
X103932410Y-65838422D01*
X104097123Y-66003934D01*
X104290961Y-66134131D01*
X104506474Y-66224011D01*
X104545256Y-66228803D01*
X104728000Y-66103361D01*
X104728000Y-65012000D01*
X104982000Y-65012000D01*
X104982000Y-66103361D01*
X105164744Y-66228803D01*
X105203526Y-66224011D01*
X105419039Y-66134131D01*
X105612877Y-66003934D01*
X105777590Y-65838422D01*
X105906848Y-65643957D01*
X105995684Y-65428011D01*
X106040684Y-65198884D01*
X105885152Y-65012000D01*
X104982000Y-65012000D01*
X104728000Y-65012000D01*
X103824848Y-65012000D01*
X103669316Y-65198884D01*
X101660000Y-65198884D01*
X101660000Y-64571116D01*
X103669316Y-64571116D01*
X103824848Y-64758000D01*
X104728000Y-64758000D01*
X104728000Y-63666639D01*
X104982000Y-63666639D01*
X104982000Y-64758000D01*
X105885152Y-64758000D01*
X106040684Y-64571116D01*
X108509316Y-64571116D01*
X108664848Y-64758000D01*
X109568000Y-64758000D01*
X109568000Y-63666639D01*
X109822000Y-63666639D01*
X109822000Y-64758000D01*
X110725152Y-64758000D01*
X110880684Y-64571116D01*
X110835684Y-64341989D01*
X110746848Y-64126043D01*
X110617590Y-63931578D01*
X110452877Y-63766066D01*
X110259039Y-63635869D01*
X110043526Y-63545989D01*
X110004744Y-63541197D01*
X109822000Y-63666639D01*
X109568000Y-63666639D01*
X109385256Y-63541197D01*
X109346474Y-63545989D01*
X109130961Y-63635869D01*
X108937123Y-63766066D01*
X108772410Y-63931578D01*
X108643152Y-64126043D01*
X108554316Y-64341989D01*
X108509316Y-64571116D01*
X106040684Y-64571116D01*
X105995684Y-64341989D01*
X105906848Y-64126043D01*
X105777590Y-63931578D01*
X105612877Y-63766066D01*
X105419039Y-63635869D01*
X105203526Y-63545989D01*
X105164744Y-63541197D01*
X104982000Y-63666639D01*
X104728000Y-63666639D01*
X104545256Y-63541197D01*
X104506474Y-63545989D01*
X104290961Y-63635869D01*
X104097123Y-63766066D01*
X103932410Y-63931578D01*
X103803152Y-64126043D01*
X103714316Y-64341989D01*
X103669316Y-64571116D01*
X101660000Y-64571116D01*
X101660000Y-62217884D01*
X103241325Y-62217884D01*
X103297176Y-62469185D01*
X103400981Y-62704761D01*
X103548750Y-62915559D01*
X103734804Y-63093478D01*
X103951993Y-63231681D01*
X104191971Y-63324857D01*
X104215600Y-63327910D01*
X104418000Y-63204224D01*
X104418000Y-62012000D01*
X104672000Y-62012000D01*
X104672000Y-63204224D01*
X104874400Y-63327910D01*
X104898029Y-63324857D01*
X105138007Y-63231681D01*
X105355196Y-63093478D01*
X105541250Y-62915559D01*
X105689019Y-62704761D01*
X105792824Y-62469185D01*
X105848675Y-62217884D01*
X108701325Y-62217884D01*
X108757176Y-62469185D01*
X108860981Y-62704761D01*
X109008750Y-62915559D01*
X109194804Y-63093478D01*
X109411993Y-63231681D01*
X109651971Y-63324857D01*
X109675600Y-63327910D01*
X109878000Y-63204224D01*
X109878000Y-62012000D01*
X110132000Y-62012000D01*
X110132000Y-63204224D01*
X110334400Y-63327910D01*
X110358029Y-63324857D01*
X110410472Y-63304495D01*
X119515000Y-63304495D01*
X119515000Y-63695505D01*
X119591282Y-64079003D01*
X119740915Y-64440250D01*
X119958149Y-64765364D01*
X120234636Y-65041851D01*
X120559750Y-65259085D01*
X120920997Y-65408718D01*
X121304495Y-65485000D01*
X121695505Y-65485000D01*
X122079003Y-65408718D01*
X122440250Y-65259085D01*
X122765364Y-65041851D01*
X123041851Y-64765364D01*
X123259085Y-64440250D01*
X123408718Y-64079003D01*
X123485000Y-63695505D01*
X123485000Y-63304495D01*
X123408718Y-62920997D01*
X123259085Y-62559750D01*
X123041851Y-62234636D01*
X122765364Y-61958149D01*
X122440250Y-61740915D01*
X122079003Y-61591282D01*
X121695505Y-61515000D01*
X121304495Y-61515000D01*
X120920997Y-61591282D01*
X120559750Y-61740915D01*
X120234636Y-61958149D01*
X119958149Y-62234636D01*
X119740915Y-62559750D01*
X119591282Y-62920997D01*
X119515000Y-63304495D01*
X110410472Y-63304495D01*
X110598007Y-63231681D01*
X110815196Y-63093478D01*
X111001250Y-62915559D01*
X111149019Y-62704761D01*
X111252824Y-62469185D01*
X111308675Y-62217884D01*
X111158573Y-62012000D01*
X110132000Y-62012000D01*
X109878000Y-62012000D01*
X108851427Y-62012000D01*
X108701325Y-62217884D01*
X105848675Y-62217884D01*
X105698573Y-62012000D01*
X104672000Y-62012000D01*
X104418000Y-62012000D01*
X103391427Y-62012000D01*
X103241325Y-62217884D01*
X101660000Y-62217884D01*
X101660000Y-61032279D01*
X101669580Y-60934576D01*
X101688580Y-60871644D01*
X101719445Y-60813595D01*
X101760989Y-60762657D01*
X101811644Y-60720752D01*
X101869471Y-60689485D01*
X101932272Y-60670044D01*
X102027835Y-60660000D01*
X103760769Y-60660000D01*
X103734804Y-60676522D01*
G37*
%TD.AperFunction*%
%TD*%
M02*
