%TF.GenerationSoftware,KiCad,Pcbnew,5.1.8*%
%TF.CreationDate,2021-01-14T21:39:32+09:00*%
%TF.ProjectId,rasp_usb,72617370-5f75-4736-922e-6b696361645f,rev?*%
%TF.SameCoordinates,Original*%
%TF.FileFunction,Paste,Top*%
%TF.FilePolarity,Positive*%
%FSLAX46Y46*%
G04 Gerber Fmt 4.6, Leading zero omitted, Abs format (unit mm)*
G04 Created by KiCad (PCBNEW 5.1.8) date 2021-01-14 21:39:32*
%MOMM*%
%LPD*%
G01*
G04 APERTURE LIST*
%ADD10R,3.800000X2.000000*%
%ADD11R,1.500000X2.000000*%
%ADD12R,0.900000X1.200000*%
%ADD13R,1.800000X1.900000*%
%ADD14R,2.300000X1.900000*%
%ADD15R,0.400000X1.400000*%
G04 APERTURE END LIST*
D10*
%TO.C,U1*%
X113000000Y-72600000D03*
D11*
X113000000Y-78900000D03*
X115300000Y-78900000D03*
X110700000Y-78900000D03*
%TD*%
%TO.C,C4*%
G36*
G01*
X109800000Y-67080000D02*
X109800000Y-67420000D01*
G75*
G02*
X109660000Y-67560000I-140000J0D01*
G01*
X109380000Y-67560000D01*
G75*
G02*
X109240000Y-67420000I0J140000D01*
G01*
X109240000Y-67080000D01*
G75*
G02*
X109380000Y-66940000I140000J0D01*
G01*
X109660000Y-66940000D01*
G75*
G02*
X109800000Y-67080000I0J-140000D01*
G01*
G37*
G36*
G01*
X110760000Y-67080000D02*
X110760000Y-67420000D01*
G75*
G02*
X110620000Y-67560000I-140000J0D01*
G01*
X110340000Y-67560000D01*
G75*
G02*
X110200000Y-67420000I0J140000D01*
G01*
X110200000Y-67080000D01*
G75*
G02*
X110340000Y-66940000I140000J0D01*
G01*
X110620000Y-66940000D01*
G75*
G02*
X110760000Y-67080000I0J-140000D01*
G01*
G37*
%TD*%
%TO.C,C5*%
G36*
G01*
X108350000Y-75175000D02*
X108850000Y-75175000D01*
G75*
G02*
X109075000Y-75400000I0J-225000D01*
G01*
X109075000Y-75850000D01*
G75*
G02*
X108850000Y-76075000I-225000J0D01*
G01*
X108350000Y-76075000D01*
G75*
G02*
X108125000Y-75850000I0J225000D01*
G01*
X108125000Y-75400000D01*
G75*
G02*
X108350000Y-75175000I225000J0D01*
G01*
G37*
G36*
G01*
X108350000Y-76725000D02*
X108850000Y-76725000D01*
G75*
G02*
X109075000Y-76950000I0J-225000D01*
G01*
X109075000Y-77400000D01*
G75*
G02*
X108850000Y-77625000I-225000J0D01*
G01*
X108350000Y-77625000D01*
G75*
G02*
X108125000Y-77400000I0J225000D01*
G01*
X108125000Y-76950000D01*
G75*
G02*
X108350000Y-76725000I225000J0D01*
G01*
G37*
%TD*%
%TO.C,C6*%
G36*
G01*
X110760000Y-68080000D02*
X110760000Y-68420000D01*
G75*
G02*
X110620000Y-68560000I-140000J0D01*
G01*
X110340000Y-68560000D01*
G75*
G02*
X110200000Y-68420000I0J140000D01*
G01*
X110200000Y-68080000D01*
G75*
G02*
X110340000Y-67940000I140000J0D01*
G01*
X110620000Y-67940000D01*
G75*
G02*
X110760000Y-68080000I0J-140000D01*
G01*
G37*
G36*
G01*
X109800000Y-68080000D02*
X109800000Y-68420000D01*
G75*
G02*
X109660000Y-68560000I-140000J0D01*
G01*
X109380000Y-68560000D01*
G75*
G02*
X109240000Y-68420000I0J140000D01*
G01*
X109240000Y-68080000D01*
G75*
G02*
X109380000Y-67940000I140000J0D01*
G01*
X109660000Y-67940000D01*
G75*
G02*
X109800000Y-68080000I0J-140000D01*
G01*
G37*
%TD*%
%TO.C,C8*%
G36*
G01*
X108850000Y-79125000D02*
X108350000Y-79125000D01*
G75*
G02*
X108125000Y-78900000I0J225000D01*
G01*
X108125000Y-78450000D01*
G75*
G02*
X108350000Y-78225000I225000J0D01*
G01*
X108850000Y-78225000D01*
G75*
G02*
X109075000Y-78450000I0J-225000D01*
G01*
X109075000Y-78900000D01*
G75*
G02*
X108850000Y-79125000I-225000J0D01*
G01*
G37*
G36*
G01*
X108850000Y-80675000D02*
X108350000Y-80675000D01*
G75*
G02*
X108125000Y-80450000I0J225000D01*
G01*
X108125000Y-80000000D01*
G75*
G02*
X108350000Y-79775000I225000J0D01*
G01*
X108850000Y-79775000D01*
G75*
G02*
X109075000Y-80000000I0J-225000D01*
G01*
X109075000Y-80450000D01*
G75*
G02*
X108850000Y-80675000I-225000J0D01*
G01*
G37*
%TD*%
%TO.C,FB1*%
G36*
G01*
X113525000Y-70756250D02*
X113525000Y-70243750D01*
G75*
G02*
X113743750Y-70025000I218750J0D01*
G01*
X114181250Y-70025000D01*
G75*
G02*
X114400000Y-70243750I0J-218750D01*
G01*
X114400000Y-70756250D01*
G75*
G02*
X114181250Y-70975000I-218750J0D01*
G01*
X113743750Y-70975000D01*
G75*
G02*
X113525000Y-70756250I0J218750D01*
G01*
G37*
G36*
G01*
X115100000Y-70756250D02*
X115100000Y-70243750D01*
G75*
G02*
X115318750Y-70025000I218750J0D01*
G01*
X115756250Y-70025000D01*
G75*
G02*
X115975000Y-70243750I0J-218750D01*
G01*
X115975000Y-70756250D01*
G75*
G02*
X115756250Y-70975000I-218750J0D01*
G01*
X115318750Y-70975000D01*
G75*
G02*
X115100000Y-70756250I0J218750D01*
G01*
G37*
%TD*%
%TO.C,R3*%
G36*
G01*
X113815000Y-68490000D02*
X114185000Y-68490000D01*
G75*
G02*
X114320000Y-68625000I0J-135000D01*
G01*
X114320000Y-68895000D01*
G75*
G02*
X114185000Y-69030000I-135000J0D01*
G01*
X113815000Y-69030000D01*
G75*
G02*
X113680000Y-68895000I0J135000D01*
G01*
X113680000Y-68625000D01*
G75*
G02*
X113815000Y-68490000I135000J0D01*
G01*
G37*
G36*
G01*
X113815000Y-67470000D02*
X114185000Y-67470000D01*
G75*
G02*
X114320000Y-67605000I0J-135000D01*
G01*
X114320000Y-67875000D01*
G75*
G02*
X114185000Y-68010000I-135000J0D01*
G01*
X113815000Y-68010000D01*
G75*
G02*
X113680000Y-67875000I0J135000D01*
G01*
X113680000Y-67605000D01*
G75*
G02*
X113815000Y-67470000I135000J0D01*
G01*
G37*
%TD*%
%TO.C,R4*%
G36*
G01*
X112315000Y-66970000D02*
X112685000Y-66970000D01*
G75*
G02*
X112820000Y-67105000I0J-135000D01*
G01*
X112820000Y-67375000D01*
G75*
G02*
X112685000Y-67510000I-135000J0D01*
G01*
X112315000Y-67510000D01*
G75*
G02*
X112180000Y-67375000I0J135000D01*
G01*
X112180000Y-67105000D01*
G75*
G02*
X112315000Y-66970000I135000J0D01*
G01*
G37*
G36*
G01*
X112315000Y-67990000D02*
X112685000Y-67990000D01*
G75*
G02*
X112820000Y-68125000I0J-135000D01*
G01*
X112820000Y-68395000D01*
G75*
G02*
X112685000Y-68530000I-135000J0D01*
G01*
X112315000Y-68530000D01*
G75*
G02*
X112180000Y-68395000I0J135000D01*
G01*
X112180000Y-68125000D01*
G75*
G02*
X112315000Y-67990000I135000J0D01*
G01*
G37*
%TD*%
%TO.C,F1*%
G36*
G01*
X108343750Y-72175000D02*
X108856250Y-72175000D01*
G75*
G02*
X109075000Y-72393750I0J-218750D01*
G01*
X109075000Y-72831250D01*
G75*
G02*
X108856250Y-73050000I-218750J0D01*
G01*
X108343750Y-73050000D01*
G75*
G02*
X108125000Y-72831250I0J218750D01*
G01*
X108125000Y-72393750D01*
G75*
G02*
X108343750Y-72175000I218750J0D01*
G01*
G37*
G36*
G01*
X108343750Y-73750000D02*
X108856250Y-73750000D01*
G75*
G02*
X109075000Y-73968750I0J-218750D01*
G01*
X109075000Y-74406250D01*
G75*
G02*
X108856250Y-74625000I-218750J0D01*
G01*
X108343750Y-74625000D01*
G75*
G02*
X108125000Y-74406250I0J218750D01*
G01*
X108125000Y-73968750D01*
G75*
G02*
X108343750Y-73750000I218750J0D01*
G01*
G37*
%TD*%
D12*
%TO.C,D1*%
X109100000Y-70100000D03*
X112400000Y-70100000D03*
%TD*%
%TO.C,C9*%
G36*
G01*
X110650000Y-84175000D02*
X110150000Y-84175000D01*
G75*
G02*
X109925000Y-83950000I0J225000D01*
G01*
X109925000Y-83500000D01*
G75*
G02*
X110150000Y-83275000I225000J0D01*
G01*
X110650000Y-83275000D01*
G75*
G02*
X110875000Y-83500000I0J-225000D01*
G01*
X110875000Y-83950000D01*
G75*
G02*
X110650000Y-84175000I-225000J0D01*
G01*
G37*
G36*
G01*
X110650000Y-85725000D02*
X110150000Y-85725000D01*
G75*
G02*
X109925000Y-85500000I0J225000D01*
G01*
X109925000Y-85050000D01*
G75*
G02*
X110150000Y-84825000I225000J0D01*
G01*
X110650000Y-84825000D01*
G75*
G02*
X110875000Y-85050000I0J-225000D01*
G01*
X110875000Y-85500000D01*
G75*
G02*
X110650000Y-85725000I-225000J0D01*
G01*
G37*
%TD*%
%TO.C,C10*%
G36*
G01*
X119525000Y-83750000D02*
X119525000Y-83250000D01*
G75*
G02*
X119750000Y-83025000I225000J0D01*
G01*
X120200000Y-83025000D01*
G75*
G02*
X120425000Y-83250000I0J-225000D01*
G01*
X120425000Y-83750000D01*
G75*
G02*
X120200000Y-83975000I-225000J0D01*
G01*
X119750000Y-83975000D01*
G75*
G02*
X119525000Y-83750000I0J225000D01*
G01*
G37*
G36*
G01*
X121075000Y-83750000D02*
X121075000Y-83250000D01*
G75*
G02*
X121300000Y-83025000I225000J0D01*
G01*
X121750000Y-83025000D01*
G75*
G02*
X121975000Y-83250000I0J-225000D01*
G01*
X121975000Y-83750000D01*
G75*
G02*
X121750000Y-83975000I-225000J0D01*
G01*
X121300000Y-83975000D01*
G75*
G02*
X121075000Y-83750000I0J225000D01*
G01*
G37*
%TD*%
%TO.C,R6*%
G36*
G01*
X113720000Y-87935000D02*
X113720000Y-87565000D01*
G75*
G02*
X113855000Y-87430000I135000J0D01*
G01*
X114125000Y-87430000D01*
G75*
G02*
X114260000Y-87565000I0J-135000D01*
G01*
X114260000Y-87935000D01*
G75*
G02*
X114125000Y-88070000I-135000J0D01*
G01*
X113855000Y-88070000D01*
G75*
G02*
X113720000Y-87935000I0J135000D01*
G01*
G37*
G36*
G01*
X114740000Y-87935000D02*
X114740000Y-87565000D01*
G75*
G02*
X114875000Y-87430000I135000J0D01*
G01*
X115145000Y-87430000D01*
G75*
G02*
X115280000Y-87565000I0J-135000D01*
G01*
X115280000Y-87935000D01*
G75*
G02*
X115145000Y-88070000I-135000J0D01*
G01*
X114875000Y-88070000D01*
G75*
G02*
X114740000Y-87935000I0J135000D01*
G01*
G37*
%TD*%
%TO.C,U3*%
G36*
G01*
X112600000Y-83112500D02*
X112600000Y-82987500D01*
G75*
G02*
X112662500Y-82925000I62500J0D01*
G01*
X113362500Y-82925000D01*
G75*
G02*
X113425000Y-82987500I0J-62500D01*
G01*
X113425000Y-83112500D01*
G75*
G02*
X113362500Y-83175000I-62500J0D01*
G01*
X112662500Y-83175000D01*
G75*
G02*
X112600000Y-83112500I0J62500D01*
G01*
G37*
G36*
G01*
X112600000Y-83612500D02*
X112600000Y-83487500D01*
G75*
G02*
X112662500Y-83425000I62500J0D01*
G01*
X113362500Y-83425000D01*
G75*
G02*
X113425000Y-83487500I0J-62500D01*
G01*
X113425000Y-83612500D01*
G75*
G02*
X113362500Y-83675000I-62500J0D01*
G01*
X112662500Y-83675000D01*
G75*
G02*
X112600000Y-83612500I0J62500D01*
G01*
G37*
G36*
G01*
X112600000Y-84112500D02*
X112600000Y-83987500D01*
G75*
G02*
X112662500Y-83925000I62500J0D01*
G01*
X113362500Y-83925000D01*
G75*
G02*
X113425000Y-83987500I0J-62500D01*
G01*
X113425000Y-84112500D01*
G75*
G02*
X113362500Y-84175000I-62500J0D01*
G01*
X112662500Y-84175000D01*
G75*
G02*
X112600000Y-84112500I0J62500D01*
G01*
G37*
G36*
G01*
X112600000Y-84612500D02*
X112600000Y-84487500D01*
G75*
G02*
X112662500Y-84425000I62500J0D01*
G01*
X113362500Y-84425000D01*
G75*
G02*
X113425000Y-84487500I0J-62500D01*
G01*
X113425000Y-84612500D01*
G75*
G02*
X113362500Y-84675000I-62500J0D01*
G01*
X112662500Y-84675000D01*
G75*
G02*
X112600000Y-84612500I0J62500D01*
G01*
G37*
G36*
G01*
X112600000Y-85112500D02*
X112600000Y-84987500D01*
G75*
G02*
X112662500Y-84925000I62500J0D01*
G01*
X113362500Y-84925000D01*
G75*
G02*
X113425000Y-84987500I0J-62500D01*
G01*
X113425000Y-85112500D01*
G75*
G02*
X113362500Y-85175000I-62500J0D01*
G01*
X112662500Y-85175000D01*
G75*
G02*
X112600000Y-85112500I0J62500D01*
G01*
G37*
G36*
G01*
X112600000Y-85612500D02*
X112600000Y-85487500D01*
G75*
G02*
X112662500Y-85425000I62500J0D01*
G01*
X113362500Y-85425000D01*
G75*
G02*
X113425000Y-85487500I0J-62500D01*
G01*
X113425000Y-85612500D01*
G75*
G02*
X113362500Y-85675000I-62500J0D01*
G01*
X112662500Y-85675000D01*
G75*
G02*
X112600000Y-85612500I0J62500D01*
G01*
G37*
G36*
G01*
X113575000Y-86587500D02*
X113575000Y-85887500D01*
G75*
G02*
X113637500Y-85825000I62500J0D01*
G01*
X113762500Y-85825000D01*
G75*
G02*
X113825000Y-85887500I0J-62500D01*
G01*
X113825000Y-86587500D01*
G75*
G02*
X113762500Y-86650000I-62500J0D01*
G01*
X113637500Y-86650000D01*
G75*
G02*
X113575000Y-86587500I0J62500D01*
G01*
G37*
G36*
G01*
X114075000Y-86587500D02*
X114075000Y-85887500D01*
G75*
G02*
X114137500Y-85825000I62500J0D01*
G01*
X114262500Y-85825000D01*
G75*
G02*
X114325000Y-85887500I0J-62500D01*
G01*
X114325000Y-86587500D01*
G75*
G02*
X114262500Y-86650000I-62500J0D01*
G01*
X114137500Y-86650000D01*
G75*
G02*
X114075000Y-86587500I0J62500D01*
G01*
G37*
G36*
G01*
X114575000Y-86587500D02*
X114575000Y-85887500D01*
G75*
G02*
X114637500Y-85825000I62500J0D01*
G01*
X114762500Y-85825000D01*
G75*
G02*
X114825000Y-85887500I0J-62500D01*
G01*
X114825000Y-86587500D01*
G75*
G02*
X114762500Y-86650000I-62500J0D01*
G01*
X114637500Y-86650000D01*
G75*
G02*
X114575000Y-86587500I0J62500D01*
G01*
G37*
G36*
G01*
X115075000Y-86587500D02*
X115075000Y-85887500D01*
G75*
G02*
X115137500Y-85825000I62500J0D01*
G01*
X115262500Y-85825000D01*
G75*
G02*
X115325000Y-85887500I0J-62500D01*
G01*
X115325000Y-86587500D01*
G75*
G02*
X115262500Y-86650000I-62500J0D01*
G01*
X115137500Y-86650000D01*
G75*
G02*
X115075000Y-86587500I0J62500D01*
G01*
G37*
G36*
G01*
X115575000Y-86587500D02*
X115575000Y-85887500D01*
G75*
G02*
X115637500Y-85825000I62500J0D01*
G01*
X115762500Y-85825000D01*
G75*
G02*
X115825000Y-85887500I0J-62500D01*
G01*
X115825000Y-86587500D01*
G75*
G02*
X115762500Y-86650000I-62500J0D01*
G01*
X115637500Y-86650000D01*
G75*
G02*
X115575000Y-86587500I0J62500D01*
G01*
G37*
G36*
G01*
X116075000Y-86587500D02*
X116075000Y-85887500D01*
G75*
G02*
X116137500Y-85825000I62500J0D01*
G01*
X116262500Y-85825000D01*
G75*
G02*
X116325000Y-85887500I0J-62500D01*
G01*
X116325000Y-86587500D01*
G75*
G02*
X116262500Y-86650000I-62500J0D01*
G01*
X116137500Y-86650000D01*
G75*
G02*
X116075000Y-86587500I0J62500D01*
G01*
G37*
G36*
G01*
X116475000Y-85612500D02*
X116475000Y-85487500D01*
G75*
G02*
X116537500Y-85425000I62500J0D01*
G01*
X117237500Y-85425000D01*
G75*
G02*
X117300000Y-85487500I0J-62500D01*
G01*
X117300000Y-85612500D01*
G75*
G02*
X117237500Y-85675000I-62500J0D01*
G01*
X116537500Y-85675000D01*
G75*
G02*
X116475000Y-85612500I0J62500D01*
G01*
G37*
G36*
G01*
X116475000Y-85112500D02*
X116475000Y-84987500D01*
G75*
G02*
X116537500Y-84925000I62500J0D01*
G01*
X117237500Y-84925000D01*
G75*
G02*
X117300000Y-84987500I0J-62500D01*
G01*
X117300000Y-85112500D01*
G75*
G02*
X117237500Y-85175000I-62500J0D01*
G01*
X116537500Y-85175000D01*
G75*
G02*
X116475000Y-85112500I0J62500D01*
G01*
G37*
G36*
G01*
X116475000Y-84612500D02*
X116475000Y-84487500D01*
G75*
G02*
X116537500Y-84425000I62500J0D01*
G01*
X117237500Y-84425000D01*
G75*
G02*
X117300000Y-84487500I0J-62500D01*
G01*
X117300000Y-84612500D01*
G75*
G02*
X117237500Y-84675000I-62500J0D01*
G01*
X116537500Y-84675000D01*
G75*
G02*
X116475000Y-84612500I0J62500D01*
G01*
G37*
G36*
G01*
X116475000Y-84112500D02*
X116475000Y-83987500D01*
G75*
G02*
X116537500Y-83925000I62500J0D01*
G01*
X117237500Y-83925000D01*
G75*
G02*
X117300000Y-83987500I0J-62500D01*
G01*
X117300000Y-84112500D01*
G75*
G02*
X117237500Y-84175000I-62500J0D01*
G01*
X116537500Y-84175000D01*
G75*
G02*
X116475000Y-84112500I0J62500D01*
G01*
G37*
G36*
G01*
X116475000Y-83612500D02*
X116475000Y-83487500D01*
G75*
G02*
X116537500Y-83425000I62500J0D01*
G01*
X117237500Y-83425000D01*
G75*
G02*
X117300000Y-83487500I0J-62500D01*
G01*
X117300000Y-83612500D01*
G75*
G02*
X117237500Y-83675000I-62500J0D01*
G01*
X116537500Y-83675000D01*
G75*
G02*
X116475000Y-83612500I0J62500D01*
G01*
G37*
G36*
G01*
X116475000Y-83112500D02*
X116475000Y-82987500D01*
G75*
G02*
X116537500Y-82925000I62500J0D01*
G01*
X117237500Y-82925000D01*
G75*
G02*
X117300000Y-82987500I0J-62500D01*
G01*
X117300000Y-83112500D01*
G75*
G02*
X117237500Y-83175000I-62500J0D01*
G01*
X116537500Y-83175000D01*
G75*
G02*
X116475000Y-83112500I0J62500D01*
G01*
G37*
G36*
G01*
X116075000Y-82712500D02*
X116075000Y-82012500D01*
G75*
G02*
X116137500Y-81950000I62500J0D01*
G01*
X116262500Y-81950000D01*
G75*
G02*
X116325000Y-82012500I0J-62500D01*
G01*
X116325000Y-82712500D01*
G75*
G02*
X116262500Y-82775000I-62500J0D01*
G01*
X116137500Y-82775000D01*
G75*
G02*
X116075000Y-82712500I0J62500D01*
G01*
G37*
G36*
G01*
X115575000Y-82712500D02*
X115575000Y-82012500D01*
G75*
G02*
X115637500Y-81950000I62500J0D01*
G01*
X115762500Y-81950000D01*
G75*
G02*
X115825000Y-82012500I0J-62500D01*
G01*
X115825000Y-82712500D01*
G75*
G02*
X115762500Y-82775000I-62500J0D01*
G01*
X115637500Y-82775000D01*
G75*
G02*
X115575000Y-82712500I0J62500D01*
G01*
G37*
G36*
G01*
X115075000Y-82712500D02*
X115075000Y-82012500D01*
G75*
G02*
X115137500Y-81950000I62500J0D01*
G01*
X115262500Y-81950000D01*
G75*
G02*
X115325000Y-82012500I0J-62500D01*
G01*
X115325000Y-82712500D01*
G75*
G02*
X115262500Y-82775000I-62500J0D01*
G01*
X115137500Y-82775000D01*
G75*
G02*
X115075000Y-82712500I0J62500D01*
G01*
G37*
G36*
G01*
X114575000Y-82712500D02*
X114575000Y-82012500D01*
G75*
G02*
X114637500Y-81950000I62500J0D01*
G01*
X114762500Y-81950000D01*
G75*
G02*
X114825000Y-82012500I0J-62500D01*
G01*
X114825000Y-82712500D01*
G75*
G02*
X114762500Y-82775000I-62500J0D01*
G01*
X114637500Y-82775000D01*
G75*
G02*
X114575000Y-82712500I0J62500D01*
G01*
G37*
G36*
G01*
X114075000Y-82712500D02*
X114075000Y-82012500D01*
G75*
G02*
X114137500Y-81950000I62500J0D01*
G01*
X114262500Y-81950000D01*
G75*
G02*
X114325000Y-82012500I0J-62500D01*
G01*
X114325000Y-82712500D01*
G75*
G02*
X114262500Y-82775000I-62500J0D01*
G01*
X114137500Y-82775000D01*
G75*
G02*
X114075000Y-82712500I0J62500D01*
G01*
G37*
G36*
G01*
X113575000Y-82712500D02*
X113575000Y-82012500D01*
G75*
G02*
X113637500Y-81950000I62500J0D01*
G01*
X113762500Y-81950000D01*
G75*
G02*
X113825000Y-82012500I0J-62500D01*
G01*
X113825000Y-82712500D01*
G75*
G02*
X113762500Y-82775000I-62500J0D01*
G01*
X113637500Y-82775000D01*
G75*
G02*
X113575000Y-82712500I0J62500D01*
G01*
G37*
G36*
G01*
X113775000Y-83925001D02*
X113775000Y-83374999D01*
G75*
G02*
X114024999Y-83125000I249999J0D01*
G01*
X114575001Y-83125000D01*
G75*
G02*
X114825000Y-83374999I0J-249999D01*
G01*
X114825000Y-83925001D01*
G75*
G02*
X114575001Y-84175000I-249999J0D01*
G01*
X114024999Y-84175000D01*
G75*
G02*
X113775000Y-83925001I0J249999D01*
G01*
G37*
G36*
G01*
X113775000Y-85225001D02*
X113775000Y-84674999D01*
G75*
G02*
X114024999Y-84425000I249999J0D01*
G01*
X114575001Y-84425000D01*
G75*
G02*
X114825000Y-84674999I0J-249999D01*
G01*
X114825000Y-85225001D01*
G75*
G02*
X114575001Y-85475000I-249999J0D01*
G01*
X114024999Y-85475000D01*
G75*
G02*
X113775000Y-85225001I0J249999D01*
G01*
G37*
G36*
G01*
X115075000Y-83925001D02*
X115075000Y-83374999D01*
G75*
G02*
X115324999Y-83125000I249999J0D01*
G01*
X115875001Y-83125000D01*
G75*
G02*
X116125000Y-83374999I0J-249999D01*
G01*
X116125000Y-83925001D01*
G75*
G02*
X115875001Y-84175000I-249999J0D01*
G01*
X115324999Y-84175000D01*
G75*
G02*
X115075000Y-83925001I0J249999D01*
G01*
G37*
G36*
G01*
X115075000Y-85225001D02*
X115075000Y-84674999D01*
G75*
G02*
X115324999Y-84425000I249999J0D01*
G01*
X115875001Y-84425000D01*
G75*
G02*
X116125000Y-84674999I0J-249999D01*
G01*
X116125000Y-85225001D01*
G75*
G02*
X115875001Y-85475000I-249999J0D01*
G01*
X115324999Y-85475000D01*
G75*
G02*
X115075000Y-85225001I0J249999D01*
G01*
G37*
%TD*%
%TO.C,D2*%
G36*
G01*
X107427500Y-85045000D02*
X107772500Y-85045000D01*
G75*
G02*
X107920000Y-85192500I0J-147500D01*
G01*
X107920000Y-85487500D01*
G75*
G02*
X107772500Y-85635000I-147500J0D01*
G01*
X107427500Y-85635000D01*
G75*
G02*
X107280000Y-85487500I0J147500D01*
G01*
X107280000Y-85192500D01*
G75*
G02*
X107427500Y-85045000I147500J0D01*
G01*
G37*
G36*
G01*
X107427500Y-86015000D02*
X107772500Y-86015000D01*
G75*
G02*
X107920000Y-86162500I0J-147500D01*
G01*
X107920000Y-86457500D01*
G75*
G02*
X107772500Y-86605000I-147500J0D01*
G01*
X107427500Y-86605000D01*
G75*
G02*
X107280000Y-86457500I0J147500D01*
G01*
X107280000Y-86162500D01*
G75*
G02*
X107427500Y-86015000I147500J0D01*
G01*
G37*
%TD*%
%TO.C,D3*%
G36*
G01*
X121272500Y-87260000D02*
X120927500Y-87260000D01*
G75*
G02*
X120780000Y-87112500I0J147500D01*
G01*
X120780000Y-86817500D01*
G75*
G02*
X120927500Y-86670000I147500J0D01*
G01*
X121272500Y-86670000D01*
G75*
G02*
X121420000Y-86817500I0J-147500D01*
G01*
X121420000Y-87112500D01*
G75*
G02*
X121272500Y-87260000I-147500J0D01*
G01*
G37*
G36*
G01*
X121272500Y-88230000D02*
X120927500Y-88230000D01*
G75*
G02*
X120780000Y-88082500I0J147500D01*
G01*
X120780000Y-87787500D01*
G75*
G02*
X120927500Y-87640000I147500J0D01*
G01*
X121272500Y-87640000D01*
G75*
G02*
X121420000Y-87787500I0J-147500D01*
G01*
X121420000Y-88082500D01*
G75*
G02*
X121272500Y-88230000I-147500J0D01*
G01*
G37*
%TD*%
%TO.C,D4*%
G36*
G01*
X120122500Y-88230000D02*
X119777500Y-88230000D01*
G75*
G02*
X119630000Y-88082500I0J147500D01*
G01*
X119630000Y-87787500D01*
G75*
G02*
X119777500Y-87640000I147500J0D01*
G01*
X120122500Y-87640000D01*
G75*
G02*
X120270000Y-87787500I0J-147500D01*
G01*
X120270000Y-88082500D01*
G75*
G02*
X120122500Y-88230000I-147500J0D01*
G01*
G37*
G36*
G01*
X120122500Y-87260000D02*
X119777500Y-87260000D01*
G75*
G02*
X119630000Y-87112500I0J147500D01*
G01*
X119630000Y-86817500D01*
G75*
G02*
X119777500Y-86670000I147500J0D01*
G01*
X120122500Y-86670000D01*
G75*
G02*
X120270000Y-86817500I0J-147500D01*
G01*
X120270000Y-87112500D01*
G75*
G02*
X120122500Y-87260000I-147500J0D01*
G01*
G37*
%TD*%
%TO.C,R1*%
G36*
G01*
X120915000Y-84720000D02*
X121285000Y-84720000D01*
G75*
G02*
X121420000Y-84855000I0J-135000D01*
G01*
X121420000Y-85125000D01*
G75*
G02*
X121285000Y-85260000I-135000J0D01*
G01*
X120915000Y-85260000D01*
G75*
G02*
X120780000Y-85125000I0J135000D01*
G01*
X120780000Y-84855000D01*
G75*
G02*
X120915000Y-84720000I135000J0D01*
G01*
G37*
G36*
G01*
X120915000Y-85740000D02*
X121285000Y-85740000D01*
G75*
G02*
X121420000Y-85875000I0J-135000D01*
G01*
X121420000Y-86145000D01*
G75*
G02*
X121285000Y-86280000I-135000J0D01*
G01*
X120915000Y-86280000D01*
G75*
G02*
X120780000Y-86145000I0J135000D01*
G01*
X120780000Y-85875000D01*
G75*
G02*
X120915000Y-85740000I135000J0D01*
G01*
G37*
%TD*%
%TO.C,R2*%
G36*
G01*
X120135000Y-85260000D02*
X119765000Y-85260000D01*
G75*
G02*
X119630000Y-85125000I0J135000D01*
G01*
X119630000Y-84855000D01*
G75*
G02*
X119765000Y-84720000I135000J0D01*
G01*
X120135000Y-84720000D01*
G75*
G02*
X120270000Y-84855000I0J-135000D01*
G01*
X120270000Y-85125000D01*
G75*
G02*
X120135000Y-85260000I-135000J0D01*
G01*
G37*
G36*
G01*
X120135000Y-86280000D02*
X119765000Y-86280000D01*
G75*
G02*
X119630000Y-86145000I0J135000D01*
G01*
X119630000Y-85875000D01*
G75*
G02*
X119765000Y-85740000I135000J0D01*
G01*
X120135000Y-85740000D01*
G75*
G02*
X120270000Y-85875000I0J-135000D01*
G01*
X120270000Y-86145000D01*
G75*
G02*
X120135000Y-86280000I-135000J0D01*
G01*
G37*
%TD*%
%TO.C,R5*%
G36*
G01*
X108810000Y-86605000D02*
X108440000Y-86605000D01*
G75*
G02*
X108305000Y-86470000I0J135000D01*
G01*
X108305000Y-86200000D01*
G75*
G02*
X108440000Y-86065000I135000J0D01*
G01*
X108810000Y-86065000D01*
G75*
G02*
X108945000Y-86200000I0J-135000D01*
G01*
X108945000Y-86470000D01*
G75*
G02*
X108810000Y-86605000I-135000J0D01*
G01*
G37*
G36*
G01*
X108810000Y-85585000D02*
X108440000Y-85585000D01*
G75*
G02*
X108305000Y-85450000I0J135000D01*
G01*
X108305000Y-85180000D01*
G75*
G02*
X108440000Y-85045000I135000J0D01*
G01*
X108810000Y-85045000D01*
G75*
G02*
X108945000Y-85180000I0J-135000D01*
G01*
X108945000Y-85450000D01*
G75*
G02*
X108810000Y-85585000I-135000J0D01*
G01*
G37*
%TD*%
D13*
%TO.C,J1*%
X111850000Y-62200000D03*
X114150000Y-62200000D03*
D14*
X109250000Y-62200000D03*
X116750000Y-62200000D03*
D15*
X111700000Y-65050000D03*
X112350000Y-65050000D03*
X113000000Y-65050000D03*
X113650000Y-65050000D03*
X114300000Y-65050000D03*
%TD*%
M02*
