M48
; DRILL file {KiCad 5.1.8} date Wed Nov 25 09:49:14 2020
; FORMAT={-:-/ absolute / inch / decimal}
; #@! TF.CreationDate,2020-11-25T09:49:14+09:00
; #@! TF.GenerationSoftware,Kicad,Pcbnew,5.1.8
; #@! TF.FileFunction,Plated,1,2,PTH
FMAT,2
INCH
T1C0.0157
T2C0.0256
T3C0.0276
T4C0.0394
%
G90
G05
T1
X4.0689Y-3.0571
X4.0689Y-3.1181
X4.1339Y-2.9035
X4.1535Y-3.1299
X4.2234Y-2.6177
X4.2234Y-2.6585
X4.2421Y-2.8839
X4.2421Y-2.9528
X4.2421Y-3.126
X4.2812Y-2.6469
X4.2815Y-2.687
X4.3504Y-2.9035
X4.3907Y-2.7165
X4.3907Y-2.753
X4.3907Y-2.7913
X4.4587Y-2.9537
X4.4892Y-2.623
X4.6073Y-2.6663
X4.6152Y-2.622
T4
X4.7343Y-2.6969
X4.7343Y-2.7969
X4.7343Y-2.8969
X4.7343Y-2.9969
X4.7343Y-3.0969
X4.8343Y-2.6969
X4.8343Y-2.7969
X4.8343Y-2.8969
X4.8343Y-2.9969
X4.8343Y-3.0969
T2
G00X4.1281Y-2.5467
M15
G01X4.1281Y-2.5624
M16
G05
G00X4.3187Y-2.5467
M15
G01X4.3187Y-2.5624
M16
G05
T3
G00X4.1159Y-2.4266
M15
G01X4.1159Y-2.4463
M16
G05
G00X4.3309Y-2.4266
M15
G01X4.3309Y-2.4463
M16
G05
T0
M30
