%TF.GenerationSoftware,KiCad,Pcbnew,5.1.8*%
%TF.CreationDate,2021-01-10T17:00:31+09:00*%
%TF.ProjectId,rasp_usb,72617370-5f75-4736-922e-6b696361645f,rev?*%
%TF.SameCoordinates,Original*%
%TF.FileFunction,Legend,Top*%
%TF.FilePolarity,Positive*%
%FSLAX46Y46*%
G04 Gerber Fmt 4.6, Leading zero omitted, Abs format (unit mm)*
G04 Created by KiCad (PCBNEW 5.1.8) date 2021-01-10 17:00:31*
%MOMM*%
%LPD*%
G01*
G04 APERTURE LIST*
%ADD10C,0.200000*%
%ADD11C,0.300000*%
%ADD12C,0.010000*%
%ADD13C,0.120000*%
%ADD14C,0.100000*%
%ADD15C,0.150000*%
G04 APERTURE END LIST*
D10*
X108312619Y-88952380D02*
X108437619Y-87952380D01*
X108818571Y-87952380D01*
X108907857Y-88000000D01*
X108949523Y-88047619D01*
X108985238Y-88142857D01*
X108967380Y-88285714D01*
X108907857Y-88380952D01*
X108854285Y-88428571D01*
X108753095Y-88476190D01*
X108372142Y-88476190D01*
X109342380Y-87952380D02*
X109455476Y-88952380D01*
X109735238Y-88238095D01*
X109836428Y-88952380D01*
X110199523Y-87952380D01*
X111026904Y-88952380D02*
X110753095Y-88476190D01*
X110455476Y-88952380D02*
X110580476Y-87952380D01*
X110961428Y-87952380D01*
X111050714Y-88000000D01*
X111092380Y-88047619D01*
X111128095Y-88142857D01*
X111110238Y-88285714D01*
X111050714Y-88380952D01*
X110997142Y-88428571D01*
X110895952Y-88476190D01*
X110515000Y-88476190D01*
X118729285Y-88952380D02*
X118455476Y-88476190D01*
X118157857Y-88952380D02*
X118282857Y-87952380D01*
X118663809Y-87952380D01*
X118753095Y-88000000D01*
X118794761Y-88047619D01*
X118830476Y-88142857D01*
X118812619Y-88285714D01*
X118753095Y-88380952D01*
X118699523Y-88428571D01*
X118598333Y-88476190D01*
X118217380Y-88476190D01*
X119187619Y-87952380D02*
X119729285Y-88952380D01*
X119854285Y-87952380D02*
X119062619Y-88952380D01*
X122759047Y-87952380D02*
X123330476Y-87952380D01*
X122919761Y-88952380D02*
X123044761Y-87952380D01*
X123568571Y-87952380D02*
X124110238Y-88952380D01*
X124235238Y-87952380D02*
X123443571Y-88952380D01*
D11*
X111600000Y-80664285D02*
X111695238Y-80759523D01*
X111600000Y-80854761D01*
X111504761Y-80759523D01*
X111600000Y-80664285D01*
X111600000Y-80854761D01*
D12*
%TO.C,G\u002A\u002A\u002A*%
G36*
X113228675Y-90137649D02*
G01*
X113195882Y-90196052D01*
X113146833Y-90215067D01*
X113118822Y-90221621D01*
X113097556Y-90239305D01*
X113079414Y-90276839D01*
X113060772Y-90342947D01*
X113038007Y-90446348D01*
X113025494Y-90507167D01*
X112984166Y-90692900D01*
X112943046Y-90835219D01*
X112898037Y-90941329D01*
X112845048Y-91018436D01*
X112779983Y-91073744D01*
X112698749Y-91114456D01*
X112675431Y-91123200D01*
X112546828Y-91152774D01*
X112414039Y-91145581D01*
X112396449Y-91142349D01*
X112321511Y-91107269D01*
X112250529Y-91041827D01*
X112201996Y-90964335D01*
X112194882Y-90942714D01*
X112193659Y-90894763D01*
X112201337Y-90809509D01*
X112215965Y-90699277D01*
X112235596Y-90576390D01*
X112258280Y-90453175D01*
X112282067Y-90341956D01*
X112302113Y-90264650D01*
X112300585Y-90231663D01*
X112261886Y-90220518D01*
X112247049Y-90220200D01*
X112199070Y-90213938D01*
X112189206Y-90186490D01*
X112194190Y-90163049D01*
X112206457Y-90110328D01*
X112209853Y-90086850D01*
X112233531Y-90078508D01*
X112296719Y-90072022D01*
X112388134Y-90068318D01*
X112441762Y-90067800D01*
X112550649Y-90068305D01*
X112617788Y-90071416D01*
X112652231Y-90079526D01*
X112663031Y-90095025D01*
X112659239Y-90120308D01*
X112658009Y-90124950D01*
X112645768Y-90176941D01*
X112642346Y-90199616D01*
X112619677Y-90212863D01*
X112564043Y-90223463D01*
X112548503Y-90225016D01*
X112455006Y-90232900D01*
X112397120Y-90499600D01*
X112364890Y-90655196D01*
X112345864Y-90769617D01*
X112340113Y-90850757D01*
X112347705Y-90906513D01*
X112368709Y-90944781D01*
X112401236Y-90972186D01*
X112476721Y-91001239D01*
X112572686Y-90999740D01*
X112656819Y-90979028D01*
X112722419Y-90937658D01*
X112774391Y-90868549D01*
X112817643Y-90764619D01*
X112857083Y-90618785D01*
X112866872Y-90575180D01*
X112892028Y-90461061D01*
X112914282Y-90362330D01*
X112930781Y-90291532D01*
X112937562Y-90264650D01*
X112937195Y-90234996D01*
X112905763Y-90222293D01*
X112856649Y-90220200D01*
X112795961Y-90216932D01*
X112773815Y-90201225D01*
X112778079Y-90164217D01*
X112778390Y-90163050D01*
X112790657Y-90110328D01*
X112794053Y-90086850D01*
X112817711Y-90078422D01*
X112880751Y-90071904D01*
X112971761Y-90068252D01*
X113020803Y-90067799D01*
X113247206Y-90067799D01*
X113228675Y-90137649D01*
G37*
X113228675Y-90137649D02*
X113195882Y-90196052D01*
X113146833Y-90215067D01*
X113118822Y-90221621D01*
X113097556Y-90239305D01*
X113079414Y-90276839D01*
X113060772Y-90342947D01*
X113038007Y-90446348D01*
X113025494Y-90507167D01*
X112984166Y-90692900D01*
X112943046Y-90835219D01*
X112898037Y-90941329D01*
X112845048Y-91018436D01*
X112779983Y-91073744D01*
X112698749Y-91114456D01*
X112675431Y-91123200D01*
X112546828Y-91152774D01*
X112414039Y-91145581D01*
X112396449Y-91142349D01*
X112321511Y-91107269D01*
X112250529Y-91041827D01*
X112201996Y-90964335D01*
X112194882Y-90942714D01*
X112193659Y-90894763D01*
X112201337Y-90809509D01*
X112215965Y-90699277D01*
X112235596Y-90576390D01*
X112258280Y-90453175D01*
X112282067Y-90341956D01*
X112302113Y-90264650D01*
X112300585Y-90231663D01*
X112261886Y-90220518D01*
X112247049Y-90220200D01*
X112199070Y-90213938D01*
X112189206Y-90186490D01*
X112194190Y-90163049D01*
X112206457Y-90110328D01*
X112209853Y-90086850D01*
X112233531Y-90078508D01*
X112296719Y-90072022D01*
X112388134Y-90068318D01*
X112441762Y-90067800D01*
X112550649Y-90068305D01*
X112617788Y-90071416D01*
X112652231Y-90079526D01*
X112663031Y-90095025D01*
X112659239Y-90120308D01*
X112658009Y-90124950D01*
X112645768Y-90176941D01*
X112642346Y-90199616D01*
X112619677Y-90212863D01*
X112564043Y-90223463D01*
X112548503Y-90225016D01*
X112455006Y-90232900D01*
X112397120Y-90499600D01*
X112364890Y-90655196D01*
X112345864Y-90769617D01*
X112340113Y-90850757D01*
X112347705Y-90906513D01*
X112368709Y-90944781D01*
X112401236Y-90972186D01*
X112476721Y-91001239D01*
X112572686Y-90999740D01*
X112656819Y-90979028D01*
X112722419Y-90937658D01*
X112774391Y-90868549D01*
X112817643Y-90764619D01*
X112857083Y-90618785D01*
X112866872Y-90575180D01*
X112892028Y-90461061D01*
X112914282Y-90362330D01*
X112930781Y-90291532D01*
X112937562Y-90264650D01*
X112937195Y-90234996D01*
X112905763Y-90222293D01*
X112856649Y-90220200D01*
X112795961Y-90216932D01*
X112773815Y-90201225D01*
X112778079Y-90164217D01*
X112778390Y-90163050D01*
X112790657Y-90110328D01*
X112794053Y-90086850D01*
X112817711Y-90078422D01*
X112880751Y-90071904D01*
X112971761Y-90068252D01*
X113020803Y-90067799D01*
X113247206Y-90067799D01*
X113228675Y-90137649D01*
G36*
X114164655Y-90052204D02*
G01*
X114184566Y-90063039D01*
X114198945Y-90086969D01*
X114192707Y-90135055D01*
X114165516Y-90215322D01*
X114137200Y-90298665D01*
X114118949Y-90369318D01*
X114115200Y-90398272D01*
X114100176Y-90437934D01*
X114051700Y-90448800D01*
X114006318Y-90440598D01*
X113989716Y-90405736D01*
X113988200Y-90372600D01*
X113965933Y-90284558D01*
X113905015Y-90222776D01*
X113814270Y-90195434D01*
X113796438Y-90194800D01*
X113694162Y-90210576D01*
X113603432Y-90252309D01*
X113536660Y-90311606D01*
X113506259Y-90380072D01*
X113505600Y-90391475D01*
X113530023Y-90449449D01*
X113603342Y-90494089D01*
X113725628Y-90525437D01*
X113734200Y-90526845D01*
X113860749Y-90553271D01*
X113946713Y-90588837D01*
X114002242Y-90640114D01*
X114037485Y-90713673D01*
X114041226Y-90725616D01*
X114057290Y-90799603D01*
X114049446Y-90860679D01*
X114023227Y-90922233D01*
X113971531Y-90999794D01*
X113905625Y-91065487D01*
X113893623Y-91074129D01*
X113775680Y-91128435D01*
X113643149Y-91151156D01*
X113512995Y-91141665D01*
X113402183Y-91099333D01*
X113391998Y-91092710D01*
X113335083Y-91061944D01*
X113307139Y-91069547D01*
X113302400Y-91095000D01*
X113289868Y-91134187D01*
X113245910Y-91144799D01*
X113207150Y-91140485D01*
X113170437Y-91134199D01*
X113155031Y-91122334D01*
X113159034Y-91091645D01*
X113180547Y-91028890D01*
X113188100Y-91007600D01*
X113211937Y-90926687D01*
X113225216Y-90855697D01*
X113226200Y-90839306D01*
X113235096Y-90796038D01*
X113271797Y-90780282D01*
X113302400Y-90779000D01*
X113356972Y-90785946D01*
X113376889Y-90814985D01*
X113378600Y-90840685D01*
X113401037Y-90914746D01*
X113461857Y-90968642D01*
X113551315Y-90998482D01*
X113659671Y-91000372D01*
X113737696Y-90984153D01*
X113818830Y-90946477D01*
X113871201Y-90882977D01*
X113880881Y-90863986D01*
X113906834Y-90804376D01*
X113908199Y-90770105D01*
X113883199Y-90741119D01*
X113868956Y-90729373D01*
X113811767Y-90700405D01*
X113728220Y-90676840D01*
X113682009Y-90669269D01*
X113550334Y-90640319D01*
X113457924Y-90586811D01*
X113397314Y-90504118D01*
X113390275Y-90488366D01*
X113369615Y-90382761D01*
X113391779Y-90283452D01*
X113448804Y-90195560D01*
X113532728Y-90124208D01*
X113635588Y-90074518D01*
X113749421Y-90051611D01*
X113866266Y-90060611D01*
X113978158Y-90106639D01*
X113980956Y-90108393D01*
X114024901Y-90129932D01*
X114050892Y-90115767D01*
X114064400Y-90093199D01*
X114107926Y-90048194D01*
X114164655Y-90052204D01*
G37*
X114164655Y-90052204D02*
X114184566Y-90063039D01*
X114198945Y-90086969D01*
X114192707Y-90135055D01*
X114165516Y-90215322D01*
X114137200Y-90298665D01*
X114118949Y-90369318D01*
X114115200Y-90398272D01*
X114100176Y-90437934D01*
X114051700Y-90448800D01*
X114006318Y-90440598D01*
X113989716Y-90405736D01*
X113988200Y-90372600D01*
X113965933Y-90284558D01*
X113905015Y-90222776D01*
X113814270Y-90195434D01*
X113796438Y-90194800D01*
X113694162Y-90210576D01*
X113603432Y-90252309D01*
X113536660Y-90311606D01*
X113506259Y-90380072D01*
X113505600Y-90391475D01*
X113530023Y-90449449D01*
X113603342Y-90494089D01*
X113725628Y-90525437D01*
X113734200Y-90526845D01*
X113860749Y-90553271D01*
X113946713Y-90588837D01*
X114002242Y-90640114D01*
X114037485Y-90713673D01*
X114041226Y-90725616D01*
X114057290Y-90799603D01*
X114049446Y-90860679D01*
X114023227Y-90922233D01*
X113971531Y-90999794D01*
X113905625Y-91065487D01*
X113893623Y-91074129D01*
X113775680Y-91128435D01*
X113643149Y-91151156D01*
X113512995Y-91141665D01*
X113402183Y-91099333D01*
X113391998Y-91092710D01*
X113335083Y-91061944D01*
X113307139Y-91069547D01*
X113302400Y-91095000D01*
X113289868Y-91134187D01*
X113245910Y-91144799D01*
X113207150Y-91140485D01*
X113170437Y-91134199D01*
X113155031Y-91122334D01*
X113159034Y-91091645D01*
X113180547Y-91028890D01*
X113188100Y-91007600D01*
X113211937Y-90926687D01*
X113225216Y-90855697D01*
X113226200Y-90839306D01*
X113235096Y-90796038D01*
X113271797Y-90780282D01*
X113302400Y-90779000D01*
X113356972Y-90785946D01*
X113376889Y-90814985D01*
X113378600Y-90840685D01*
X113401037Y-90914746D01*
X113461857Y-90968642D01*
X113551315Y-90998482D01*
X113659671Y-91000372D01*
X113737696Y-90984153D01*
X113818830Y-90946477D01*
X113871201Y-90882977D01*
X113880881Y-90863986D01*
X113906834Y-90804376D01*
X113908199Y-90770105D01*
X113883199Y-90741119D01*
X113868956Y-90729373D01*
X113811767Y-90700405D01*
X113728220Y-90676840D01*
X113682009Y-90669269D01*
X113550334Y-90640319D01*
X113457924Y-90586811D01*
X113397314Y-90504118D01*
X113390275Y-90488366D01*
X113369615Y-90382761D01*
X113391779Y-90283452D01*
X113448804Y-90195560D01*
X113532728Y-90124208D01*
X113635588Y-90074518D01*
X113749421Y-90051611D01*
X113866266Y-90060611D01*
X113978158Y-90106639D01*
X113980956Y-90108393D01*
X114024901Y-90129932D01*
X114050892Y-90115767D01*
X114064400Y-90093199D01*
X114107926Y-90048194D01*
X114164655Y-90052204D01*
G36*
X117441255Y-90052204D02*
G01*
X117461166Y-90063039D01*
X117475545Y-90086969D01*
X117469307Y-90135055D01*
X117442116Y-90215322D01*
X117413800Y-90298665D01*
X117395549Y-90369318D01*
X117391800Y-90398272D01*
X117376776Y-90437934D01*
X117328300Y-90448800D01*
X117282918Y-90440598D01*
X117266316Y-90405736D01*
X117264800Y-90372600D01*
X117242533Y-90284558D01*
X117181615Y-90222776D01*
X117090870Y-90195434D01*
X117073038Y-90194800D01*
X116970762Y-90210576D01*
X116880032Y-90252309D01*
X116813260Y-90311606D01*
X116782859Y-90380072D01*
X116782200Y-90391475D01*
X116806623Y-90449449D01*
X116879942Y-90494089D01*
X117002228Y-90525437D01*
X117010800Y-90526845D01*
X117137349Y-90553271D01*
X117223313Y-90588837D01*
X117278842Y-90640114D01*
X117314085Y-90713673D01*
X117317826Y-90725616D01*
X117333890Y-90799603D01*
X117326046Y-90860679D01*
X117299827Y-90922233D01*
X117248131Y-90999794D01*
X117182225Y-91065487D01*
X117170223Y-91074129D01*
X117052280Y-91128435D01*
X116919749Y-91151156D01*
X116789595Y-91141665D01*
X116678783Y-91099333D01*
X116668598Y-91092710D01*
X116611683Y-91061944D01*
X116583739Y-91069547D01*
X116579000Y-91095000D01*
X116566468Y-91134187D01*
X116522510Y-91144799D01*
X116483750Y-91140485D01*
X116447037Y-91134199D01*
X116431631Y-91122334D01*
X116435634Y-91091645D01*
X116457147Y-91028890D01*
X116464700Y-91007600D01*
X116488537Y-90926687D01*
X116501816Y-90855697D01*
X116502800Y-90839306D01*
X116511696Y-90796038D01*
X116548397Y-90780282D01*
X116579000Y-90779000D01*
X116633572Y-90785946D01*
X116653489Y-90814985D01*
X116655200Y-90840685D01*
X116677637Y-90914746D01*
X116738457Y-90968642D01*
X116827915Y-90998482D01*
X116936271Y-91000372D01*
X117014296Y-90984153D01*
X117095430Y-90946477D01*
X117147801Y-90882977D01*
X117157481Y-90863986D01*
X117183434Y-90804376D01*
X117184799Y-90770105D01*
X117159799Y-90741119D01*
X117145556Y-90729373D01*
X117088367Y-90700405D01*
X117004820Y-90676840D01*
X116958609Y-90669269D01*
X116826934Y-90640319D01*
X116734524Y-90586811D01*
X116673914Y-90504118D01*
X116666875Y-90488366D01*
X116646215Y-90382761D01*
X116668379Y-90283452D01*
X116725404Y-90195560D01*
X116809328Y-90124208D01*
X116912188Y-90074518D01*
X117026021Y-90051611D01*
X117142866Y-90060611D01*
X117254758Y-90106639D01*
X117257556Y-90108393D01*
X117301501Y-90129932D01*
X117327492Y-90115767D01*
X117341000Y-90093199D01*
X117384526Y-90048194D01*
X117441255Y-90052204D01*
G37*
X117441255Y-90052204D02*
X117461166Y-90063039D01*
X117475545Y-90086969D01*
X117469307Y-90135055D01*
X117442116Y-90215322D01*
X117413800Y-90298665D01*
X117395549Y-90369318D01*
X117391800Y-90398272D01*
X117376776Y-90437934D01*
X117328300Y-90448800D01*
X117282918Y-90440598D01*
X117266316Y-90405736D01*
X117264800Y-90372600D01*
X117242533Y-90284558D01*
X117181615Y-90222776D01*
X117090870Y-90195434D01*
X117073038Y-90194800D01*
X116970762Y-90210576D01*
X116880032Y-90252309D01*
X116813260Y-90311606D01*
X116782859Y-90380072D01*
X116782200Y-90391475D01*
X116806623Y-90449449D01*
X116879942Y-90494089D01*
X117002228Y-90525437D01*
X117010800Y-90526845D01*
X117137349Y-90553271D01*
X117223313Y-90588837D01*
X117278842Y-90640114D01*
X117314085Y-90713673D01*
X117317826Y-90725616D01*
X117333890Y-90799603D01*
X117326046Y-90860679D01*
X117299827Y-90922233D01*
X117248131Y-90999794D01*
X117182225Y-91065487D01*
X117170223Y-91074129D01*
X117052280Y-91128435D01*
X116919749Y-91151156D01*
X116789595Y-91141665D01*
X116678783Y-91099333D01*
X116668598Y-91092710D01*
X116611683Y-91061944D01*
X116583739Y-91069547D01*
X116579000Y-91095000D01*
X116566468Y-91134187D01*
X116522510Y-91144799D01*
X116483750Y-91140485D01*
X116447037Y-91134199D01*
X116431631Y-91122334D01*
X116435634Y-91091645D01*
X116457147Y-91028890D01*
X116464700Y-91007600D01*
X116488537Y-90926687D01*
X116501816Y-90855697D01*
X116502800Y-90839306D01*
X116511696Y-90796038D01*
X116548397Y-90780282D01*
X116579000Y-90779000D01*
X116633572Y-90785946D01*
X116653489Y-90814985D01*
X116655200Y-90840685D01*
X116677637Y-90914746D01*
X116738457Y-90968642D01*
X116827915Y-90998482D01*
X116936271Y-91000372D01*
X117014296Y-90984153D01*
X117095430Y-90946477D01*
X117147801Y-90882977D01*
X117157481Y-90863986D01*
X117183434Y-90804376D01*
X117184799Y-90770105D01*
X117159799Y-90741119D01*
X117145556Y-90729373D01*
X117088367Y-90700405D01*
X117004820Y-90676840D01*
X116958609Y-90669269D01*
X116826934Y-90640319D01*
X116734524Y-90586811D01*
X116673914Y-90504118D01*
X116666875Y-90488366D01*
X116646215Y-90382761D01*
X116668379Y-90283452D01*
X116725404Y-90195560D01*
X116809328Y-90124208D01*
X116912188Y-90074518D01*
X117026021Y-90051611D01*
X117142866Y-90060611D01*
X117254758Y-90106639D01*
X117257556Y-90108393D01*
X117301501Y-90129932D01*
X117327492Y-90115767D01*
X117341000Y-90093199D01*
X117384526Y-90048194D01*
X117441255Y-90052204D01*
G36*
X118309259Y-90311738D02*
G01*
X118409669Y-90373013D01*
X118477726Y-90463811D01*
X118508074Y-90579202D01*
X118495363Y-90714254D01*
X118493390Y-90721850D01*
X118485488Y-90744285D01*
X118470446Y-90759917D01*
X118440158Y-90769974D01*
X118386520Y-90775683D01*
X118301425Y-90778274D01*
X118176769Y-90778974D01*
X118116259Y-90779000D01*
X117754444Y-90779000D01*
X117766692Y-90843071D01*
X117804761Y-90919069D01*
X117877454Y-90977296D01*
X117968987Y-91006271D01*
X117992926Y-91007600D01*
X118064230Y-90999328D01*
X118159042Y-90977942D01*
X118232088Y-90956096D01*
X118326637Y-90926841D01*
X118385036Y-90918237D01*
X118418093Y-90931563D01*
X118436620Y-90968099D01*
X118440172Y-90980719D01*
X118438980Y-91016388D01*
X118406395Y-91044458D01*
X118347988Y-91068992D01*
X118204990Y-91117340D01*
X118093665Y-91144991D01*
X118000074Y-91153615D01*
X117910279Y-91144880D01*
X117842818Y-91129491D01*
X117735482Y-91079715D01*
X117662662Y-91001968D01*
X117622618Y-90903862D01*
X117613612Y-90793011D01*
X117633905Y-90677029D01*
X117664010Y-90605627D01*
X117823600Y-90605627D01*
X117847247Y-90614236D01*
X117911195Y-90621133D01*
X118004951Y-90625492D01*
X118090300Y-90626600D01*
X118211544Y-90625503D01*
X118290387Y-90621391D01*
X118335199Y-90613033D01*
X118354346Y-90599197D01*
X118357000Y-90587345D01*
X118340130Y-90543693D01*
X118299076Y-90490265D01*
X118294654Y-90485745D01*
X118213319Y-90437207D01*
X118111942Y-90422604D01*
X118010148Y-90444134D01*
X117993380Y-90451974D01*
X117932876Y-90490551D01*
X117874749Y-90538858D01*
X117833916Y-90583395D01*
X117823600Y-90605627D01*
X117664010Y-90605627D01*
X117681760Y-90563530D01*
X117755437Y-90460128D01*
X117853199Y-90374435D01*
X117973306Y-90314067D01*
X118032786Y-90297488D01*
X118181847Y-90284920D01*
X118309259Y-90311738D01*
G37*
X118309259Y-90311738D02*
X118409669Y-90373013D01*
X118477726Y-90463811D01*
X118508074Y-90579202D01*
X118495363Y-90714254D01*
X118493390Y-90721850D01*
X118485488Y-90744285D01*
X118470446Y-90759917D01*
X118440158Y-90769974D01*
X118386520Y-90775683D01*
X118301425Y-90778274D01*
X118176769Y-90778974D01*
X118116259Y-90779000D01*
X117754444Y-90779000D01*
X117766692Y-90843071D01*
X117804761Y-90919069D01*
X117877454Y-90977296D01*
X117968987Y-91006271D01*
X117992926Y-91007600D01*
X118064230Y-90999328D01*
X118159042Y-90977942D01*
X118232088Y-90956096D01*
X118326637Y-90926841D01*
X118385036Y-90918237D01*
X118418093Y-90931563D01*
X118436620Y-90968099D01*
X118440172Y-90980719D01*
X118438980Y-91016388D01*
X118406395Y-91044458D01*
X118347988Y-91068992D01*
X118204990Y-91117340D01*
X118093665Y-91144991D01*
X118000074Y-91153615D01*
X117910279Y-91144880D01*
X117842818Y-91129491D01*
X117735482Y-91079715D01*
X117662662Y-91001968D01*
X117622618Y-90903862D01*
X117613612Y-90793011D01*
X117633905Y-90677029D01*
X117664010Y-90605627D01*
X117823600Y-90605627D01*
X117847247Y-90614236D01*
X117911195Y-90621133D01*
X118004951Y-90625492D01*
X118090300Y-90626600D01*
X118211544Y-90625503D01*
X118290387Y-90621391D01*
X118335199Y-90613033D01*
X118354346Y-90599197D01*
X118357000Y-90587345D01*
X118340130Y-90543693D01*
X118299076Y-90490265D01*
X118294654Y-90485745D01*
X118213319Y-90437207D01*
X118111942Y-90422604D01*
X118010148Y-90444134D01*
X117993380Y-90451974D01*
X117932876Y-90490551D01*
X117874749Y-90538858D01*
X117833916Y-90583395D01*
X117823600Y-90605627D01*
X117664010Y-90605627D01*
X117681760Y-90563530D01*
X117755437Y-90460128D01*
X117853199Y-90374435D01*
X117973306Y-90314067D01*
X118032786Y-90297488D01*
X118181847Y-90284920D01*
X118309259Y-90311738D01*
G36*
X121533896Y-90304886D02*
G01*
X121618853Y-90356298D01*
X121654023Y-90405038D01*
X121668356Y-90459338D01*
X121668501Y-90538124D01*
X121653704Y-90647773D01*
X121623214Y-90794665D01*
X121593673Y-90916935D01*
X121587532Y-90962236D01*
X121609369Y-90979625D01*
X121656246Y-90982200D01*
X121712247Y-90986016D01*
X121731810Y-91006777D01*
X121724166Y-91058452D01*
X121719190Y-91077450D01*
X121705048Y-91109742D01*
X121675964Y-91126952D01*
X121618697Y-91133675D01*
X121554437Y-91134600D01*
X121467287Y-91131662D01*
X121420849Y-91121150D01*
X121405283Y-91100511D01*
X121405000Y-91095847D01*
X121399353Y-91071823D01*
X121373404Y-91074852D01*
X121334815Y-91093389D01*
X121251876Y-91123753D01*
X121152505Y-91143023D01*
X121057583Y-91148591D01*
X120987989Y-91137846D01*
X120985900Y-91136985D01*
X120899635Y-91075422D01*
X120849319Y-90987844D01*
X120841267Y-90913954D01*
X120976848Y-90913954D01*
X120998562Y-90952353D01*
X121013114Y-90967685D01*
X121074840Y-91001447D01*
X121161514Y-91000542D01*
X121278395Y-90964702D01*
X121307214Y-90952737D01*
X121412159Y-90890486D01*
X121469158Y-90814045D01*
X121481200Y-90749170D01*
X121456761Y-90735527D01*
X121386067Y-90730092D01*
X121287957Y-90732405D01*
X121186344Y-90739341D01*
X121121010Y-90750629D01*
X121077432Y-90770865D01*
X121041090Y-90804646D01*
X121033957Y-90812798D01*
X120987930Y-90872754D01*
X120976848Y-90913954D01*
X120841267Y-90913954D01*
X120838355Y-90887237D01*
X120870141Y-90786589D01*
X120887209Y-90760111D01*
X120982445Y-90670631D01*
X121113870Y-90614297D01*
X121283034Y-90590501D01*
X121322741Y-90589586D01*
X121420263Y-90587256D01*
X121478527Y-90579780D01*
X121509022Y-90564286D01*
X121522704Y-90539635D01*
X121520511Y-90483492D01*
X121477352Y-90445777D01*
X121400157Y-90427996D01*
X121295859Y-90431652D01*
X121171387Y-90458249D01*
X121161386Y-90461225D01*
X121090234Y-90482676D01*
X121043502Y-90496512D01*
X121033311Y-90499325D01*
X121026686Y-90477997D01*
X121017432Y-90434265D01*
X121017729Y-90391781D01*
X121042132Y-90359391D01*
X121097904Y-90333151D01*
X121192305Y-90309120D01*
X121278000Y-90292784D01*
X121417742Y-90282957D01*
X121533896Y-90304886D01*
G37*
X121533896Y-90304886D02*
X121618853Y-90356298D01*
X121654023Y-90405038D01*
X121668356Y-90459338D01*
X121668501Y-90538124D01*
X121653704Y-90647773D01*
X121623214Y-90794665D01*
X121593673Y-90916935D01*
X121587532Y-90962236D01*
X121609369Y-90979625D01*
X121656246Y-90982200D01*
X121712247Y-90986016D01*
X121731810Y-91006777D01*
X121724166Y-91058452D01*
X121719190Y-91077450D01*
X121705048Y-91109742D01*
X121675964Y-91126952D01*
X121618697Y-91133675D01*
X121554437Y-91134600D01*
X121467287Y-91131662D01*
X121420849Y-91121150D01*
X121405283Y-91100511D01*
X121405000Y-91095847D01*
X121399353Y-91071823D01*
X121373404Y-91074852D01*
X121334815Y-91093389D01*
X121251876Y-91123753D01*
X121152505Y-91143023D01*
X121057583Y-91148591D01*
X120987989Y-91137846D01*
X120985900Y-91136985D01*
X120899635Y-91075422D01*
X120849319Y-90987844D01*
X120841267Y-90913954D01*
X120976848Y-90913954D01*
X120998562Y-90952353D01*
X121013114Y-90967685D01*
X121074840Y-91001447D01*
X121161514Y-91000542D01*
X121278395Y-90964702D01*
X121307214Y-90952737D01*
X121412159Y-90890486D01*
X121469158Y-90814045D01*
X121481200Y-90749170D01*
X121456761Y-90735527D01*
X121386067Y-90730092D01*
X121287957Y-90732405D01*
X121186344Y-90739341D01*
X121121010Y-90750629D01*
X121077432Y-90770865D01*
X121041090Y-90804646D01*
X121033957Y-90812798D01*
X120987930Y-90872754D01*
X120976848Y-90913954D01*
X120841267Y-90913954D01*
X120838355Y-90887237D01*
X120870141Y-90786589D01*
X120887209Y-90760111D01*
X120982445Y-90670631D01*
X121113870Y-90614297D01*
X121283034Y-90590501D01*
X121322741Y-90589586D01*
X121420263Y-90587256D01*
X121478527Y-90579780D01*
X121509022Y-90564286D01*
X121522704Y-90539635D01*
X121520511Y-90483492D01*
X121477352Y-90445777D01*
X121400157Y-90427996D01*
X121295859Y-90431652D01*
X121171387Y-90458249D01*
X121161386Y-90461225D01*
X121090234Y-90482676D01*
X121043502Y-90496512D01*
X121033311Y-90499325D01*
X121026686Y-90477997D01*
X121017432Y-90434265D01*
X121017729Y-90391781D01*
X121042132Y-90359391D01*
X121097904Y-90333151D01*
X121192305Y-90309120D01*
X121278000Y-90292784D01*
X121417742Y-90282957D01*
X121533896Y-90304886D01*
G36*
X110377932Y-90068405D02*
G01*
X110569865Y-90075181D01*
X110716715Y-90095887D01*
X110822821Y-90132695D01*
X110892523Y-90187776D01*
X110930158Y-90263303D01*
X110940200Y-90349877D01*
X110918424Y-90485949D01*
X110854303Y-90595590D01*
X110749645Y-90677494D01*
X110606258Y-90730351D01*
X110425951Y-90752852D01*
X110382212Y-90753600D01*
X110324142Y-90756816D01*
X110292476Y-90775405D01*
X110273133Y-90822775D01*
X110262203Y-90867900D01*
X110236047Y-90982200D01*
X110361210Y-90982200D01*
X110435465Y-90983855D01*
X110471236Y-90993716D01*
X110480830Y-91019122D01*
X110478337Y-91052050D01*
X110470300Y-91121900D01*
X110197250Y-91129109D01*
X110073763Y-91131260D01*
X109992902Y-91129340D01*
X109946591Y-91122472D01*
X109926755Y-91109778D01*
X109924199Y-91099436D01*
X109940351Y-91023653D01*
X109989224Y-90986514D01*
X110024372Y-90982200D01*
X110052058Y-90980686D01*
X110073045Y-90971031D01*
X110090423Y-90945558D01*
X110107283Y-90896595D01*
X110126716Y-90816468D01*
X110151811Y-90697501D01*
X110165020Y-90632950D01*
X110181065Y-90555426D01*
X110334455Y-90555426D01*
X110347141Y-90589743D01*
X110384853Y-90601341D01*
X110453536Y-90599412D01*
X110499122Y-90596387D01*
X110595296Y-90587459D01*
X110657001Y-90571976D01*
X110700560Y-90544184D01*
X110727722Y-90515811D01*
X110772153Y-90440081D01*
X110788459Y-90358987D01*
X110775994Y-90288414D01*
X110738669Y-90246493D01*
X110686924Y-90232052D01*
X110605242Y-90222502D01*
X110539860Y-90220200D01*
X110390180Y-90220200D01*
X110360390Y-90381878D01*
X110340853Y-90489201D01*
X110334455Y-90555426D01*
X110181065Y-90555426D01*
X110191677Y-90504160D01*
X110215554Y-90392059D01*
X110234470Y-90306662D01*
X110246239Y-90257983D01*
X110248082Y-90251950D01*
X110236424Y-90227522D01*
X110185316Y-90220200D01*
X110133841Y-90215086D01*
X110118060Y-90189087D01*
X110121981Y-90144000D01*
X110133165Y-90067800D01*
X110377932Y-90068405D01*
G37*
X110377932Y-90068405D02*
X110569865Y-90075181D01*
X110716715Y-90095887D01*
X110822821Y-90132695D01*
X110892523Y-90187776D01*
X110930158Y-90263303D01*
X110940200Y-90349877D01*
X110918424Y-90485949D01*
X110854303Y-90595590D01*
X110749645Y-90677494D01*
X110606258Y-90730351D01*
X110425951Y-90752852D01*
X110382212Y-90753600D01*
X110324142Y-90756816D01*
X110292476Y-90775405D01*
X110273133Y-90822775D01*
X110262203Y-90867900D01*
X110236047Y-90982200D01*
X110361210Y-90982200D01*
X110435465Y-90983855D01*
X110471236Y-90993716D01*
X110480830Y-91019122D01*
X110478337Y-91052050D01*
X110470300Y-91121900D01*
X110197250Y-91129109D01*
X110073763Y-91131260D01*
X109992902Y-91129340D01*
X109946591Y-91122472D01*
X109926755Y-91109778D01*
X109924199Y-91099436D01*
X109940351Y-91023653D01*
X109989224Y-90986514D01*
X110024372Y-90982200D01*
X110052058Y-90980686D01*
X110073045Y-90971031D01*
X110090423Y-90945558D01*
X110107283Y-90896595D01*
X110126716Y-90816468D01*
X110151811Y-90697501D01*
X110165020Y-90632950D01*
X110181065Y-90555426D01*
X110334455Y-90555426D01*
X110347141Y-90589743D01*
X110384853Y-90601341D01*
X110453536Y-90599412D01*
X110499122Y-90596387D01*
X110595296Y-90587459D01*
X110657001Y-90571976D01*
X110700560Y-90544184D01*
X110727722Y-90515811D01*
X110772153Y-90440081D01*
X110788459Y-90358987D01*
X110775994Y-90288414D01*
X110738669Y-90246493D01*
X110686924Y-90232052D01*
X110605242Y-90222502D01*
X110539860Y-90220200D01*
X110390180Y-90220200D01*
X110360390Y-90381878D01*
X110340853Y-90489201D01*
X110334455Y-90555426D01*
X110181065Y-90555426D01*
X110191677Y-90504160D01*
X110215554Y-90392059D01*
X110234470Y-90306662D01*
X110246239Y-90257983D01*
X110248082Y-90251950D01*
X110236424Y-90227522D01*
X110185316Y-90220200D01*
X110133841Y-90215086D01*
X110118060Y-90189087D01*
X110121981Y-90144000D01*
X110133165Y-90067800D01*
X110377932Y-90068405D01*
G36*
X111550999Y-90299439D02*
G01*
X111621497Y-90307822D01*
X111651022Y-90320447D01*
X111651400Y-90322231D01*
X111646288Y-90355999D01*
X111632386Y-90428560D01*
X111611844Y-90529099D01*
X111587900Y-90641763D01*
X111563028Y-90758676D01*
X111542727Y-90857682D01*
X111529139Y-90928078D01*
X111524400Y-90958832D01*
X111547438Y-90971314D01*
X111607171Y-90979792D01*
X111672400Y-90982200D01*
X111820401Y-90982200D01*
X111809218Y-91058400D01*
X111798034Y-91134600D01*
X111038425Y-91134600D01*
X111046462Y-91064750D01*
X111054036Y-91026283D01*
X111073801Y-91004540D01*
X111118158Y-90993705D01*
X111199506Y-90987965D01*
X111211479Y-90987383D01*
X111368458Y-90979867D01*
X111406583Y-90809583D01*
X111429266Y-90705535D01*
X111449856Y-90606471D01*
X111461980Y-90544050D01*
X111479253Y-90448800D01*
X111346709Y-90448800D01*
X111269406Y-90446363D01*
X111232827Y-90436779D01*
X111227032Y-90416640D01*
X111229582Y-90408622D01*
X111243550Y-90351404D01*
X111245000Y-90332422D01*
X111256357Y-90313701D01*
X111296015Y-90302477D01*
X111372356Y-90297267D01*
X111448200Y-90296400D01*
X111550999Y-90299439D01*
G37*
X111550999Y-90299439D02*
X111621497Y-90307822D01*
X111651022Y-90320447D01*
X111651400Y-90322231D01*
X111646288Y-90355999D01*
X111632386Y-90428560D01*
X111611844Y-90529099D01*
X111587900Y-90641763D01*
X111563028Y-90758676D01*
X111542727Y-90857682D01*
X111529139Y-90928078D01*
X111524400Y-90958832D01*
X111547438Y-90971314D01*
X111607171Y-90979792D01*
X111672400Y-90982200D01*
X111820401Y-90982200D01*
X111809218Y-91058400D01*
X111798034Y-91134600D01*
X111038425Y-91134600D01*
X111046462Y-91064750D01*
X111054036Y-91026283D01*
X111073801Y-91004540D01*
X111118158Y-90993705D01*
X111199506Y-90987965D01*
X111211479Y-90987383D01*
X111368458Y-90979867D01*
X111406583Y-90809583D01*
X111429266Y-90705535D01*
X111449856Y-90606471D01*
X111461980Y-90544050D01*
X111479253Y-90448800D01*
X111346709Y-90448800D01*
X111269406Y-90446363D01*
X111232827Y-90436779D01*
X111227032Y-90416640D01*
X111229582Y-90408622D01*
X111243550Y-90351404D01*
X111245000Y-90332422D01*
X111256357Y-90313701D01*
X111296015Y-90302477D01*
X111372356Y-90297267D01*
X111448200Y-90296400D01*
X111550999Y-90299439D01*
G36*
X114725354Y-90071028D02*
G01*
X114748369Y-90071599D01*
X114887814Y-90076324D01*
X114986556Y-90082703D01*
X115054693Y-90092306D01*
X115102322Y-90106705D01*
X115139540Y-90127471D01*
X115148419Y-90133855D01*
X115207937Y-90207138D01*
X115232369Y-90302067D01*
X115220593Y-90402512D01*
X115173208Y-90490323D01*
X115134121Y-90540154D01*
X115125891Y-90572238D01*
X115146335Y-90607417D01*
X115159256Y-90623573D01*
X115200565Y-90711609D01*
X115201869Y-90812887D01*
X115167130Y-90915197D01*
X115100309Y-91006332D01*
X115014572Y-91069465D01*
X114965459Y-91091084D01*
X114907786Y-91106589D01*
X114831393Y-91117334D01*
X114726124Y-91124670D01*
X114581819Y-91129950D01*
X114554801Y-91130684D01*
X114194302Y-91140174D01*
X114213717Y-91067537D01*
X114245475Y-91007925D01*
X114306889Y-90982200D01*
X114520632Y-90982200D01*
X114725470Y-90982200D01*
X114830720Y-90980605D01*
X114899173Y-90973651D01*
X114944791Y-90958079D01*
X114981533Y-90930633D01*
X114992654Y-90919854D01*
X115035895Y-90858832D01*
X115054955Y-90796741D01*
X115055000Y-90794294D01*
X115035745Y-90726643D01*
X114976281Y-90681341D01*
X114874061Y-90657113D01*
X114770927Y-90652000D01*
X114599758Y-90652000D01*
X114575926Y-90747250D01*
X114555415Y-90831113D01*
X114537546Y-90907122D01*
X114536363Y-90912350D01*
X114520632Y-90982200D01*
X114306889Y-90982200D01*
X114307467Y-90981958D01*
X114336476Y-90975492D01*
X114358611Y-90962595D01*
X114376949Y-90935541D01*
X114394568Y-90886600D01*
X114414547Y-90808046D01*
X114439962Y-90692150D01*
X114459210Y-90600958D01*
X114484802Y-90479268D01*
X114631564Y-90479268D01*
X114652347Y-90492728D01*
X114705249Y-90498506D01*
X114783162Y-90499600D01*
X114887686Y-90495034D01*
X114958841Y-90478774D01*
X115013451Y-90446974D01*
X115013474Y-90446956D01*
X115059911Y-90390715D01*
X115080507Y-90325378D01*
X115073152Y-90267615D01*
X115040222Y-90235617D01*
X114994527Y-90227458D01*
X114916496Y-90221869D01*
X114839849Y-90220200D01*
X114679653Y-90220200D01*
X114662772Y-90315450D01*
X114648113Y-90390620D01*
X114634365Y-90449708D01*
X114632834Y-90455150D01*
X114631564Y-90479268D01*
X114484802Y-90479268D01*
X114536616Y-90232900D01*
X114463115Y-90224754D01*
X114412076Y-90212748D01*
X114399879Y-90184663D01*
X114404460Y-90161254D01*
X114416542Y-90107930D01*
X114419653Y-90084299D01*
X114443591Y-90076890D01*
X114508827Y-90071965D01*
X114605900Y-90069889D01*
X114725354Y-90071028D01*
G37*
X114725354Y-90071028D02*
X114748369Y-90071599D01*
X114887814Y-90076324D01*
X114986556Y-90082703D01*
X115054693Y-90092306D01*
X115102322Y-90106705D01*
X115139540Y-90127471D01*
X115148419Y-90133855D01*
X115207937Y-90207138D01*
X115232369Y-90302067D01*
X115220593Y-90402512D01*
X115173208Y-90490323D01*
X115134121Y-90540154D01*
X115125891Y-90572238D01*
X115146335Y-90607417D01*
X115159256Y-90623573D01*
X115200565Y-90711609D01*
X115201869Y-90812887D01*
X115167130Y-90915197D01*
X115100309Y-91006332D01*
X115014572Y-91069465D01*
X114965459Y-91091084D01*
X114907786Y-91106589D01*
X114831393Y-91117334D01*
X114726124Y-91124670D01*
X114581819Y-91129950D01*
X114554801Y-91130684D01*
X114194302Y-91140174D01*
X114213717Y-91067537D01*
X114245475Y-91007925D01*
X114306889Y-90982200D01*
X114520632Y-90982200D01*
X114725470Y-90982200D01*
X114830720Y-90980605D01*
X114899173Y-90973651D01*
X114944791Y-90958079D01*
X114981533Y-90930633D01*
X114992654Y-90919854D01*
X115035895Y-90858832D01*
X115054955Y-90796741D01*
X115055000Y-90794294D01*
X115035745Y-90726643D01*
X114976281Y-90681341D01*
X114874061Y-90657113D01*
X114770927Y-90652000D01*
X114599758Y-90652000D01*
X114575926Y-90747250D01*
X114555415Y-90831113D01*
X114537546Y-90907122D01*
X114536363Y-90912350D01*
X114520632Y-90982200D01*
X114306889Y-90982200D01*
X114307467Y-90981958D01*
X114336476Y-90975492D01*
X114358611Y-90962595D01*
X114376949Y-90935541D01*
X114394568Y-90886600D01*
X114414547Y-90808046D01*
X114439962Y-90692150D01*
X114459210Y-90600958D01*
X114484802Y-90479268D01*
X114631564Y-90479268D01*
X114652347Y-90492728D01*
X114705249Y-90498506D01*
X114783162Y-90499600D01*
X114887686Y-90495034D01*
X114958841Y-90478774D01*
X115013451Y-90446974D01*
X115013474Y-90446956D01*
X115059911Y-90390715D01*
X115080507Y-90325378D01*
X115073152Y-90267615D01*
X115040222Y-90235617D01*
X114994527Y-90227458D01*
X114916496Y-90221869D01*
X114839849Y-90220200D01*
X114679653Y-90220200D01*
X114662772Y-90315450D01*
X114648113Y-90390620D01*
X114634365Y-90449708D01*
X114632834Y-90455150D01*
X114631564Y-90479268D01*
X114484802Y-90479268D01*
X114536616Y-90232900D01*
X114463115Y-90224754D01*
X114412076Y-90212748D01*
X114399879Y-90184663D01*
X114404460Y-90161254D01*
X114416542Y-90107930D01*
X114419653Y-90084299D01*
X114443591Y-90076890D01*
X114508827Y-90071965D01*
X114605900Y-90069889D01*
X114725354Y-90071028D01*
G36*
X119460750Y-90282803D02*
G01*
X119500840Y-90293650D01*
X119584308Y-90338075D01*
X119647669Y-90407438D01*
X119677147Y-90485807D01*
X119677800Y-90498338D01*
X119658131Y-90521721D01*
X119611654Y-90525353D01*
X119557159Y-90511874D01*
X119513438Y-90483923D01*
X119505894Y-90474200D01*
X119453786Y-90428871D01*
X119383162Y-90430422D01*
X119293773Y-90478909D01*
X119219569Y-90541121D01*
X119157177Y-90602893D01*
X119114105Y-90658547D01*
X119082987Y-90722677D01*
X119056456Y-90809877D01*
X119032163Y-90912350D01*
X119016432Y-90982200D01*
X119182016Y-90982200D01*
X119278138Y-90985321D01*
X119331210Y-90998453D01*
X119348794Y-91027247D01*
X119338454Y-91077356D01*
X119332182Y-91094422D01*
X119318905Y-91110770D01*
X119288564Y-91122098D01*
X119233354Y-91129262D01*
X119145473Y-91133120D01*
X119017116Y-91134527D01*
X118966079Y-91134600D01*
X118615393Y-91134600D01*
X118633948Y-91064750D01*
X118652078Y-91020465D01*
X118686206Y-90998142D01*
X118752483Y-90988351D01*
X118766496Y-90987360D01*
X118880490Y-90979821D01*
X118932096Y-90714310D01*
X118983702Y-90448800D01*
X118886251Y-90448800D01*
X118816056Y-90440528D01*
X118788930Y-90410433D01*
X118799081Y-90350590D01*
X118804217Y-90336577D01*
X118825085Y-90313990D01*
X118872812Y-90301410D01*
X118957687Y-90296637D01*
X118992339Y-90296400D01*
X119083448Y-90297691D01*
X119133896Y-90303588D01*
X119153796Y-90317123D01*
X119153265Y-90341330D01*
X119152485Y-90344422D01*
X119149417Y-90369418D01*
X119164580Y-90374463D01*
X119207436Y-90358236D01*
X119270151Y-90327998D01*
X119349658Y-90291687D01*
X119406188Y-90277665D01*
X119460750Y-90282803D01*
G37*
X119460750Y-90282803D02*
X119500840Y-90293650D01*
X119584308Y-90338075D01*
X119647669Y-90407438D01*
X119677147Y-90485807D01*
X119677800Y-90498338D01*
X119658131Y-90521721D01*
X119611654Y-90525353D01*
X119557159Y-90511874D01*
X119513438Y-90483923D01*
X119505894Y-90474200D01*
X119453786Y-90428871D01*
X119383162Y-90430422D01*
X119293773Y-90478909D01*
X119219569Y-90541121D01*
X119157177Y-90602893D01*
X119114105Y-90658547D01*
X119082987Y-90722677D01*
X119056456Y-90809877D01*
X119032163Y-90912350D01*
X119016432Y-90982200D01*
X119182016Y-90982200D01*
X119278138Y-90985321D01*
X119331210Y-90998453D01*
X119348794Y-91027247D01*
X119338454Y-91077356D01*
X119332182Y-91094422D01*
X119318905Y-91110770D01*
X119288564Y-91122098D01*
X119233354Y-91129262D01*
X119145473Y-91133120D01*
X119017116Y-91134527D01*
X118966079Y-91134600D01*
X118615393Y-91134600D01*
X118633948Y-91064750D01*
X118652078Y-91020465D01*
X118686206Y-90998142D01*
X118752483Y-90988351D01*
X118766496Y-90987360D01*
X118880490Y-90979821D01*
X118932096Y-90714310D01*
X118983702Y-90448800D01*
X118886251Y-90448800D01*
X118816056Y-90440528D01*
X118788930Y-90410433D01*
X118799081Y-90350590D01*
X118804217Y-90336577D01*
X118825085Y-90313990D01*
X118872812Y-90301410D01*
X118957687Y-90296637D01*
X118992339Y-90296400D01*
X119083448Y-90297691D01*
X119133896Y-90303588D01*
X119153796Y-90317123D01*
X119153265Y-90341330D01*
X119152485Y-90344422D01*
X119149417Y-90369418D01*
X119164580Y-90374463D01*
X119207436Y-90358236D01*
X119270151Y-90327998D01*
X119349658Y-90291687D01*
X119406188Y-90277665D01*
X119460750Y-90282803D01*
G36*
X120288599Y-90299439D02*
G01*
X120359097Y-90307822D01*
X120388622Y-90320447D01*
X120389000Y-90322231D01*
X120383888Y-90355999D01*
X120369986Y-90428560D01*
X120349444Y-90529099D01*
X120325500Y-90641763D01*
X120300628Y-90758676D01*
X120280327Y-90857682D01*
X120266739Y-90928078D01*
X120262000Y-90958832D01*
X120285038Y-90971314D01*
X120344771Y-90979792D01*
X120410000Y-90982200D01*
X120558001Y-90982200D01*
X120546818Y-91058400D01*
X120535634Y-91134600D01*
X119776025Y-91134600D01*
X119784062Y-91064750D01*
X119791636Y-91026283D01*
X119811401Y-91004540D01*
X119855758Y-90993705D01*
X119937106Y-90987965D01*
X119949079Y-90987383D01*
X120106058Y-90979867D01*
X120144183Y-90809583D01*
X120166866Y-90705535D01*
X120187456Y-90606471D01*
X120199580Y-90544050D01*
X120216853Y-90448800D01*
X120084309Y-90448800D01*
X120007006Y-90446363D01*
X119970427Y-90436779D01*
X119964632Y-90416640D01*
X119967182Y-90408622D01*
X119981150Y-90351404D01*
X119982600Y-90332422D01*
X119993957Y-90313701D01*
X120033615Y-90302477D01*
X120109956Y-90297267D01*
X120185800Y-90296400D01*
X120288599Y-90299439D01*
G37*
X120288599Y-90299439D02*
X120359097Y-90307822D01*
X120388622Y-90320447D01*
X120389000Y-90322231D01*
X120383888Y-90355999D01*
X120369986Y-90428560D01*
X120349444Y-90529099D01*
X120325500Y-90641763D01*
X120300628Y-90758676D01*
X120280327Y-90857682D01*
X120266739Y-90928078D01*
X120262000Y-90958832D01*
X120285038Y-90971314D01*
X120344771Y-90979792D01*
X120410000Y-90982200D01*
X120558001Y-90982200D01*
X120546818Y-91058400D01*
X120535634Y-91134600D01*
X119776025Y-91134600D01*
X119784062Y-91064750D01*
X119791636Y-91026283D01*
X119811401Y-91004540D01*
X119855758Y-90993705D01*
X119937106Y-90987965D01*
X119949079Y-90987383D01*
X120106058Y-90979867D01*
X120144183Y-90809583D01*
X120166866Y-90705535D01*
X120187456Y-90606471D01*
X120199580Y-90544050D01*
X120216853Y-90448800D01*
X120084309Y-90448800D01*
X120007006Y-90446363D01*
X119970427Y-90436779D01*
X119964632Y-90416640D01*
X119967182Y-90408622D01*
X119981150Y-90351404D01*
X119982600Y-90332422D01*
X119993957Y-90313701D01*
X120033615Y-90302477D01*
X120109956Y-90297267D01*
X120185800Y-90296400D01*
X120288599Y-90299439D01*
G36*
X122583279Y-90012701D02*
G01*
X122614812Y-90022571D01*
X122623480Y-90040887D01*
X122623476Y-90042211D01*
X122618075Y-90078528D01*
X122603534Y-90155689D01*
X122581607Y-90264920D01*
X122554052Y-90397449D01*
X122526840Y-90525000D01*
X122430926Y-90969500D01*
X122578363Y-90977062D01*
X122668119Y-90985629D01*
X122714757Y-91004147D01*
X122725857Y-91039355D01*
X122710382Y-91094422D01*
X122697542Y-91110310D01*
X122668185Y-91121472D01*
X122614744Y-91128690D01*
X122529655Y-91132743D01*
X122405352Y-91134414D01*
X122321081Y-91134600D01*
X121947198Y-91134600D01*
X121958381Y-91058400D01*
X121966770Y-91016746D01*
X121984795Y-90993959D01*
X122025071Y-90984350D01*
X122100214Y-90982227D01*
X122127328Y-90982200D01*
X122285091Y-90982200D01*
X122365745Y-90606414D01*
X122394027Y-90471866D01*
X122417975Y-90352635D01*
X122435686Y-90258621D01*
X122445256Y-90199726D01*
X122446400Y-90187092D01*
X122440061Y-90162839D01*
X122413267Y-90152838D01*
X122354350Y-90154860D01*
X122305296Y-90160140D01*
X122164193Y-90176724D01*
X122181870Y-90103212D01*
X122195213Y-90050055D01*
X122202323Y-90026040D01*
X122227071Y-90023328D01*
X122290543Y-90019302D01*
X122380704Y-90014693D01*
X122414650Y-90013152D01*
X122519639Y-90009989D01*
X122583279Y-90012701D01*
G37*
X122583279Y-90012701D02*
X122614812Y-90022571D01*
X122623480Y-90040887D01*
X122623476Y-90042211D01*
X122618075Y-90078528D01*
X122603534Y-90155689D01*
X122581607Y-90264920D01*
X122554052Y-90397449D01*
X122526840Y-90525000D01*
X122430926Y-90969500D01*
X122578363Y-90977062D01*
X122668119Y-90985629D01*
X122714757Y-91004147D01*
X122725857Y-91039355D01*
X122710382Y-91094422D01*
X122697542Y-91110310D01*
X122668185Y-91121472D01*
X122614744Y-91128690D01*
X122529655Y-91132743D01*
X122405352Y-91134414D01*
X122321081Y-91134600D01*
X121947198Y-91134600D01*
X121958381Y-91058400D01*
X121966770Y-91016746D01*
X121984795Y-90993959D01*
X122025071Y-90984350D01*
X122100214Y-90982227D01*
X122127328Y-90982200D01*
X122285091Y-90982200D01*
X122365745Y-90606414D01*
X122394027Y-90471866D01*
X122417975Y-90352635D01*
X122435686Y-90258621D01*
X122445256Y-90199726D01*
X122446400Y-90187092D01*
X122440061Y-90162839D01*
X122413267Y-90152838D01*
X122354350Y-90154860D01*
X122305296Y-90160140D01*
X122164193Y-90176724D01*
X122181870Y-90103212D01*
X122195213Y-90050055D01*
X122202323Y-90026040D01*
X122227071Y-90023328D01*
X122290543Y-90019302D01*
X122380704Y-90014693D01*
X122414650Y-90013152D01*
X122519639Y-90009989D01*
X122583279Y-90012701D01*
G36*
X111668229Y-89894499D02*
G01*
X111713806Y-89902315D01*
X111731772Y-89922014D01*
X111728839Y-89968432D01*
X111720764Y-90010650D01*
X111704217Y-90078148D01*
X111681018Y-90109361D01*
X111636756Y-90118206D01*
X111608978Y-90118600D01*
X111518746Y-90118600D01*
X111536249Y-90023350D01*
X111556252Y-89942939D01*
X111585248Y-89902720D01*
X111634069Y-89892118D01*
X111668229Y-89894499D01*
G37*
X111668229Y-89894499D02*
X111713806Y-89902315D01*
X111731772Y-89922014D01*
X111728839Y-89968432D01*
X111720764Y-90010650D01*
X111704217Y-90078148D01*
X111681018Y-90109361D01*
X111636756Y-90118206D01*
X111608978Y-90118600D01*
X111518746Y-90118600D01*
X111536249Y-90023350D01*
X111556252Y-89942939D01*
X111585248Y-89902720D01*
X111634069Y-89892118D01*
X111668229Y-89894499D01*
G36*
X120405829Y-89894499D02*
G01*
X120451406Y-89902315D01*
X120469372Y-89922014D01*
X120466439Y-89968432D01*
X120458364Y-90010650D01*
X120441817Y-90078148D01*
X120418618Y-90109361D01*
X120374356Y-90118206D01*
X120346578Y-90118600D01*
X120256346Y-90118600D01*
X120273849Y-90023350D01*
X120293852Y-89942939D01*
X120322848Y-89902720D01*
X120371669Y-89892118D01*
X120405829Y-89894499D01*
G37*
X120405829Y-89894499D02*
X120451406Y-89902315D01*
X120469372Y-89922014D01*
X120466439Y-89968432D01*
X120458364Y-90010650D01*
X120441817Y-90078148D01*
X120418618Y-90109361D01*
X120374356Y-90118206D01*
X120346578Y-90118600D01*
X120256346Y-90118600D01*
X120273849Y-90023350D01*
X120293852Y-89942939D01*
X120322848Y-89902720D01*
X120371669Y-89892118D01*
X120405829Y-89894499D01*
D13*
%TO.C,U1*%
X117410000Y-73840000D02*
X116150000Y-73840000D01*
X110590000Y-73840000D02*
X111850000Y-73840000D01*
X117410000Y-77600000D02*
X117410000Y-73840000D01*
X110590000Y-79850000D02*
X110590000Y-73840000D01*
%TO.C,C4*%
X111107836Y-66890000D02*
X110892164Y-66890000D01*
X111107836Y-67610000D02*
X110892164Y-67610000D01*
%TO.C,C5*%
X110110000Y-76259420D02*
X110110000Y-76540580D01*
X109090000Y-76259420D02*
X109090000Y-76540580D01*
%TO.C,C6*%
X111107836Y-68610000D02*
X110892164Y-68610000D01*
X111107836Y-67890000D02*
X110892164Y-67890000D01*
%TO.C,C8*%
X110110000Y-79590580D02*
X110110000Y-79309420D01*
X109090000Y-79590580D02*
X109090000Y-79309420D01*
%TO.C,FB1*%
X115587221Y-69990000D02*
X115912779Y-69990000D01*
X115587221Y-71010000D02*
X115912779Y-71010000D01*
%TO.C,R3*%
X114620000Y-68096359D02*
X114620000Y-68403641D01*
X115380000Y-68096359D02*
X115380000Y-68403641D01*
%TO.C,R4*%
X113880000Y-67596359D02*
X113880000Y-67903641D01*
X113120000Y-67596359D02*
X113120000Y-67903641D01*
%TO.C,F1*%
X109090000Y-73237221D02*
X109090000Y-73562779D01*
X110110000Y-73237221D02*
X110110000Y-73562779D01*
%TO.C,D1*%
X109500000Y-69100000D02*
X113400000Y-69100000D01*
X109500000Y-71100000D02*
X113400000Y-71100000D01*
X109500000Y-69100000D02*
X109500000Y-71100000D01*
%TO.C,C9*%
X111910000Y-84640580D02*
X111910000Y-84359420D01*
X110890000Y-84640580D02*
X110890000Y-84359420D01*
%TO.C,C10*%
X121609420Y-82990000D02*
X121890580Y-82990000D01*
X121609420Y-84010000D02*
X121890580Y-84010000D01*
%TO.C,R6*%
X115346359Y-87370000D02*
X115653641Y-87370000D01*
X115346359Y-88130000D02*
X115653641Y-88130000D01*
%TO.C,U3*%
X117585000Y-82190000D02*
X118060000Y-82190000D01*
X118060000Y-82190000D02*
X118060000Y-82665000D01*
X114315000Y-86410000D02*
X113840000Y-86410000D01*
X113840000Y-86410000D02*
X113840000Y-85935000D01*
X117585000Y-86410000D02*
X118060000Y-86410000D01*
X118060000Y-86410000D02*
X118060000Y-85935000D01*
X114315000Y-82190000D02*
X113840000Y-82190000D01*
D14*
%TO.C,D2*%
X108650000Y-84735000D02*
G75*
G03*
X108650000Y-84735000I-50000J0D01*
G01*
%TO.C,D3*%
X122150000Y-88540000D02*
G75*
G03*
X122150000Y-88540000I-50000J0D01*
G01*
%TO.C,D4*%
X121000000Y-88540000D02*
G75*
G03*
X121000000Y-88540000I-50000J0D01*
G01*
D13*
%TO.C,R1*%
X122480000Y-85346359D02*
X122480000Y-85653641D01*
X121720000Y-85346359D02*
X121720000Y-85653641D01*
%TO.C,R2*%
X121330000Y-85653641D02*
X121330000Y-85346359D01*
X120570000Y-85653641D02*
X120570000Y-85346359D01*
%TO.C,R5*%
X109245000Y-85978641D02*
X109245000Y-85671359D01*
X110005000Y-85978641D02*
X110005000Y-85671359D01*
%TO.C,J1*%
X115800000Y-65160000D02*
X115800000Y-65750000D01*
X110140000Y-59340000D02*
X110140000Y-60950000D01*
X117860000Y-59340000D02*
X110140000Y-59340000D01*
X117860000Y-63450000D02*
X117860000Y-65160000D01*
X117860000Y-65160000D02*
X115800000Y-65160000D01*
X110140000Y-63450000D02*
X110140000Y-65160000D01*
X110140000Y-65160000D02*
X112200000Y-65160000D01*
X117860000Y-59340000D02*
X117860000Y-60950000D01*
%TO.C,U1*%
D14*
X113619047Y-80476190D02*
X113619047Y-80880952D01*
X113642857Y-80928571D01*
X113666666Y-80952380D01*
X113714285Y-80976190D01*
X113809523Y-80976190D01*
X113857142Y-80952380D01*
X113880952Y-80928571D01*
X113904761Y-80880952D01*
X113904761Y-80476190D01*
X114404761Y-80976190D02*
X114119047Y-80976190D01*
X114261904Y-80976190D02*
X114261904Y-80476190D01*
X114214285Y-80547619D01*
X114166666Y-80595238D01*
X114119047Y-80619047D01*
%TO.C,C4*%
X108916666Y-67428571D02*
X108892857Y-67452380D01*
X108821428Y-67476190D01*
X108773809Y-67476190D01*
X108702380Y-67452380D01*
X108654761Y-67404761D01*
X108630952Y-67357142D01*
X108607142Y-67261904D01*
X108607142Y-67190476D01*
X108630952Y-67095238D01*
X108654761Y-67047619D01*
X108702380Y-67000000D01*
X108773809Y-66976190D01*
X108821428Y-66976190D01*
X108892857Y-67000000D01*
X108916666Y-67023809D01*
X109345238Y-67142857D02*
X109345238Y-67476190D01*
X109226190Y-66952380D02*
X109107142Y-67309523D01*
X109416666Y-67309523D01*
%TO.C,C5*%
X108266666Y-76578571D02*
X108242857Y-76602380D01*
X108171428Y-76626190D01*
X108123809Y-76626190D01*
X108052380Y-76602380D01*
X108004761Y-76554761D01*
X107980952Y-76507142D01*
X107957142Y-76411904D01*
X107957142Y-76340476D01*
X107980952Y-76245238D01*
X108004761Y-76197619D01*
X108052380Y-76150000D01*
X108123809Y-76126190D01*
X108171428Y-76126190D01*
X108242857Y-76150000D01*
X108266666Y-76173809D01*
X108719047Y-76126190D02*
X108480952Y-76126190D01*
X108457142Y-76364285D01*
X108480952Y-76340476D01*
X108528571Y-76316666D01*
X108647619Y-76316666D01*
X108695238Y-76340476D01*
X108719047Y-76364285D01*
X108742857Y-76411904D01*
X108742857Y-76530952D01*
X108719047Y-76578571D01*
X108695238Y-76602380D01*
X108647619Y-76626190D01*
X108528571Y-76626190D01*
X108480952Y-76602380D01*
X108457142Y-76578571D01*
%TO.C,C6*%
X108916666Y-68678571D02*
X108892857Y-68702380D01*
X108821428Y-68726190D01*
X108773809Y-68726190D01*
X108702380Y-68702380D01*
X108654761Y-68654761D01*
X108630952Y-68607142D01*
X108607142Y-68511904D01*
X108607142Y-68440476D01*
X108630952Y-68345238D01*
X108654761Y-68297619D01*
X108702380Y-68250000D01*
X108773809Y-68226190D01*
X108821428Y-68226190D01*
X108892857Y-68250000D01*
X108916666Y-68273809D01*
X109345238Y-68226190D02*
X109250000Y-68226190D01*
X109202380Y-68250000D01*
X109178571Y-68273809D01*
X109130952Y-68345238D01*
X109107142Y-68440476D01*
X109107142Y-68630952D01*
X109130952Y-68678571D01*
X109154761Y-68702380D01*
X109202380Y-68726190D01*
X109297619Y-68726190D01*
X109345238Y-68702380D01*
X109369047Y-68678571D01*
X109392857Y-68630952D01*
X109392857Y-68511904D01*
X109369047Y-68464285D01*
X109345238Y-68440476D01*
X109297619Y-68416666D01*
X109202380Y-68416666D01*
X109154761Y-68440476D01*
X109130952Y-68464285D01*
X109107142Y-68511904D01*
%TO.C,C8*%
X108266666Y-79628571D02*
X108242857Y-79652380D01*
X108171428Y-79676190D01*
X108123809Y-79676190D01*
X108052380Y-79652380D01*
X108004761Y-79604761D01*
X107980952Y-79557142D01*
X107957142Y-79461904D01*
X107957142Y-79390476D01*
X107980952Y-79295238D01*
X108004761Y-79247619D01*
X108052380Y-79200000D01*
X108123809Y-79176190D01*
X108171428Y-79176190D01*
X108242857Y-79200000D01*
X108266666Y-79223809D01*
X108552380Y-79390476D02*
X108504761Y-79366666D01*
X108480952Y-79342857D01*
X108457142Y-79295238D01*
X108457142Y-79271428D01*
X108480952Y-79223809D01*
X108504761Y-79200000D01*
X108552380Y-79176190D01*
X108647619Y-79176190D01*
X108695238Y-79200000D01*
X108719047Y-79223809D01*
X108742857Y-79271428D01*
X108742857Y-79295238D01*
X108719047Y-79342857D01*
X108695238Y-79366666D01*
X108647619Y-79390476D01*
X108552380Y-79390476D01*
X108504761Y-79414285D01*
X108480952Y-79438095D01*
X108457142Y-79485714D01*
X108457142Y-79580952D01*
X108480952Y-79628571D01*
X108504761Y-79652380D01*
X108552380Y-79676190D01*
X108647619Y-79676190D01*
X108695238Y-79652380D01*
X108719047Y-79628571D01*
X108742857Y-79580952D01*
X108742857Y-79485714D01*
X108719047Y-79438095D01*
X108695238Y-79414285D01*
X108647619Y-79390476D01*
%TO.C,FB1*%
X115383333Y-69214285D02*
X115216666Y-69214285D01*
X115216666Y-69476190D02*
X115216666Y-68976190D01*
X115454761Y-68976190D01*
X115811904Y-69214285D02*
X115883333Y-69238095D01*
X115907142Y-69261904D01*
X115930952Y-69309523D01*
X115930952Y-69380952D01*
X115907142Y-69428571D01*
X115883333Y-69452380D01*
X115835714Y-69476190D01*
X115645238Y-69476190D01*
X115645238Y-68976190D01*
X115811904Y-68976190D01*
X115859523Y-69000000D01*
X115883333Y-69023809D01*
X115907142Y-69071428D01*
X115907142Y-69119047D01*
X115883333Y-69166666D01*
X115859523Y-69190476D01*
X115811904Y-69214285D01*
X115645238Y-69214285D01*
X116407142Y-69476190D02*
X116121428Y-69476190D01*
X116264285Y-69476190D02*
X116264285Y-68976190D01*
X116216666Y-69047619D01*
X116169047Y-69095238D01*
X116121428Y-69119047D01*
%TO.C,R3*%
X115916666Y-68476190D02*
X115750000Y-68238095D01*
X115630952Y-68476190D02*
X115630952Y-67976190D01*
X115821428Y-67976190D01*
X115869047Y-68000000D01*
X115892857Y-68023809D01*
X115916666Y-68071428D01*
X115916666Y-68142857D01*
X115892857Y-68190476D01*
X115869047Y-68214285D01*
X115821428Y-68238095D01*
X115630952Y-68238095D01*
X116083333Y-67976190D02*
X116392857Y-67976190D01*
X116226190Y-68166666D01*
X116297619Y-68166666D01*
X116345238Y-68190476D01*
X116369047Y-68214285D01*
X116392857Y-68261904D01*
X116392857Y-68380952D01*
X116369047Y-68428571D01*
X116345238Y-68452380D01*
X116297619Y-68476190D01*
X116154761Y-68476190D01*
X116107142Y-68452380D01*
X116083333Y-68428571D01*
%TO.C,R4*%
X112416666Y-68226190D02*
X112250000Y-67988095D01*
X112130952Y-68226190D02*
X112130952Y-67726190D01*
X112321428Y-67726190D01*
X112369047Y-67750000D01*
X112392857Y-67773809D01*
X112416666Y-67821428D01*
X112416666Y-67892857D01*
X112392857Y-67940476D01*
X112369047Y-67964285D01*
X112321428Y-67988095D01*
X112130952Y-67988095D01*
X112845238Y-67892857D02*
X112845238Y-68226190D01*
X112726190Y-67702380D02*
X112607142Y-68059523D01*
X112916666Y-68059523D01*
%TO.C,F1*%
X108083333Y-73264285D02*
X107916666Y-73264285D01*
X107916666Y-73526190D02*
X107916666Y-73026190D01*
X108154761Y-73026190D01*
X108607142Y-73526190D02*
X108321428Y-73526190D01*
X108464285Y-73526190D02*
X108464285Y-73026190D01*
X108416666Y-73097619D01*
X108369047Y-73145238D01*
X108321428Y-73169047D01*
%TO.C,D1*%
X108180952Y-70326190D02*
X108180952Y-69826190D01*
X108300000Y-69826190D01*
X108371428Y-69850000D01*
X108419047Y-69897619D01*
X108442857Y-69945238D01*
X108466666Y-70040476D01*
X108466666Y-70111904D01*
X108442857Y-70207142D01*
X108419047Y-70254761D01*
X108371428Y-70302380D01*
X108300000Y-70326190D01*
X108180952Y-70326190D01*
X108942857Y-70326190D02*
X108657142Y-70326190D01*
X108800000Y-70326190D02*
X108800000Y-69826190D01*
X108752380Y-69897619D01*
X108704761Y-69945238D01*
X108657142Y-69969047D01*
%TO.C,C9*%
X111416666Y-86928571D02*
X111392857Y-86952380D01*
X111321428Y-86976190D01*
X111273809Y-86976190D01*
X111202380Y-86952380D01*
X111154761Y-86904761D01*
X111130952Y-86857142D01*
X111107142Y-86761904D01*
X111107142Y-86690476D01*
X111130952Y-86595238D01*
X111154761Y-86547619D01*
X111202380Y-86500000D01*
X111273809Y-86476190D01*
X111321428Y-86476190D01*
X111392857Y-86500000D01*
X111416666Y-86523809D01*
X111654761Y-86976190D02*
X111750000Y-86976190D01*
X111797619Y-86952380D01*
X111821428Y-86928571D01*
X111869047Y-86857142D01*
X111892857Y-86761904D01*
X111892857Y-86571428D01*
X111869047Y-86523809D01*
X111845238Y-86500000D01*
X111797619Y-86476190D01*
X111702380Y-86476190D01*
X111654761Y-86500000D01*
X111630952Y-86523809D01*
X111607142Y-86571428D01*
X111607142Y-86690476D01*
X111630952Y-86738095D01*
X111654761Y-86761904D01*
X111702380Y-86785714D01*
X111797619Y-86785714D01*
X111845238Y-86761904D01*
X111869047Y-86738095D01*
X111892857Y-86690476D01*
%TO.C,C10*%
X119421428Y-83128571D02*
X119397619Y-83104761D01*
X119373809Y-83033333D01*
X119373809Y-82985714D01*
X119397619Y-82914285D01*
X119445238Y-82866666D01*
X119492857Y-82842857D01*
X119588095Y-82819047D01*
X119659523Y-82819047D01*
X119754761Y-82842857D01*
X119802380Y-82866666D01*
X119850000Y-82914285D01*
X119873809Y-82985714D01*
X119873809Y-83033333D01*
X119850000Y-83104761D01*
X119826190Y-83128571D01*
X119373809Y-83604761D02*
X119373809Y-83319047D01*
X119373809Y-83461904D02*
X119873809Y-83461904D01*
X119802380Y-83414285D01*
X119754761Y-83366666D01*
X119730952Y-83319047D01*
X119873809Y-83914285D02*
X119873809Y-83961904D01*
X119850000Y-84009523D01*
X119826190Y-84033333D01*
X119778571Y-84057142D01*
X119683333Y-84080952D01*
X119564285Y-84080952D01*
X119469047Y-84057142D01*
X119421428Y-84033333D01*
X119397619Y-84009523D01*
X119373809Y-83961904D01*
X119373809Y-83914285D01*
X119397619Y-83866666D01*
X119421428Y-83842857D01*
X119469047Y-83819047D01*
X119564285Y-83795238D01*
X119683333Y-83795238D01*
X119778571Y-83819047D01*
X119826190Y-83842857D01*
X119850000Y-83866666D01*
X119873809Y-83914285D01*
%TO.C,R6*%
X114916666Y-88976190D02*
X114750000Y-88738095D01*
X114630952Y-88976190D02*
X114630952Y-88476190D01*
X114821428Y-88476190D01*
X114869047Y-88500000D01*
X114892857Y-88523809D01*
X114916666Y-88571428D01*
X114916666Y-88642857D01*
X114892857Y-88690476D01*
X114869047Y-88714285D01*
X114821428Y-88738095D01*
X114630952Y-88738095D01*
X115345238Y-88476190D02*
X115250000Y-88476190D01*
X115202380Y-88500000D01*
X115178571Y-88523809D01*
X115130952Y-88595238D01*
X115107142Y-88690476D01*
X115107142Y-88880952D01*
X115130952Y-88928571D01*
X115154761Y-88952380D01*
X115202380Y-88976190D01*
X115297619Y-88976190D01*
X115345238Y-88952380D01*
X115369047Y-88928571D01*
X115392857Y-88880952D01*
X115392857Y-88761904D01*
X115369047Y-88714285D01*
X115345238Y-88690476D01*
X115297619Y-88666666D01*
X115202380Y-88666666D01*
X115154761Y-88690476D01*
X115130952Y-88714285D01*
X115107142Y-88761904D01*
%TO.C,U3*%
X117869047Y-86976190D02*
X117869047Y-87380952D01*
X117892857Y-87428571D01*
X117916666Y-87452380D01*
X117964285Y-87476190D01*
X118059523Y-87476190D01*
X118107142Y-87452380D01*
X118130952Y-87428571D01*
X118154761Y-87380952D01*
X118154761Y-86976190D01*
X118345238Y-86976190D02*
X118654761Y-86976190D01*
X118488095Y-87166666D01*
X118559523Y-87166666D01*
X118607142Y-87190476D01*
X118630952Y-87214285D01*
X118654761Y-87261904D01*
X118654761Y-87380952D01*
X118630952Y-87428571D01*
X118607142Y-87452380D01*
X118559523Y-87476190D01*
X118416666Y-87476190D01*
X118369047Y-87452380D01*
X118345238Y-87428571D01*
%TO.C,D2*%
X108130952Y-84476190D02*
X108130952Y-83976190D01*
X108250000Y-83976190D01*
X108321428Y-84000000D01*
X108369047Y-84047619D01*
X108392857Y-84095238D01*
X108416666Y-84190476D01*
X108416666Y-84261904D01*
X108392857Y-84357142D01*
X108369047Y-84404761D01*
X108321428Y-84452380D01*
X108250000Y-84476190D01*
X108130952Y-84476190D01*
X108607142Y-84023809D02*
X108630952Y-84000000D01*
X108678571Y-83976190D01*
X108797619Y-83976190D01*
X108845238Y-84000000D01*
X108869047Y-84023809D01*
X108892857Y-84071428D01*
X108892857Y-84119047D01*
X108869047Y-84190476D01*
X108583333Y-84476190D01*
X108892857Y-84476190D01*
%TO.C,D3*%
X122880952Y-87476190D02*
X122880952Y-86976190D01*
X123000000Y-86976190D01*
X123071428Y-87000000D01*
X123119047Y-87047619D01*
X123142857Y-87095238D01*
X123166666Y-87190476D01*
X123166666Y-87261904D01*
X123142857Y-87357142D01*
X123119047Y-87404761D01*
X123071428Y-87452380D01*
X123000000Y-87476190D01*
X122880952Y-87476190D01*
X123333333Y-86976190D02*
X123642857Y-86976190D01*
X123476190Y-87166666D01*
X123547619Y-87166666D01*
X123595238Y-87190476D01*
X123619047Y-87214285D01*
X123642857Y-87261904D01*
X123642857Y-87380952D01*
X123619047Y-87428571D01*
X123595238Y-87452380D01*
X123547619Y-87476190D01*
X123404761Y-87476190D01*
X123357142Y-87452380D01*
X123333333Y-87428571D01*
%TO.C,D4*%
X119530952Y-87476190D02*
X119530952Y-86976190D01*
X119650000Y-86976190D01*
X119721428Y-87000000D01*
X119769047Y-87047619D01*
X119792857Y-87095238D01*
X119816666Y-87190476D01*
X119816666Y-87261904D01*
X119792857Y-87357142D01*
X119769047Y-87404761D01*
X119721428Y-87452380D01*
X119650000Y-87476190D01*
X119530952Y-87476190D01*
X120245238Y-87142857D02*
X120245238Y-87476190D01*
X120126190Y-86952380D02*
X120007142Y-87309523D01*
X120316666Y-87309523D01*
%TO.C,R1*%
X123166666Y-86226190D02*
X123000000Y-85988095D01*
X122880952Y-86226190D02*
X122880952Y-85726190D01*
X123071428Y-85726190D01*
X123119047Y-85750000D01*
X123142857Y-85773809D01*
X123166666Y-85821428D01*
X123166666Y-85892857D01*
X123142857Y-85940476D01*
X123119047Y-85964285D01*
X123071428Y-85988095D01*
X122880952Y-85988095D01*
X123642857Y-86226190D02*
X123357142Y-86226190D01*
X123500000Y-86226190D02*
X123500000Y-85726190D01*
X123452380Y-85797619D01*
X123404761Y-85845238D01*
X123357142Y-85869047D01*
%TO.C,R2*%
X119816666Y-86226190D02*
X119650000Y-85988095D01*
X119530952Y-86226190D02*
X119530952Y-85726190D01*
X119721428Y-85726190D01*
X119769047Y-85750000D01*
X119792857Y-85773809D01*
X119816666Y-85821428D01*
X119816666Y-85892857D01*
X119792857Y-85940476D01*
X119769047Y-85964285D01*
X119721428Y-85988095D01*
X119530952Y-85988095D01*
X120007142Y-85773809D02*
X120030952Y-85750000D01*
X120078571Y-85726190D01*
X120197619Y-85726190D01*
X120245238Y-85750000D01*
X120269047Y-85773809D01*
X120292857Y-85821428D01*
X120292857Y-85869047D01*
X120269047Y-85940476D01*
X119983333Y-86226190D01*
X120292857Y-86226190D01*
%TO.C,R5*%
X109666666Y-84476190D02*
X109500000Y-84238095D01*
X109380952Y-84476190D02*
X109380952Y-83976190D01*
X109571428Y-83976190D01*
X109619047Y-84000000D01*
X109642857Y-84023809D01*
X109666666Y-84071428D01*
X109666666Y-84142857D01*
X109642857Y-84190476D01*
X109619047Y-84214285D01*
X109571428Y-84238095D01*
X109380952Y-84238095D01*
X110119047Y-83976190D02*
X109880952Y-83976190D01*
X109857142Y-84214285D01*
X109880952Y-84190476D01*
X109928571Y-84166666D01*
X110047619Y-84166666D01*
X110095238Y-84190476D01*
X110119047Y-84214285D01*
X110142857Y-84261904D01*
X110142857Y-84380952D01*
X110119047Y-84428571D01*
X110095238Y-84452380D01*
X110047619Y-84476190D01*
X109928571Y-84476190D01*
X109880952Y-84452380D01*
X109857142Y-84428571D01*
%TO.C,J1*%
D15*
X109166666Y-64952380D02*
X109166666Y-65666666D01*
X109119047Y-65809523D01*
X109023809Y-65904761D01*
X108880952Y-65952380D01*
X108785714Y-65952380D01*
X110166666Y-65952380D02*
X109595238Y-65952380D01*
X109880952Y-65952380D02*
X109880952Y-64952380D01*
X109785714Y-65095238D01*
X109690476Y-65190476D01*
X109595238Y-65238095D01*
%TD*%
M02*
