%TF.GenerationSoftware,KiCad,Pcbnew,5.1.8*%
%TF.CreationDate,2020-11-25T12:11:16+09:00*%
%TF.ProjectId,rasp_usb,72617370-5f75-4736-922e-6b696361645f,rev?*%
%TF.SameCoordinates,Original*%
%TF.FileFunction,Soldermask,Top*%
%TF.FilePolarity,Negative*%
%FSLAX46Y46*%
G04 Gerber Fmt 4.6, Leading zero omitted, Abs format (unit mm)*
G04 Created by KiCad (PCBNEW 5.1.8) date 2020-11-25 12:11:16*
%MOMM*%
%LPD*%
G01*
G04 APERTURE LIST*
%ADD10R,1.700000X1.700000*%
%ADD11O,1.700000X1.700000*%
%ADD12R,3.800000X2.000000*%
%ADD13R,1.500000X2.000000*%
%ADD14C,2.700000*%
%ADD15R,1.350000X2.000000*%
%ADD16R,1.825000X0.700000*%
%ADD17R,2.000000X1.500000*%
%ADD18R,0.400000X1.650000*%
%ADD19O,1.100000X1.500000*%
%ADD20O,1.350000X1.700000*%
%ADD21R,1.430000X2.500000*%
%ADD22R,0.900000X1.200000*%
%ADD23R,2.600000X2.600000*%
G04 APERTURE END LIST*
D10*
%TO.C,J2*%
X120250000Y-68500000D03*
D11*
X122790000Y-68500000D03*
X120250000Y-71040000D03*
X122790000Y-71040000D03*
X120250000Y-73580000D03*
X122790000Y-73580000D03*
X120250000Y-76120000D03*
X122790000Y-76120000D03*
X120250000Y-78660000D03*
X122790000Y-78660000D03*
%TD*%
D12*
%TO.C,U1*%
X107750000Y-73100000D03*
D13*
X107750000Y-79400000D03*
X110050000Y-79400000D03*
X105450000Y-79400000D03*
%TD*%
%TO.C,C4*%
G36*
G01*
X104550000Y-67330000D02*
X104550000Y-67670000D01*
G75*
G02*
X104410000Y-67810000I-140000J0D01*
G01*
X104130000Y-67810000D01*
G75*
G02*
X103990000Y-67670000I0J140000D01*
G01*
X103990000Y-67330000D01*
G75*
G02*
X104130000Y-67190000I140000J0D01*
G01*
X104410000Y-67190000D01*
G75*
G02*
X104550000Y-67330000I0J-140000D01*
G01*
G37*
G36*
G01*
X105510000Y-67330000D02*
X105510000Y-67670000D01*
G75*
G02*
X105370000Y-67810000I-140000J0D01*
G01*
X105090000Y-67810000D01*
G75*
G02*
X104950000Y-67670000I0J140000D01*
G01*
X104950000Y-67330000D01*
G75*
G02*
X105090000Y-67190000I140000J0D01*
G01*
X105370000Y-67190000D01*
G75*
G02*
X105510000Y-67330000I0J-140000D01*
G01*
G37*
%TD*%
%TO.C,C5*%
G36*
G01*
X103100000Y-75675000D02*
X103600000Y-75675000D01*
G75*
G02*
X103825000Y-75900000I0J-225000D01*
G01*
X103825000Y-76350000D01*
G75*
G02*
X103600000Y-76575000I-225000J0D01*
G01*
X103100000Y-76575000D01*
G75*
G02*
X102875000Y-76350000I0J225000D01*
G01*
X102875000Y-75900000D01*
G75*
G02*
X103100000Y-75675000I225000J0D01*
G01*
G37*
G36*
G01*
X103100000Y-77225000D02*
X103600000Y-77225000D01*
G75*
G02*
X103825000Y-77450000I0J-225000D01*
G01*
X103825000Y-77900000D01*
G75*
G02*
X103600000Y-78125000I-225000J0D01*
G01*
X103100000Y-78125000D01*
G75*
G02*
X102875000Y-77900000I0J225000D01*
G01*
X102875000Y-77450000D01*
G75*
G02*
X103100000Y-77225000I225000J0D01*
G01*
G37*
%TD*%
%TO.C,C6*%
G36*
G01*
X105510000Y-68330000D02*
X105510000Y-68670000D01*
G75*
G02*
X105370000Y-68810000I-140000J0D01*
G01*
X105090000Y-68810000D01*
G75*
G02*
X104950000Y-68670000I0J140000D01*
G01*
X104950000Y-68330000D01*
G75*
G02*
X105090000Y-68190000I140000J0D01*
G01*
X105370000Y-68190000D01*
G75*
G02*
X105510000Y-68330000I0J-140000D01*
G01*
G37*
G36*
G01*
X104550000Y-68330000D02*
X104550000Y-68670000D01*
G75*
G02*
X104410000Y-68810000I-140000J0D01*
G01*
X104130000Y-68810000D01*
G75*
G02*
X103990000Y-68670000I0J140000D01*
G01*
X103990000Y-68330000D01*
G75*
G02*
X104130000Y-68190000I140000J0D01*
G01*
X104410000Y-68190000D01*
G75*
G02*
X104550000Y-68330000I0J-140000D01*
G01*
G37*
%TD*%
%TO.C,C8*%
G36*
G01*
X103600000Y-79625000D02*
X103100000Y-79625000D01*
G75*
G02*
X102875000Y-79400000I0J225000D01*
G01*
X102875000Y-78950000D01*
G75*
G02*
X103100000Y-78725000I225000J0D01*
G01*
X103600000Y-78725000D01*
G75*
G02*
X103825000Y-78950000I0J-225000D01*
G01*
X103825000Y-79400000D01*
G75*
G02*
X103600000Y-79625000I-225000J0D01*
G01*
G37*
G36*
G01*
X103600000Y-81175000D02*
X103100000Y-81175000D01*
G75*
G02*
X102875000Y-80950000I0J225000D01*
G01*
X102875000Y-80500000D01*
G75*
G02*
X103100000Y-80275000I225000J0D01*
G01*
X103600000Y-80275000D01*
G75*
G02*
X103825000Y-80500000I0J-225000D01*
G01*
X103825000Y-80950000D01*
G75*
G02*
X103600000Y-81175000I-225000J0D01*
G01*
G37*
%TD*%
%TO.C,FB1*%
G36*
G01*
X108275000Y-71256250D02*
X108275000Y-70743750D01*
G75*
G02*
X108493750Y-70525000I218750J0D01*
G01*
X108931250Y-70525000D01*
G75*
G02*
X109150000Y-70743750I0J-218750D01*
G01*
X109150000Y-71256250D01*
G75*
G02*
X108931250Y-71475000I-218750J0D01*
G01*
X108493750Y-71475000D01*
G75*
G02*
X108275000Y-71256250I0J218750D01*
G01*
G37*
G36*
G01*
X109850000Y-71256250D02*
X109850000Y-70743750D01*
G75*
G02*
X110068750Y-70525000I218750J0D01*
G01*
X110506250Y-70525000D01*
G75*
G02*
X110725000Y-70743750I0J-218750D01*
G01*
X110725000Y-71256250D01*
G75*
G02*
X110506250Y-71475000I-218750J0D01*
G01*
X110068750Y-71475000D01*
G75*
G02*
X109850000Y-71256250I0J218750D01*
G01*
G37*
%TD*%
%TO.C,R3*%
G36*
G01*
X108565000Y-67990000D02*
X108935000Y-67990000D01*
G75*
G02*
X109070000Y-68125000I0J-135000D01*
G01*
X109070000Y-68395000D01*
G75*
G02*
X108935000Y-68530000I-135000J0D01*
G01*
X108565000Y-68530000D01*
G75*
G02*
X108430000Y-68395000I0J135000D01*
G01*
X108430000Y-68125000D01*
G75*
G02*
X108565000Y-67990000I135000J0D01*
G01*
G37*
G36*
G01*
X108565000Y-66970000D02*
X108935000Y-66970000D01*
G75*
G02*
X109070000Y-67105000I0J-135000D01*
G01*
X109070000Y-67375000D01*
G75*
G02*
X108935000Y-67510000I-135000J0D01*
G01*
X108565000Y-67510000D01*
G75*
G02*
X108430000Y-67375000I0J135000D01*
G01*
X108430000Y-67105000D01*
G75*
G02*
X108565000Y-66970000I135000J0D01*
G01*
G37*
%TD*%
%TO.C,R4*%
G36*
G01*
X107090000Y-66220000D02*
X107460000Y-66220000D01*
G75*
G02*
X107595000Y-66355000I0J-135000D01*
G01*
X107595000Y-66625000D01*
G75*
G02*
X107460000Y-66760000I-135000J0D01*
G01*
X107090000Y-66760000D01*
G75*
G02*
X106955000Y-66625000I0J135000D01*
G01*
X106955000Y-66355000D01*
G75*
G02*
X107090000Y-66220000I135000J0D01*
G01*
G37*
G36*
G01*
X107090000Y-67240000D02*
X107460000Y-67240000D01*
G75*
G02*
X107595000Y-67375000I0J-135000D01*
G01*
X107595000Y-67645000D01*
G75*
G02*
X107460000Y-67780000I-135000J0D01*
G01*
X107090000Y-67780000D01*
G75*
G02*
X106955000Y-67645000I0J135000D01*
G01*
X106955000Y-67375000D01*
G75*
G02*
X107090000Y-67240000I135000J0D01*
G01*
G37*
%TD*%
D14*
%TO.C,H1*%
X121500000Y-63500000D03*
%TD*%
D15*
%TO.C,J1*%
X104525000Y-62815000D03*
X110005000Y-62815000D03*
D16*
X110225000Y-63565000D03*
X104275000Y-63565000D03*
D17*
X110125000Y-64865000D03*
X104375000Y-64885000D03*
D18*
X108575000Y-64765000D03*
X107925000Y-64765000D03*
X107275000Y-64765000D03*
X106625000Y-64765000D03*
X105975000Y-64765000D03*
D19*
X109695000Y-64885000D03*
X104855000Y-64885000D03*
D20*
X110005000Y-61885000D03*
X104545000Y-61885000D03*
D21*
X108235000Y-61615000D03*
X106315000Y-61615000D03*
%TD*%
%TO.C,F1*%
G36*
G01*
X103093750Y-72675000D02*
X103606250Y-72675000D01*
G75*
G02*
X103825000Y-72893750I0J-218750D01*
G01*
X103825000Y-73331250D01*
G75*
G02*
X103606250Y-73550000I-218750J0D01*
G01*
X103093750Y-73550000D01*
G75*
G02*
X102875000Y-73331250I0J218750D01*
G01*
X102875000Y-72893750D01*
G75*
G02*
X103093750Y-72675000I218750J0D01*
G01*
G37*
G36*
G01*
X103093750Y-74250000D02*
X103606250Y-74250000D01*
G75*
G02*
X103825000Y-74468750I0J-218750D01*
G01*
X103825000Y-74906250D01*
G75*
G02*
X103606250Y-75125000I-218750J0D01*
G01*
X103093750Y-75125000D01*
G75*
G02*
X102875000Y-74906250I0J218750D01*
G01*
X102875000Y-74468750D01*
G75*
G02*
X103093750Y-74250000I218750J0D01*
G01*
G37*
%TD*%
D22*
%TO.C,D1*%
X103850000Y-70600000D03*
X107150000Y-70600000D03*
%TD*%
%TO.C,C9*%
G36*
G01*
X116825000Y-66150000D02*
X116825000Y-65650000D01*
G75*
G02*
X117050000Y-65425000I225000J0D01*
G01*
X117500000Y-65425000D01*
G75*
G02*
X117725000Y-65650000I0J-225000D01*
G01*
X117725000Y-66150000D01*
G75*
G02*
X117500000Y-66375000I-225000J0D01*
G01*
X117050000Y-66375000D01*
G75*
G02*
X116825000Y-66150000I0J225000D01*
G01*
G37*
G36*
G01*
X115275000Y-66150000D02*
X115275000Y-65650000D01*
G75*
G02*
X115500000Y-65425000I225000J0D01*
G01*
X115950000Y-65425000D01*
G75*
G02*
X116175000Y-65650000I0J-225000D01*
G01*
X116175000Y-66150000D01*
G75*
G02*
X115950000Y-66375000I-225000J0D01*
G01*
X115500000Y-66375000D01*
G75*
G02*
X115275000Y-66150000I0J225000D01*
G01*
G37*
%TD*%
%TO.C,C10*%
G36*
G01*
X117200000Y-75925000D02*
X117700000Y-75925000D01*
G75*
G02*
X117925000Y-76150000I0J-225000D01*
G01*
X117925000Y-76600000D01*
G75*
G02*
X117700000Y-76825000I-225000J0D01*
G01*
X117200000Y-76825000D01*
G75*
G02*
X116975000Y-76600000I0J225000D01*
G01*
X116975000Y-76150000D01*
G75*
G02*
X117200000Y-75925000I225000J0D01*
G01*
G37*
G36*
G01*
X117200000Y-77475000D02*
X117700000Y-77475000D01*
G75*
G02*
X117925000Y-77700000I0J-225000D01*
G01*
X117925000Y-78150000D01*
G75*
G02*
X117700000Y-78375000I-225000J0D01*
G01*
X117200000Y-78375000D01*
G75*
G02*
X116975000Y-78150000I0J225000D01*
G01*
X116975000Y-77700000D01*
G75*
G02*
X117200000Y-77475000I225000J0D01*
G01*
G37*
%TD*%
%TO.C,R6*%
G36*
G01*
X111965000Y-69120000D02*
X112335000Y-69120000D01*
G75*
G02*
X112470000Y-69255000I0J-135000D01*
G01*
X112470000Y-69525000D01*
G75*
G02*
X112335000Y-69660000I-135000J0D01*
G01*
X111965000Y-69660000D01*
G75*
G02*
X111830000Y-69525000I0J135000D01*
G01*
X111830000Y-69255000D01*
G75*
G02*
X111965000Y-69120000I135000J0D01*
G01*
G37*
G36*
G01*
X111965000Y-70140000D02*
X112335000Y-70140000D01*
G75*
G02*
X112470000Y-70275000I0J-135000D01*
G01*
X112470000Y-70545000D01*
G75*
G02*
X112335000Y-70680000I-135000J0D01*
G01*
X111965000Y-70680000D01*
G75*
G02*
X111830000Y-70545000I0J135000D01*
G01*
X111830000Y-70275000D01*
G75*
G02*
X111965000Y-70140000I135000J0D01*
G01*
G37*
%TD*%
%TO.C,U3*%
G36*
G01*
X116637500Y-68100000D02*
X116762500Y-68100000D01*
G75*
G02*
X116825000Y-68162500I0J-62500D01*
G01*
X116825000Y-68862500D01*
G75*
G02*
X116762500Y-68925000I-62500J0D01*
G01*
X116637500Y-68925000D01*
G75*
G02*
X116575000Y-68862500I0J62500D01*
G01*
X116575000Y-68162500D01*
G75*
G02*
X116637500Y-68100000I62500J0D01*
G01*
G37*
G36*
G01*
X116137500Y-68100000D02*
X116262500Y-68100000D01*
G75*
G02*
X116325000Y-68162500I0J-62500D01*
G01*
X116325000Y-68862500D01*
G75*
G02*
X116262500Y-68925000I-62500J0D01*
G01*
X116137500Y-68925000D01*
G75*
G02*
X116075000Y-68862500I0J62500D01*
G01*
X116075000Y-68162500D01*
G75*
G02*
X116137500Y-68100000I62500J0D01*
G01*
G37*
G36*
G01*
X115637500Y-68100000D02*
X115762500Y-68100000D01*
G75*
G02*
X115825000Y-68162500I0J-62500D01*
G01*
X115825000Y-68862500D01*
G75*
G02*
X115762500Y-68925000I-62500J0D01*
G01*
X115637500Y-68925000D01*
G75*
G02*
X115575000Y-68862500I0J62500D01*
G01*
X115575000Y-68162500D01*
G75*
G02*
X115637500Y-68100000I62500J0D01*
G01*
G37*
G36*
G01*
X115137500Y-68100000D02*
X115262500Y-68100000D01*
G75*
G02*
X115325000Y-68162500I0J-62500D01*
G01*
X115325000Y-68862500D01*
G75*
G02*
X115262500Y-68925000I-62500J0D01*
G01*
X115137500Y-68925000D01*
G75*
G02*
X115075000Y-68862500I0J62500D01*
G01*
X115075000Y-68162500D01*
G75*
G02*
X115137500Y-68100000I62500J0D01*
G01*
G37*
G36*
G01*
X114637500Y-68100000D02*
X114762500Y-68100000D01*
G75*
G02*
X114825000Y-68162500I0J-62500D01*
G01*
X114825000Y-68862500D01*
G75*
G02*
X114762500Y-68925000I-62500J0D01*
G01*
X114637500Y-68925000D01*
G75*
G02*
X114575000Y-68862500I0J62500D01*
G01*
X114575000Y-68162500D01*
G75*
G02*
X114637500Y-68100000I62500J0D01*
G01*
G37*
G36*
G01*
X114137500Y-68100000D02*
X114262500Y-68100000D01*
G75*
G02*
X114325000Y-68162500I0J-62500D01*
G01*
X114325000Y-68862500D01*
G75*
G02*
X114262500Y-68925000I-62500J0D01*
G01*
X114137500Y-68925000D01*
G75*
G02*
X114075000Y-68862500I0J62500D01*
G01*
X114075000Y-68162500D01*
G75*
G02*
X114137500Y-68100000I62500J0D01*
G01*
G37*
G36*
G01*
X113162500Y-69075000D02*
X113862500Y-69075000D01*
G75*
G02*
X113925000Y-69137500I0J-62500D01*
G01*
X113925000Y-69262500D01*
G75*
G02*
X113862500Y-69325000I-62500J0D01*
G01*
X113162500Y-69325000D01*
G75*
G02*
X113100000Y-69262500I0J62500D01*
G01*
X113100000Y-69137500D01*
G75*
G02*
X113162500Y-69075000I62500J0D01*
G01*
G37*
G36*
G01*
X113162500Y-69575000D02*
X113862500Y-69575000D01*
G75*
G02*
X113925000Y-69637500I0J-62500D01*
G01*
X113925000Y-69762500D01*
G75*
G02*
X113862500Y-69825000I-62500J0D01*
G01*
X113162500Y-69825000D01*
G75*
G02*
X113100000Y-69762500I0J62500D01*
G01*
X113100000Y-69637500D01*
G75*
G02*
X113162500Y-69575000I62500J0D01*
G01*
G37*
G36*
G01*
X113162500Y-70075000D02*
X113862500Y-70075000D01*
G75*
G02*
X113925000Y-70137500I0J-62500D01*
G01*
X113925000Y-70262500D01*
G75*
G02*
X113862500Y-70325000I-62500J0D01*
G01*
X113162500Y-70325000D01*
G75*
G02*
X113100000Y-70262500I0J62500D01*
G01*
X113100000Y-70137500D01*
G75*
G02*
X113162500Y-70075000I62500J0D01*
G01*
G37*
G36*
G01*
X113162500Y-70575000D02*
X113862500Y-70575000D01*
G75*
G02*
X113925000Y-70637500I0J-62500D01*
G01*
X113925000Y-70762500D01*
G75*
G02*
X113862500Y-70825000I-62500J0D01*
G01*
X113162500Y-70825000D01*
G75*
G02*
X113100000Y-70762500I0J62500D01*
G01*
X113100000Y-70637500D01*
G75*
G02*
X113162500Y-70575000I62500J0D01*
G01*
G37*
G36*
G01*
X113162500Y-71075000D02*
X113862500Y-71075000D01*
G75*
G02*
X113925000Y-71137500I0J-62500D01*
G01*
X113925000Y-71262500D01*
G75*
G02*
X113862500Y-71325000I-62500J0D01*
G01*
X113162500Y-71325000D01*
G75*
G02*
X113100000Y-71262500I0J62500D01*
G01*
X113100000Y-71137500D01*
G75*
G02*
X113162500Y-71075000I62500J0D01*
G01*
G37*
G36*
G01*
X113162500Y-71575000D02*
X113862500Y-71575000D01*
G75*
G02*
X113925000Y-71637500I0J-62500D01*
G01*
X113925000Y-71762500D01*
G75*
G02*
X113862500Y-71825000I-62500J0D01*
G01*
X113162500Y-71825000D01*
G75*
G02*
X113100000Y-71762500I0J62500D01*
G01*
X113100000Y-71637500D01*
G75*
G02*
X113162500Y-71575000I62500J0D01*
G01*
G37*
G36*
G01*
X114137500Y-71975000D02*
X114262500Y-71975000D01*
G75*
G02*
X114325000Y-72037500I0J-62500D01*
G01*
X114325000Y-72737500D01*
G75*
G02*
X114262500Y-72800000I-62500J0D01*
G01*
X114137500Y-72800000D01*
G75*
G02*
X114075000Y-72737500I0J62500D01*
G01*
X114075000Y-72037500D01*
G75*
G02*
X114137500Y-71975000I62500J0D01*
G01*
G37*
G36*
G01*
X114637500Y-71975000D02*
X114762500Y-71975000D01*
G75*
G02*
X114825000Y-72037500I0J-62500D01*
G01*
X114825000Y-72737500D01*
G75*
G02*
X114762500Y-72800000I-62500J0D01*
G01*
X114637500Y-72800000D01*
G75*
G02*
X114575000Y-72737500I0J62500D01*
G01*
X114575000Y-72037500D01*
G75*
G02*
X114637500Y-71975000I62500J0D01*
G01*
G37*
G36*
G01*
X115137500Y-71975000D02*
X115262500Y-71975000D01*
G75*
G02*
X115325000Y-72037500I0J-62500D01*
G01*
X115325000Y-72737500D01*
G75*
G02*
X115262500Y-72800000I-62500J0D01*
G01*
X115137500Y-72800000D01*
G75*
G02*
X115075000Y-72737500I0J62500D01*
G01*
X115075000Y-72037500D01*
G75*
G02*
X115137500Y-71975000I62500J0D01*
G01*
G37*
G36*
G01*
X115637500Y-71975000D02*
X115762500Y-71975000D01*
G75*
G02*
X115825000Y-72037500I0J-62500D01*
G01*
X115825000Y-72737500D01*
G75*
G02*
X115762500Y-72800000I-62500J0D01*
G01*
X115637500Y-72800000D01*
G75*
G02*
X115575000Y-72737500I0J62500D01*
G01*
X115575000Y-72037500D01*
G75*
G02*
X115637500Y-71975000I62500J0D01*
G01*
G37*
G36*
G01*
X116137500Y-71975000D02*
X116262500Y-71975000D01*
G75*
G02*
X116325000Y-72037500I0J-62500D01*
G01*
X116325000Y-72737500D01*
G75*
G02*
X116262500Y-72800000I-62500J0D01*
G01*
X116137500Y-72800000D01*
G75*
G02*
X116075000Y-72737500I0J62500D01*
G01*
X116075000Y-72037500D01*
G75*
G02*
X116137500Y-71975000I62500J0D01*
G01*
G37*
G36*
G01*
X116637500Y-71975000D02*
X116762500Y-71975000D01*
G75*
G02*
X116825000Y-72037500I0J-62500D01*
G01*
X116825000Y-72737500D01*
G75*
G02*
X116762500Y-72800000I-62500J0D01*
G01*
X116637500Y-72800000D01*
G75*
G02*
X116575000Y-72737500I0J62500D01*
G01*
X116575000Y-72037500D01*
G75*
G02*
X116637500Y-71975000I62500J0D01*
G01*
G37*
G36*
G01*
X117037500Y-71575000D02*
X117737500Y-71575000D01*
G75*
G02*
X117800000Y-71637500I0J-62500D01*
G01*
X117800000Y-71762500D01*
G75*
G02*
X117737500Y-71825000I-62500J0D01*
G01*
X117037500Y-71825000D01*
G75*
G02*
X116975000Y-71762500I0J62500D01*
G01*
X116975000Y-71637500D01*
G75*
G02*
X117037500Y-71575000I62500J0D01*
G01*
G37*
G36*
G01*
X117037500Y-71075000D02*
X117737500Y-71075000D01*
G75*
G02*
X117800000Y-71137500I0J-62500D01*
G01*
X117800000Y-71262500D01*
G75*
G02*
X117737500Y-71325000I-62500J0D01*
G01*
X117037500Y-71325000D01*
G75*
G02*
X116975000Y-71262500I0J62500D01*
G01*
X116975000Y-71137500D01*
G75*
G02*
X117037500Y-71075000I62500J0D01*
G01*
G37*
G36*
G01*
X117037500Y-70575000D02*
X117737500Y-70575000D01*
G75*
G02*
X117800000Y-70637500I0J-62500D01*
G01*
X117800000Y-70762500D01*
G75*
G02*
X117737500Y-70825000I-62500J0D01*
G01*
X117037500Y-70825000D01*
G75*
G02*
X116975000Y-70762500I0J62500D01*
G01*
X116975000Y-70637500D01*
G75*
G02*
X117037500Y-70575000I62500J0D01*
G01*
G37*
G36*
G01*
X117037500Y-70075000D02*
X117737500Y-70075000D01*
G75*
G02*
X117800000Y-70137500I0J-62500D01*
G01*
X117800000Y-70262500D01*
G75*
G02*
X117737500Y-70325000I-62500J0D01*
G01*
X117037500Y-70325000D01*
G75*
G02*
X116975000Y-70262500I0J62500D01*
G01*
X116975000Y-70137500D01*
G75*
G02*
X117037500Y-70075000I62500J0D01*
G01*
G37*
G36*
G01*
X117037500Y-69575000D02*
X117737500Y-69575000D01*
G75*
G02*
X117800000Y-69637500I0J-62500D01*
G01*
X117800000Y-69762500D01*
G75*
G02*
X117737500Y-69825000I-62500J0D01*
G01*
X117037500Y-69825000D01*
G75*
G02*
X116975000Y-69762500I0J62500D01*
G01*
X116975000Y-69637500D01*
G75*
G02*
X117037500Y-69575000I62500J0D01*
G01*
G37*
G36*
G01*
X117037500Y-69075000D02*
X117737500Y-69075000D01*
G75*
G02*
X117800000Y-69137500I0J-62500D01*
G01*
X117800000Y-69262500D01*
G75*
G02*
X117737500Y-69325000I-62500J0D01*
G01*
X117037500Y-69325000D01*
G75*
G02*
X116975000Y-69262500I0J62500D01*
G01*
X116975000Y-69137500D01*
G75*
G02*
X117037500Y-69075000I62500J0D01*
G01*
G37*
D23*
X115450000Y-70450000D03*
%TD*%
%TO.C,D2*%
G36*
G01*
X115955000Y-62927500D02*
X115955000Y-63272500D01*
G75*
G02*
X115807500Y-63420000I-147500J0D01*
G01*
X115512500Y-63420000D01*
G75*
G02*
X115365000Y-63272500I0J147500D01*
G01*
X115365000Y-62927500D01*
G75*
G02*
X115512500Y-62780000I147500J0D01*
G01*
X115807500Y-62780000D01*
G75*
G02*
X115955000Y-62927500I0J-147500D01*
G01*
G37*
G36*
G01*
X114985000Y-62927500D02*
X114985000Y-63272500D01*
G75*
G02*
X114837500Y-63420000I-147500J0D01*
G01*
X114542500Y-63420000D01*
G75*
G02*
X114395000Y-63272500I0J147500D01*
G01*
X114395000Y-62927500D01*
G75*
G02*
X114542500Y-62780000I147500J0D01*
G01*
X114837500Y-62780000D01*
G75*
G02*
X114985000Y-62927500I0J-147500D01*
G01*
G37*
%TD*%
%TO.C,D3*%
G36*
G01*
X114477500Y-76490000D02*
X114822500Y-76490000D01*
G75*
G02*
X114970000Y-76637500I0J-147500D01*
G01*
X114970000Y-76932500D01*
G75*
G02*
X114822500Y-77080000I-147500J0D01*
G01*
X114477500Y-77080000D01*
G75*
G02*
X114330000Y-76932500I0J147500D01*
G01*
X114330000Y-76637500D01*
G75*
G02*
X114477500Y-76490000I147500J0D01*
G01*
G37*
G36*
G01*
X114477500Y-75520000D02*
X114822500Y-75520000D01*
G75*
G02*
X114970000Y-75667500I0J-147500D01*
G01*
X114970000Y-75962500D01*
G75*
G02*
X114822500Y-76110000I-147500J0D01*
G01*
X114477500Y-76110000D01*
G75*
G02*
X114330000Y-75962500I0J147500D01*
G01*
X114330000Y-75667500D01*
G75*
G02*
X114477500Y-75520000I147500J0D01*
G01*
G37*
%TD*%
%TO.C,D4*%
G36*
G01*
X113527500Y-75520000D02*
X113872500Y-75520000D01*
G75*
G02*
X114020000Y-75667500I0J-147500D01*
G01*
X114020000Y-75962500D01*
G75*
G02*
X113872500Y-76110000I-147500J0D01*
G01*
X113527500Y-76110000D01*
G75*
G02*
X113380000Y-75962500I0J147500D01*
G01*
X113380000Y-75667500D01*
G75*
G02*
X113527500Y-75520000I147500J0D01*
G01*
G37*
G36*
G01*
X113527500Y-76490000D02*
X113872500Y-76490000D01*
G75*
G02*
X114020000Y-76637500I0J-147500D01*
G01*
X114020000Y-76932500D01*
G75*
G02*
X113872500Y-77080000I-147500J0D01*
G01*
X113527500Y-77080000D01*
G75*
G02*
X113380000Y-76932500I0J147500D01*
G01*
X113380000Y-76637500D01*
G75*
G02*
X113527500Y-76490000I147500J0D01*
G01*
G37*
%TD*%
%TO.C,R1*%
G36*
G01*
X114835000Y-79030000D02*
X114465000Y-79030000D01*
G75*
G02*
X114330000Y-78895000I0J135000D01*
G01*
X114330000Y-78625000D01*
G75*
G02*
X114465000Y-78490000I135000J0D01*
G01*
X114835000Y-78490000D01*
G75*
G02*
X114970000Y-78625000I0J-135000D01*
G01*
X114970000Y-78895000D01*
G75*
G02*
X114835000Y-79030000I-135000J0D01*
G01*
G37*
G36*
G01*
X114835000Y-78010000D02*
X114465000Y-78010000D01*
G75*
G02*
X114330000Y-77875000I0J135000D01*
G01*
X114330000Y-77605000D01*
G75*
G02*
X114465000Y-77470000I135000J0D01*
G01*
X114835000Y-77470000D01*
G75*
G02*
X114970000Y-77605000I0J-135000D01*
G01*
X114970000Y-77875000D01*
G75*
G02*
X114835000Y-78010000I-135000J0D01*
G01*
G37*
%TD*%
%TO.C,R2*%
G36*
G01*
X113515000Y-78490000D02*
X113885000Y-78490000D01*
G75*
G02*
X114020000Y-78625000I0J-135000D01*
G01*
X114020000Y-78895000D01*
G75*
G02*
X113885000Y-79030000I-135000J0D01*
G01*
X113515000Y-79030000D01*
G75*
G02*
X113380000Y-78895000I0J135000D01*
G01*
X113380000Y-78625000D01*
G75*
G02*
X113515000Y-78490000I135000J0D01*
G01*
G37*
G36*
G01*
X113515000Y-77470000D02*
X113885000Y-77470000D01*
G75*
G02*
X114020000Y-77605000I0J-135000D01*
G01*
X114020000Y-77875000D01*
G75*
G02*
X113885000Y-78010000I-135000J0D01*
G01*
X113515000Y-78010000D01*
G75*
G02*
X113380000Y-77875000I0J135000D01*
G01*
X113380000Y-77605000D01*
G75*
G02*
X113515000Y-77470000I135000J0D01*
G01*
G37*
%TD*%
%TO.C,R5*%
G36*
G01*
X114395000Y-64310000D02*
X114395000Y-63940000D01*
G75*
G02*
X114530000Y-63805000I135000J0D01*
G01*
X114800000Y-63805000D01*
G75*
G02*
X114935000Y-63940000I0J-135000D01*
G01*
X114935000Y-64310000D01*
G75*
G02*
X114800000Y-64445000I-135000J0D01*
G01*
X114530000Y-64445000D01*
G75*
G02*
X114395000Y-64310000I0J135000D01*
G01*
G37*
G36*
G01*
X115415000Y-64310000D02*
X115415000Y-63940000D01*
G75*
G02*
X115550000Y-63805000I135000J0D01*
G01*
X115820000Y-63805000D01*
G75*
G02*
X115955000Y-63940000I0J-135000D01*
G01*
X115955000Y-64310000D01*
G75*
G02*
X115820000Y-64445000I-135000J0D01*
G01*
X115550000Y-64445000D01*
G75*
G02*
X115415000Y-64310000I0J135000D01*
G01*
G37*
%TD*%
M02*
