M48
; DRILL file {KiCad 5.1.8} date Thu Jan 14 21:39:31 2021
; FORMAT={-:-/ absolute / metric / decimal}
; #@! TF.CreationDate,2021-01-14T21:39:31+09:00
; #@! TF.GenerationSoftware,Kicad,Pcbnew,5.1.8
; #@! TF.FileFunction,Plated,1,2,PTH
FMAT,2
METRIC
T1C0.400
T2C1.000
%
G90
G05
T1
X108.6Y-77.15
X108.6Y-78.7
X108.75Y-85.25
X110.25Y-73.25
X110.4Y-85.3
X110.438Y-83.688
X110.75Y-79.0
X111.75Y-83.75
X111.75Y-85.0
X112.5Y-68.25
X113.0Y-72.75
X113.0Y-74.5
X113.0Y-78.9
X114.0Y-68.75
X114.0Y-87.8
X115.25Y-67.75
X115.25Y-81.0
X115.5Y-70.5
X115.85Y-73.25
X119.0Y-86.6
X119.9Y-85.0
X121.1Y-85.0
X121.1Y-87.9
T2
X120.25Y-68.5
X120.25Y-71.04
X120.25Y-73.58
X120.25Y-76.12
X120.25Y-78.66
X122.79Y-68.5
X122.79Y-71.04
X122.79Y-73.58
X122.79Y-76.12
X122.79Y-78.66
T0
M30
