%TF.GenerationSoftware,KiCad,Pcbnew,5.1.8*%
%TF.CreationDate,2020-11-26T00:29:23+09:00*%
%TF.ProjectId,rasp_usb,72617370-5f75-4736-922e-6b696361645f,rev?*%
%TF.SameCoordinates,Original*%
%TF.FileFunction,Copper,L2,Bot*%
%TF.FilePolarity,Positive*%
%FSLAX46Y46*%
G04 Gerber Fmt 4.6, Leading zero omitted, Abs format (unit mm)*
G04 Created by KiCad (PCBNEW 5.1.8) date 2020-11-26 00:29:23*
%MOMM*%
%LPD*%
G01*
G04 APERTURE LIST*
%TA.AperFunction,ComponentPad*%
%ADD10R,1.700000X1.700000*%
%TD*%
%TA.AperFunction,ComponentPad*%
%ADD11O,1.700000X1.700000*%
%TD*%
%TA.AperFunction,ViaPad*%
%ADD12C,0.600000*%
%TD*%
%TA.AperFunction,ViaPad*%
%ADD13C,0.800000*%
%TD*%
%TA.AperFunction,Conductor*%
%ADD14C,0.250000*%
%TD*%
%TA.AperFunction,Conductor*%
%ADD15C,0.500000*%
%TD*%
%TA.AperFunction,Conductor*%
%ADD16C,0.254000*%
%TD*%
%TA.AperFunction,Conductor*%
%ADD17C,0.100000*%
%TD*%
G04 APERTURE END LIST*
D10*
%TO.P,J2,1*%
%TO.N,3V3*%
X120250000Y-68500000D03*
D11*
%TO.P,J2,2*%
%TO.N,5V*%
X122790000Y-68500000D03*
%TO.P,J2,3*%
%TO.N,Net-(J2-Pad3)*%
X120250000Y-71040000D03*
%TO.P,J2,4*%
%TO.N,5V*%
X122790000Y-71040000D03*
%TO.P,J2,5*%
%TO.N,Net-(J2-Pad5)*%
X120250000Y-73580000D03*
%TO.P,J2,6*%
%TO.N,GND*%
X122790000Y-73580000D03*
%TO.P,J2,7*%
%TO.N,Net-(J2-Pad7)*%
X120250000Y-76120000D03*
%TO.P,J2,8*%
%TO.N,UART_TXD*%
X122790000Y-76120000D03*
%TO.P,J2,9*%
%TO.N,GND*%
X120250000Y-78660000D03*
%TO.P,J2,10*%
%TO.N,UART_RXD*%
X122790000Y-78660000D03*
%TD*%
D12*
%TO.N,VBUS*%
X110250000Y-71000000D03*
%TO.N,Net-(R3-Pad2)*%
X108750000Y-69250000D03*
%TO.N,Net-(R4-Pad2)*%
X107250000Y-68750000D03*
D13*
%TO.N,GND*%
X105500000Y-79500000D03*
X103350000Y-79200000D03*
X103350000Y-77650000D03*
%TO.N,UART_TXD*%
X118250000Y-73500000D03*
D12*
%TO.N,Net-(R3-Pad2)*%
X111700000Y-68250000D03*
%TO.N,Net-(R4-Pad2)*%
X111700000Y-66600000D03*
%TO.N,VBUS*%
X110000000Y-68250000D03*
D13*
%TO.N,VIO*%
X107750000Y-73250000D03*
X107750000Y-79400000D03*
X110500000Y-73750000D03*
X105000000Y-73750000D03*
X107750000Y-75000000D03*
D12*
X112120000Y-69420000D03*
X115700000Y-65900000D03*
%TD*%
D14*
%TO.N,UART_TXD*%
X121425001Y-74755001D02*
X122790000Y-76120000D01*
X119505001Y-74755001D02*
X121425001Y-74755001D01*
X118250000Y-73500000D02*
X119505001Y-74755001D01*
%TO.N,Net-(R4-Pad2)*%
X111692501Y-66607499D02*
X111700000Y-66600000D01*
X107250000Y-68750000D02*
X107250000Y-68250000D01*
X107250000Y-68250000D02*
X108000000Y-67500000D01*
X110800000Y-67500000D02*
X111700000Y-66600000D01*
X108000000Y-67500000D02*
X110800000Y-67500000D01*
D15*
%TO.N,VBUS*%
X110250000Y-68500000D02*
X110000000Y-68250000D01*
X110250000Y-71000000D02*
X110250000Y-68500000D01*
%TO.N,VIO*%
X107750000Y-75000000D02*
X107750000Y-79400000D01*
D14*
X112120000Y-69420000D02*
X112419999Y-69120001D01*
X112839998Y-65900000D02*
X112419999Y-66319999D01*
X115700000Y-65900000D02*
X112839998Y-65900000D01*
X112419999Y-69120001D02*
X112419999Y-66319999D01*
%TD*%
D16*
%TO.N,GND*%
X122051010Y-60717192D02*
X122581036Y-60877216D01*
X123069879Y-61137140D01*
X123498931Y-61487065D01*
X123851844Y-61913664D01*
X124115173Y-62400681D01*
X124278894Y-62929578D01*
X124340000Y-63510960D01*
X124340001Y-80967711D01*
X124330420Y-81065424D01*
X124311420Y-81128357D01*
X124280554Y-81186406D01*
X124239011Y-81237343D01*
X124188356Y-81279248D01*
X124130529Y-81310515D01*
X124067728Y-81329956D01*
X123972165Y-81340000D01*
X102032279Y-81340000D01*
X101934576Y-81330420D01*
X101871643Y-81311420D01*
X101813594Y-81280554D01*
X101762657Y-81239011D01*
X101720752Y-81188356D01*
X101689485Y-81130529D01*
X101670044Y-81067728D01*
X101660000Y-80972165D01*
X101660000Y-73648061D01*
X103965000Y-73648061D01*
X103965000Y-73851939D01*
X104004774Y-74051898D01*
X104082795Y-74240256D01*
X104196063Y-74409774D01*
X104340226Y-74553937D01*
X104509744Y-74667205D01*
X104698102Y-74745226D01*
X104898061Y-74785000D01*
X105101939Y-74785000D01*
X105301898Y-74745226D01*
X105490256Y-74667205D01*
X105659774Y-74553937D01*
X105803937Y-74409774D01*
X105917205Y-74240256D01*
X105995226Y-74051898D01*
X106035000Y-73851939D01*
X106035000Y-73648061D01*
X105995226Y-73448102D01*
X105917205Y-73259744D01*
X105842582Y-73148061D01*
X106715000Y-73148061D01*
X106715000Y-73351939D01*
X106754774Y-73551898D01*
X106832795Y-73740256D01*
X106946063Y-73909774D01*
X107090226Y-74053937D01*
X107196580Y-74125000D01*
X107090226Y-74196063D01*
X106946063Y-74340226D01*
X106832795Y-74509744D01*
X106754774Y-74698102D01*
X106715000Y-74898061D01*
X106715000Y-75101939D01*
X106754774Y-75301898D01*
X106832795Y-75490256D01*
X106865000Y-75538455D01*
X106865001Y-78861544D01*
X106832795Y-78909744D01*
X106754774Y-79098102D01*
X106715000Y-79298061D01*
X106715000Y-79501939D01*
X106754774Y-79701898D01*
X106832795Y-79890256D01*
X106946063Y-80059774D01*
X107090226Y-80203937D01*
X107259744Y-80317205D01*
X107448102Y-80395226D01*
X107648061Y-80435000D01*
X107851939Y-80435000D01*
X108051898Y-80395226D01*
X108240256Y-80317205D01*
X108409774Y-80203937D01*
X108553937Y-80059774D01*
X108667205Y-79890256D01*
X108745226Y-79701898D01*
X108785000Y-79501939D01*
X108785000Y-79298061D01*
X108745226Y-79098102D01*
X108711587Y-79016890D01*
X118808524Y-79016890D01*
X118853175Y-79164099D01*
X118978359Y-79426920D01*
X119152412Y-79660269D01*
X119368645Y-79855178D01*
X119618748Y-80004157D01*
X119893109Y-80101481D01*
X120123000Y-79980814D01*
X120123000Y-78787000D01*
X118929845Y-78787000D01*
X118808524Y-79016890D01*
X108711587Y-79016890D01*
X108667205Y-78909744D01*
X108635000Y-78861546D01*
X108635000Y-75538454D01*
X108667205Y-75490256D01*
X108745226Y-75301898D01*
X108785000Y-75101939D01*
X108785000Y-74898061D01*
X108745226Y-74698102D01*
X108667205Y-74509744D01*
X108553937Y-74340226D01*
X108409774Y-74196063D01*
X108303420Y-74125000D01*
X108409774Y-74053937D01*
X108553937Y-73909774D01*
X108667205Y-73740256D01*
X108705393Y-73648061D01*
X109465000Y-73648061D01*
X109465000Y-73851939D01*
X109504774Y-74051898D01*
X109582795Y-74240256D01*
X109696063Y-74409774D01*
X109840226Y-74553937D01*
X110009744Y-74667205D01*
X110198102Y-74745226D01*
X110398061Y-74785000D01*
X110601939Y-74785000D01*
X110801898Y-74745226D01*
X110990256Y-74667205D01*
X111159774Y-74553937D01*
X111303937Y-74409774D01*
X111417205Y-74240256D01*
X111495226Y-74051898D01*
X111535000Y-73851939D01*
X111535000Y-73648061D01*
X111495226Y-73448102D01*
X111474499Y-73398061D01*
X117215000Y-73398061D01*
X117215000Y-73601939D01*
X117254774Y-73801898D01*
X117332795Y-73990256D01*
X117446063Y-74159774D01*
X117590226Y-74303937D01*
X117759744Y-74417205D01*
X117948102Y-74495226D01*
X118148061Y-74535000D01*
X118210198Y-74535000D01*
X118941206Y-75266009D01*
X118965000Y-75295002D01*
X118993993Y-75318796D01*
X118993997Y-75318800D01*
X118997455Y-75321637D01*
X118934010Y-75416589D01*
X118822068Y-75686842D01*
X118765000Y-75973740D01*
X118765000Y-76266260D01*
X118822068Y-76553158D01*
X118934010Y-76823411D01*
X119096525Y-77066632D01*
X119303368Y-77273475D01*
X119485534Y-77395195D01*
X119368645Y-77464822D01*
X119152412Y-77659731D01*
X118978359Y-77893080D01*
X118853175Y-78155901D01*
X118808524Y-78303110D01*
X118929845Y-78533000D01*
X120123000Y-78533000D01*
X120123000Y-78513000D01*
X120377000Y-78513000D01*
X120377000Y-78533000D01*
X120397000Y-78533000D01*
X120397000Y-78787000D01*
X120377000Y-78787000D01*
X120377000Y-79980814D01*
X120606891Y-80101481D01*
X120881252Y-80004157D01*
X121131355Y-79855178D01*
X121347588Y-79660269D01*
X121518900Y-79430594D01*
X121636525Y-79606632D01*
X121843368Y-79813475D01*
X122086589Y-79975990D01*
X122356842Y-80087932D01*
X122643740Y-80145000D01*
X122936260Y-80145000D01*
X123223158Y-80087932D01*
X123493411Y-79975990D01*
X123736632Y-79813475D01*
X123943475Y-79606632D01*
X124105990Y-79363411D01*
X124217932Y-79093158D01*
X124275000Y-78806260D01*
X124275000Y-78513740D01*
X124217932Y-78226842D01*
X124105990Y-77956589D01*
X123943475Y-77713368D01*
X123736632Y-77506525D01*
X123562240Y-77390000D01*
X123736632Y-77273475D01*
X123943475Y-77066632D01*
X124105990Y-76823411D01*
X124217932Y-76553158D01*
X124275000Y-76266260D01*
X124275000Y-75973740D01*
X124217932Y-75686842D01*
X124105990Y-75416589D01*
X123943475Y-75173368D01*
X123736632Y-74966525D01*
X123554466Y-74844805D01*
X123671355Y-74775178D01*
X123887588Y-74580269D01*
X124061641Y-74346920D01*
X124186825Y-74084099D01*
X124231476Y-73936890D01*
X124110155Y-73707000D01*
X122917000Y-73707000D01*
X122917000Y-73727000D01*
X122663000Y-73727000D01*
X122663000Y-73707000D01*
X122643000Y-73707000D01*
X122643000Y-73453000D01*
X122663000Y-73453000D01*
X122663000Y-73433000D01*
X122917000Y-73433000D01*
X122917000Y-73453000D01*
X124110155Y-73453000D01*
X124231476Y-73223110D01*
X124186825Y-73075901D01*
X124061641Y-72813080D01*
X123887588Y-72579731D01*
X123671355Y-72384822D01*
X123554466Y-72315195D01*
X123736632Y-72193475D01*
X123943475Y-71986632D01*
X124105990Y-71743411D01*
X124217932Y-71473158D01*
X124275000Y-71186260D01*
X124275000Y-70893740D01*
X124217932Y-70606842D01*
X124105990Y-70336589D01*
X123943475Y-70093368D01*
X123736632Y-69886525D01*
X123562240Y-69770000D01*
X123736632Y-69653475D01*
X123943475Y-69446632D01*
X124105990Y-69203411D01*
X124217932Y-68933158D01*
X124275000Y-68646260D01*
X124275000Y-68353740D01*
X124217932Y-68066842D01*
X124105990Y-67796589D01*
X123943475Y-67553368D01*
X123736632Y-67346525D01*
X123493411Y-67184010D01*
X123223158Y-67072068D01*
X122936260Y-67015000D01*
X122643740Y-67015000D01*
X122356842Y-67072068D01*
X122086589Y-67184010D01*
X121843368Y-67346525D01*
X121711513Y-67478380D01*
X121689502Y-67405820D01*
X121630537Y-67295506D01*
X121551185Y-67198815D01*
X121454494Y-67119463D01*
X121344180Y-67060498D01*
X121224482Y-67024188D01*
X121100000Y-67011928D01*
X119400000Y-67011928D01*
X119275518Y-67024188D01*
X119155820Y-67060498D01*
X119045506Y-67119463D01*
X118948815Y-67198815D01*
X118869463Y-67295506D01*
X118810498Y-67405820D01*
X118774188Y-67525518D01*
X118761928Y-67650000D01*
X118761928Y-69350000D01*
X118774188Y-69474482D01*
X118810498Y-69594180D01*
X118869463Y-69704494D01*
X118948815Y-69801185D01*
X119045506Y-69880537D01*
X119155820Y-69939502D01*
X119228380Y-69961513D01*
X119096525Y-70093368D01*
X118934010Y-70336589D01*
X118822068Y-70606842D01*
X118765000Y-70893740D01*
X118765000Y-71186260D01*
X118822068Y-71473158D01*
X118934010Y-71743411D01*
X119096525Y-71986632D01*
X119303368Y-72193475D01*
X119477760Y-72310000D01*
X119303368Y-72426525D01*
X119096525Y-72633368D01*
X118996611Y-72782900D01*
X118909774Y-72696063D01*
X118740256Y-72582795D01*
X118551898Y-72504774D01*
X118351939Y-72465000D01*
X118148061Y-72465000D01*
X117948102Y-72504774D01*
X117759744Y-72582795D01*
X117590226Y-72696063D01*
X117446063Y-72840226D01*
X117332795Y-73009744D01*
X117254774Y-73198102D01*
X117215000Y-73398061D01*
X111474499Y-73398061D01*
X111417205Y-73259744D01*
X111303937Y-73090226D01*
X111159774Y-72946063D01*
X110990256Y-72832795D01*
X110801898Y-72754774D01*
X110601939Y-72715000D01*
X110398061Y-72715000D01*
X110198102Y-72754774D01*
X110009744Y-72832795D01*
X109840226Y-72946063D01*
X109696063Y-73090226D01*
X109582795Y-73259744D01*
X109504774Y-73448102D01*
X109465000Y-73648061D01*
X108705393Y-73648061D01*
X108745226Y-73551898D01*
X108785000Y-73351939D01*
X108785000Y-73148061D01*
X108745226Y-72948102D01*
X108667205Y-72759744D01*
X108553937Y-72590226D01*
X108409774Y-72446063D01*
X108240256Y-72332795D01*
X108051898Y-72254774D01*
X107851939Y-72215000D01*
X107648061Y-72215000D01*
X107448102Y-72254774D01*
X107259744Y-72332795D01*
X107090226Y-72446063D01*
X106946063Y-72590226D01*
X106832795Y-72759744D01*
X106754774Y-72948102D01*
X106715000Y-73148061D01*
X105842582Y-73148061D01*
X105803937Y-73090226D01*
X105659774Y-72946063D01*
X105490256Y-72832795D01*
X105301898Y-72754774D01*
X105101939Y-72715000D01*
X104898061Y-72715000D01*
X104698102Y-72754774D01*
X104509744Y-72832795D01*
X104340226Y-72946063D01*
X104196063Y-73090226D01*
X104082795Y-73259744D01*
X104004774Y-73448102D01*
X103965000Y-73648061D01*
X101660000Y-73648061D01*
X101660000Y-68657911D01*
X106315000Y-68657911D01*
X106315000Y-68842089D01*
X106350932Y-69022729D01*
X106421414Y-69192889D01*
X106523738Y-69346028D01*
X106653972Y-69476262D01*
X106807111Y-69578586D01*
X106977271Y-69649068D01*
X107157911Y-69685000D01*
X107342089Y-69685000D01*
X107522729Y-69649068D01*
X107692889Y-69578586D01*
X107842198Y-69478821D01*
X107850932Y-69522729D01*
X107921414Y-69692889D01*
X108023738Y-69846028D01*
X108153972Y-69976262D01*
X108307111Y-70078586D01*
X108477271Y-70149068D01*
X108657911Y-70185000D01*
X108842089Y-70185000D01*
X109022729Y-70149068D01*
X109192889Y-70078586D01*
X109346028Y-69976262D01*
X109365000Y-69957290D01*
X109365000Y-70693307D01*
X109350932Y-70727271D01*
X109315000Y-70907911D01*
X109315000Y-71092089D01*
X109350932Y-71272729D01*
X109421414Y-71442889D01*
X109523738Y-71596028D01*
X109653972Y-71726262D01*
X109807111Y-71828586D01*
X109977271Y-71899068D01*
X110157911Y-71935000D01*
X110342089Y-71935000D01*
X110522729Y-71899068D01*
X110692889Y-71828586D01*
X110846028Y-71726262D01*
X110976262Y-71596028D01*
X111078586Y-71442889D01*
X111149068Y-71272729D01*
X111185000Y-71092089D01*
X111185000Y-70907911D01*
X111149068Y-70727271D01*
X111135000Y-70693308D01*
X111135000Y-68996994D01*
X111251057Y-69074541D01*
X111220932Y-69147271D01*
X111185000Y-69327911D01*
X111185000Y-69512089D01*
X111220932Y-69692729D01*
X111291414Y-69862889D01*
X111393738Y-70016028D01*
X111523972Y-70146262D01*
X111677111Y-70248586D01*
X111847271Y-70319068D01*
X112027911Y-70355000D01*
X112212089Y-70355000D01*
X112392729Y-70319068D01*
X112562889Y-70248586D01*
X112716028Y-70146262D01*
X112846262Y-70016028D01*
X112948586Y-69862889D01*
X113019068Y-69692729D01*
X113046558Y-69554531D01*
X113054973Y-69544277D01*
X113125545Y-69412248D01*
X113169002Y-69268987D01*
X113179999Y-69157334D01*
X113179999Y-69157326D01*
X113183675Y-69120001D01*
X113179999Y-69082676D01*
X113179999Y-66660000D01*
X115154465Y-66660000D01*
X115257111Y-66728586D01*
X115427271Y-66799068D01*
X115607911Y-66835000D01*
X115792089Y-66835000D01*
X115972729Y-66799068D01*
X116142889Y-66728586D01*
X116296028Y-66626262D01*
X116426262Y-66496028D01*
X116528586Y-66342889D01*
X116599068Y-66172729D01*
X116635000Y-65992089D01*
X116635000Y-65807911D01*
X116599068Y-65627271D01*
X116528586Y-65457111D01*
X116426262Y-65303972D01*
X116296028Y-65173738D01*
X116142889Y-65071414D01*
X115972729Y-65000932D01*
X115792089Y-64965000D01*
X115607911Y-64965000D01*
X115427271Y-65000932D01*
X115257111Y-65071414D01*
X115154465Y-65140000D01*
X112877320Y-65140000D01*
X112839997Y-65136324D01*
X112802674Y-65140000D01*
X112802665Y-65140000D01*
X112691012Y-65150997D01*
X112547751Y-65194454D01*
X112415722Y-65265026D01*
X112299997Y-65359999D01*
X112276194Y-65389003D01*
X111965669Y-65699528D01*
X111792089Y-65665000D01*
X111607911Y-65665000D01*
X111427271Y-65700932D01*
X111257111Y-65771414D01*
X111103972Y-65873738D01*
X110973738Y-66003972D01*
X110871414Y-66157111D01*
X110800932Y-66327271D01*
X110776847Y-66448351D01*
X110485199Y-66740000D01*
X108037322Y-66740000D01*
X107999999Y-66736324D01*
X107962676Y-66740000D01*
X107962667Y-66740000D01*
X107851014Y-66750997D01*
X107707753Y-66794454D01*
X107575724Y-66865026D01*
X107459999Y-66959999D01*
X107436201Y-66988998D01*
X106738998Y-67686201D01*
X106710000Y-67709999D01*
X106615026Y-67825724D01*
X106544454Y-67957753D01*
X106500997Y-68101014D01*
X106490948Y-68203046D01*
X106421414Y-68307111D01*
X106350932Y-68477271D01*
X106315000Y-68657911D01*
X101660000Y-68657911D01*
X101660000Y-63305926D01*
X119529534Y-63305926D01*
X119529534Y-63694074D01*
X119605258Y-64074764D01*
X119753796Y-64433366D01*
X119969439Y-64756099D01*
X120243901Y-65030561D01*
X120566634Y-65246204D01*
X120925236Y-65394742D01*
X121305926Y-65470466D01*
X121694074Y-65470466D01*
X122074764Y-65394742D01*
X122433366Y-65246204D01*
X122756099Y-65030561D01*
X123030561Y-64756099D01*
X123246204Y-64433366D01*
X123394742Y-64074764D01*
X123470466Y-63694074D01*
X123470466Y-63305926D01*
X123394742Y-62925236D01*
X123246204Y-62566634D01*
X123030561Y-62243901D01*
X122756099Y-61969439D01*
X122433366Y-61753796D01*
X122074764Y-61605258D01*
X121694074Y-61529534D01*
X121305926Y-61529534D01*
X120925236Y-61605258D01*
X120566634Y-61753796D01*
X120243901Y-61969439D01*
X119969439Y-62243901D01*
X119753796Y-62566634D01*
X119605258Y-62925236D01*
X119529534Y-63305926D01*
X101660000Y-63305926D01*
X101660000Y-61032279D01*
X101669580Y-60934576D01*
X101688580Y-60871644D01*
X101719445Y-60813595D01*
X101760989Y-60762657D01*
X101811644Y-60720752D01*
X101869471Y-60689485D01*
X101932272Y-60670044D01*
X102027835Y-60660000D01*
X121467721Y-60660000D01*
X122051010Y-60717192D01*
%TA.AperFunction,Conductor*%
D17*
G36*
X122051010Y-60717192D02*
G01*
X122581036Y-60877216D01*
X123069879Y-61137140D01*
X123498931Y-61487065D01*
X123851844Y-61913664D01*
X124115173Y-62400681D01*
X124278894Y-62929578D01*
X124340000Y-63510960D01*
X124340001Y-80967711D01*
X124330420Y-81065424D01*
X124311420Y-81128357D01*
X124280554Y-81186406D01*
X124239011Y-81237343D01*
X124188356Y-81279248D01*
X124130529Y-81310515D01*
X124067728Y-81329956D01*
X123972165Y-81340000D01*
X102032279Y-81340000D01*
X101934576Y-81330420D01*
X101871643Y-81311420D01*
X101813594Y-81280554D01*
X101762657Y-81239011D01*
X101720752Y-81188356D01*
X101689485Y-81130529D01*
X101670044Y-81067728D01*
X101660000Y-80972165D01*
X101660000Y-73648061D01*
X103965000Y-73648061D01*
X103965000Y-73851939D01*
X104004774Y-74051898D01*
X104082795Y-74240256D01*
X104196063Y-74409774D01*
X104340226Y-74553937D01*
X104509744Y-74667205D01*
X104698102Y-74745226D01*
X104898061Y-74785000D01*
X105101939Y-74785000D01*
X105301898Y-74745226D01*
X105490256Y-74667205D01*
X105659774Y-74553937D01*
X105803937Y-74409774D01*
X105917205Y-74240256D01*
X105995226Y-74051898D01*
X106035000Y-73851939D01*
X106035000Y-73648061D01*
X105995226Y-73448102D01*
X105917205Y-73259744D01*
X105842582Y-73148061D01*
X106715000Y-73148061D01*
X106715000Y-73351939D01*
X106754774Y-73551898D01*
X106832795Y-73740256D01*
X106946063Y-73909774D01*
X107090226Y-74053937D01*
X107196580Y-74125000D01*
X107090226Y-74196063D01*
X106946063Y-74340226D01*
X106832795Y-74509744D01*
X106754774Y-74698102D01*
X106715000Y-74898061D01*
X106715000Y-75101939D01*
X106754774Y-75301898D01*
X106832795Y-75490256D01*
X106865000Y-75538455D01*
X106865001Y-78861544D01*
X106832795Y-78909744D01*
X106754774Y-79098102D01*
X106715000Y-79298061D01*
X106715000Y-79501939D01*
X106754774Y-79701898D01*
X106832795Y-79890256D01*
X106946063Y-80059774D01*
X107090226Y-80203937D01*
X107259744Y-80317205D01*
X107448102Y-80395226D01*
X107648061Y-80435000D01*
X107851939Y-80435000D01*
X108051898Y-80395226D01*
X108240256Y-80317205D01*
X108409774Y-80203937D01*
X108553937Y-80059774D01*
X108667205Y-79890256D01*
X108745226Y-79701898D01*
X108785000Y-79501939D01*
X108785000Y-79298061D01*
X108745226Y-79098102D01*
X108711587Y-79016890D01*
X118808524Y-79016890D01*
X118853175Y-79164099D01*
X118978359Y-79426920D01*
X119152412Y-79660269D01*
X119368645Y-79855178D01*
X119618748Y-80004157D01*
X119893109Y-80101481D01*
X120123000Y-79980814D01*
X120123000Y-78787000D01*
X118929845Y-78787000D01*
X118808524Y-79016890D01*
X108711587Y-79016890D01*
X108667205Y-78909744D01*
X108635000Y-78861546D01*
X108635000Y-75538454D01*
X108667205Y-75490256D01*
X108745226Y-75301898D01*
X108785000Y-75101939D01*
X108785000Y-74898061D01*
X108745226Y-74698102D01*
X108667205Y-74509744D01*
X108553937Y-74340226D01*
X108409774Y-74196063D01*
X108303420Y-74125000D01*
X108409774Y-74053937D01*
X108553937Y-73909774D01*
X108667205Y-73740256D01*
X108705393Y-73648061D01*
X109465000Y-73648061D01*
X109465000Y-73851939D01*
X109504774Y-74051898D01*
X109582795Y-74240256D01*
X109696063Y-74409774D01*
X109840226Y-74553937D01*
X110009744Y-74667205D01*
X110198102Y-74745226D01*
X110398061Y-74785000D01*
X110601939Y-74785000D01*
X110801898Y-74745226D01*
X110990256Y-74667205D01*
X111159774Y-74553937D01*
X111303937Y-74409774D01*
X111417205Y-74240256D01*
X111495226Y-74051898D01*
X111535000Y-73851939D01*
X111535000Y-73648061D01*
X111495226Y-73448102D01*
X111474499Y-73398061D01*
X117215000Y-73398061D01*
X117215000Y-73601939D01*
X117254774Y-73801898D01*
X117332795Y-73990256D01*
X117446063Y-74159774D01*
X117590226Y-74303937D01*
X117759744Y-74417205D01*
X117948102Y-74495226D01*
X118148061Y-74535000D01*
X118210198Y-74535000D01*
X118941206Y-75266009D01*
X118965000Y-75295002D01*
X118993993Y-75318796D01*
X118993997Y-75318800D01*
X118997455Y-75321637D01*
X118934010Y-75416589D01*
X118822068Y-75686842D01*
X118765000Y-75973740D01*
X118765000Y-76266260D01*
X118822068Y-76553158D01*
X118934010Y-76823411D01*
X119096525Y-77066632D01*
X119303368Y-77273475D01*
X119485534Y-77395195D01*
X119368645Y-77464822D01*
X119152412Y-77659731D01*
X118978359Y-77893080D01*
X118853175Y-78155901D01*
X118808524Y-78303110D01*
X118929845Y-78533000D01*
X120123000Y-78533000D01*
X120123000Y-78513000D01*
X120377000Y-78513000D01*
X120377000Y-78533000D01*
X120397000Y-78533000D01*
X120397000Y-78787000D01*
X120377000Y-78787000D01*
X120377000Y-79980814D01*
X120606891Y-80101481D01*
X120881252Y-80004157D01*
X121131355Y-79855178D01*
X121347588Y-79660269D01*
X121518900Y-79430594D01*
X121636525Y-79606632D01*
X121843368Y-79813475D01*
X122086589Y-79975990D01*
X122356842Y-80087932D01*
X122643740Y-80145000D01*
X122936260Y-80145000D01*
X123223158Y-80087932D01*
X123493411Y-79975990D01*
X123736632Y-79813475D01*
X123943475Y-79606632D01*
X124105990Y-79363411D01*
X124217932Y-79093158D01*
X124275000Y-78806260D01*
X124275000Y-78513740D01*
X124217932Y-78226842D01*
X124105990Y-77956589D01*
X123943475Y-77713368D01*
X123736632Y-77506525D01*
X123562240Y-77390000D01*
X123736632Y-77273475D01*
X123943475Y-77066632D01*
X124105990Y-76823411D01*
X124217932Y-76553158D01*
X124275000Y-76266260D01*
X124275000Y-75973740D01*
X124217932Y-75686842D01*
X124105990Y-75416589D01*
X123943475Y-75173368D01*
X123736632Y-74966525D01*
X123554466Y-74844805D01*
X123671355Y-74775178D01*
X123887588Y-74580269D01*
X124061641Y-74346920D01*
X124186825Y-74084099D01*
X124231476Y-73936890D01*
X124110155Y-73707000D01*
X122917000Y-73707000D01*
X122917000Y-73727000D01*
X122663000Y-73727000D01*
X122663000Y-73707000D01*
X122643000Y-73707000D01*
X122643000Y-73453000D01*
X122663000Y-73453000D01*
X122663000Y-73433000D01*
X122917000Y-73433000D01*
X122917000Y-73453000D01*
X124110155Y-73453000D01*
X124231476Y-73223110D01*
X124186825Y-73075901D01*
X124061641Y-72813080D01*
X123887588Y-72579731D01*
X123671355Y-72384822D01*
X123554466Y-72315195D01*
X123736632Y-72193475D01*
X123943475Y-71986632D01*
X124105990Y-71743411D01*
X124217932Y-71473158D01*
X124275000Y-71186260D01*
X124275000Y-70893740D01*
X124217932Y-70606842D01*
X124105990Y-70336589D01*
X123943475Y-70093368D01*
X123736632Y-69886525D01*
X123562240Y-69770000D01*
X123736632Y-69653475D01*
X123943475Y-69446632D01*
X124105990Y-69203411D01*
X124217932Y-68933158D01*
X124275000Y-68646260D01*
X124275000Y-68353740D01*
X124217932Y-68066842D01*
X124105990Y-67796589D01*
X123943475Y-67553368D01*
X123736632Y-67346525D01*
X123493411Y-67184010D01*
X123223158Y-67072068D01*
X122936260Y-67015000D01*
X122643740Y-67015000D01*
X122356842Y-67072068D01*
X122086589Y-67184010D01*
X121843368Y-67346525D01*
X121711513Y-67478380D01*
X121689502Y-67405820D01*
X121630537Y-67295506D01*
X121551185Y-67198815D01*
X121454494Y-67119463D01*
X121344180Y-67060498D01*
X121224482Y-67024188D01*
X121100000Y-67011928D01*
X119400000Y-67011928D01*
X119275518Y-67024188D01*
X119155820Y-67060498D01*
X119045506Y-67119463D01*
X118948815Y-67198815D01*
X118869463Y-67295506D01*
X118810498Y-67405820D01*
X118774188Y-67525518D01*
X118761928Y-67650000D01*
X118761928Y-69350000D01*
X118774188Y-69474482D01*
X118810498Y-69594180D01*
X118869463Y-69704494D01*
X118948815Y-69801185D01*
X119045506Y-69880537D01*
X119155820Y-69939502D01*
X119228380Y-69961513D01*
X119096525Y-70093368D01*
X118934010Y-70336589D01*
X118822068Y-70606842D01*
X118765000Y-70893740D01*
X118765000Y-71186260D01*
X118822068Y-71473158D01*
X118934010Y-71743411D01*
X119096525Y-71986632D01*
X119303368Y-72193475D01*
X119477760Y-72310000D01*
X119303368Y-72426525D01*
X119096525Y-72633368D01*
X118996611Y-72782900D01*
X118909774Y-72696063D01*
X118740256Y-72582795D01*
X118551898Y-72504774D01*
X118351939Y-72465000D01*
X118148061Y-72465000D01*
X117948102Y-72504774D01*
X117759744Y-72582795D01*
X117590226Y-72696063D01*
X117446063Y-72840226D01*
X117332795Y-73009744D01*
X117254774Y-73198102D01*
X117215000Y-73398061D01*
X111474499Y-73398061D01*
X111417205Y-73259744D01*
X111303937Y-73090226D01*
X111159774Y-72946063D01*
X110990256Y-72832795D01*
X110801898Y-72754774D01*
X110601939Y-72715000D01*
X110398061Y-72715000D01*
X110198102Y-72754774D01*
X110009744Y-72832795D01*
X109840226Y-72946063D01*
X109696063Y-73090226D01*
X109582795Y-73259744D01*
X109504774Y-73448102D01*
X109465000Y-73648061D01*
X108705393Y-73648061D01*
X108745226Y-73551898D01*
X108785000Y-73351939D01*
X108785000Y-73148061D01*
X108745226Y-72948102D01*
X108667205Y-72759744D01*
X108553937Y-72590226D01*
X108409774Y-72446063D01*
X108240256Y-72332795D01*
X108051898Y-72254774D01*
X107851939Y-72215000D01*
X107648061Y-72215000D01*
X107448102Y-72254774D01*
X107259744Y-72332795D01*
X107090226Y-72446063D01*
X106946063Y-72590226D01*
X106832795Y-72759744D01*
X106754774Y-72948102D01*
X106715000Y-73148061D01*
X105842582Y-73148061D01*
X105803937Y-73090226D01*
X105659774Y-72946063D01*
X105490256Y-72832795D01*
X105301898Y-72754774D01*
X105101939Y-72715000D01*
X104898061Y-72715000D01*
X104698102Y-72754774D01*
X104509744Y-72832795D01*
X104340226Y-72946063D01*
X104196063Y-73090226D01*
X104082795Y-73259744D01*
X104004774Y-73448102D01*
X103965000Y-73648061D01*
X101660000Y-73648061D01*
X101660000Y-68657911D01*
X106315000Y-68657911D01*
X106315000Y-68842089D01*
X106350932Y-69022729D01*
X106421414Y-69192889D01*
X106523738Y-69346028D01*
X106653972Y-69476262D01*
X106807111Y-69578586D01*
X106977271Y-69649068D01*
X107157911Y-69685000D01*
X107342089Y-69685000D01*
X107522729Y-69649068D01*
X107692889Y-69578586D01*
X107842198Y-69478821D01*
X107850932Y-69522729D01*
X107921414Y-69692889D01*
X108023738Y-69846028D01*
X108153972Y-69976262D01*
X108307111Y-70078586D01*
X108477271Y-70149068D01*
X108657911Y-70185000D01*
X108842089Y-70185000D01*
X109022729Y-70149068D01*
X109192889Y-70078586D01*
X109346028Y-69976262D01*
X109365000Y-69957290D01*
X109365000Y-70693307D01*
X109350932Y-70727271D01*
X109315000Y-70907911D01*
X109315000Y-71092089D01*
X109350932Y-71272729D01*
X109421414Y-71442889D01*
X109523738Y-71596028D01*
X109653972Y-71726262D01*
X109807111Y-71828586D01*
X109977271Y-71899068D01*
X110157911Y-71935000D01*
X110342089Y-71935000D01*
X110522729Y-71899068D01*
X110692889Y-71828586D01*
X110846028Y-71726262D01*
X110976262Y-71596028D01*
X111078586Y-71442889D01*
X111149068Y-71272729D01*
X111185000Y-71092089D01*
X111185000Y-70907911D01*
X111149068Y-70727271D01*
X111135000Y-70693308D01*
X111135000Y-68996994D01*
X111251057Y-69074541D01*
X111220932Y-69147271D01*
X111185000Y-69327911D01*
X111185000Y-69512089D01*
X111220932Y-69692729D01*
X111291414Y-69862889D01*
X111393738Y-70016028D01*
X111523972Y-70146262D01*
X111677111Y-70248586D01*
X111847271Y-70319068D01*
X112027911Y-70355000D01*
X112212089Y-70355000D01*
X112392729Y-70319068D01*
X112562889Y-70248586D01*
X112716028Y-70146262D01*
X112846262Y-70016028D01*
X112948586Y-69862889D01*
X113019068Y-69692729D01*
X113046558Y-69554531D01*
X113054973Y-69544277D01*
X113125545Y-69412248D01*
X113169002Y-69268987D01*
X113179999Y-69157334D01*
X113179999Y-69157326D01*
X113183675Y-69120001D01*
X113179999Y-69082676D01*
X113179999Y-66660000D01*
X115154465Y-66660000D01*
X115257111Y-66728586D01*
X115427271Y-66799068D01*
X115607911Y-66835000D01*
X115792089Y-66835000D01*
X115972729Y-66799068D01*
X116142889Y-66728586D01*
X116296028Y-66626262D01*
X116426262Y-66496028D01*
X116528586Y-66342889D01*
X116599068Y-66172729D01*
X116635000Y-65992089D01*
X116635000Y-65807911D01*
X116599068Y-65627271D01*
X116528586Y-65457111D01*
X116426262Y-65303972D01*
X116296028Y-65173738D01*
X116142889Y-65071414D01*
X115972729Y-65000932D01*
X115792089Y-64965000D01*
X115607911Y-64965000D01*
X115427271Y-65000932D01*
X115257111Y-65071414D01*
X115154465Y-65140000D01*
X112877320Y-65140000D01*
X112839997Y-65136324D01*
X112802674Y-65140000D01*
X112802665Y-65140000D01*
X112691012Y-65150997D01*
X112547751Y-65194454D01*
X112415722Y-65265026D01*
X112299997Y-65359999D01*
X112276194Y-65389003D01*
X111965669Y-65699528D01*
X111792089Y-65665000D01*
X111607911Y-65665000D01*
X111427271Y-65700932D01*
X111257111Y-65771414D01*
X111103972Y-65873738D01*
X110973738Y-66003972D01*
X110871414Y-66157111D01*
X110800932Y-66327271D01*
X110776847Y-66448351D01*
X110485199Y-66740000D01*
X108037322Y-66740000D01*
X107999999Y-66736324D01*
X107962676Y-66740000D01*
X107962667Y-66740000D01*
X107851014Y-66750997D01*
X107707753Y-66794454D01*
X107575724Y-66865026D01*
X107459999Y-66959999D01*
X107436201Y-66988998D01*
X106738998Y-67686201D01*
X106710000Y-67709999D01*
X106615026Y-67825724D01*
X106544454Y-67957753D01*
X106500997Y-68101014D01*
X106490948Y-68203046D01*
X106421414Y-68307111D01*
X106350932Y-68477271D01*
X106315000Y-68657911D01*
X101660000Y-68657911D01*
X101660000Y-63305926D01*
X119529534Y-63305926D01*
X119529534Y-63694074D01*
X119605258Y-64074764D01*
X119753796Y-64433366D01*
X119969439Y-64756099D01*
X120243901Y-65030561D01*
X120566634Y-65246204D01*
X120925236Y-65394742D01*
X121305926Y-65470466D01*
X121694074Y-65470466D01*
X122074764Y-65394742D01*
X122433366Y-65246204D01*
X122756099Y-65030561D01*
X123030561Y-64756099D01*
X123246204Y-64433366D01*
X123394742Y-64074764D01*
X123470466Y-63694074D01*
X123470466Y-63305926D01*
X123394742Y-62925236D01*
X123246204Y-62566634D01*
X123030561Y-62243901D01*
X122756099Y-61969439D01*
X122433366Y-61753796D01*
X122074764Y-61605258D01*
X121694074Y-61529534D01*
X121305926Y-61529534D01*
X120925236Y-61605258D01*
X120566634Y-61753796D01*
X120243901Y-61969439D01*
X119969439Y-62243901D01*
X119753796Y-62566634D01*
X119605258Y-62925236D01*
X119529534Y-63305926D01*
X101660000Y-63305926D01*
X101660000Y-61032279D01*
X101669580Y-60934576D01*
X101688580Y-60871644D01*
X101719445Y-60813595D01*
X101760989Y-60762657D01*
X101811644Y-60720752D01*
X101869471Y-60689485D01*
X101932272Y-60670044D01*
X102027835Y-60660000D01*
X121467721Y-60660000D01*
X122051010Y-60717192D01*
G37*
%TD.AperFunction*%
%TD*%
M02*
