M48
; DRILL file {KiCad 5.1.8} date Thu Nov 26 00:29:22 2020
; FORMAT={-:-/ absolute / inch / decimal}
; #@! TF.CreationDate,2020-11-26T00:29:22+09:00
; #@! TF.GenerationSoftware,Kicad,Pcbnew,5.1.8
; #@! TF.FileFunction,Plated,1,2,PTH
FMAT,2
INCH
T1C0.0157
T2C0.0394
%
G90
G05
T1
X4.0689Y-3.0571
X4.0689Y-3.1181
X4.1339Y-2.9035
X4.1535Y-3.1299
X4.2224Y-2.7067
X4.2421Y-2.8839
X4.2421Y-2.9528
X4.2421Y-3.126
X4.2815Y-2.7264
X4.3307Y-2.687
X4.3406Y-2.7953
X4.3504Y-2.9035
X4.3976Y-2.622
X4.3976Y-2.687
X4.4142Y-2.7331
X4.5551Y-2.5945
X4.6555Y-2.8937
T2
X4.7343Y-2.6969
X4.7343Y-2.7969
X4.7343Y-2.8969
X4.7343Y-2.9969
X4.7343Y-3.0969
X4.8343Y-2.6969
X4.8343Y-2.7969
X4.8343Y-2.8969
X4.8343Y-2.9969
X4.8343Y-3.0969
T0
M30
