%TF.GenerationSoftware,KiCad,Pcbnew,5.1.8*%
%TF.CreationDate,2021-01-14T21:39:32+09:00*%
%TF.ProjectId,rasp_usb,72617370-5f75-4736-922e-6b696361645f,rev?*%
%TF.SameCoordinates,Original*%
%TF.FileFunction,Legend,Top*%
%TF.FilePolarity,Positive*%
%FSLAX46Y46*%
G04 Gerber Fmt 4.6, Leading zero omitted, Abs format (unit mm)*
G04 Created by KiCad (PCBNEW 5.1.8) date 2021-01-14 21:39:32*
%MOMM*%
%LPD*%
G01*
G04 APERTURE LIST*
%ADD10C,0.200000*%
%ADD11C,0.300000*%
%ADD12C,0.010000*%
%ADD13C,0.120000*%
%ADD14C,0.100000*%
%ADD15C,0.150000*%
G04 APERTURE END LIST*
D10*
X107312619Y-88952380D02*
X107437619Y-87952380D01*
X107818571Y-87952380D01*
X107907857Y-88000000D01*
X107949523Y-88047619D01*
X107985238Y-88142857D01*
X107967380Y-88285714D01*
X107907857Y-88380952D01*
X107854285Y-88428571D01*
X107753095Y-88476190D01*
X107372142Y-88476190D01*
X108342380Y-87952380D02*
X108455476Y-88952380D01*
X108735238Y-88238095D01*
X108836428Y-88952380D01*
X109199523Y-87952380D01*
X110026904Y-88952380D02*
X109753095Y-88476190D01*
X109455476Y-88952380D02*
X109580476Y-87952380D01*
X109961428Y-87952380D01*
X110050714Y-88000000D01*
X110092380Y-88047619D01*
X110128095Y-88142857D01*
X110110238Y-88285714D01*
X110050714Y-88380952D01*
X109997142Y-88428571D01*
X109895952Y-88476190D01*
X109515000Y-88476190D01*
X117729285Y-88952380D02*
X117455476Y-88476190D01*
X117157857Y-88952380D02*
X117282857Y-87952380D01*
X117663809Y-87952380D01*
X117753095Y-88000000D01*
X117794761Y-88047619D01*
X117830476Y-88142857D01*
X117812619Y-88285714D01*
X117753095Y-88380952D01*
X117699523Y-88428571D01*
X117598333Y-88476190D01*
X117217380Y-88476190D01*
X118187619Y-87952380D02*
X118729285Y-88952380D01*
X118854285Y-87952380D02*
X118062619Y-88952380D01*
X121759047Y-87952380D02*
X122330476Y-87952380D01*
X121919761Y-88952380D02*
X122044761Y-87952380D01*
X122568571Y-87952380D02*
X123110238Y-88952380D01*
X123235238Y-87952380D02*
X122443571Y-88952380D01*
D11*
X110600000Y-80664285D02*
X110695238Y-80759523D01*
X110600000Y-80854761D01*
X110504761Y-80759523D01*
X110600000Y-80664285D01*
X110600000Y-80854761D01*
D12*
%TO.C,G\u002A\u002A\u002A*%
G36*
X111903675Y-90137649D02*
G01*
X111870882Y-90196052D01*
X111821833Y-90215067D01*
X111793822Y-90221621D01*
X111772556Y-90239305D01*
X111754414Y-90276839D01*
X111735772Y-90342947D01*
X111713007Y-90446348D01*
X111700494Y-90507167D01*
X111659166Y-90692900D01*
X111618046Y-90835219D01*
X111573037Y-90941329D01*
X111520048Y-91018436D01*
X111454983Y-91073744D01*
X111373749Y-91114456D01*
X111350431Y-91123200D01*
X111221828Y-91152774D01*
X111089039Y-91145581D01*
X111071449Y-91142349D01*
X110996511Y-91107269D01*
X110925529Y-91041827D01*
X110876996Y-90964335D01*
X110869882Y-90942714D01*
X110868659Y-90894763D01*
X110876337Y-90809509D01*
X110890965Y-90699277D01*
X110910596Y-90576390D01*
X110933280Y-90453175D01*
X110957067Y-90341956D01*
X110977113Y-90264650D01*
X110975585Y-90231663D01*
X110936886Y-90220518D01*
X110922049Y-90220200D01*
X110874070Y-90213938D01*
X110864206Y-90186490D01*
X110869190Y-90163049D01*
X110881457Y-90110328D01*
X110884853Y-90086850D01*
X110908531Y-90078508D01*
X110971719Y-90072022D01*
X111063134Y-90068318D01*
X111116762Y-90067800D01*
X111225649Y-90068305D01*
X111292788Y-90071416D01*
X111327231Y-90079526D01*
X111338031Y-90095025D01*
X111334239Y-90120308D01*
X111333009Y-90124950D01*
X111320768Y-90176941D01*
X111317346Y-90199616D01*
X111294677Y-90212863D01*
X111239043Y-90223463D01*
X111223503Y-90225016D01*
X111130006Y-90232900D01*
X111072120Y-90499600D01*
X111039890Y-90655196D01*
X111020864Y-90769617D01*
X111015113Y-90850757D01*
X111022705Y-90906513D01*
X111043709Y-90944781D01*
X111076236Y-90972186D01*
X111151721Y-91001239D01*
X111247686Y-90999740D01*
X111331819Y-90979028D01*
X111397419Y-90937658D01*
X111449391Y-90868549D01*
X111492643Y-90764619D01*
X111532083Y-90618785D01*
X111541872Y-90575180D01*
X111567028Y-90461061D01*
X111589282Y-90362330D01*
X111605781Y-90291532D01*
X111612562Y-90264650D01*
X111612195Y-90234996D01*
X111580763Y-90222293D01*
X111531649Y-90220200D01*
X111470961Y-90216932D01*
X111448815Y-90201225D01*
X111453079Y-90164217D01*
X111453390Y-90163050D01*
X111465657Y-90110328D01*
X111469053Y-90086850D01*
X111492711Y-90078422D01*
X111555751Y-90071904D01*
X111646761Y-90068252D01*
X111695803Y-90067799D01*
X111922206Y-90067799D01*
X111903675Y-90137649D01*
G37*
X111903675Y-90137649D02*
X111870882Y-90196052D01*
X111821833Y-90215067D01*
X111793822Y-90221621D01*
X111772556Y-90239305D01*
X111754414Y-90276839D01*
X111735772Y-90342947D01*
X111713007Y-90446348D01*
X111700494Y-90507167D01*
X111659166Y-90692900D01*
X111618046Y-90835219D01*
X111573037Y-90941329D01*
X111520048Y-91018436D01*
X111454983Y-91073744D01*
X111373749Y-91114456D01*
X111350431Y-91123200D01*
X111221828Y-91152774D01*
X111089039Y-91145581D01*
X111071449Y-91142349D01*
X110996511Y-91107269D01*
X110925529Y-91041827D01*
X110876996Y-90964335D01*
X110869882Y-90942714D01*
X110868659Y-90894763D01*
X110876337Y-90809509D01*
X110890965Y-90699277D01*
X110910596Y-90576390D01*
X110933280Y-90453175D01*
X110957067Y-90341956D01*
X110977113Y-90264650D01*
X110975585Y-90231663D01*
X110936886Y-90220518D01*
X110922049Y-90220200D01*
X110874070Y-90213938D01*
X110864206Y-90186490D01*
X110869190Y-90163049D01*
X110881457Y-90110328D01*
X110884853Y-90086850D01*
X110908531Y-90078508D01*
X110971719Y-90072022D01*
X111063134Y-90068318D01*
X111116762Y-90067800D01*
X111225649Y-90068305D01*
X111292788Y-90071416D01*
X111327231Y-90079526D01*
X111338031Y-90095025D01*
X111334239Y-90120308D01*
X111333009Y-90124950D01*
X111320768Y-90176941D01*
X111317346Y-90199616D01*
X111294677Y-90212863D01*
X111239043Y-90223463D01*
X111223503Y-90225016D01*
X111130006Y-90232900D01*
X111072120Y-90499600D01*
X111039890Y-90655196D01*
X111020864Y-90769617D01*
X111015113Y-90850757D01*
X111022705Y-90906513D01*
X111043709Y-90944781D01*
X111076236Y-90972186D01*
X111151721Y-91001239D01*
X111247686Y-90999740D01*
X111331819Y-90979028D01*
X111397419Y-90937658D01*
X111449391Y-90868549D01*
X111492643Y-90764619D01*
X111532083Y-90618785D01*
X111541872Y-90575180D01*
X111567028Y-90461061D01*
X111589282Y-90362330D01*
X111605781Y-90291532D01*
X111612562Y-90264650D01*
X111612195Y-90234996D01*
X111580763Y-90222293D01*
X111531649Y-90220200D01*
X111470961Y-90216932D01*
X111448815Y-90201225D01*
X111453079Y-90164217D01*
X111453390Y-90163050D01*
X111465657Y-90110328D01*
X111469053Y-90086850D01*
X111492711Y-90078422D01*
X111555751Y-90071904D01*
X111646761Y-90068252D01*
X111695803Y-90067799D01*
X111922206Y-90067799D01*
X111903675Y-90137649D01*
G36*
X112839655Y-90052204D02*
G01*
X112859566Y-90063039D01*
X112873945Y-90086969D01*
X112867707Y-90135055D01*
X112840516Y-90215322D01*
X112812200Y-90298665D01*
X112793949Y-90369318D01*
X112790200Y-90398272D01*
X112775176Y-90437934D01*
X112726700Y-90448800D01*
X112681318Y-90440598D01*
X112664716Y-90405736D01*
X112663200Y-90372600D01*
X112640933Y-90284558D01*
X112580015Y-90222776D01*
X112489270Y-90195434D01*
X112471438Y-90194800D01*
X112369162Y-90210576D01*
X112278432Y-90252309D01*
X112211660Y-90311606D01*
X112181259Y-90380072D01*
X112180600Y-90391475D01*
X112205023Y-90449449D01*
X112278342Y-90494089D01*
X112400628Y-90525437D01*
X112409200Y-90526845D01*
X112535749Y-90553271D01*
X112621713Y-90588837D01*
X112677242Y-90640114D01*
X112712485Y-90713673D01*
X112716226Y-90725616D01*
X112732290Y-90799603D01*
X112724446Y-90860679D01*
X112698227Y-90922233D01*
X112646531Y-90999794D01*
X112580625Y-91065487D01*
X112568623Y-91074129D01*
X112450680Y-91128435D01*
X112318149Y-91151156D01*
X112187995Y-91141665D01*
X112077183Y-91099333D01*
X112066998Y-91092710D01*
X112010083Y-91061944D01*
X111982139Y-91069547D01*
X111977400Y-91095000D01*
X111964868Y-91134187D01*
X111920910Y-91144799D01*
X111882150Y-91140485D01*
X111845437Y-91134199D01*
X111830031Y-91122334D01*
X111834034Y-91091645D01*
X111855547Y-91028890D01*
X111863100Y-91007600D01*
X111886937Y-90926687D01*
X111900216Y-90855697D01*
X111901200Y-90839306D01*
X111910096Y-90796038D01*
X111946797Y-90780282D01*
X111977400Y-90779000D01*
X112031972Y-90785946D01*
X112051889Y-90814985D01*
X112053600Y-90840685D01*
X112076037Y-90914746D01*
X112136857Y-90968642D01*
X112226315Y-90998482D01*
X112334671Y-91000372D01*
X112412696Y-90984153D01*
X112493830Y-90946477D01*
X112546201Y-90882977D01*
X112555881Y-90863986D01*
X112581834Y-90804376D01*
X112583199Y-90770105D01*
X112558199Y-90741119D01*
X112543956Y-90729373D01*
X112486767Y-90700405D01*
X112403220Y-90676840D01*
X112357009Y-90669269D01*
X112225334Y-90640319D01*
X112132924Y-90586811D01*
X112072314Y-90504118D01*
X112065275Y-90488366D01*
X112044615Y-90382761D01*
X112066779Y-90283452D01*
X112123804Y-90195560D01*
X112207728Y-90124208D01*
X112310588Y-90074518D01*
X112424421Y-90051611D01*
X112541266Y-90060611D01*
X112653158Y-90106639D01*
X112655956Y-90108393D01*
X112699901Y-90129932D01*
X112725892Y-90115767D01*
X112739400Y-90093199D01*
X112782926Y-90048194D01*
X112839655Y-90052204D01*
G37*
X112839655Y-90052204D02*
X112859566Y-90063039D01*
X112873945Y-90086969D01*
X112867707Y-90135055D01*
X112840516Y-90215322D01*
X112812200Y-90298665D01*
X112793949Y-90369318D01*
X112790200Y-90398272D01*
X112775176Y-90437934D01*
X112726700Y-90448800D01*
X112681318Y-90440598D01*
X112664716Y-90405736D01*
X112663200Y-90372600D01*
X112640933Y-90284558D01*
X112580015Y-90222776D01*
X112489270Y-90195434D01*
X112471438Y-90194800D01*
X112369162Y-90210576D01*
X112278432Y-90252309D01*
X112211660Y-90311606D01*
X112181259Y-90380072D01*
X112180600Y-90391475D01*
X112205023Y-90449449D01*
X112278342Y-90494089D01*
X112400628Y-90525437D01*
X112409200Y-90526845D01*
X112535749Y-90553271D01*
X112621713Y-90588837D01*
X112677242Y-90640114D01*
X112712485Y-90713673D01*
X112716226Y-90725616D01*
X112732290Y-90799603D01*
X112724446Y-90860679D01*
X112698227Y-90922233D01*
X112646531Y-90999794D01*
X112580625Y-91065487D01*
X112568623Y-91074129D01*
X112450680Y-91128435D01*
X112318149Y-91151156D01*
X112187995Y-91141665D01*
X112077183Y-91099333D01*
X112066998Y-91092710D01*
X112010083Y-91061944D01*
X111982139Y-91069547D01*
X111977400Y-91095000D01*
X111964868Y-91134187D01*
X111920910Y-91144799D01*
X111882150Y-91140485D01*
X111845437Y-91134199D01*
X111830031Y-91122334D01*
X111834034Y-91091645D01*
X111855547Y-91028890D01*
X111863100Y-91007600D01*
X111886937Y-90926687D01*
X111900216Y-90855697D01*
X111901200Y-90839306D01*
X111910096Y-90796038D01*
X111946797Y-90780282D01*
X111977400Y-90779000D01*
X112031972Y-90785946D01*
X112051889Y-90814985D01*
X112053600Y-90840685D01*
X112076037Y-90914746D01*
X112136857Y-90968642D01*
X112226315Y-90998482D01*
X112334671Y-91000372D01*
X112412696Y-90984153D01*
X112493830Y-90946477D01*
X112546201Y-90882977D01*
X112555881Y-90863986D01*
X112581834Y-90804376D01*
X112583199Y-90770105D01*
X112558199Y-90741119D01*
X112543956Y-90729373D01*
X112486767Y-90700405D01*
X112403220Y-90676840D01*
X112357009Y-90669269D01*
X112225334Y-90640319D01*
X112132924Y-90586811D01*
X112072314Y-90504118D01*
X112065275Y-90488366D01*
X112044615Y-90382761D01*
X112066779Y-90283452D01*
X112123804Y-90195560D01*
X112207728Y-90124208D01*
X112310588Y-90074518D01*
X112424421Y-90051611D01*
X112541266Y-90060611D01*
X112653158Y-90106639D01*
X112655956Y-90108393D01*
X112699901Y-90129932D01*
X112725892Y-90115767D01*
X112739400Y-90093199D01*
X112782926Y-90048194D01*
X112839655Y-90052204D01*
G36*
X116116255Y-90052204D02*
G01*
X116136166Y-90063039D01*
X116150545Y-90086969D01*
X116144307Y-90135055D01*
X116117116Y-90215322D01*
X116088800Y-90298665D01*
X116070549Y-90369318D01*
X116066800Y-90398272D01*
X116051776Y-90437934D01*
X116003300Y-90448800D01*
X115957918Y-90440598D01*
X115941316Y-90405736D01*
X115939800Y-90372600D01*
X115917533Y-90284558D01*
X115856615Y-90222776D01*
X115765870Y-90195434D01*
X115748038Y-90194800D01*
X115645762Y-90210576D01*
X115555032Y-90252309D01*
X115488260Y-90311606D01*
X115457859Y-90380072D01*
X115457200Y-90391475D01*
X115481623Y-90449449D01*
X115554942Y-90494089D01*
X115677228Y-90525437D01*
X115685800Y-90526845D01*
X115812349Y-90553271D01*
X115898313Y-90588837D01*
X115953842Y-90640114D01*
X115989085Y-90713673D01*
X115992826Y-90725616D01*
X116008890Y-90799603D01*
X116001046Y-90860679D01*
X115974827Y-90922233D01*
X115923131Y-90999794D01*
X115857225Y-91065487D01*
X115845223Y-91074129D01*
X115727280Y-91128435D01*
X115594749Y-91151156D01*
X115464595Y-91141665D01*
X115353783Y-91099333D01*
X115343598Y-91092710D01*
X115286683Y-91061944D01*
X115258739Y-91069547D01*
X115254000Y-91095000D01*
X115241468Y-91134187D01*
X115197510Y-91144799D01*
X115158750Y-91140485D01*
X115122037Y-91134199D01*
X115106631Y-91122334D01*
X115110634Y-91091645D01*
X115132147Y-91028890D01*
X115139700Y-91007600D01*
X115163537Y-90926687D01*
X115176816Y-90855697D01*
X115177800Y-90839306D01*
X115186696Y-90796038D01*
X115223397Y-90780282D01*
X115254000Y-90779000D01*
X115308572Y-90785946D01*
X115328489Y-90814985D01*
X115330200Y-90840685D01*
X115352637Y-90914746D01*
X115413457Y-90968642D01*
X115502915Y-90998482D01*
X115611271Y-91000372D01*
X115689296Y-90984153D01*
X115770430Y-90946477D01*
X115822801Y-90882977D01*
X115832481Y-90863986D01*
X115858434Y-90804376D01*
X115859799Y-90770105D01*
X115834799Y-90741119D01*
X115820556Y-90729373D01*
X115763367Y-90700405D01*
X115679820Y-90676840D01*
X115633609Y-90669269D01*
X115501934Y-90640319D01*
X115409524Y-90586811D01*
X115348914Y-90504118D01*
X115341875Y-90488366D01*
X115321215Y-90382761D01*
X115343379Y-90283452D01*
X115400404Y-90195560D01*
X115484328Y-90124208D01*
X115587188Y-90074518D01*
X115701021Y-90051611D01*
X115817866Y-90060611D01*
X115929758Y-90106639D01*
X115932556Y-90108393D01*
X115976501Y-90129932D01*
X116002492Y-90115767D01*
X116016000Y-90093199D01*
X116059526Y-90048194D01*
X116116255Y-90052204D01*
G37*
X116116255Y-90052204D02*
X116136166Y-90063039D01*
X116150545Y-90086969D01*
X116144307Y-90135055D01*
X116117116Y-90215322D01*
X116088800Y-90298665D01*
X116070549Y-90369318D01*
X116066800Y-90398272D01*
X116051776Y-90437934D01*
X116003300Y-90448800D01*
X115957918Y-90440598D01*
X115941316Y-90405736D01*
X115939800Y-90372600D01*
X115917533Y-90284558D01*
X115856615Y-90222776D01*
X115765870Y-90195434D01*
X115748038Y-90194800D01*
X115645762Y-90210576D01*
X115555032Y-90252309D01*
X115488260Y-90311606D01*
X115457859Y-90380072D01*
X115457200Y-90391475D01*
X115481623Y-90449449D01*
X115554942Y-90494089D01*
X115677228Y-90525437D01*
X115685800Y-90526845D01*
X115812349Y-90553271D01*
X115898313Y-90588837D01*
X115953842Y-90640114D01*
X115989085Y-90713673D01*
X115992826Y-90725616D01*
X116008890Y-90799603D01*
X116001046Y-90860679D01*
X115974827Y-90922233D01*
X115923131Y-90999794D01*
X115857225Y-91065487D01*
X115845223Y-91074129D01*
X115727280Y-91128435D01*
X115594749Y-91151156D01*
X115464595Y-91141665D01*
X115353783Y-91099333D01*
X115343598Y-91092710D01*
X115286683Y-91061944D01*
X115258739Y-91069547D01*
X115254000Y-91095000D01*
X115241468Y-91134187D01*
X115197510Y-91144799D01*
X115158750Y-91140485D01*
X115122037Y-91134199D01*
X115106631Y-91122334D01*
X115110634Y-91091645D01*
X115132147Y-91028890D01*
X115139700Y-91007600D01*
X115163537Y-90926687D01*
X115176816Y-90855697D01*
X115177800Y-90839306D01*
X115186696Y-90796038D01*
X115223397Y-90780282D01*
X115254000Y-90779000D01*
X115308572Y-90785946D01*
X115328489Y-90814985D01*
X115330200Y-90840685D01*
X115352637Y-90914746D01*
X115413457Y-90968642D01*
X115502915Y-90998482D01*
X115611271Y-91000372D01*
X115689296Y-90984153D01*
X115770430Y-90946477D01*
X115822801Y-90882977D01*
X115832481Y-90863986D01*
X115858434Y-90804376D01*
X115859799Y-90770105D01*
X115834799Y-90741119D01*
X115820556Y-90729373D01*
X115763367Y-90700405D01*
X115679820Y-90676840D01*
X115633609Y-90669269D01*
X115501934Y-90640319D01*
X115409524Y-90586811D01*
X115348914Y-90504118D01*
X115341875Y-90488366D01*
X115321215Y-90382761D01*
X115343379Y-90283452D01*
X115400404Y-90195560D01*
X115484328Y-90124208D01*
X115587188Y-90074518D01*
X115701021Y-90051611D01*
X115817866Y-90060611D01*
X115929758Y-90106639D01*
X115932556Y-90108393D01*
X115976501Y-90129932D01*
X116002492Y-90115767D01*
X116016000Y-90093199D01*
X116059526Y-90048194D01*
X116116255Y-90052204D01*
G36*
X116984259Y-90311738D02*
G01*
X117084669Y-90373013D01*
X117152726Y-90463811D01*
X117183074Y-90579202D01*
X117170363Y-90714254D01*
X117168390Y-90721850D01*
X117160488Y-90744285D01*
X117145446Y-90759917D01*
X117115158Y-90769974D01*
X117061520Y-90775683D01*
X116976425Y-90778274D01*
X116851769Y-90778974D01*
X116791259Y-90779000D01*
X116429444Y-90779000D01*
X116441692Y-90843071D01*
X116479761Y-90919069D01*
X116552454Y-90977296D01*
X116643987Y-91006271D01*
X116667926Y-91007600D01*
X116739230Y-90999328D01*
X116834042Y-90977942D01*
X116907088Y-90956096D01*
X117001637Y-90926841D01*
X117060036Y-90918237D01*
X117093093Y-90931563D01*
X117111620Y-90968099D01*
X117115172Y-90980719D01*
X117113980Y-91016388D01*
X117081395Y-91044458D01*
X117022988Y-91068992D01*
X116879990Y-91117340D01*
X116768665Y-91144991D01*
X116675074Y-91153615D01*
X116585279Y-91144880D01*
X116517818Y-91129491D01*
X116410482Y-91079715D01*
X116337662Y-91001968D01*
X116297618Y-90903862D01*
X116288612Y-90793011D01*
X116308905Y-90677029D01*
X116339010Y-90605627D01*
X116498600Y-90605627D01*
X116522247Y-90614236D01*
X116586195Y-90621133D01*
X116679951Y-90625492D01*
X116765300Y-90626600D01*
X116886544Y-90625503D01*
X116965387Y-90621391D01*
X117010199Y-90613033D01*
X117029346Y-90599197D01*
X117032000Y-90587345D01*
X117015130Y-90543693D01*
X116974076Y-90490265D01*
X116969654Y-90485745D01*
X116888319Y-90437207D01*
X116786942Y-90422604D01*
X116685148Y-90444134D01*
X116668380Y-90451974D01*
X116607876Y-90490551D01*
X116549749Y-90538858D01*
X116508916Y-90583395D01*
X116498600Y-90605627D01*
X116339010Y-90605627D01*
X116356760Y-90563530D01*
X116430437Y-90460128D01*
X116528199Y-90374435D01*
X116648306Y-90314067D01*
X116707786Y-90297488D01*
X116856847Y-90284920D01*
X116984259Y-90311738D01*
G37*
X116984259Y-90311738D02*
X117084669Y-90373013D01*
X117152726Y-90463811D01*
X117183074Y-90579202D01*
X117170363Y-90714254D01*
X117168390Y-90721850D01*
X117160488Y-90744285D01*
X117145446Y-90759917D01*
X117115158Y-90769974D01*
X117061520Y-90775683D01*
X116976425Y-90778274D01*
X116851769Y-90778974D01*
X116791259Y-90779000D01*
X116429444Y-90779000D01*
X116441692Y-90843071D01*
X116479761Y-90919069D01*
X116552454Y-90977296D01*
X116643987Y-91006271D01*
X116667926Y-91007600D01*
X116739230Y-90999328D01*
X116834042Y-90977942D01*
X116907088Y-90956096D01*
X117001637Y-90926841D01*
X117060036Y-90918237D01*
X117093093Y-90931563D01*
X117111620Y-90968099D01*
X117115172Y-90980719D01*
X117113980Y-91016388D01*
X117081395Y-91044458D01*
X117022988Y-91068992D01*
X116879990Y-91117340D01*
X116768665Y-91144991D01*
X116675074Y-91153615D01*
X116585279Y-91144880D01*
X116517818Y-91129491D01*
X116410482Y-91079715D01*
X116337662Y-91001968D01*
X116297618Y-90903862D01*
X116288612Y-90793011D01*
X116308905Y-90677029D01*
X116339010Y-90605627D01*
X116498600Y-90605627D01*
X116522247Y-90614236D01*
X116586195Y-90621133D01*
X116679951Y-90625492D01*
X116765300Y-90626600D01*
X116886544Y-90625503D01*
X116965387Y-90621391D01*
X117010199Y-90613033D01*
X117029346Y-90599197D01*
X117032000Y-90587345D01*
X117015130Y-90543693D01*
X116974076Y-90490265D01*
X116969654Y-90485745D01*
X116888319Y-90437207D01*
X116786942Y-90422604D01*
X116685148Y-90444134D01*
X116668380Y-90451974D01*
X116607876Y-90490551D01*
X116549749Y-90538858D01*
X116508916Y-90583395D01*
X116498600Y-90605627D01*
X116339010Y-90605627D01*
X116356760Y-90563530D01*
X116430437Y-90460128D01*
X116528199Y-90374435D01*
X116648306Y-90314067D01*
X116707786Y-90297488D01*
X116856847Y-90284920D01*
X116984259Y-90311738D01*
G36*
X120208896Y-90304886D02*
G01*
X120293853Y-90356298D01*
X120329023Y-90405038D01*
X120343356Y-90459338D01*
X120343501Y-90538124D01*
X120328704Y-90647773D01*
X120298214Y-90794665D01*
X120268673Y-90916935D01*
X120262532Y-90962236D01*
X120284369Y-90979625D01*
X120331246Y-90982200D01*
X120387247Y-90986016D01*
X120406810Y-91006777D01*
X120399166Y-91058452D01*
X120394190Y-91077450D01*
X120380048Y-91109742D01*
X120350964Y-91126952D01*
X120293697Y-91133675D01*
X120229437Y-91134600D01*
X120142287Y-91131662D01*
X120095849Y-91121150D01*
X120080283Y-91100511D01*
X120080000Y-91095847D01*
X120074353Y-91071823D01*
X120048404Y-91074852D01*
X120009815Y-91093389D01*
X119926876Y-91123753D01*
X119827505Y-91143023D01*
X119732583Y-91148591D01*
X119662989Y-91137846D01*
X119660900Y-91136985D01*
X119574635Y-91075422D01*
X119524319Y-90987844D01*
X119516267Y-90913954D01*
X119651848Y-90913954D01*
X119673562Y-90952353D01*
X119688114Y-90967685D01*
X119749840Y-91001447D01*
X119836514Y-91000542D01*
X119953395Y-90964702D01*
X119982214Y-90952737D01*
X120087159Y-90890486D01*
X120144158Y-90814045D01*
X120156200Y-90749170D01*
X120131761Y-90735527D01*
X120061067Y-90730092D01*
X119962957Y-90732405D01*
X119861344Y-90739341D01*
X119796010Y-90750629D01*
X119752432Y-90770865D01*
X119716090Y-90804646D01*
X119708957Y-90812798D01*
X119662930Y-90872754D01*
X119651848Y-90913954D01*
X119516267Y-90913954D01*
X119513355Y-90887237D01*
X119545141Y-90786589D01*
X119562209Y-90760111D01*
X119657445Y-90670631D01*
X119788870Y-90614297D01*
X119958034Y-90590501D01*
X119997741Y-90589586D01*
X120095263Y-90587256D01*
X120153527Y-90579780D01*
X120184022Y-90564286D01*
X120197704Y-90539635D01*
X120195511Y-90483492D01*
X120152352Y-90445777D01*
X120075157Y-90427996D01*
X119970859Y-90431652D01*
X119846387Y-90458249D01*
X119836386Y-90461225D01*
X119765234Y-90482676D01*
X119718502Y-90496512D01*
X119708311Y-90499325D01*
X119701686Y-90477997D01*
X119692432Y-90434265D01*
X119692729Y-90391781D01*
X119717132Y-90359391D01*
X119772904Y-90333151D01*
X119867305Y-90309120D01*
X119953000Y-90292784D01*
X120092742Y-90282957D01*
X120208896Y-90304886D01*
G37*
X120208896Y-90304886D02*
X120293853Y-90356298D01*
X120329023Y-90405038D01*
X120343356Y-90459338D01*
X120343501Y-90538124D01*
X120328704Y-90647773D01*
X120298214Y-90794665D01*
X120268673Y-90916935D01*
X120262532Y-90962236D01*
X120284369Y-90979625D01*
X120331246Y-90982200D01*
X120387247Y-90986016D01*
X120406810Y-91006777D01*
X120399166Y-91058452D01*
X120394190Y-91077450D01*
X120380048Y-91109742D01*
X120350964Y-91126952D01*
X120293697Y-91133675D01*
X120229437Y-91134600D01*
X120142287Y-91131662D01*
X120095849Y-91121150D01*
X120080283Y-91100511D01*
X120080000Y-91095847D01*
X120074353Y-91071823D01*
X120048404Y-91074852D01*
X120009815Y-91093389D01*
X119926876Y-91123753D01*
X119827505Y-91143023D01*
X119732583Y-91148591D01*
X119662989Y-91137846D01*
X119660900Y-91136985D01*
X119574635Y-91075422D01*
X119524319Y-90987844D01*
X119516267Y-90913954D01*
X119651848Y-90913954D01*
X119673562Y-90952353D01*
X119688114Y-90967685D01*
X119749840Y-91001447D01*
X119836514Y-91000542D01*
X119953395Y-90964702D01*
X119982214Y-90952737D01*
X120087159Y-90890486D01*
X120144158Y-90814045D01*
X120156200Y-90749170D01*
X120131761Y-90735527D01*
X120061067Y-90730092D01*
X119962957Y-90732405D01*
X119861344Y-90739341D01*
X119796010Y-90750629D01*
X119752432Y-90770865D01*
X119716090Y-90804646D01*
X119708957Y-90812798D01*
X119662930Y-90872754D01*
X119651848Y-90913954D01*
X119516267Y-90913954D01*
X119513355Y-90887237D01*
X119545141Y-90786589D01*
X119562209Y-90760111D01*
X119657445Y-90670631D01*
X119788870Y-90614297D01*
X119958034Y-90590501D01*
X119997741Y-90589586D01*
X120095263Y-90587256D01*
X120153527Y-90579780D01*
X120184022Y-90564286D01*
X120197704Y-90539635D01*
X120195511Y-90483492D01*
X120152352Y-90445777D01*
X120075157Y-90427996D01*
X119970859Y-90431652D01*
X119846387Y-90458249D01*
X119836386Y-90461225D01*
X119765234Y-90482676D01*
X119718502Y-90496512D01*
X119708311Y-90499325D01*
X119701686Y-90477997D01*
X119692432Y-90434265D01*
X119692729Y-90391781D01*
X119717132Y-90359391D01*
X119772904Y-90333151D01*
X119867305Y-90309120D01*
X119953000Y-90292784D01*
X120092742Y-90282957D01*
X120208896Y-90304886D01*
G36*
X109052932Y-90068405D02*
G01*
X109244865Y-90075181D01*
X109391715Y-90095887D01*
X109497821Y-90132695D01*
X109567523Y-90187776D01*
X109605158Y-90263303D01*
X109615200Y-90349877D01*
X109593424Y-90485949D01*
X109529303Y-90595590D01*
X109424645Y-90677494D01*
X109281258Y-90730351D01*
X109100951Y-90752852D01*
X109057212Y-90753600D01*
X108999142Y-90756816D01*
X108967476Y-90775405D01*
X108948133Y-90822775D01*
X108937203Y-90867900D01*
X108911047Y-90982200D01*
X109036210Y-90982200D01*
X109110465Y-90983855D01*
X109146236Y-90993716D01*
X109155830Y-91019122D01*
X109153337Y-91052050D01*
X109145300Y-91121900D01*
X108872250Y-91129109D01*
X108748763Y-91131260D01*
X108667902Y-91129340D01*
X108621591Y-91122472D01*
X108601755Y-91109778D01*
X108599199Y-91099436D01*
X108615351Y-91023653D01*
X108664224Y-90986514D01*
X108699372Y-90982200D01*
X108727058Y-90980686D01*
X108748045Y-90971031D01*
X108765423Y-90945558D01*
X108782283Y-90896595D01*
X108801716Y-90816468D01*
X108826811Y-90697501D01*
X108840020Y-90632950D01*
X108856065Y-90555426D01*
X109009455Y-90555426D01*
X109022141Y-90589743D01*
X109059853Y-90601341D01*
X109128536Y-90599412D01*
X109174122Y-90596387D01*
X109270296Y-90587459D01*
X109332001Y-90571976D01*
X109375560Y-90544184D01*
X109402722Y-90515811D01*
X109447153Y-90440081D01*
X109463459Y-90358987D01*
X109450994Y-90288414D01*
X109413669Y-90246493D01*
X109361924Y-90232052D01*
X109280242Y-90222502D01*
X109214860Y-90220200D01*
X109065180Y-90220200D01*
X109035390Y-90381878D01*
X109015853Y-90489201D01*
X109009455Y-90555426D01*
X108856065Y-90555426D01*
X108866677Y-90504160D01*
X108890554Y-90392059D01*
X108909470Y-90306662D01*
X108921239Y-90257983D01*
X108923082Y-90251950D01*
X108911424Y-90227522D01*
X108860316Y-90220200D01*
X108808841Y-90215086D01*
X108793060Y-90189087D01*
X108796981Y-90144000D01*
X108808165Y-90067800D01*
X109052932Y-90068405D01*
G37*
X109052932Y-90068405D02*
X109244865Y-90075181D01*
X109391715Y-90095887D01*
X109497821Y-90132695D01*
X109567523Y-90187776D01*
X109605158Y-90263303D01*
X109615200Y-90349877D01*
X109593424Y-90485949D01*
X109529303Y-90595590D01*
X109424645Y-90677494D01*
X109281258Y-90730351D01*
X109100951Y-90752852D01*
X109057212Y-90753600D01*
X108999142Y-90756816D01*
X108967476Y-90775405D01*
X108948133Y-90822775D01*
X108937203Y-90867900D01*
X108911047Y-90982200D01*
X109036210Y-90982200D01*
X109110465Y-90983855D01*
X109146236Y-90993716D01*
X109155830Y-91019122D01*
X109153337Y-91052050D01*
X109145300Y-91121900D01*
X108872250Y-91129109D01*
X108748763Y-91131260D01*
X108667902Y-91129340D01*
X108621591Y-91122472D01*
X108601755Y-91109778D01*
X108599199Y-91099436D01*
X108615351Y-91023653D01*
X108664224Y-90986514D01*
X108699372Y-90982200D01*
X108727058Y-90980686D01*
X108748045Y-90971031D01*
X108765423Y-90945558D01*
X108782283Y-90896595D01*
X108801716Y-90816468D01*
X108826811Y-90697501D01*
X108840020Y-90632950D01*
X108856065Y-90555426D01*
X109009455Y-90555426D01*
X109022141Y-90589743D01*
X109059853Y-90601341D01*
X109128536Y-90599412D01*
X109174122Y-90596387D01*
X109270296Y-90587459D01*
X109332001Y-90571976D01*
X109375560Y-90544184D01*
X109402722Y-90515811D01*
X109447153Y-90440081D01*
X109463459Y-90358987D01*
X109450994Y-90288414D01*
X109413669Y-90246493D01*
X109361924Y-90232052D01*
X109280242Y-90222502D01*
X109214860Y-90220200D01*
X109065180Y-90220200D01*
X109035390Y-90381878D01*
X109015853Y-90489201D01*
X109009455Y-90555426D01*
X108856065Y-90555426D01*
X108866677Y-90504160D01*
X108890554Y-90392059D01*
X108909470Y-90306662D01*
X108921239Y-90257983D01*
X108923082Y-90251950D01*
X108911424Y-90227522D01*
X108860316Y-90220200D01*
X108808841Y-90215086D01*
X108793060Y-90189087D01*
X108796981Y-90144000D01*
X108808165Y-90067800D01*
X109052932Y-90068405D01*
G36*
X110225999Y-90299439D02*
G01*
X110296497Y-90307822D01*
X110326022Y-90320447D01*
X110326400Y-90322231D01*
X110321288Y-90355999D01*
X110307386Y-90428560D01*
X110286844Y-90529099D01*
X110262900Y-90641763D01*
X110238028Y-90758676D01*
X110217727Y-90857682D01*
X110204139Y-90928078D01*
X110199400Y-90958832D01*
X110222438Y-90971314D01*
X110282171Y-90979792D01*
X110347400Y-90982200D01*
X110495401Y-90982200D01*
X110484218Y-91058400D01*
X110473034Y-91134600D01*
X109713425Y-91134600D01*
X109721462Y-91064750D01*
X109729036Y-91026283D01*
X109748801Y-91004540D01*
X109793158Y-90993705D01*
X109874506Y-90987965D01*
X109886479Y-90987383D01*
X110043458Y-90979867D01*
X110081583Y-90809583D01*
X110104266Y-90705535D01*
X110124856Y-90606471D01*
X110136980Y-90544050D01*
X110154253Y-90448800D01*
X110021709Y-90448800D01*
X109944406Y-90446363D01*
X109907827Y-90436779D01*
X109902032Y-90416640D01*
X109904582Y-90408622D01*
X109918550Y-90351404D01*
X109920000Y-90332422D01*
X109931357Y-90313701D01*
X109971015Y-90302477D01*
X110047356Y-90297267D01*
X110123200Y-90296400D01*
X110225999Y-90299439D01*
G37*
X110225999Y-90299439D02*
X110296497Y-90307822D01*
X110326022Y-90320447D01*
X110326400Y-90322231D01*
X110321288Y-90355999D01*
X110307386Y-90428560D01*
X110286844Y-90529099D01*
X110262900Y-90641763D01*
X110238028Y-90758676D01*
X110217727Y-90857682D01*
X110204139Y-90928078D01*
X110199400Y-90958832D01*
X110222438Y-90971314D01*
X110282171Y-90979792D01*
X110347400Y-90982200D01*
X110495401Y-90982200D01*
X110484218Y-91058400D01*
X110473034Y-91134600D01*
X109713425Y-91134600D01*
X109721462Y-91064750D01*
X109729036Y-91026283D01*
X109748801Y-91004540D01*
X109793158Y-90993705D01*
X109874506Y-90987965D01*
X109886479Y-90987383D01*
X110043458Y-90979867D01*
X110081583Y-90809583D01*
X110104266Y-90705535D01*
X110124856Y-90606471D01*
X110136980Y-90544050D01*
X110154253Y-90448800D01*
X110021709Y-90448800D01*
X109944406Y-90446363D01*
X109907827Y-90436779D01*
X109902032Y-90416640D01*
X109904582Y-90408622D01*
X109918550Y-90351404D01*
X109920000Y-90332422D01*
X109931357Y-90313701D01*
X109971015Y-90302477D01*
X110047356Y-90297267D01*
X110123200Y-90296400D01*
X110225999Y-90299439D01*
G36*
X113400354Y-90071028D02*
G01*
X113423369Y-90071599D01*
X113562814Y-90076324D01*
X113661556Y-90082703D01*
X113729693Y-90092306D01*
X113777322Y-90106705D01*
X113814540Y-90127471D01*
X113823419Y-90133855D01*
X113882937Y-90207138D01*
X113907369Y-90302067D01*
X113895593Y-90402512D01*
X113848208Y-90490323D01*
X113809121Y-90540154D01*
X113800891Y-90572238D01*
X113821335Y-90607417D01*
X113834256Y-90623573D01*
X113875565Y-90711609D01*
X113876869Y-90812887D01*
X113842130Y-90915197D01*
X113775309Y-91006332D01*
X113689572Y-91069465D01*
X113640459Y-91091084D01*
X113582786Y-91106589D01*
X113506393Y-91117334D01*
X113401124Y-91124670D01*
X113256819Y-91129950D01*
X113229801Y-91130684D01*
X112869302Y-91140174D01*
X112888717Y-91067537D01*
X112920475Y-91007925D01*
X112981889Y-90982200D01*
X113195632Y-90982200D01*
X113400470Y-90982200D01*
X113505720Y-90980605D01*
X113574173Y-90973651D01*
X113619791Y-90958079D01*
X113656533Y-90930633D01*
X113667654Y-90919854D01*
X113710895Y-90858832D01*
X113729955Y-90796741D01*
X113730000Y-90794294D01*
X113710745Y-90726643D01*
X113651281Y-90681341D01*
X113549061Y-90657113D01*
X113445927Y-90652000D01*
X113274758Y-90652000D01*
X113250926Y-90747250D01*
X113230415Y-90831113D01*
X113212546Y-90907122D01*
X113211363Y-90912350D01*
X113195632Y-90982200D01*
X112981889Y-90982200D01*
X112982467Y-90981958D01*
X113011476Y-90975492D01*
X113033611Y-90962595D01*
X113051949Y-90935541D01*
X113069568Y-90886600D01*
X113089547Y-90808046D01*
X113114962Y-90692150D01*
X113134210Y-90600958D01*
X113159802Y-90479268D01*
X113306564Y-90479268D01*
X113327347Y-90492728D01*
X113380249Y-90498506D01*
X113458162Y-90499600D01*
X113562686Y-90495034D01*
X113633841Y-90478774D01*
X113688451Y-90446974D01*
X113688474Y-90446956D01*
X113734911Y-90390715D01*
X113755507Y-90325378D01*
X113748152Y-90267615D01*
X113715222Y-90235617D01*
X113669527Y-90227458D01*
X113591496Y-90221869D01*
X113514849Y-90220200D01*
X113354653Y-90220200D01*
X113337772Y-90315450D01*
X113323113Y-90390620D01*
X113309365Y-90449708D01*
X113307834Y-90455150D01*
X113306564Y-90479268D01*
X113159802Y-90479268D01*
X113211616Y-90232900D01*
X113138115Y-90224754D01*
X113087076Y-90212748D01*
X113074879Y-90184663D01*
X113079460Y-90161254D01*
X113091542Y-90107930D01*
X113094653Y-90084299D01*
X113118591Y-90076890D01*
X113183827Y-90071965D01*
X113280900Y-90069889D01*
X113400354Y-90071028D01*
G37*
X113400354Y-90071028D02*
X113423369Y-90071599D01*
X113562814Y-90076324D01*
X113661556Y-90082703D01*
X113729693Y-90092306D01*
X113777322Y-90106705D01*
X113814540Y-90127471D01*
X113823419Y-90133855D01*
X113882937Y-90207138D01*
X113907369Y-90302067D01*
X113895593Y-90402512D01*
X113848208Y-90490323D01*
X113809121Y-90540154D01*
X113800891Y-90572238D01*
X113821335Y-90607417D01*
X113834256Y-90623573D01*
X113875565Y-90711609D01*
X113876869Y-90812887D01*
X113842130Y-90915197D01*
X113775309Y-91006332D01*
X113689572Y-91069465D01*
X113640459Y-91091084D01*
X113582786Y-91106589D01*
X113506393Y-91117334D01*
X113401124Y-91124670D01*
X113256819Y-91129950D01*
X113229801Y-91130684D01*
X112869302Y-91140174D01*
X112888717Y-91067537D01*
X112920475Y-91007925D01*
X112981889Y-90982200D01*
X113195632Y-90982200D01*
X113400470Y-90982200D01*
X113505720Y-90980605D01*
X113574173Y-90973651D01*
X113619791Y-90958079D01*
X113656533Y-90930633D01*
X113667654Y-90919854D01*
X113710895Y-90858832D01*
X113729955Y-90796741D01*
X113730000Y-90794294D01*
X113710745Y-90726643D01*
X113651281Y-90681341D01*
X113549061Y-90657113D01*
X113445927Y-90652000D01*
X113274758Y-90652000D01*
X113250926Y-90747250D01*
X113230415Y-90831113D01*
X113212546Y-90907122D01*
X113211363Y-90912350D01*
X113195632Y-90982200D01*
X112981889Y-90982200D01*
X112982467Y-90981958D01*
X113011476Y-90975492D01*
X113033611Y-90962595D01*
X113051949Y-90935541D01*
X113069568Y-90886600D01*
X113089547Y-90808046D01*
X113114962Y-90692150D01*
X113134210Y-90600958D01*
X113159802Y-90479268D01*
X113306564Y-90479268D01*
X113327347Y-90492728D01*
X113380249Y-90498506D01*
X113458162Y-90499600D01*
X113562686Y-90495034D01*
X113633841Y-90478774D01*
X113688451Y-90446974D01*
X113688474Y-90446956D01*
X113734911Y-90390715D01*
X113755507Y-90325378D01*
X113748152Y-90267615D01*
X113715222Y-90235617D01*
X113669527Y-90227458D01*
X113591496Y-90221869D01*
X113514849Y-90220200D01*
X113354653Y-90220200D01*
X113337772Y-90315450D01*
X113323113Y-90390620D01*
X113309365Y-90449708D01*
X113307834Y-90455150D01*
X113306564Y-90479268D01*
X113159802Y-90479268D01*
X113211616Y-90232900D01*
X113138115Y-90224754D01*
X113087076Y-90212748D01*
X113074879Y-90184663D01*
X113079460Y-90161254D01*
X113091542Y-90107930D01*
X113094653Y-90084299D01*
X113118591Y-90076890D01*
X113183827Y-90071965D01*
X113280900Y-90069889D01*
X113400354Y-90071028D01*
G36*
X118135750Y-90282803D02*
G01*
X118175840Y-90293650D01*
X118259308Y-90338075D01*
X118322669Y-90407438D01*
X118352147Y-90485807D01*
X118352800Y-90498338D01*
X118333131Y-90521721D01*
X118286654Y-90525353D01*
X118232159Y-90511874D01*
X118188438Y-90483923D01*
X118180894Y-90474200D01*
X118128786Y-90428871D01*
X118058162Y-90430422D01*
X117968773Y-90478909D01*
X117894569Y-90541121D01*
X117832177Y-90602893D01*
X117789105Y-90658547D01*
X117757987Y-90722677D01*
X117731456Y-90809877D01*
X117707163Y-90912350D01*
X117691432Y-90982200D01*
X117857016Y-90982200D01*
X117953138Y-90985321D01*
X118006210Y-90998453D01*
X118023794Y-91027247D01*
X118013454Y-91077356D01*
X118007182Y-91094422D01*
X117993905Y-91110770D01*
X117963564Y-91122098D01*
X117908354Y-91129262D01*
X117820473Y-91133120D01*
X117692116Y-91134527D01*
X117641079Y-91134600D01*
X117290393Y-91134600D01*
X117308948Y-91064750D01*
X117327078Y-91020465D01*
X117361206Y-90998142D01*
X117427483Y-90988351D01*
X117441496Y-90987360D01*
X117555490Y-90979821D01*
X117607096Y-90714310D01*
X117658702Y-90448800D01*
X117561251Y-90448800D01*
X117491056Y-90440528D01*
X117463930Y-90410433D01*
X117474081Y-90350590D01*
X117479217Y-90336577D01*
X117500085Y-90313990D01*
X117547812Y-90301410D01*
X117632687Y-90296637D01*
X117667339Y-90296400D01*
X117758448Y-90297691D01*
X117808896Y-90303588D01*
X117828796Y-90317123D01*
X117828265Y-90341330D01*
X117827485Y-90344422D01*
X117824417Y-90369418D01*
X117839580Y-90374463D01*
X117882436Y-90358236D01*
X117945151Y-90327998D01*
X118024658Y-90291687D01*
X118081188Y-90277665D01*
X118135750Y-90282803D01*
G37*
X118135750Y-90282803D02*
X118175840Y-90293650D01*
X118259308Y-90338075D01*
X118322669Y-90407438D01*
X118352147Y-90485807D01*
X118352800Y-90498338D01*
X118333131Y-90521721D01*
X118286654Y-90525353D01*
X118232159Y-90511874D01*
X118188438Y-90483923D01*
X118180894Y-90474200D01*
X118128786Y-90428871D01*
X118058162Y-90430422D01*
X117968773Y-90478909D01*
X117894569Y-90541121D01*
X117832177Y-90602893D01*
X117789105Y-90658547D01*
X117757987Y-90722677D01*
X117731456Y-90809877D01*
X117707163Y-90912350D01*
X117691432Y-90982200D01*
X117857016Y-90982200D01*
X117953138Y-90985321D01*
X118006210Y-90998453D01*
X118023794Y-91027247D01*
X118013454Y-91077356D01*
X118007182Y-91094422D01*
X117993905Y-91110770D01*
X117963564Y-91122098D01*
X117908354Y-91129262D01*
X117820473Y-91133120D01*
X117692116Y-91134527D01*
X117641079Y-91134600D01*
X117290393Y-91134600D01*
X117308948Y-91064750D01*
X117327078Y-91020465D01*
X117361206Y-90998142D01*
X117427483Y-90988351D01*
X117441496Y-90987360D01*
X117555490Y-90979821D01*
X117607096Y-90714310D01*
X117658702Y-90448800D01*
X117561251Y-90448800D01*
X117491056Y-90440528D01*
X117463930Y-90410433D01*
X117474081Y-90350590D01*
X117479217Y-90336577D01*
X117500085Y-90313990D01*
X117547812Y-90301410D01*
X117632687Y-90296637D01*
X117667339Y-90296400D01*
X117758448Y-90297691D01*
X117808896Y-90303588D01*
X117828796Y-90317123D01*
X117828265Y-90341330D01*
X117827485Y-90344422D01*
X117824417Y-90369418D01*
X117839580Y-90374463D01*
X117882436Y-90358236D01*
X117945151Y-90327998D01*
X118024658Y-90291687D01*
X118081188Y-90277665D01*
X118135750Y-90282803D01*
G36*
X118963599Y-90299439D02*
G01*
X119034097Y-90307822D01*
X119063622Y-90320447D01*
X119064000Y-90322231D01*
X119058888Y-90355999D01*
X119044986Y-90428560D01*
X119024444Y-90529099D01*
X119000500Y-90641763D01*
X118975628Y-90758676D01*
X118955327Y-90857682D01*
X118941739Y-90928078D01*
X118937000Y-90958832D01*
X118960038Y-90971314D01*
X119019771Y-90979792D01*
X119085000Y-90982200D01*
X119233001Y-90982200D01*
X119221818Y-91058400D01*
X119210634Y-91134600D01*
X118451025Y-91134600D01*
X118459062Y-91064750D01*
X118466636Y-91026283D01*
X118486401Y-91004540D01*
X118530758Y-90993705D01*
X118612106Y-90987965D01*
X118624079Y-90987383D01*
X118781058Y-90979867D01*
X118819183Y-90809583D01*
X118841866Y-90705535D01*
X118862456Y-90606471D01*
X118874580Y-90544050D01*
X118891853Y-90448800D01*
X118759309Y-90448800D01*
X118682006Y-90446363D01*
X118645427Y-90436779D01*
X118639632Y-90416640D01*
X118642182Y-90408622D01*
X118656150Y-90351404D01*
X118657600Y-90332422D01*
X118668957Y-90313701D01*
X118708615Y-90302477D01*
X118784956Y-90297267D01*
X118860800Y-90296400D01*
X118963599Y-90299439D01*
G37*
X118963599Y-90299439D02*
X119034097Y-90307822D01*
X119063622Y-90320447D01*
X119064000Y-90322231D01*
X119058888Y-90355999D01*
X119044986Y-90428560D01*
X119024444Y-90529099D01*
X119000500Y-90641763D01*
X118975628Y-90758676D01*
X118955327Y-90857682D01*
X118941739Y-90928078D01*
X118937000Y-90958832D01*
X118960038Y-90971314D01*
X119019771Y-90979792D01*
X119085000Y-90982200D01*
X119233001Y-90982200D01*
X119221818Y-91058400D01*
X119210634Y-91134600D01*
X118451025Y-91134600D01*
X118459062Y-91064750D01*
X118466636Y-91026283D01*
X118486401Y-91004540D01*
X118530758Y-90993705D01*
X118612106Y-90987965D01*
X118624079Y-90987383D01*
X118781058Y-90979867D01*
X118819183Y-90809583D01*
X118841866Y-90705535D01*
X118862456Y-90606471D01*
X118874580Y-90544050D01*
X118891853Y-90448800D01*
X118759309Y-90448800D01*
X118682006Y-90446363D01*
X118645427Y-90436779D01*
X118639632Y-90416640D01*
X118642182Y-90408622D01*
X118656150Y-90351404D01*
X118657600Y-90332422D01*
X118668957Y-90313701D01*
X118708615Y-90302477D01*
X118784956Y-90297267D01*
X118860800Y-90296400D01*
X118963599Y-90299439D01*
G36*
X121258279Y-90012701D02*
G01*
X121289812Y-90022571D01*
X121298480Y-90040887D01*
X121298476Y-90042211D01*
X121293075Y-90078528D01*
X121278534Y-90155689D01*
X121256607Y-90264920D01*
X121229052Y-90397449D01*
X121201840Y-90525000D01*
X121105926Y-90969500D01*
X121253363Y-90977062D01*
X121343119Y-90985629D01*
X121389757Y-91004147D01*
X121400857Y-91039355D01*
X121385382Y-91094422D01*
X121372542Y-91110310D01*
X121343185Y-91121472D01*
X121289744Y-91128690D01*
X121204655Y-91132743D01*
X121080352Y-91134414D01*
X120996081Y-91134600D01*
X120622198Y-91134600D01*
X120633381Y-91058400D01*
X120641770Y-91016746D01*
X120659795Y-90993959D01*
X120700071Y-90984350D01*
X120775214Y-90982227D01*
X120802328Y-90982200D01*
X120960091Y-90982200D01*
X121040745Y-90606414D01*
X121069027Y-90471866D01*
X121092975Y-90352635D01*
X121110686Y-90258621D01*
X121120256Y-90199726D01*
X121121400Y-90187092D01*
X121115061Y-90162839D01*
X121088267Y-90152838D01*
X121029350Y-90154860D01*
X120980296Y-90160140D01*
X120839193Y-90176724D01*
X120856870Y-90103212D01*
X120870213Y-90050055D01*
X120877323Y-90026040D01*
X120902071Y-90023328D01*
X120965543Y-90019302D01*
X121055704Y-90014693D01*
X121089650Y-90013152D01*
X121194639Y-90009989D01*
X121258279Y-90012701D01*
G37*
X121258279Y-90012701D02*
X121289812Y-90022571D01*
X121298480Y-90040887D01*
X121298476Y-90042211D01*
X121293075Y-90078528D01*
X121278534Y-90155689D01*
X121256607Y-90264920D01*
X121229052Y-90397449D01*
X121201840Y-90525000D01*
X121105926Y-90969500D01*
X121253363Y-90977062D01*
X121343119Y-90985629D01*
X121389757Y-91004147D01*
X121400857Y-91039355D01*
X121385382Y-91094422D01*
X121372542Y-91110310D01*
X121343185Y-91121472D01*
X121289744Y-91128690D01*
X121204655Y-91132743D01*
X121080352Y-91134414D01*
X120996081Y-91134600D01*
X120622198Y-91134600D01*
X120633381Y-91058400D01*
X120641770Y-91016746D01*
X120659795Y-90993959D01*
X120700071Y-90984350D01*
X120775214Y-90982227D01*
X120802328Y-90982200D01*
X120960091Y-90982200D01*
X121040745Y-90606414D01*
X121069027Y-90471866D01*
X121092975Y-90352635D01*
X121110686Y-90258621D01*
X121120256Y-90199726D01*
X121121400Y-90187092D01*
X121115061Y-90162839D01*
X121088267Y-90152838D01*
X121029350Y-90154860D01*
X120980296Y-90160140D01*
X120839193Y-90176724D01*
X120856870Y-90103212D01*
X120870213Y-90050055D01*
X120877323Y-90026040D01*
X120902071Y-90023328D01*
X120965543Y-90019302D01*
X121055704Y-90014693D01*
X121089650Y-90013152D01*
X121194639Y-90009989D01*
X121258279Y-90012701D01*
G36*
X110343229Y-89894499D02*
G01*
X110388806Y-89902315D01*
X110406772Y-89922014D01*
X110403839Y-89968432D01*
X110395764Y-90010650D01*
X110379217Y-90078148D01*
X110356018Y-90109361D01*
X110311756Y-90118206D01*
X110283978Y-90118600D01*
X110193746Y-90118600D01*
X110211249Y-90023350D01*
X110231252Y-89942939D01*
X110260248Y-89902720D01*
X110309069Y-89892118D01*
X110343229Y-89894499D01*
G37*
X110343229Y-89894499D02*
X110388806Y-89902315D01*
X110406772Y-89922014D01*
X110403839Y-89968432D01*
X110395764Y-90010650D01*
X110379217Y-90078148D01*
X110356018Y-90109361D01*
X110311756Y-90118206D01*
X110283978Y-90118600D01*
X110193746Y-90118600D01*
X110211249Y-90023350D01*
X110231252Y-89942939D01*
X110260248Y-89902720D01*
X110309069Y-89892118D01*
X110343229Y-89894499D01*
G36*
X119080829Y-89894499D02*
G01*
X119126406Y-89902315D01*
X119144372Y-89922014D01*
X119141439Y-89968432D01*
X119133364Y-90010650D01*
X119116817Y-90078148D01*
X119093618Y-90109361D01*
X119049356Y-90118206D01*
X119021578Y-90118600D01*
X118931346Y-90118600D01*
X118948849Y-90023350D01*
X118968852Y-89942939D01*
X118997848Y-89902720D01*
X119046669Y-89892118D01*
X119080829Y-89894499D01*
G37*
X119080829Y-89894499D02*
X119126406Y-89902315D01*
X119144372Y-89922014D01*
X119141439Y-89968432D01*
X119133364Y-90010650D01*
X119116817Y-90078148D01*
X119093618Y-90109361D01*
X119049356Y-90118206D01*
X119021578Y-90118600D01*
X118931346Y-90118600D01*
X118948849Y-90023350D01*
X118968852Y-89942939D01*
X118997848Y-89902720D01*
X119046669Y-89892118D01*
X119080829Y-89894499D01*
D13*
%TO.C,U1*%
X116410000Y-73840000D02*
X115150000Y-73840000D01*
X109590000Y-73840000D02*
X110850000Y-73840000D01*
X116410000Y-77600000D02*
X116410000Y-73840000D01*
X109590000Y-79850000D02*
X109590000Y-73840000D01*
%TO.C,C4*%
X110107836Y-66890000D02*
X109892164Y-66890000D01*
X110107836Y-67610000D02*
X109892164Y-67610000D01*
%TO.C,C5*%
X109110000Y-76259420D02*
X109110000Y-76540580D01*
X108090000Y-76259420D02*
X108090000Y-76540580D01*
%TO.C,C6*%
X110107836Y-68610000D02*
X109892164Y-68610000D01*
X110107836Y-67890000D02*
X109892164Y-67890000D01*
%TO.C,C8*%
X109110000Y-79590580D02*
X109110000Y-79309420D01*
X108090000Y-79590580D02*
X108090000Y-79309420D01*
%TO.C,FB1*%
X114587221Y-69990000D02*
X114912779Y-69990000D01*
X114587221Y-71010000D02*
X114912779Y-71010000D01*
%TO.C,R3*%
X113620000Y-68096359D02*
X113620000Y-68403641D01*
X114380000Y-68096359D02*
X114380000Y-68403641D01*
%TO.C,R4*%
X112880000Y-67596359D02*
X112880000Y-67903641D01*
X112120000Y-67596359D02*
X112120000Y-67903641D01*
%TO.C,F1*%
X108090000Y-73237221D02*
X108090000Y-73562779D01*
X109110000Y-73237221D02*
X109110000Y-73562779D01*
%TO.C,D1*%
X108500000Y-69100000D02*
X112400000Y-69100000D01*
X108500000Y-71100000D02*
X112400000Y-71100000D01*
X108500000Y-69100000D02*
X108500000Y-71100000D01*
%TO.C,C9*%
X110910000Y-84640580D02*
X110910000Y-84359420D01*
X109890000Y-84640580D02*
X109890000Y-84359420D01*
%TO.C,C10*%
X120609420Y-82990000D02*
X120890580Y-82990000D01*
X120609420Y-84010000D02*
X120890580Y-84010000D01*
%TO.C,R6*%
X114346359Y-87370000D02*
X114653641Y-87370000D01*
X114346359Y-88130000D02*
X114653641Y-88130000D01*
%TO.C,U3*%
X116585000Y-82190000D02*
X117060000Y-82190000D01*
X117060000Y-82190000D02*
X117060000Y-82665000D01*
X113315000Y-86410000D02*
X112840000Y-86410000D01*
X112840000Y-86410000D02*
X112840000Y-85935000D01*
X116585000Y-86410000D02*
X117060000Y-86410000D01*
X117060000Y-86410000D02*
X117060000Y-85935000D01*
X113315000Y-82190000D02*
X112840000Y-82190000D01*
D14*
%TO.C,D2*%
X107650000Y-84735000D02*
G75*
G03*
X107650000Y-84735000I-50000J0D01*
G01*
%TO.C,D3*%
X121150000Y-88540000D02*
G75*
G03*
X121150000Y-88540000I-50000J0D01*
G01*
%TO.C,D4*%
X120000000Y-88540000D02*
G75*
G03*
X120000000Y-88540000I-50000J0D01*
G01*
D13*
%TO.C,R1*%
X121480000Y-85346359D02*
X121480000Y-85653641D01*
X120720000Y-85346359D02*
X120720000Y-85653641D01*
%TO.C,R2*%
X120330000Y-85653641D02*
X120330000Y-85346359D01*
X119570000Y-85653641D02*
X119570000Y-85346359D01*
%TO.C,R5*%
X108245000Y-85978641D02*
X108245000Y-85671359D01*
X109005000Y-85978641D02*
X109005000Y-85671359D01*
%TO.C,J1*%
X114800000Y-65160000D02*
X114800000Y-65750000D01*
X109140000Y-59340000D02*
X109140000Y-60950000D01*
X116860000Y-59340000D02*
X109140000Y-59340000D01*
X116860000Y-63450000D02*
X116860000Y-65160000D01*
X116860000Y-65160000D02*
X114800000Y-65160000D01*
X109140000Y-63450000D02*
X109140000Y-65160000D01*
X109140000Y-65160000D02*
X111200000Y-65160000D01*
X116860000Y-59340000D02*
X116860000Y-60950000D01*
%TO.C,U1*%
D14*
X112619047Y-80476190D02*
X112619047Y-80880952D01*
X112642857Y-80928571D01*
X112666666Y-80952380D01*
X112714285Y-80976190D01*
X112809523Y-80976190D01*
X112857142Y-80952380D01*
X112880952Y-80928571D01*
X112904761Y-80880952D01*
X112904761Y-80476190D01*
X113404761Y-80976190D02*
X113119047Y-80976190D01*
X113261904Y-80976190D02*
X113261904Y-80476190D01*
X113214285Y-80547619D01*
X113166666Y-80595238D01*
X113119047Y-80619047D01*
%TO.C,C4*%
X107916666Y-67428571D02*
X107892857Y-67452380D01*
X107821428Y-67476190D01*
X107773809Y-67476190D01*
X107702380Y-67452380D01*
X107654761Y-67404761D01*
X107630952Y-67357142D01*
X107607142Y-67261904D01*
X107607142Y-67190476D01*
X107630952Y-67095238D01*
X107654761Y-67047619D01*
X107702380Y-67000000D01*
X107773809Y-66976190D01*
X107821428Y-66976190D01*
X107892857Y-67000000D01*
X107916666Y-67023809D01*
X108345238Y-67142857D02*
X108345238Y-67476190D01*
X108226190Y-66952380D02*
X108107142Y-67309523D01*
X108416666Y-67309523D01*
%TO.C,C5*%
X107266666Y-76578571D02*
X107242857Y-76602380D01*
X107171428Y-76626190D01*
X107123809Y-76626190D01*
X107052380Y-76602380D01*
X107004761Y-76554761D01*
X106980952Y-76507142D01*
X106957142Y-76411904D01*
X106957142Y-76340476D01*
X106980952Y-76245238D01*
X107004761Y-76197619D01*
X107052380Y-76150000D01*
X107123809Y-76126190D01*
X107171428Y-76126190D01*
X107242857Y-76150000D01*
X107266666Y-76173809D01*
X107719047Y-76126190D02*
X107480952Y-76126190D01*
X107457142Y-76364285D01*
X107480952Y-76340476D01*
X107528571Y-76316666D01*
X107647619Y-76316666D01*
X107695238Y-76340476D01*
X107719047Y-76364285D01*
X107742857Y-76411904D01*
X107742857Y-76530952D01*
X107719047Y-76578571D01*
X107695238Y-76602380D01*
X107647619Y-76626190D01*
X107528571Y-76626190D01*
X107480952Y-76602380D01*
X107457142Y-76578571D01*
%TO.C,C6*%
X107916666Y-68678571D02*
X107892857Y-68702380D01*
X107821428Y-68726190D01*
X107773809Y-68726190D01*
X107702380Y-68702380D01*
X107654761Y-68654761D01*
X107630952Y-68607142D01*
X107607142Y-68511904D01*
X107607142Y-68440476D01*
X107630952Y-68345238D01*
X107654761Y-68297619D01*
X107702380Y-68250000D01*
X107773809Y-68226190D01*
X107821428Y-68226190D01*
X107892857Y-68250000D01*
X107916666Y-68273809D01*
X108345238Y-68226190D02*
X108250000Y-68226190D01*
X108202380Y-68250000D01*
X108178571Y-68273809D01*
X108130952Y-68345238D01*
X108107142Y-68440476D01*
X108107142Y-68630952D01*
X108130952Y-68678571D01*
X108154761Y-68702380D01*
X108202380Y-68726190D01*
X108297619Y-68726190D01*
X108345238Y-68702380D01*
X108369047Y-68678571D01*
X108392857Y-68630952D01*
X108392857Y-68511904D01*
X108369047Y-68464285D01*
X108345238Y-68440476D01*
X108297619Y-68416666D01*
X108202380Y-68416666D01*
X108154761Y-68440476D01*
X108130952Y-68464285D01*
X108107142Y-68511904D01*
%TO.C,C8*%
X107266666Y-79628571D02*
X107242857Y-79652380D01*
X107171428Y-79676190D01*
X107123809Y-79676190D01*
X107052380Y-79652380D01*
X107004761Y-79604761D01*
X106980952Y-79557142D01*
X106957142Y-79461904D01*
X106957142Y-79390476D01*
X106980952Y-79295238D01*
X107004761Y-79247619D01*
X107052380Y-79200000D01*
X107123809Y-79176190D01*
X107171428Y-79176190D01*
X107242857Y-79200000D01*
X107266666Y-79223809D01*
X107552380Y-79390476D02*
X107504761Y-79366666D01*
X107480952Y-79342857D01*
X107457142Y-79295238D01*
X107457142Y-79271428D01*
X107480952Y-79223809D01*
X107504761Y-79200000D01*
X107552380Y-79176190D01*
X107647619Y-79176190D01*
X107695238Y-79200000D01*
X107719047Y-79223809D01*
X107742857Y-79271428D01*
X107742857Y-79295238D01*
X107719047Y-79342857D01*
X107695238Y-79366666D01*
X107647619Y-79390476D01*
X107552380Y-79390476D01*
X107504761Y-79414285D01*
X107480952Y-79438095D01*
X107457142Y-79485714D01*
X107457142Y-79580952D01*
X107480952Y-79628571D01*
X107504761Y-79652380D01*
X107552380Y-79676190D01*
X107647619Y-79676190D01*
X107695238Y-79652380D01*
X107719047Y-79628571D01*
X107742857Y-79580952D01*
X107742857Y-79485714D01*
X107719047Y-79438095D01*
X107695238Y-79414285D01*
X107647619Y-79390476D01*
%TO.C,FB1*%
X114383333Y-69214285D02*
X114216666Y-69214285D01*
X114216666Y-69476190D02*
X114216666Y-68976190D01*
X114454761Y-68976190D01*
X114811904Y-69214285D02*
X114883333Y-69238095D01*
X114907142Y-69261904D01*
X114930952Y-69309523D01*
X114930952Y-69380952D01*
X114907142Y-69428571D01*
X114883333Y-69452380D01*
X114835714Y-69476190D01*
X114645238Y-69476190D01*
X114645238Y-68976190D01*
X114811904Y-68976190D01*
X114859523Y-69000000D01*
X114883333Y-69023809D01*
X114907142Y-69071428D01*
X114907142Y-69119047D01*
X114883333Y-69166666D01*
X114859523Y-69190476D01*
X114811904Y-69214285D01*
X114645238Y-69214285D01*
X115407142Y-69476190D02*
X115121428Y-69476190D01*
X115264285Y-69476190D02*
X115264285Y-68976190D01*
X115216666Y-69047619D01*
X115169047Y-69095238D01*
X115121428Y-69119047D01*
%TO.C,R3*%
X114916666Y-68476190D02*
X114750000Y-68238095D01*
X114630952Y-68476190D02*
X114630952Y-67976190D01*
X114821428Y-67976190D01*
X114869047Y-68000000D01*
X114892857Y-68023809D01*
X114916666Y-68071428D01*
X114916666Y-68142857D01*
X114892857Y-68190476D01*
X114869047Y-68214285D01*
X114821428Y-68238095D01*
X114630952Y-68238095D01*
X115083333Y-67976190D02*
X115392857Y-67976190D01*
X115226190Y-68166666D01*
X115297619Y-68166666D01*
X115345238Y-68190476D01*
X115369047Y-68214285D01*
X115392857Y-68261904D01*
X115392857Y-68380952D01*
X115369047Y-68428571D01*
X115345238Y-68452380D01*
X115297619Y-68476190D01*
X115154761Y-68476190D01*
X115107142Y-68452380D01*
X115083333Y-68428571D01*
%TO.C,R4*%
X111416666Y-68226190D02*
X111250000Y-67988095D01*
X111130952Y-68226190D02*
X111130952Y-67726190D01*
X111321428Y-67726190D01*
X111369047Y-67750000D01*
X111392857Y-67773809D01*
X111416666Y-67821428D01*
X111416666Y-67892857D01*
X111392857Y-67940476D01*
X111369047Y-67964285D01*
X111321428Y-67988095D01*
X111130952Y-67988095D01*
X111845238Y-67892857D02*
X111845238Y-68226190D01*
X111726190Y-67702380D02*
X111607142Y-68059523D01*
X111916666Y-68059523D01*
%TO.C,F1*%
X107083333Y-73264285D02*
X106916666Y-73264285D01*
X106916666Y-73526190D02*
X106916666Y-73026190D01*
X107154761Y-73026190D01*
X107607142Y-73526190D02*
X107321428Y-73526190D01*
X107464285Y-73526190D02*
X107464285Y-73026190D01*
X107416666Y-73097619D01*
X107369047Y-73145238D01*
X107321428Y-73169047D01*
%TO.C,D1*%
X107180952Y-70326190D02*
X107180952Y-69826190D01*
X107300000Y-69826190D01*
X107371428Y-69850000D01*
X107419047Y-69897619D01*
X107442857Y-69945238D01*
X107466666Y-70040476D01*
X107466666Y-70111904D01*
X107442857Y-70207142D01*
X107419047Y-70254761D01*
X107371428Y-70302380D01*
X107300000Y-70326190D01*
X107180952Y-70326190D01*
X107942857Y-70326190D02*
X107657142Y-70326190D01*
X107800000Y-70326190D02*
X107800000Y-69826190D01*
X107752380Y-69897619D01*
X107704761Y-69945238D01*
X107657142Y-69969047D01*
%TO.C,C9*%
X110416666Y-86928571D02*
X110392857Y-86952380D01*
X110321428Y-86976190D01*
X110273809Y-86976190D01*
X110202380Y-86952380D01*
X110154761Y-86904761D01*
X110130952Y-86857142D01*
X110107142Y-86761904D01*
X110107142Y-86690476D01*
X110130952Y-86595238D01*
X110154761Y-86547619D01*
X110202380Y-86500000D01*
X110273809Y-86476190D01*
X110321428Y-86476190D01*
X110392857Y-86500000D01*
X110416666Y-86523809D01*
X110654761Y-86976190D02*
X110750000Y-86976190D01*
X110797619Y-86952380D01*
X110821428Y-86928571D01*
X110869047Y-86857142D01*
X110892857Y-86761904D01*
X110892857Y-86571428D01*
X110869047Y-86523809D01*
X110845238Y-86500000D01*
X110797619Y-86476190D01*
X110702380Y-86476190D01*
X110654761Y-86500000D01*
X110630952Y-86523809D01*
X110607142Y-86571428D01*
X110607142Y-86690476D01*
X110630952Y-86738095D01*
X110654761Y-86761904D01*
X110702380Y-86785714D01*
X110797619Y-86785714D01*
X110845238Y-86761904D01*
X110869047Y-86738095D01*
X110892857Y-86690476D01*
%TO.C,C10*%
X118421428Y-83128571D02*
X118397619Y-83104761D01*
X118373809Y-83033333D01*
X118373809Y-82985714D01*
X118397619Y-82914285D01*
X118445238Y-82866666D01*
X118492857Y-82842857D01*
X118588095Y-82819047D01*
X118659523Y-82819047D01*
X118754761Y-82842857D01*
X118802380Y-82866666D01*
X118850000Y-82914285D01*
X118873809Y-82985714D01*
X118873809Y-83033333D01*
X118850000Y-83104761D01*
X118826190Y-83128571D01*
X118373809Y-83604761D02*
X118373809Y-83319047D01*
X118373809Y-83461904D02*
X118873809Y-83461904D01*
X118802380Y-83414285D01*
X118754761Y-83366666D01*
X118730952Y-83319047D01*
X118873809Y-83914285D02*
X118873809Y-83961904D01*
X118850000Y-84009523D01*
X118826190Y-84033333D01*
X118778571Y-84057142D01*
X118683333Y-84080952D01*
X118564285Y-84080952D01*
X118469047Y-84057142D01*
X118421428Y-84033333D01*
X118397619Y-84009523D01*
X118373809Y-83961904D01*
X118373809Y-83914285D01*
X118397619Y-83866666D01*
X118421428Y-83842857D01*
X118469047Y-83819047D01*
X118564285Y-83795238D01*
X118683333Y-83795238D01*
X118778571Y-83819047D01*
X118826190Y-83842857D01*
X118850000Y-83866666D01*
X118873809Y-83914285D01*
%TO.C,R6*%
X113916666Y-88976190D02*
X113750000Y-88738095D01*
X113630952Y-88976190D02*
X113630952Y-88476190D01*
X113821428Y-88476190D01*
X113869047Y-88500000D01*
X113892857Y-88523809D01*
X113916666Y-88571428D01*
X113916666Y-88642857D01*
X113892857Y-88690476D01*
X113869047Y-88714285D01*
X113821428Y-88738095D01*
X113630952Y-88738095D01*
X114345238Y-88476190D02*
X114250000Y-88476190D01*
X114202380Y-88500000D01*
X114178571Y-88523809D01*
X114130952Y-88595238D01*
X114107142Y-88690476D01*
X114107142Y-88880952D01*
X114130952Y-88928571D01*
X114154761Y-88952380D01*
X114202380Y-88976190D01*
X114297619Y-88976190D01*
X114345238Y-88952380D01*
X114369047Y-88928571D01*
X114392857Y-88880952D01*
X114392857Y-88761904D01*
X114369047Y-88714285D01*
X114345238Y-88690476D01*
X114297619Y-88666666D01*
X114202380Y-88666666D01*
X114154761Y-88690476D01*
X114130952Y-88714285D01*
X114107142Y-88761904D01*
%TO.C,U3*%
X116869047Y-86976190D02*
X116869047Y-87380952D01*
X116892857Y-87428571D01*
X116916666Y-87452380D01*
X116964285Y-87476190D01*
X117059523Y-87476190D01*
X117107142Y-87452380D01*
X117130952Y-87428571D01*
X117154761Y-87380952D01*
X117154761Y-86976190D01*
X117345238Y-86976190D02*
X117654761Y-86976190D01*
X117488095Y-87166666D01*
X117559523Y-87166666D01*
X117607142Y-87190476D01*
X117630952Y-87214285D01*
X117654761Y-87261904D01*
X117654761Y-87380952D01*
X117630952Y-87428571D01*
X117607142Y-87452380D01*
X117559523Y-87476190D01*
X117416666Y-87476190D01*
X117369047Y-87452380D01*
X117345238Y-87428571D01*
%TO.C,D2*%
X107130952Y-84476190D02*
X107130952Y-83976190D01*
X107250000Y-83976190D01*
X107321428Y-84000000D01*
X107369047Y-84047619D01*
X107392857Y-84095238D01*
X107416666Y-84190476D01*
X107416666Y-84261904D01*
X107392857Y-84357142D01*
X107369047Y-84404761D01*
X107321428Y-84452380D01*
X107250000Y-84476190D01*
X107130952Y-84476190D01*
X107607142Y-84023809D02*
X107630952Y-84000000D01*
X107678571Y-83976190D01*
X107797619Y-83976190D01*
X107845238Y-84000000D01*
X107869047Y-84023809D01*
X107892857Y-84071428D01*
X107892857Y-84119047D01*
X107869047Y-84190476D01*
X107583333Y-84476190D01*
X107892857Y-84476190D01*
%TO.C,D3*%
X121880952Y-87476190D02*
X121880952Y-86976190D01*
X122000000Y-86976190D01*
X122071428Y-87000000D01*
X122119047Y-87047619D01*
X122142857Y-87095238D01*
X122166666Y-87190476D01*
X122166666Y-87261904D01*
X122142857Y-87357142D01*
X122119047Y-87404761D01*
X122071428Y-87452380D01*
X122000000Y-87476190D01*
X121880952Y-87476190D01*
X122333333Y-86976190D02*
X122642857Y-86976190D01*
X122476190Y-87166666D01*
X122547619Y-87166666D01*
X122595238Y-87190476D01*
X122619047Y-87214285D01*
X122642857Y-87261904D01*
X122642857Y-87380952D01*
X122619047Y-87428571D01*
X122595238Y-87452380D01*
X122547619Y-87476190D01*
X122404761Y-87476190D01*
X122357142Y-87452380D01*
X122333333Y-87428571D01*
%TO.C,D4*%
X118530952Y-87476190D02*
X118530952Y-86976190D01*
X118650000Y-86976190D01*
X118721428Y-87000000D01*
X118769047Y-87047619D01*
X118792857Y-87095238D01*
X118816666Y-87190476D01*
X118816666Y-87261904D01*
X118792857Y-87357142D01*
X118769047Y-87404761D01*
X118721428Y-87452380D01*
X118650000Y-87476190D01*
X118530952Y-87476190D01*
X119245238Y-87142857D02*
X119245238Y-87476190D01*
X119126190Y-86952380D02*
X119007142Y-87309523D01*
X119316666Y-87309523D01*
%TO.C,R1*%
X122166666Y-86226190D02*
X122000000Y-85988095D01*
X121880952Y-86226190D02*
X121880952Y-85726190D01*
X122071428Y-85726190D01*
X122119047Y-85750000D01*
X122142857Y-85773809D01*
X122166666Y-85821428D01*
X122166666Y-85892857D01*
X122142857Y-85940476D01*
X122119047Y-85964285D01*
X122071428Y-85988095D01*
X121880952Y-85988095D01*
X122642857Y-86226190D02*
X122357142Y-86226190D01*
X122500000Y-86226190D02*
X122500000Y-85726190D01*
X122452380Y-85797619D01*
X122404761Y-85845238D01*
X122357142Y-85869047D01*
%TO.C,R2*%
X118816666Y-86226190D02*
X118650000Y-85988095D01*
X118530952Y-86226190D02*
X118530952Y-85726190D01*
X118721428Y-85726190D01*
X118769047Y-85750000D01*
X118792857Y-85773809D01*
X118816666Y-85821428D01*
X118816666Y-85892857D01*
X118792857Y-85940476D01*
X118769047Y-85964285D01*
X118721428Y-85988095D01*
X118530952Y-85988095D01*
X119007142Y-85773809D02*
X119030952Y-85750000D01*
X119078571Y-85726190D01*
X119197619Y-85726190D01*
X119245238Y-85750000D01*
X119269047Y-85773809D01*
X119292857Y-85821428D01*
X119292857Y-85869047D01*
X119269047Y-85940476D01*
X118983333Y-86226190D01*
X119292857Y-86226190D01*
%TO.C,R5*%
X108666666Y-84476190D02*
X108500000Y-84238095D01*
X108380952Y-84476190D02*
X108380952Y-83976190D01*
X108571428Y-83976190D01*
X108619047Y-84000000D01*
X108642857Y-84023809D01*
X108666666Y-84071428D01*
X108666666Y-84142857D01*
X108642857Y-84190476D01*
X108619047Y-84214285D01*
X108571428Y-84238095D01*
X108380952Y-84238095D01*
X109119047Y-83976190D02*
X108880952Y-83976190D01*
X108857142Y-84214285D01*
X108880952Y-84190476D01*
X108928571Y-84166666D01*
X109047619Y-84166666D01*
X109095238Y-84190476D01*
X109119047Y-84214285D01*
X109142857Y-84261904D01*
X109142857Y-84380952D01*
X109119047Y-84428571D01*
X109095238Y-84452380D01*
X109047619Y-84476190D01*
X108928571Y-84476190D01*
X108880952Y-84452380D01*
X108857142Y-84428571D01*
%TO.C,J1*%
D15*
X108166666Y-64952380D02*
X108166666Y-65666666D01*
X108119047Y-65809523D01*
X108023809Y-65904761D01*
X107880952Y-65952380D01*
X107785714Y-65952380D01*
X109166666Y-65952380D02*
X108595238Y-65952380D01*
X108880952Y-65952380D02*
X108880952Y-64952380D01*
X108785714Y-65095238D01*
X108690476Y-65190476D01*
X108595238Y-65238095D01*
%TD*%
M02*
