%TF.GenerationSoftware,KiCad,Pcbnew,5.1.8*%
%TF.CreationDate,2020-11-26T00:29:23+09:00*%
%TF.ProjectId,rasp_usb,72617370-5f75-4736-922e-6b696361645f,rev?*%
%TF.SameCoordinates,Original*%
%TF.FileFunction,Copper,L1,Top*%
%TF.FilePolarity,Positive*%
%FSLAX46Y46*%
G04 Gerber Fmt 4.6, Leading zero omitted, Abs format (unit mm)*
G04 Created by KiCad (PCBNEW 5.1.8) date 2020-11-26 00:29:23*
%MOMM*%
%LPD*%
G01*
G04 APERTURE LIST*
%TA.AperFunction,ComponentPad*%
%ADD10R,1.700000X1.700000*%
%TD*%
%TA.AperFunction,ComponentPad*%
%ADD11O,1.700000X1.700000*%
%TD*%
%TA.AperFunction,SMDPad,CuDef*%
%ADD12R,3.800000X2.000000*%
%TD*%
%TA.AperFunction,SMDPad,CuDef*%
%ADD13R,1.500000X2.000000*%
%TD*%
%TA.AperFunction,SMDPad,CuDef*%
%ADD14R,0.900000X1.200000*%
%TD*%
%TA.AperFunction,SMDPad,CuDef*%
%ADD15R,2.600000X2.600000*%
%TD*%
%TA.AperFunction,SMDPad,CuDef*%
%ADD16R,1.800000X1.900000*%
%TD*%
%TA.AperFunction,SMDPad,CuDef*%
%ADD17R,2.300000X1.900000*%
%TD*%
%TA.AperFunction,SMDPad,CuDef*%
%ADD18R,0.400000X1.400000*%
%TD*%
%TA.AperFunction,ViaPad*%
%ADD19C,0.600000*%
%TD*%
%TA.AperFunction,ViaPad*%
%ADD20C,0.800000*%
%TD*%
%TA.AperFunction,Conductor*%
%ADD21C,0.250000*%
%TD*%
%TA.AperFunction,Conductor*%
%ADD22C,0.500000*%
%TD*%
%TA.AperFunction,Conductor*%
%ADD23C,0.300000*%
%TD*%
%TA.AperFunction,Conductor*%
%ADD24C,0.254000*%
%TD*%
%TA.AperFunction,Conductor*%
%ADD25C,0.100000*%
%TD*%
G04 APERTURE END LIST*
D10*
%TO.P,J2,1*%
%TO.N,3V3*%
X120250000Y-68500000D03*
D11*
%TO.P,J2,2*%
%TO.N,5V*%
X122790000Y-68500000D03*
%TO.P,J2,3*%
%TO.N,Net-(J2-Pad3)*%
X120250000Y-71040000D03*
%TO.P,J2,4*%
%TO.N,5V*%
X122790000Y-71040000D03*
%TO.P,J2,5*%
%TO.N,Net-(J2-Pad5)*%
X120250000Y-73580000D03*
%TO.P,J2,6*%
%TO.N,GND*%
X122790000Y-73580000D03*
%TO.P,J2,7*%
%TO.N,Net-(J2-Pad7)*%
X120250000Y-76120000D03*
%TO.P,J2,8*%
%TO.N,UART_TXD*%
X122790000Y-76120000D03*
%TO.P,J2,9*%
%TO.N,GND*%
X120250000Y-78660000D03*
%TO.P,J2,10*%
%TO.N,UART_RXD*%
X122790000Y-78660000D03*
%TD*%
D12*
%TO.P,U1,2*%
%TO.N,VIO*%
X107750000Y-73100000D03*
D13*
X107750000Y-79400000D03*
%TO.P,U1,3*%
%TO.N,Net-(C5-Pad1)*%
X110050000Y-79400000D03*
%TO.P,U1,1*%
%TO.N,GND*%
X105450000Y-79400000D03*
%TD*%
%TO.P,C4,2*%
%TO.N,GND*%
%TA.AperFunction,SMDPad,CuDef*%
G36*
G01*
X104550000Y-67580000D02*
X104550000Y-67920000D01*
G75*
G02*
X104410000Y-68060000I-140000J0D01*
G01*
X104130000Y-68060000D01*
G75*
G02*
X103990000Y-67920000I0J140000D01*
G01*
X103990000Y-67580000D01*
G75*
G02*
X104130000Y-67440000I140000J0D01*
G01*
X104410000Y-67440000D01*
G75*
G02*
X104550000Y-67580000I0J-140000D01*
G01*
G37*
%TD.AperFunction*%
%TO.P,C4,1*%
%TO.N,USB_DP*%
%TA.AperFunction,SMDPad,CuDef*%
G36*
G01*
X105510000Y-67580000D02*
X105510000Y-67920000D01*
G75*
G02*
X105370000Y-68060000I-140000J0D01*
G01*
X105090000Y-68060000D01*
G75*
G02*
X104950000Y-67920000I0J140000D01*
G01*
X104950000Y-67580000D01*
G75*
G02*
X105090000Y-67440000I140000J0D01*
G01*
X105370000Y-67440000D01*
G75*
G02*
X105510000Y-67580000I0J-140000D01*
G01*
G37*
%TD.AperFunction*%
%TD*%
%TO.P,C5,1*%
%TO.N,Net-(C5-Pad1)*%
%TA.AperFunction,SMDPad,CuDef*%
G36*
G01*
X103100000Y-75675000D02*
X103600000Y-75675000D01*
G75*
G02*
X103825000Y-75900000I0J-225000D01*
G01*
X103825000Y-76350000D01*
G75*
G02*
X103600000Y-76575000I-225000J0D01*
G01*
X103100000Y-76575000D01*
G75*
G02*
X102875000Y-76350000I0J225000D01*
G01*
X102875000Y-75900000D01*
G75*
G02*
X103100000Y-75675000I225000J0D01*
G01*
G37*
%TD.AperFunction*%
%TO.P,C5,2*%
%TO.N,GND*%
%TA.AperFunction,SMDPad,CuDef*%
G36*
G01*
X103100000Y-77225000D02*
X103600000Y-77225000D01*
G75*
G02*
X103825000Y-77450000I0J-225000D01*
G01*
X103825000Y-77900000D01*
G75*
G02*
X103600000Y-78125000I-225000J0D01*
G01*
X103100000Y-78125000D01*
G75*
G02*
X102875000Y-77900000I0J225000D01*
G01*
X102875000Y-77450000D01*
G75*
G02*
X103100000Y-77225000I225000J0D01*
G01*
G37*
%TD.AperFunction*%
%TD*%
%TO.P,C6,1*%
%TO.N,USB_DM*%
%TA.AperFunction,SMDPad,CuDef*%
G36*
G01*
X105510000Y-68580000D02*
X105510000Y-68920000D01*
G75*
G02*
X105370000Y-69060000I-140000J0D01*
G01*
X105090000Y-69060000D01*
G75*
G02*
X104950000Y-68920000I0J140000D01*
G01*
X104950000Y-68580000D01*
G75*
G02*
X105090000Y-68440000I140000J0D01*
G01*
X105370000Y-68440000D01*
G75*
G02*
X105510000Y-68580000I0J-140000D01*
G01*
G37*
%TD.AperFunction*%
%TO.P,C6,2*%
%TO.N,GND*%
%TA.AperFunction,SMDPad,CuDef*%
G36*
G01*
X104550000Y-68580000D02*
X104550000Y-68920000D01*
G75*
G02*
X104410000Y-69060000I-140000J0D01*
G01*
X104130000Y-69060000D01*
G75*
G02*
X103990000Y-68920000I0J140000D01*
G01*
X103990000Y-68580000D01*
G75*
G02*
X104130000Y-68440000I140000J0D01*
G01*
X104410000Y-68440000D01*
G75*
G02*
X104550000Y-68580000I0J-140000D01*
G01*
G37*
%TD.AperFunction*%
%TD*%
%TO.P,C8,2*%
%TO.N,GND*%
%TA.AperFunction,SMDPad,CuDef*%
G36*
G01*
X103600000Y-79625000D02*
X103100000Y-79625000D01*
G75*
G02*
X102875000Y-79400000I0J225000D01*
G01*
X102875000Y-78950000D01*
G75*
G02*
X103100000Y-78725000I225000J0D01*
G01*
X103600000Y-78725000D01*
G75*
G02*
X103825000Y-78950000I0J-225000D01*
G01*
X103825000Y-79400000D01*
G75*
G02*
X103600000Y-79625000I-225000J0D01*
G01*
G37*
%TD.AperFunction*%
%TO.P,C8,1*%
%TO.N,VIO*%
%TA.AperFunction,SMDPad,CuDef*%
G36*
G01*
X103600000Y-81175000D02*
X103100000Y-81175000D01*
G75*
G02*
X102875000Y-80950000I0J225000D01*
G01*
X102875000Y-80500000D01*
G75*
G02*
X103100000Y-80275000I225000J0D01*
G01*
X103600000Y-80275000D01*
G75*
G02*
X103825000Y-80500000I0J-225000D01*
G01*
X103825000Y-80950000D01*
G75*
G02*
X103600000Y-81175000I-225000J0D01*
G01*
G37*
%TD.AperFunction*%
%TD*%
%TO.P,FB1,1*%
%TO.N,Net-(D1-Pad2)*%
%TA.AperFunction,SMDPad,CuDef*%
G36*
G01*
X108275000Y-71256250D02*
X108275000Y-70743750D01*
G75*
G02*
X108493750Y-70525000I218750J0D01*
G01*
X108931250Y-70525000D01*
G75*
G02*
X109150000Y-70743750I0J-218750D01*
G01*
X109150000Y-71256250D01*
G75*
G02*
X108931250Y-71475000I-218750J0D01*
G01*
X108493750Y-71475000D01*
G75*
G02*
X108275000Y-71256250I0J218750D01*
G01*
G37*
%TD.AperFunction*%
%TO.P,FB1,2*%
%TO.N,VBUS*%
%TA.AperFunction,SMDPad,CuDef*%
G36*
G01*
X109850000Y-71256250D02*
X109850000Y-70743750D01*
G75*
G02*
X110068750Y-70525000I218750J0D01*
G01*
X110506250Y-70525000D01*
G75*
G02*
X110725000Y-70743750I0J-218750D01*
G01*
X110725000Y-71256250D01*
G75*
G02*
X110506250Y-71475000I-218750J0D01*
G01*
X110068750Y-71475000D01*
G75*
G02*
X109850000Y-71256250I0J218750D01*
G01*
G37*
%TD.AperFunction*%
%TD*%
%TO.P,R3,2*%
%TO.N,Net-(R3-Pad2)*%
%TA.AperFunction,SMDPad,CuDef*%
G36*
G01*
X108565000Y-68990000D02*
X108935000Y-68990000D01*
G75*
G02*
X109070000Y-69125000I0J-135000D01*
G01*
X109070000Y-69395000D01*
G75*
G02*
X108935000Y-69530000I-135000J0D01*
G01*
X108565000Y-69530000D01*
G75*
G02*
X108430000Y-69395000I0J135000D01*
G01*
X108430000Y-69125000D01*
G75*
G02*
X108565000Y-68990000I135000J0D01*
G01*
G37*
%TD.AperFunction*%
%TO.P,R3,1*%
%TO.N,USB_DM*%
%TA.AperFunction,SMDPad,CuDef*%
G36*
G01*
X108565000Y-67970000D02*
X108935000Y-67970000D01*
G75*
G02*
X109070000Y-68105000I0J-135000D01*
G01*
X109070000Y-68375000D01*
G75*
G02*
X108935000Y-68510000I-135000J0D01*
G01*
X108565000Y-68510000D01*
G75*
G02*
X108430000Y-68375000I0J135000D01*
G01*
X108430000Y-68105000D01*
G75*
G02*
X108565000Y-67970000I135000J0D01*
G01*
G37*
%TD.AperFunction*%
%TD*%
%TO.P,R4,1*%
%TO.N,USB_DP*%
%TA.AperFunction,SMDPad,CuDef*%
G36*
G01*
X107065000Y-67470000D02*
X107435000Y-67470000D01*
G75*
G02*
X107570000Y-67605000I0J-135000D01*
G01*
X107570000Y-67875000D01*
G75*
G02*
X107435000Y-68010000I-135000J0D01*
G01*
X107065000Y-68010000D01*
G75*
G02*
X106930000Y-67875000I0J135000D01*
G01*
X106930000Y-67605000D01*
G75*
G02*
X107065000Y-67470000I135000J0D01*
G01*
G37*
%TD.AperFunction*%
%TO.P,R4,2*%
%TO.N,Net-(R4-Pad2)*%
%TA.AperFunction,SMDPad,CuDef*%
G36*
G01*
X107065000Y-68490000D02*
X107435000Y-68490000D01*
G75*
G02*
X107570000Y-68625000I0J-135000D01*
G01*
X107570000Y-68895000D01*
G75*
G02*
X107435000Y-69030000I-135000J0D01*
G01*
X107065000Y-69030000D01*
G75*
G02*
X106930000Y-68895000I0J135000D01*
G01*
X106930000Y-68625000D01*
G75*
G02*
X107065000Y-68490000I135000J0D01*
G01*
G37*
%TD.AperFunction*%
%TD*%
%TO.P,F1,1*%
%TO.N,Net-(D1-Pad1)*%
%TA.AperFunction,SMDPad,CuDef*%
G36*
G01*
X103093750Y-72675000D02*
X103606250Y-72675000D01*
G75*
G02*
X103825000Y-72893750I0J-218750D01*
G01*
X103825000Y-73331250D01*
G75*
G02*
X103606250Y-73550000I-218750J0D01*
G01*
X103093750Y-73550000D01*
G75*
G02*
X102875000Y-73331250I0J218750D01*
G01*
X102875000Y-72893750D01*
G75*
G02*
X103093750Y-72675000I218750J0D01*
G01*
G37*
%TD.AperFunction*%
%TO.P,F1,2*%
%TO.N,Net-(C5-Pad1)*%
%TA.AperFunction,SMDPad,CuDef*%
G36*
G01*
X103093750Y-74250000D02*
X103606250Y-74250000D01*
G75*
G02*
X103825000Y-74468750I0J-218750D01*
G01*
X103825000Y-74906250D01*
G75*
G02*
X103606250Y-75125000I-218750J0D01*
G01*
X103093750Y-75125000D01*
G75*
G02*
X102875000Y-74906250I0J218750D01*
G01*
X102875000Y-74468750D01*
G75*
G02*
X103093750Y-74250000I218750J0D01*
G01*
G37*
%TD.AperFunction*%
%TD*%
D14*
%TO.P,D1,1*%
%TO.N,Net-(D1-Pad1)*%
X103850000Y-70600000D03*
%TO.P,D1,2*%
%TO.N,Net-(D1-Pad2)*%
X107150000Y-70600000D03*
%TD*%
%TO.P,C9,2*%
%TO.N,GND*%
%TA.AperFunction,SMDPad,CuDef*%
G36*
G01*
X116825000Y-66150000D02*
X116825000Y-65650000D01*
G75*
G02*
X117050000Y-65425000I225000J0D01*
G01*
X117500000Y-65425000D01*
G75*
G02*
X117725000Y-65650000I0J-225000D01*
G01*
X117725000Y-66150000D01*
G75*
G02*
X117500000Y-66375000I-225000J0D01*
G01*
X117050000Y-66375000D01*
G75*
G02*
X116825000Y-66150000I0J225000D01*
G01*
G37*
%TD.AperFunction*%
%TO.P,C9,1*%
%TO.N,VIO*%
%TA.AperFunction,SMDPad,CuDef*%
G36*
G01*
X115275000Y-66150000D02*
X115275000Y-65650000D01*
G75*
G02*
X115500000Y-65425000I225000J0D01*
G01*
X115950000Y-65425000D01*
G75*
G02*
X116175000Y-65650000I0J-225000D01*
G01*
X116175000Y-66150000D01*
G75*
G02*
X115950000Y-66375000I-225000J0D01*
G01*
X115500000Y-66375000D01*
G75*
G02*
X115275000Y-66150000I0J225000D01*
G01*
G37*
%TD.AperFunction*%
%TD*%
%TO.P,C10,1*%
%TO.N,Net-(C10-Pad1)*%
%TA.AperFunction,SMDPad,CuDef*%
G36*
G01*
X117200000Y-75925000D02*
X117700000Y-75925000D01*
G75*
G02*
X117925000Y-76150000I0J-225000D01*
G01*
X117925000Y-76600000D01*
G75*
G02*
X117700000Y-76825000I-225000J0D01*
G01*
X117200000Y-76825000D01*
G75*
G02*
X116975000Y-76600000I0J225000D01*
G01*
X116975000Y-76150000D01*
G75*
G02*
X117200000Y-75925000I225000J0D01*
G01*
G37*
%TD.AperFunction*%
%TO.P,C10,2*%
%TO.N,GND*%
%TA.AperFunction,SMDPad,CuDef*%
G36*
G01*
X117200000Y-77475000D02*
X117700000Y-77475000D01*
G75*
G02*
X117925000Y-77700000I0J-225000D01*
G01*
X117925000Y-78150000D01*
G75*
G02*
X117700000Y-78375000I-225000J0D01*
G01*
X117200000Y-78375000D01*
G75*
G02*
X116975000Y-78150000I0J225000D01*
G01*
X116975000Y-77700000D01*
G75*
G02*
X117200000Y-77475000I225000J0D01*
G01*
G37*
%TD.AperFunction*%
%TD*%
%TO.P,R6,1*%
%TO.N,VIO*%
%TA.AperFunction,SMDPad,CuDef*%
G36*
G01*
X111965000Y-69120000D02*
X112335000Y-69120000D01*
G75*
G02*
X112470000Y-69255000I0J-135000D01*
G01*
X112470000Y-69525000D01*
G75*
G02*
X112335000Y-69660000I-135000J0D01*
G01*
X111965000Y-69660000D01*
G75*
G02*
X111830000Y-69525000I0J135000D01*
G01*
X111830000Y-69255000D01*
G75*
G02*
X111965000Y-69120000I135000J0D01*
G01*
G37*
%TD.AperFunction*%
%TO.P,R6,2*%
%TO.N,Net-(R6-Pad2)*%
%TA.AperFunction,SMDPad,CuDef*%
G36*
G01*
X111965000Y-70140000D02*
X112335000Y-70140000D01*
G75*
G02*
X112470000Y-70275000I0J-135000D01*
G01*
X112470000Y-70545000D01*
G75*
G02*
X112335000Y-70680000I-135000J0D01*
G01*
X111965000Y-70680000D01*
G75*
G02*
X111830000Y-70545000I0J135000D01*
G01*
X111830000Y-70275000D01*
G75*
G02*
X111965000Y-70140000I135000J0D01*
G01*
G37*
%TD.AperFunction*%
%TD*%
%TO.P,U3,1*%
%TO.N,Net-(U3-Pad1)*%
%TA.AperFunction,SMDPad,CuDef*%
G36*
G01*
X116637500Y-68100000D02*
X116762500Y-68100000D01*
G75*
G02*
X116825000Y-68162500I0J-62500D01*
G01*
X116825000Y-68862500D01*
G75*
G02*
X116762500Y-68925000I-62500J0D01*
G01*
X116637500Y-68925000D01*
G75*
G02*
X116575000Y-68862500I0J62500D01*
G01*
X116575000Y-68162500D01*
G75*
G02*
X116637500Y-68100000I62500J0D01*
G01*
G37*
%TD.AperFunction*%
%TO.P,U3,2*%
%TO.N,GND*%
%TA.AperFunction,SMDPad,CuDef*%
G36*
G01*
X116137500Y-68100000D02*
X116262500Y-68100000D01*
G75*
G02*
X116325000Y-68162500I0J-62500D01*
G01*
X116325000Y-68862500D01*
G75*
G02*
X116262500Y-68925000I-62500J0D01*
G01*
X116137500Y-68925000D01*
G75*
G02*
X116075000Y-68862500I0J62500D01*
G01*
X116075000Y-68162500D01*
G75*
G02*
X116137500Y-68100000I62500J0D01*
G01*
G37*
%TD.AperFunction*%
%TO.P,U3,3*%
%TO.N,Net-(R4-Pad2)*%
%TA.AperFunction,SMDPad,CuDef*%
G36*
G01*
X115637500Y-68100000D02*
X115762500Y-68100000D01*
G75*
G02*
X115825000Y-68162500I0J-62500D01*
G01*
X115825000Y-68862500D01*
G75*
G02*
X115762500Y-68925000I-62500J0D01*
G01*
X115637500Y-68925000D01*
G75*
G02*
X115575000Y-68862500I0J62500D01*
G01*
X115575000Y-68162500D01*
G75*
G02*
X115637500Y-68100000I62500J0D01*
G01*
G37*
%TD.AperFunction*%
%TO.P,U3,4*%
%TO.N,Net-(R3-Pad2)*%
%TA.AperFunction,SMDPad,CuDef*%
G36*
G01*
X115137500Y-68100000D02*
X115262500Y-68100000D01*
G75*
G02*
X115325000Y-68162500I0J-62500D01*
G01*
X115325000Y-68862500D01*
G75*
G02*
X115262500Y-68925000I-62500J0D01*
G01*
X115137500Y-68925000D01*
G75*
G02*
X115075000Y-68862500I0J62500D01*
G01*
X115075000Y-68162500D01*
G75*
G02*
X115137500Y-68100000I62500J0D01*
G01*
G37*
%TD.AperFunction*%
%TO.P,U3,5*%
%TO.N,VIO*%
%TA.AperFunction,SMDPad,CuDef*%
G36*
G01*
X114637500Y-68100000D02*
X114762500Y-68100000D01*
G75*
G02*
X114825000Y-68162500I0J-62500D01*
G01*
X114825000Y-68862500D01*
G75*
G02*
X114762500Y-68925000I-62500J0D01*
G01*
X114637500Y-68925000D01*
G75*
G02*
X114575000Y-68862500I0J62500D01*
G01*
X114575000Y-68162500D01*
G75*
G02*
X114637500Y-68100000I62500J0D01*
G01*
G37*
%TD.AperFunction*%
%TO.P,U3,6*%
%TA.AperFunction,SMDPad,CuDef*%
G36*
G01*
X114137500Y-68100000D02*
X114262500Y-68100000D01*
G75*
G02*
X114325000Y-68162500I0J-62500D01*
G01*
X114325000Y-68862500D01*
G75*
G02*
X114262500Y-68925000I-62500J0D01*
G01*
X114137500Y-68925000D01*
G75*
G02*
X114075000Y-68862500I0J62500D01*
G01*
X114075000Y-68162500D01*
G75*
G02*
X114137500Y-68100000I62500J0D01*
G01*
G37*
%TD.AperFunction*%
%TO.P,U3,7*%
%TA.AperFunction,SMDPad,CuDef*%
G36*
G01*
X113162500Y-69075000D02*
X113862500Y-69075000D01*
G75*
G02*
X113925000Y-69137500I0J-62500D01*
G01*
X113925000Y-69262500D01*
G75*
G02*
X113862500Y-69325000I-62500J0D01*
G01*
X113162500Y-69325000D01*
G75*
G02*
X113100000Y-69262500I0J62500D01*
G01*
X113100000Y-69137500D01*
G75*
G02*
X113162500Y-69075000I62500J0D01*
G01*
G37*
%TD.AperFunction*%
%TO.P,U3,8*%
%TA.AperFunction,SMDPad,CuDef*%
G36*
G01*
X113162500Y-69575000D02*
X113862500Y-69575000D01*
G75*
G02*
X113925000Y-69637500I0J-62500D01*
G01*
X113925000Y-69762500D01*
G75*
G02*
X113862500Y-69825000I-62500J0D01*
G01*
X113162500Y-69825000D01*
G75*
G02*
X113100000Y-69762500I0J62500D01*
G01*
X113100000Y-69637500D01*
G75*
G02*
X113162500Y-69575000I62500J0D01*
G01*
G37*
%TD.AperFunction*%
%TO.P,U3,9*%
%TO.N,Net-(R6-Pad2)*%
%TA.AperFunction,SMDPad,CuDef*%
G36*
G01*
X113162500Y-70075000D02*
X113862500Y-70075000D01*
G75*
G02*
X113925000Y-70137500I0J-62500D01*
G01*
X113925000Y-70262500D01*
G75*
G02*
X113862500Y-70325000I-62500J0D01*
G01*
X113162500Y-70325000D01*
G75*
G02*
X113100000Y-70262500I0J62500D01*
G01*
X113100000Y-70137500D01*
G75*
G02*
X113162500Y-70075000I62500J0D01*
G01*
G37*
%TD.AperFunction*%
%TO.P,U3,10*%
%TO.N,Net-(U3-Pad10)*%
%TA.AperFunction,SMDPad,CuDef*%
G36*
G01*
X113162500Y-70575000D02*
X113862500Y-70575000D01*
G75*
G02*
X113925000Y-70637500I0J-62500D01*
G01*
X113925000Y-70762500D01*
G75*
G02*
X113862500Y-70825000I-62500J0D01*
G01*
X113162500Y-70825000D01*
G75*
G02*
X113100000Y-70762500I0J62500D01*
G01*
X113100000Y-70637500D01*
G75*
G02*
X113162500Y-70575000I62500J0D01*
G01*
G37*
%TD.AperFunction*%
%TO.P,U3,11*%
%TO.N,Net-(U3-Pad11)*%
%TA.AperFunction,SMDPad,CuDef*%
G36*
G01*
X113162500Y-71075000D02*
X113862500Y-71075000D01*
G75*
G02*
X113925000Y-71137500I0J-62500D01*
G01*
X113925000Y-71262500D01*
G75*
G02*
X113862500Y-71325000I-62500J0D01*
G01*
X113162500Y-71325000D01*
G75*
G02*
X113100000Y-71262500I0J62500D01*
G01*
X113100000Y-71137500D01*
G75*
G02*
X113162500Y-71075000I62500J0D01*
G01*
G37*
%TD.AperFunction*%
%TO.P,U3,12*%
%TO.N,Net-(U3-Pad12)*%
%TA.AperFunction,SMDPad,CuDef*%
G36*
G01*
X113162500Y-71575000D02*
X113862500Y-71575000D01*
G75*
G02*
X113925000Y-71637500I0J-62500D01*
G01*
X113925000Y-71762500D01*
G75*
G02*
X113862500Y-71825000I-62500J0D01*
G01*
X113162500Y-71825000D01*
G75*
G02*
X113100000Y-71762500I0J62500D01*
G01*
X113100000Y-71637500D01*
G75*
G02*
X113162500Y-71575000I62500J0D01*
G01*
G37*
%TD.AperFunction*%
%TO.P,U3,13*%
%TO.N,Net-(D4-Pad1)*%
%TA.AperFunction,SMDPad,CuDef*%
G36*
G01*
X114137500Y-71975000D02*
X114262500Y-71975000D01*
G75*
G02*
X114325000Y-72037500I0J-62500D01*
G01*
X114325000Y-72737500D01*
G75*
G02*
X114262500Y-72800000I-62500J0D01*
G01*
X114137500Y-72800000D01*
G75*
G02*
X114075000Y-72737500I0J62500D01*
G01*
X114075000Y-72037500D01*
G75*
G02*
X114137500Y-71975000I62500J0D01*
G01*
G37*
%TD.AperFunction*%
%TO.P,U3,14*%
%TO.N,Net-(D3-Pad1)*%
%TA.AperFunction,SMDPad,CuDef*%
G36*
G01*
X114637500Y-71975000D02*
X114762500Y-71975000D01*
G75*
G02*
X114825000Y-72037500I0J-62500D01*
G01*
X114825000Y-72737500D01*
G75*
G02*
X114762500Y-72800000I-62500J0D01*
G01*
X114637500Y-72800000D01*
G75*
G02*
X114575000Y-72737500I0J62500D01*
G01*
X114575000Y-72037500D01*
G75*
G02*
X114637500Y-71975000I62500J0D01*
G01*
G37*
%TD.AperFunction*%
%TO.P,U3,15*%
%TO.N,Net-(U3-Pad15)*%
%TA.AperFunction,SMDPad,CuDef*%
G36*
G01*
X115137500Y-71975000D02*
X115262500Y-71975000D01*
G75*
G02*
X115325000Y-72037500I0J-62500D01*
G01*
X115325000Y-72737500D01*
G75*
G02*
X115262500Y-72800000I-62500J0D01*
G01*
X115137500Y-72800000D01*
G75*
G02*
X115075000Y-72737500I0J62500D01*
G01*
X115075000Y-72037500D01*
G75*
G02*
X115137500Y-71975000I62500J0D01*
G01*
G37*
%TD.AperFunction*%
%TO.P,U3,16*%
%TO.N,Net-(C10-Pad1)*%
%TA.AperFunction,SMDPad,CuDef*%
G36*
G01*
X115637500Y-71975000D02*
X115762500Y-71975000D01*
G75*
G02*
X115825000Y-72037500I0J-62500D01*
G01*
X115825000Y-72737500D01*
G75*
G02*
X115762500Y-72800000I-62500J0D01*
G01*
X115637500Y-72800000D01*
G75*
G02*
X115575000Y-72737500I0J62500D01*
G01*
X115575000Y-72037500D01*
G75*
G02*
X115637500Y-71975000I62500J0D01*
G01*
G37*
%TD.AperFunction*%
%TO.P,U3,17*%
%TO.N,Net-(U3-Pad17)*%
%TA.AperFunction,SMDPad,CuDef*%
G36*
G01*
X116137500Y-71975000D02*
X116262500Y-71975000D01*
G75*
G02*
X116325000Y-72037500I0J-62500D01*
G01*
X116325000Y-72737500D01*
G75*
G02*
X116262500Y-72800000I-62500J0D01*
G01*
X116137500Y-72800000D01*
G75*
G02*
X116075000Y-72737500I0J62500D01*
G01*
X116075000Y-72037500D01*
G75*
G02*
X116137500Y-71975000I62500J0D01*
G01*
G37*
%TD.AperFunction*%
%TO.P,U3,18*%
%TO.N,Net-(U3-Pad18)*%
%TA.AperFunction,SMDPad,CuDef*%
G36*
G01*
X116637500Y-71975000D02*
X116762500Y-71975000D01*
G75*
G02*
X116825000Y-72037500I0J-62500D01*
G01*
X116825000Y-72737500D01*
G75*
G02*
X116762500Y-72800000I-62500J0D01*
G01*
X116637500Y-72800000D01*
G75*
G02*
X116575000Y-72737500I0J62500D01*
G01*
X116575000Y-72037500D01*
G75*
G02*
X116637500Y-71975000I62500J0D01*
G01*
G37*
%TD.AperFunction*%
%TO.P,U3,19*%
%TO.N,Net-(U3-Pad19)*%
%TA.AperFunction,SMDPad,CuDef*%
G36*
G01*
X117037500Y-71575000D02*
X117737500Y-71575000D01*
G75*
G02*
X117800000Y-71637500I0J-62500D01*
G01*
X117800000Y-71762500D01*
G75*
G02*
X117737500Y-71825000I-62500J0D01*
G01*
X117037500Y-71825000D01*
G75*
G02*
X116975000Y-71762500I0J62500D01*
G01*
X116975000Y-71637500D01*
G75*
G02*
X117037500Y-71575000I62500J0D01*
G01*
G37*
%TD.AperFunction*%
%TO.P,U3,20*%
%TO.N,UART_TXD*%
%TA.AperFunction,SMDPad,CuDef*%
G36*
G01*
X117037500Y-71075000D02*
X117737500Y-71075000D01*
G75*
G02*
X117800000Y-71137500I0J-62500D01*
G01*
X117800000Y-71262500D01*
G75*
G02*
X117737500Y-71325000I-62500J0D01*
G01*
X117037500Y-71325000D01*
G75*
G02*
X116975000Y-71262500I0J62500D01*
G01*
X116975000Y-71137500D01*
G75*
G02*
X117037500Y-71075000I62500J0D01*
G01*
G37*
%TD.AperFunction*%
%TO.P,U3,21*%
%TO.N,UART_RXD*%
%TA.AperFunction,SMDPad,CuDef*%
G36*
G01*
X117037500Y-70575000D02*
X117737500Y-70575000D01*
G75*
G02*
X117800000Y-70637500I0J-62500D01*
G01*
X117800000Y-70762500D01*
G75*
G02*
X117737500Y-70825000I-62500J0D01*
G01*
X117037500Y-70825000D01*
G75*
G02*
X116975000Y-70762500I0J62500D01*
G01*
X116975000Y-70637500D01*
G75*
G02*
X117037500Y-70575000I62500J0D01*
G01*
G37*
%TD.AperFunction*%
%TO.P,U3,22*%
%TO.N,Net-(U3-Pad22)*%
%TA.AperFunction,SMDPad,CuDef*%
G36*
G01*
X117037500Y-70075000D02*
X117737500Y-70075000D01*
G75*
G02*
X117800000Y-70137500I0J-62500D01*
G01*
X117800000Y-70262500D01*
G75*
G02*
X117737500Y-70325000I-62500J0D01*
G01*
X117037500Y-70325000D01*
G75*
G02*
X116975000Y-70262500I0J62500D01*
G01*
X116975000Y-70137500D01*
G75*
G02*
X117037500Y-70075000I62500J0D01*
G01*
G37*
%TD.AperFunction*%
%TO.P,U3,23*%
%TO.N,Net-(U3-Pad23)*%
%TA.AperFunction,SMDPad,CuDef*%
G36*
G01*
X117037500Y-69575000D02*
X117737500Y-69575000D01*
G75*
G02*
X117800000Y-69637500I0J-62500D01*
G01*
X117800000Y-69762500D01*
G75*
G02*
X117737500Y-69825000I-62500J0D01*
G01*
X117037500Y-69825000D01*
G75*
G02*
X116975000Y-69762500I0J62500D01*
G01*
X116975000Y-69637500D01*
G75*
G02*
X117037500Y-69575000I62500J0D01*
G01*
G37*
%TD.AperFunction*%
%TO.P,U3,24*%
%TO.N,Net-(U3-Pad24)*%
%TA.AperFunction,SMDPad,CuDef*%
G36*
G01*
X117037500Y-69075000D02*
X117737500Y-69075000D01*
G75*
G02*
X117800000Y-69137500I0J-62500D01*
G01*
X117800000Y-69262500D01*
G75*
G02*
X117737500Y-69325000I-62500J0D01*
G01*
X117037500Y-69325000D01*
G75*
G02*
X116975000Y-69262500I0J62500D01*
G01*
X116975000Y-69137500D01*
G75*
G02*
X117037500Y-69075000I62500J0D01*
G01*
G37*
%TD.AperFunction*%
D15*
%TO.P,U3,25*%
%TO.N,GND*%
X115450000Y-70450000D03*
%TD*%
%TO.P,D2,1*%
%TO.N,Net-(D2-Pad1)*%
%TA.AperFunction,SMDPad,CuDef*%
G36*
G01*
X115955000Y-62927500D02*
X115955000Y-63272500D01*
G75*
G02*
X115807500Y-63420000I-147500J0D01*
G01*
X115512500Y-63420000D01*
G75*
G02*
X115365000Y-63272500I0J147500D01*
G01*
X115365000Y-62927500D01*
G75*
G02*
X115512500Y-62780000I147500J0D01*
G01*
X115807500Y-62780000D01*
G75*
G02*
X115955000Y-62927500I0J-147500D01*
G01*
G37*
%TD.AperFunction*%
%TO.P,D2,2*%
%TO.N,VIO*%
%TA.AperFunction,SMDPad,CuDef*%
G36*
G01*
X114985000Y-62927500D02*
X114985000Y-63272500D01*
G75*
G02*
X114837500Y-63420000I-147500J0D01*
G01*
X114542500Y-63420000D01*
G75*
G02*
X114395000Y-63272500I0J147500D01*
G01*
X114395000Y-62927500D01*
G75*
G02*
X114542500Y-62780000I147500J0D01*
G01*
X114837500Y-62780000D01*
G75*
G02*
X114985000Y-62927500I0J-147500D01*
G01*
G37*
%TD.AperFunction*%
%TD*%
%TO.P,D3,2*%
%TO.N,Net-(D3-Pad2)*%
%TA.AperFunction,SMDPad,CuDef*%
G36*
G01*
X114477500Y-76490000D02*
X114822500Y-76490000D01*
G75*
G02*
X114970000Y-76637500I0J-147500D01*
G01*
X114970000Y-76932500D01*
G75*
G02*
X114822500Y-77080000I-147500J0D01*
G01*
X114477500Y-77080000D01*
G75*
G02*
X114330000Y-76932500I0J147500D01*
G01*
X114330000Y-76637500D01*
G75*
G02*
X114477500Y-76490000I147500J0D01*
G01*
G37*
%TD.AperFunction*%
%TO.P,D3,1*%
%TO.N,Net-(D3-Pad1)*%
%TA.AperFunction,SMDPad,CuDef*%
G36*
G01*
X114477500Y-75520000D02*
X114822500Y-75520000D01*
G75*
G02*
X114970000Y-75667500I0J-147500D01*
G01*
X114970000Y-75962500D01*
G75*
G02*
X114822500Y-76110000I-147500J0D01*
G01*
X114477500Y-76110000D01*
G75*
G02*
X114330000Y-75962500I0J147500D01*
G01*
X114330000Y-75667500D01*
G75*
G02*
X114477500Y-75520000I147500J0D01*
G01*
G37*
%TD.AperFunction*%
%TD*%
%TO.P,D4,1*%
%TO.N,Net-(D4-Pad1)*%
%TA.AperFunction,SMDPad,CuDef*%
G36*
G01*
X113527500Y-75520000D02*
X113872500Y-75520000D01*
G75*
G02*
X114020000Y-75667500I0J-147500D01*
G01*
X114020000Y-75962500D01*
G75*
G02*
X113872500Y-76110000I-147500J0D01*
G01*
X113527500Y-76110000D01*
G75*
G02*
X113380000Y-75962500I0J147500D01*
G01*
X113380000Y-75667500D01*
G75*
G02*
X113527500Y-75520000I147500J0D01*
G01*
G37*
%TD.AperFunction*%
%TO.P,D4,2*%
%TO.N,Net-(D4-Pad2)*%
%TA.AperFunction,SMDPad,CuDef*%
G36*
G01*
X113527500Y-76490000D02*
X113872500Y-76490000D01*
G75*
G02*
X114020000Y-76637500I0J-147500D01*
G01*
X114020000Y-76932500D01*
G75*
G02*
X113872500Y-77080000I-147500J0D01*
G01*
X113527500Y-77080000D01*
G75*
G02*
X113380000Y-76932500I0J147500D01*
G01*
X113380000Y-76637500D01*
G75*
G02*
X113527500Y-76490000I147500J0D01*
G01*
G37*
%TD.AperFunction*%
%TD*%
%TO.P,R1,1*%
%TO.N,VIO*%
%TA.AperFunction,SMDPad,CuDef*%
G36*
G01*
X114835000Y-79030000D02*
X114465000Y-79030000D01*
G75*
G02*
X114330000Y-78895000I0J135000D01*
G01*
X114330000Y-78625000D01*
G75*
G02*
X114465000Y-78490000I135000J0D01*
G01*
X114835000Y-78490000D01*
G75*
G02*
X114970000Y-78625000I0J-135000D01*
G01*
X114970000Y-78895000D01*
G75*
G02*
X114835000Y-79030000I-135000J0D01*
G01*
G37*
%TD.AperFunction*%
%TO.P,R1,2*%
%TO.N,Net-(D3-Pad2)*%
%TA.AperFunction,SMDPad,CuDef*%
G36*
G01*
X114835000Y-78010000D02*
X114465000Y-78010000D01*
G75*
G02*
X114330000Y-77875000I0J135000D01*
G01*
X114330000Y-77605000D01*
G75*
G02*
X114465000Y-77470000I135000J0D01*
G01*
X114835000Y-77470000D01*
G75*
G02*
X114970000Y-77605000I0J-135000D01*
G01*
X114970000Y-77875000D01*
G75*
G02*
X114835000Y-78010000I-135000J0D01*
G01*
G37*
%TD.AperFunction*%
%TD*%
%TO.P,R2,2*%
%TO.N,VIO*%
%TA.AperFunction,SMDPad,CuDef*%
G36*
G01*
X113515000Y-78490000D02*
X113885000Y-78490000D01*
G75*
G02*
X114020000Y-78625000I0J-135000D01*
G01*
X114020000Y-78895000D01*
G75*
G02*
X113885000Y-79030000I-135000J0D01*
G01*
X113515000Y-79030000D01*
G75*
G02*
X113380000Y-78895000I0J135000D01*
G01*
X113380000Y-78625000D01*
G75*
G02*
X113515000Y-78490000I135000J0D01*
G01*
G37*
%TD.AperFunction*%
%TO.P,R2,1*%
%TO.N,Net-(D4-Pad2)*%
%TA.AperFunction,SMDPad,CuDef*%
G36*
G01*
X113515000Y-77470000D02*
X113885000Y-77470000D01*
G75*
G02*
X114020000Y-77605000I0J-135000D01*
G01*
X114020000Y-77875000D01*
G75*
G02*
X113885000Y-78010000I-135000J0D01*
G01*
X113515000Y-78010000D01*
G75*
G02*
X113380000Y-77875000I0J135000D01*
G01*
X113380000Y-77605000D01*
G75*
G02*
X113515000Y-77470000I135000J0D01*
G01*
G37*
%TD.AperFunction*%
%TD*%
%TO.P,R5,1*%
%TO.N,Net-(D2-Pad1)*%
%TA.AperFunction,SMDPad,CuDef*%
G36*
G01*
X114395000Y-64310000D02*
X114395000Y-63940000D01*
G75*
G02*
X114530000Y-63805000I135000J0D01*
G01*
X114800000Y-63805000D01*
G75*
G02*
X114935000Y-63940000I0J-135000D01*
G01*
X114935000Y-64310000D01*
G75*
G02*
X114800000Y-64445000I-135000J0D01*
G01*
X114530000Y-64445000D01*
G75*
G02*
X114395000Y-64310000I0J135000D01*
G01*
G37*
%TD.AperFunction*%
%TO.P,R5,2*%
%TO.N,GND*%
%TA.AperFunction,SMDPad,CuDef*%
G36*
G01*
X115415000Y-64310000D02*
X115415000Y-63940000D01*
G75*
G02*
X115550000Y-63805000I135000J0D01*
G01*
X115820000Y-63805000D01*
G75*
G02*
X115955000Y-63940000I0J-135000D01*
G01*
X115955000Y-64310000D01*
G75*
G02*
X115820000Y-64445000I-135000J0D01*
G01*
X115550000Y-64445000D01*
G75*
G02*
X115415000Y-64310000I0J135000D01*
G01*
G37*
%TD.AperFunction*%
%TD*%
D16*
%TO.P,J1,6*%
%TO.N,GND*%
X106600000Y-62950000D03*
X108900000Y-62950000D03*
D17*
X104000000Y-62950000D03*
X111500000Y-62950000D03*
D18*
%TO.P,J1,5*%
X106450000Y-65800000D03*
%TO.P,J1,4*%
%TO.N,Net-(J1-Pad4)*%
X107100000Y-65800000D03*
%TO.P,J1,3*%
%TO.N,USB_DP*%
X107750000Y-65800000D03*
%TO.P,J1,2*%
%TO.N,USB_DM*%
X108400000Y-65800000D03*
%TO.P,J1,1*%
%TO.N,VBUS*%
X109050000Y-65800000D03*
%TD*%
D19*
%TO.N,VBUS*%
X110250000Y-71000000D03*
%TO.N,Net-(R3-Pad2)*%
X108750000Y-69250000D03*
%TO.N,Net-(R4-Pad2)*%
X107250000Y-68750000D03*
D20*
%TO.N,GND*%
X105500000Y-79500000D03*
X103350000Y-79200000D03*
X103350000Y-77650000D03*
%TO.N,UART_TXD*%
X118250000Y-73500000D03*
D19*
%TO.N,Net-(R3-Pad2)*%
X111700000Y-68250000D03*
%TO.N,Net-(R4-Pad2)*%
X111700000Y-66600000D03*
%TO.N,VBUS*%
X110000000Y-68250000D03*
D20*
%TO.N,VIO*%
X107750000Y-73250000D03*
X107750000Y-79400000D03*
X110500000Y-73750000D03*
X105000000Y-73750000D03*
X107750000Y-75000000D03*
D19*
X112120000Y-69420000D03*
X115700000Y-65900000D03*
%TD*%
D21*
%TO.N,GND*%
X116200000Y-69700000D02*
X115450000Y-70450000D01*
X116200000Y-68512500D02*
X116200000Y-69700000D01*
X116200000Y-66975000D02*
X117275000Y-65900000D01*
X116200000Y-68512500D02*
X116200000Y-66975000D01*
D22*
X106450000Y-63100000D02*
X106600000Y-62950000D01*
X106450000Y-65800000D02*
X106450000Y-63100000D01*
X104000000Y-62950000D02*
X111500000Y-62950000D01*
D21*
%TO.N,USB_DP*%
X107750000Y-67240000D02*
X107250000Y-67740000D01*
X107750000Y-65800000D02*
X107750000Y-67240000D01*
X107240000Y-67750000D02*
X107250000Y-67740000D01*
X105230000Y-67750000D02*
X107240000Y-67750000D01*
D23*
%TO.N,Net-(C5-Pad1)*%
X110050000Y-79319998D02*
X110050000Y-79400000D01*
D22*
X103350000Y-74687500D02*
X103350000Y-76125000D01*
X110050000Y-79139998D02*
X110050000Y-79400000D01*
X107035002Y-76125000D02*
X110050000Y-79139998D01*
X103350000Y-76125000D02*
X107035002Y-76125000D01*
D21*
%TO.N,USB_DM*%
X108400000Y-67890000D02*
X108750000Y-68240000D01*
X108400000Y-65800000D02*
X108400000Y-67890000D01*
X105230000Y-68750000D02*
X105250000Y-68750000D01*
X105875001Y-69375001D02*
X107624999Y-69375001D01*
X105250000Y-68750000D02*
X105875001Y-69375001D01*
X108750000Y-68250000D02*
X108750000Y-68240000D01*
X107624999Y-69375001D02*
X108750000Y-68250000D01*
D22*
%TO.N,Net-(D1-Pad2)*%
X107550000Y-71000000D02*
X107150000Y-70600000D01*
X108712500Y-71000000D02*
X107550000Y-71000000D01*
D21*
%TO.N,Net-(D2-Pad1)*%
X115660000Y-63130000D02*
X115660000Y-63100000D01*
X114665000Y-64125000D02*
X115660000Y-63130000D01*
D22*
%TO.N,5V*%
X122790000Y-68500000D02*
X122790000Y-71040000D01*
D21*
%TO.N,UART_TXD*%
X118250000Y-71601978D02*
X118250000Y-73500000D01*
X117848022Y-71200000D02*
X118250000Y-71601978D01*
X117387500Y-71200000D02*
X117848022Y-71200000D01*
%TO.N,UART_RXD*%
X121614999Y-77484999D02*
X122790000Y-78660000D01*
X121614999Y-73205997D02*
X121614999Y-77484999D01*
X120814001Y-72404999D02*
X121614999Y-73205997D01*
X119685999Y-72404999D02*
X120814001Y-72404999D01*
X119074999Y-71274999D02*
X119074999Y-71793999D01*
X119074999Y-71793999D02*
X119685999Y-72404999D01*
X118500000Y-70700000D02*
X119074999Y-71274999D01*
X117387500Y-70700000D02*
X118500000Y-70700000D01*
%TO.N,Net-(R3-Pad2)*%
X111700000Y-68250000D02*
X113000000Y-68250000D01*
X113000000Y-68250000D02*
X113700000Y-67550000D01*
X115200000Y-67951998D02*
X115200000Y-68512500D01*
X114798002Y-67550000D02*
X115200000Y-67951998D01*
X113700000Y-67550000D02*
X114798002Y-67550000D01*
X110690000Y-69260000D02*
X111700000Y-68250000D01*
X108750000Y-69260000D02*
X110690000Y-69260000D01*
%TO.N,Net-(R4-Pad2)*%
X115700000Y-67815588D02*
X115700000Y-68512500D01*
X114484412Y-66600000D02*
X115700000Y-67815588D01*
X111700000Y-66600000D02*
X114484412Y-66600000D01*
D22*
%TO.N,VBUS*%
X109050000Y-65800000D02*
X109050000Y-67300000D01*
X109050000Y-67300000D02*
X109639999Y-67889999D01*
X109639999Y-67889999D02*
X110000000Y-68250000D01*
X110000000Y-68250000D02*
X110000000Y-68250000D01*
%TO.N,Net-(D1-Pad1)*%
X103350000Y-71100000D02*
X103850000Y-70600000D01*
X103350000Y-73112500D02*
X103350000Y-71100000D01*
D23*
%TO.N,VIO*%
X107750000Y-79400000D02*
X107750000Y-79400000D01*
D22*
X107100000Y-73750000D02*
X107750000Y-73100000D01*
X105000000Y-73750000D02*
X107100000Y-73750000D01*
X108400000Y-73750000D02*
X107750000Y-73100000D01*
X110500000Y-73750000D02*
X108400000Y-73750000D01*
X107750000Y-75000000D02*
X107750000Y-73100000D01*
X107750000Y-79660002D02*
X107750000Y-79400000D01*
X106560001Y-80850001D02*
X107750000Y-79660002D01*
X103475001Y-80850001D02*
X106560001Y-80850001D01*
X103350000Y-80725000D02*
X103475001Y-80850001D01*
D21*
X114650000Y-78760000D02*
X113700000Y-78760000D01*
X110500000Y-73750000D02*
X110500000Y-74010000D01*
X111450001Y-70089999D02*
X112120000Y-69420000D01*
X111450001Y-72799999D02*
X111450001Y-70089999D01*
X110500000Y-73750000D02*
X111450001Y-72799999D01*
X112340000Y-69200000D02*
X112150000Y-69390000D01*
X113512500Y-69200000D02*
X112340000Y-69200000D01*
X113512500Y-69200000D02*
X113512500Y-69700000D01*
X113512500Y-69200000D02*
X114200000Y-68512500D01*
X114700000Y-68512500D02*
X114200000Y-68512500D01*
X112120000Y-69420000D02*
X112150000Y-69390000D01*
X110500000Y-75560000D02*
X110500000Y-73750000D01*
X113700000Y-78760000D02*
X110500000Y-75560000D01*
X114069990Y-64694990D02*
X114069990Y-63720010D01*
X114069990Y-63720010D02*
X114690000Y-63100000D01*
X115275000Y-65900000D02*
X114069990Y-64694990D01*
X115725000Y-65900000D02*
X115275000Y-65900000D01*
%TO.N,Net-(C10-Pad1)*%
X115700000Y-74625000D02*
X117450000Y-76375000D01*
X115700000Y-72387500D02*
X115700000Y-74625000D01*
%TO.N,Net-(D3-Pad2)*%
X114650000Y-76785000D02*
X114650000Y-77740000D01*
%TO.N,Net-(D3-Pad1)*%
X114700000Y-75765000D02*
X114650000Y-75815000D01*
X114700000Y-72387500D02*
X114700000Y-75765000D01*
%TO.N,Net-(D4-Pad1)*%
X113700000Y-75050000D02*
X113700000Y-75815000D01*
X114200000Y-72387500D02*
X114200000Y-74550000D01*
X114200000Y-74550000D02*
X113700000Y-75050000D01*
%TO.N,Net-(D4-Pad2)*%
X113700000Y-76785000D02*
X113700000Y-77740000D01*
%TO.N,Net-(R6-Pad2)*%
X112360000Y-70200000D02*
X112150000Y-70410000D01*
X113512500Y-70200000D02*
X112360000Y-70200000D01*
%TD*%
D24*
%TO.N,GND*%
X122051010Y-60717192D02*
X122581036Y-60877216D01*
X123069879Y-61137140D01*
X123498931Y-61487065D01*
X123851844Y-61913664D01*
X124115173Y-62400681D01*
X124278894Y-62929578D01*
X124340000Y-63510960D01*
X124340001Y-80967711D01*
X124330420Y-81065424D01*
X124311420Y-81128357D01*
X124280554Y-81186406D01*
X124239011Y-81237343D01*
X124188356Y-81279248D01*
X124130529Y-81310515D01*
X124067728Y-81329956D01*
X123972165Y-81340000D01*
X107321580Y-81340000D01*
X107623508Y-81038072D01*
X108500000Y-81038072D01*
X108624482Y-81025812D01*
X108744180Y-80989502D01*
X108854494Y-80930537D01*
X108900000Y-80893191D01*
X108945506Y-80930537D01*
X109055820Y-80989502D01*
X109175518Y-81025812D01*
X109300000Y-81038072D01*
X110800000Y-81038072D01*
X110924482Y-81025812D01*
X111044180Y-80989502D01*
X111154494Y-80930537D01*
X111251185Y-80851185D01*
X111330537Y-80754494D01*
X111389502Y-80644180D01*
X111425812Y-80524482D01*
X111438072Y-80400000D01*
X111438072Y-78400000D01*
X111425812Y-78275518D01*
X111389502Y-78155820D01*
X111330537Y-78045506D01*
X111251185Y-77948815D01*
X111154494Y-77869463D01*
X111044180Y-77810498D01*
X110924482Y-77774188D01*
X110800000Y-77761928D01*
X109923509Y-77761928D01*
X108126079Y-75964499D01*
X108240256Y-75917205D01*
X108409774Y-75803937D01*
X108553937Y-75659774D01*
X108667205Y-75490256D01*
X108745226Y-75301898D01*
X108785000Y-75101939D01*
X108785000Y-74898061D01*
X108753176Y-74738072D01*
X109650000Y-74738072D01*
X109740000Y-74729208D01*
X109740000Y-75522677D01*
X109736324Y-75560000D01*
X109740000Y-75597322D01*
X109740000Y-75597332D01*
X109750997Y-75708985D01*
X109794358Y-75851928D01*
X109794454Y-75852246D01*
X109865026Y-75984276D01*
X109874013Y-75995226D01*
X109959999Y-76100001D01*
X109989003Y-76123804D01*
X112741928Y-78876731D01*
X112741928Y-78895000D01*
X112756782Y-79045819D01*
X112800775Y-79190842D01*
X112872214Y-79324496D01*
X112968356Y-79441644D01*
X113085504Y-79537786D01*
X113219158Y-79609225D01*
X113364181Y-79653218D01*
X113515000Y-79668072D01*
X113885000Y-79668072D01*
X114035819Y-79653218D01*
X114175000Y-79610997D01*
X114314181Y-79653218D01*
X114465000Y-79668072D01*
X114835000Y-79668072D01*
X114985819Y-79653218D01*
X115130842Y-79609225D01*
X115264496Y-79537786D01*
X115381644Y-79441644D01*
X115477786Y-79324496D01*
X115549225Y-79190842D01*
X115593218Y-79045819D01*
X115596067Y-79016890D01*
X118808524Y-79016890D01*
X118853175Y-79164099D01*
X118978359Y-79426920D01*
X119152412Y-79660269D01*
X119368645Y-79855178D01*
X119618748Y-80004157D01*
X119893109Y-80101481D01*
X120123000Y-79980814D01*
X120123000Y-78787000D01*
X118929845Y-78787000D01*
X118808524Y-79016890D01*
X115596067Y-79016890D01*
X115608072Y-78895000D01*
X115608072Y-78625000D01*
X115593218Y-78474181D01*
X115563132Y-78375000D01*
X116336928Y-78375000D01*
X116349188Y-78499482D01*
X116385498Y-78619180D01*
X116444463Y-78729494D01*
X116523815Y-78826185D01*
X116620506Y-78905537D01*
X116730820Y-78964502D01*
X116850518Y-79000812D01*
X116975000Y-79013072D01*
X117164250Y-79010000D01*
X117323000Y-78851250D01*
X117323000Y-78052000D01*
X117577000Y-78052000D01*
X117577000Y-78851250D01*
X117735750Y-79010000D01*
X117925000Y-79013072D01*
X118049482Y-79000812D01*
X118169180Y-78964502D01*
X118279494Y-78905537D01*
X118376185Y-78826185D01*
X118455537Y-78729494D01*
X118514502Y-78619180D01*
X118550812Y-78499482D01*
X118563072Y-78375000D01*
X118560000Y-78210750D01*
X118401250Y-78052000D01*
X117577000Y-78052000D01*
X117323000Y-78052000D01*
X116498750Y-78052000D01*
X116340000Y-78210750D01*
X116336928Y-78375000D01*
X115563132Y-78375000D01*
X115549225Y-78329158D01*
X115506914Y-78250000D01*
X115549225Y-78170842D01*
X115593218Y-78025819D01*
X115608072Y-77875000D01*
X115608072Y-77605000D01*
X115593218Y-77454181D01*
X115549225Y-77309158D01*
X115528429Y-77270252D01*
X115548274Y-77233125D01*
X115592977Y-77085757D01*
X115608072Y-76932500D01*
X115608072Y-76637500D01*
X115592977Y-76484243D01*
X115548274Y-76336875D01*
X115528564Y-76300000D01*
X115548274Y-76263125D01*
X115592977Y-76115757D01*
X115608072Y-75962500D01*
X115608072Y-75667500D01*
X115601557Y-75601359D01*
X116336928Y-76336730D01*
X116336928Y-76600000D01*
X116353512Y-76768377D01*
X116402625Y-76930283D01*
X116480700Y-77076351D01*
X116444463Y-77120506D01*
X116385498Y-77230820D01*
X116349188Y-77350518D01*
X116336928Y-77475000D01*
X116340000Y-77639250D01*
X116498750Y-77798000D01*
X117323000Y-77798000D01*
X117323000Y-77778000D01*
X117577000Y-77778000D01*
X117577000Y-77798000D01*
X118401250Y-77798000D01*
X118560000Y-77639250D01*
X118563072Y-77475000D01*
X118550812Y-77350518D01*
X118514502Y-77230820D01*
X118455537Y-77120506D01*
X118419300Y-77076351D01*
X118497375Y-76930283D01*
X118546488Y-76768377D01*
X118563072Y-76600000D01*
X118563072Y-76150000D01*
X118546488Y-75981623D01*
X118497375Y-75819717D01*
X118417618Y-75670503D01*
X118310284Y-75539716D01*
X118179497Y-75432382D01*
X118030283Y-75352625D01*
X117868377Y-75303512D01*
X117700000Y-75286928D01*
X117436730Y-75286928D01*
X116460000Y-74310199D01*
X116460000Y-73412227D01*
X116500825Y-73424611D01*
X116637500Y-73438072D01*
X116762500Y-73438072D01*
X116899175Y-73424611D01*
X117030597Y-73384744D01*
X117151717Y-73320004D01*
X117245901Y-73242709D01*
X117215000Y-73398061D01*
X117215000Y-73601939D01*
X117254774Y-73801898D01*
X117332795Y-73990256D01*
X117446063Y-74159774D01*
X117590226Y-74303937D01*
X117759744Y-74417205D01*
X117948102Y-74495226D01*
X118148061Y-74535000D01*
X118351939Y-74535000D01*
X118551898Y-74495226D01*
X118740256Y-74417205D01*
X118909774Y-74303937D01*
X118932923Y-74280788D01*
X118934010Y-74283411D01*
X119096525Y-74526632D01*
X119303368Y-74733475D01*
X119477760Y-74850000D01*
X119303368Y-74966525D01*
X119096525Y-75173368D01*
X118934010Y-75416589D01*
X118822068Y-75686842D01*
X118765000Y-75973740D01*
X118765000Y-76266260D01*
X118822068Y-76553158D01*
X118934010Y-76823411D01*
X119096525Y-77066632D01*
X119303368Y-77273475D01*
X119485534Y-77395195D01*
X119368645Y-77464822D01*
X119152412Y-77659731D01*
X118978359Y-77893080D01*
X118853175Y-78155901D01*
X118808524Y-78303110D01*
X118929845Y-78533000D01*
X120123000Y-78533000D01*
X120123000Y-78513000D01*
X120377000Y-78513000D01*
X120377000Y-78533000D01*
X120397000Y-78533000D01*
X120397000Y-78787000D01*
X120377000Y-78787000D01*
X120377000Y-79980814D01*
X120606891Y-80101481D01*
X120881252Y-80004157D01*
X121131355Y-79855178D01*
X121347588Y-79660269D01*
X121518900Y-79430594D01*
X121636525Y-79606632D01*
X121843368Y-79813475D01*
X122086589Y-79975990D01*
X122356842Y-80087932D01*
X122643740Y-80145000D01*
X122936260Y-80145000D01*
X123223158Y-80087932D01*
X123493411Y-79975990D01*
X123736632Y-79813475D01*
X123943475Y-79606632D01*
X124105990Y-79363411D01*
X124217932Y-79093158D01*
X124275000Y-78806260D01*
X124275000Y-78513740D01*
X124217932Y-78226842D01*
X124105990Y-77956589D01*
X123943475Y-77713368D01*
X123736632Y-77506525D01*
X123562240Y-77390000D01*
X123736632Y-77273475D01*
X123943475Y-77066632D01*
X124105990Y-76823411D01*
X124217932Y-76553158D01*
X124275000Y-76266260D01*
X124275000Y-75973740D01*
X124217932Y-75686842D01*
X124105990Y-75416589D01*
X123943475Y-75173368D01*
X123736632Y-74966525D01*
X123554466Y-74844805D01*
X123671355Y-74775178D01*
X123887588Y-74580269D01*
X124061641Y-74346920D01*
X124186825Y-74084099D01*
X124231476Y-73936890D01*
X124110155Y-73707000D01*
X122917000Y-73707000D01*
X122917000Y-73727000D01*
X122663000Y-73727000D01*
X122663000Y-73707000D01*
X122643000Y-73707000D01*
X122643000Y-73453000D01*
X122663000Y-73453000D01*
X122663000Y-73433000D01*
X122917000Y-73433000D01*
X122917000Y-73453000D01*
X124110155Y-73453000D01*
X124231476Y-73223110D01*
X124186825Y-73075901D01*
X124061641Y-72813080D01*
X123887588Y-72579731D01*
X123671355Y-72384822D01*
X123554466Y-72315195D01*
X123736632Y-72193475D01*
X123943475Y-71986632D01*
X124105990Y-71743411D01*
X124217932Y-71473158D01*
X124275000Y-71186260D01*
X124275000Y-70893740D01*
X124217932Y-70606842D01*
X124105990Y-70336589D01*
X123943475Y-70093368D01*
X123736632Y-69886525D01*
X123675000Y-69845344D01*
X123675000Y-69694656D01*
X123736632Y-69653475D01*
X123943475Y-69446632D01*
X124105990Y-69203411D01*
X124217932Y-68933158D01*
X124275000Y-68646260D01*
X124275000Y-68353740D01*
X124217932Y-68066842D01*
X124105990Y-67796589D01*
X123943475Y-67553368D01*
X123736632Y-67346525D01*
X123493411Y-67184010D01*
X123223158Y-67072068D01*
X122936260Y-67015000D01*
X122643740Y-67015000D01*
X122356842Y-67072068D01*
X122086589Y-67184010D01*
X121843368Y-67346525D01*
X121711513Y-67478380D01*
X121689502Y-67405820D01*
X121630537Y-67295506D01*
X121551185Y-67198815D01*
X121454494Y-67119463D01*
X121344180Y-67060498D01*
X121224482Y-67024188D01*
X121100000Y-67011928D01*
X119400000Y-67011928D01*
X119275518Y-67024188D01*
X119155820Y-67060498D01*
X119045506Y-67119463D01*
X118948815Y-67198815D01*
X118869463Y-67295506D01*
X118810498Y-67405820D01*
X118774188Y-67525518D01*
X118761928Y-67650000D01*
X118761928Y-69350000D01*
X118774188Y-69474482D01*
X118810498Y-69594180D01*
X118869463Y-69704494D01*
X118948815Y-69801185D01*
X119045506Y-69880537D01*
X119155820Y-69939502D01*
X119228380Y-69961513D01*
X119096525Y-70093368D01*
X119046617Y-70168061D01*
X119040001Y-70159999D01*
X118924276Y-70065026D01*
X118792247Y-69994454D01*
X118648986Y-69950997D01*
X118537333Y-69940000D01*
X118537322Y-69940000D01*
X118500000Y-69936324D01*
X118462678Y-69940000D01*
X118412227Y-69940000D01*
X118424611Y-69899175D01*
X118438072Y-69762500D01*
X118438072Y-69637500D01*
X118424611Y-69500825D01*
X118409193Y-69450000D01*
X118424611Y-69399175D01*
X118438072Y-69262500D01*
X118438072Y-69137500D01*
X118424611Y-69000825D01*
X118384744Y-68869403D01*
X118320004Y-68748283D01*
X118232879Y-68642121D01*
X118126717Y-68554996D01*
X118005597Y-68490256D01*
X117874175Y-68450389D01*
X117737500Y-68436928D01*
X117463072Y-68436928D01*
X117463072Y-68162500D01*
X117449611Y-68025825D01*
X117409744Y-67894403D01*
X117345004Y-67773283D01*
X117257879Y-67667121D01*
X117151717Y-67579996D01*
X117030597Y-67515256D01*
X116899175Y-67475389D01*
X116762500Y-67461928D01*
X116637500Y-67461928D01*
X116500825Y-67475389D01*
X116478710Y-67482098D01*
X116463911Y-67477232D01*
X116375397Y-67466936D01*
X116373961Y-67464250D01*
X116334974Y-67391311D01*
X116263799Y-67304585D01*
X116240001Y-67275587D01*
X116211004Y-67251790D01*
X115970288Y-67011074D01*
X116118377Y-66996488D01*
X116280283Y-66947375D01*
X116426351Y-66869300D01*
X116470506Y-66905537D01*
X116580820Y-66964502D01*
X116700518Y-67000812D01*
X116825000Y-67013072D01*
X116989250Y-67010000D01*
X117148000Y-66851250D01*
X117148000Y-66027000D01*
X117402000Y-66027000D01*
X117402000Y-66851250D01*
X117560750Y-67010000D01*
X117725000Y-67013072D01*
X117849482Y-67000812D01*
X117969180Y-66964502D01*
X118079494Y-66905537D01*
X118176185Y-66826185D01*
X118255537Y-66729494D01*
X118314502Y-66619180D01*
X118350812Y-66499482D01*
X118363072Y-66375000D01*
X118360000Y-66185750D01*
X118201250Y-66027000D01*
X117402000Y-66027000D01*
X117148000Y-66027000D01*
X117128000Y-66027000D01*
X117128000Y-65773000D01*
X117148000Y-65773000D01*
X117148000Y-64948750D01*
X117402000Y-64948750D01*
X117402000Y-65773000D01*
X118201250Y-65773000D01*
X118360000Y-65614250D01*
X118363072Y-65425000D01*
X118350812Y-65300518D01*
X118314502Y-65180820D01*
X118255537Y-65070506D01*
X118176185Y-64973815D01*
X118079494Y-64894463D01*
X117969180Y-64835498D01*
X117849482Y-64799188D01*
X117725000Y-64786928D01*
X117560750Y-64790000D01*
X117402000Y-64948750D01*
X117148000Y-64948750D01*
X116989250Y-64790000D01*
X116825000Y-64786928D01*
X116700518Y-64799188D01*
X116580820Y-64835498D01*
X116470506Y-64894463D01*
X116426351Y-64930700D01*
X116388248Y-64910334D01*
X116411724Y-64890578D01*
X116489876Y-64792914D01*
X116547473Y-64681879D01*
X116582301Y-64561742D01*
X116593023Y-64437119D01*
X116590000Y-64410750D01*
X116431250Y-64252000D01*
X115812000Y-64252000D01*
X115812000Y-64272000D01*
X115592802Y-64272000D01*
X115806730Y-64058072D01*
X115807500Y-64058072D01*
X115960757Y-64042977D01*
X116108125Y-63998274D01*
X116108638Y-63998000D01*
X116431250Y-63998000D01*
X116590000Y-63839250D01*
X116593023Y-63812881D01*
X116582301Y-63688258D01*
X116547473Y-63568121D01*
X116539471Y-63552695D01*
X116577977Y-63425757D01*
X116589779Y-63305926D01*
X119529534Y-63305926D01*
X119529534Y-63694074D01*
X119605258Y-64074764D01*
X119753796Y-64433366D01*
X119969439Y-64756099D01*
X120243901Y-65030561D01*
X120566634Y-65246204D01*
X120925236Y-65394742D01*
X121305926Y-65470466D01*
X121694074Y-65470466D01*
X122074764Y-65394742D01*
X122433366Y-65246204D01*
X122756099Y-65030561D01*
X123030561Y-64756099D01*
X123246204Y-64433366D01*
X123394742Y-64074764D01*
X123470466Y-63694074D01*
X123470466Y-63305926D01*
X123394742Y-62925236D01*
X123246204Y-62566634D01*
X123030561Y-62243901D01*
X122756099Y-61969439D01*
X122433366Y-61753796D01*
X122074764Y-61605258D01*
X121694074Y-61529534D01*
X121305926Y-61529534D01*
X120925236Y-61605258D01*
X120566634Y-61753796D01*
X120243901Y-61969439D01*
X119969439Y-62243901D01*
X119753796Y-62566634D01*
X119605258Y-62925236D01*
X119529534Y-63305926D01*
X116589779Y-63305926D01*
X116593072Y-63272500D01*
X116593072Y-62927500D01*
X116577977Y-62774243D01*
X116533274Y-62626875D01*
X116460679Y-62491060D01*
X116362983Y-62372017D01*
X116243940Y-62274321D01*
X116108125Y-62201726D01*
X115960757Y-62157023D01*
X115807500Y-62141928D01*
X115512500Y-62141928D01*
X115359243Y-62157023D01*
X115211875Y-62201726D01*
X115175000Y-62221436D01*
X115138125Y-62201726D01*
X114990757Y-62157023D01*
X114837500Y-62141928D01*
X114542500Y-62141928D01*
X114389243Y-62157023D01*
X114241875Y-62201726D01*
X114106060Y-62274321D01*
X113987017Y-62372017D01*
X113889321Y-62491060D01*
X113816726Y-62626875D01*
X113772023Y-62774243D01*
X113756928Y-62927500D01*
X113756928Y-62958271D01*
X113558988Y-63156211D01*
X113529990Y-63180009D01*
X113506192Y-63209007D01*
X113506191Y-63209008D01*
X113435016Y-63295734D01*
X113364444Y-63427764D01*
X113349248Y-63477862D01*
X113320988Y-63571024D01*
X113311167Y-63670733D01*
X113306314Y-63720010D01*
X113309991Y-63757342D01*
X113309990Y-64657667D01*
X113306314Y-64694990D01*
X113309990Y-64732312D01*
X113309990Y-64732322D01*
X113320987Y-64843975D01*
X113361767Y-64978411D01*
X113364444Y-64987236D01*
X113435016Y-65119266D01*
X113472571Y-65165026D01*
X113529989Y-65234991D01*
X113558992Y-65258793D01*
X114140198Y-65840000D01*
X112245535Y-65840000D01*
X112142889Y-65771414D01*
X111972729Y-65700932D01*
X111792089Y-65665000D01*
X111607911Y-65665000D01*
X111427271Y-65700932D01*
X111257111Y-65771414D01*
X111103972Y-65873738D01*
X110973738Y-66003972D01*
X110871414Y-66157111D01*
X110800932Y-66327271D01*
X110765000Y-66507911D01*
X110765000Y-66692089D01*
X110800932Y-66872729D01*
X110871414Y-67042889D01*
X110973738Y-67196028D01*
X111103972Y-67326262D01*
X111251744Y-67425000D01*
X111103972Y-67523738D01*
X110973738Y-67653972D01*
X110871414Y-67807111D01*
X110850000Y-67858809D01*
X110828586Y-67807111D01*
X110726262Y-67653972D01*
X110596028Y-67523738D01*
X110442889Y-67421414D01*
X110408923Y-67407345D01*
X109935000Y-66933422D01*
X109935000Y-65756523D01*
X109922195Y-65626510D01*
X109888072Y-65514023D01*
X109888072Y-65100000D01*
X109875812Y-64975518D01*
X109839502Y-64855820D01*
X109780537Y-64745506D01*
X109701185Y-64648815D01*
X109604494Y-64569463D01*
X109543365Y-64536789D01*
X109800000Y-64538072D01*
X109924482Y-64525812D01*
X110044180Y-64489502D01*
X110075000Y-64473028D01*
X110105820Y-64489502D01*
X110225518Y-64525812D01*
X110350000Y-64538072D01*
X111214250Y-64535000D01*
X111373000Y-64376250D01*
X111373000Y-63077000D01*
X111627000Y-63077000D01*
X111627000Y-64376250D01*
X111785750Y-64535000D01*
X112650000Y-64538072D01*
X112774482Y-64525812D01*
X112894180Y-64489502D01*
X113004494Y-64430537D01*
X113101185Y-64351185D01*
X113180537Y-64254494D01*
X113239502Y-64144180D01*
X113275812Y-64024482D01*
X113288072Y-63900000D01*
X113285000Y-63235750D01*
X113126250Y-63077000D01*
X111627000Y-63077000D01*
X111373000Y-63077000D01*
X109027000Y-63077000D01*
X109027000Y-63097000D01*
X108773000Y-63097000D01*
X108773000Y-63077000D01*
X106727000Y-63077000D01*
X106727000Y-64376250D01*
X106820507Y-64469757D01*
X106775518Y-64474188D01*
X106772936Y-64474971D01*
X106681750Y-64465000D01*
X106613782Y-64532968D01*
X106545506Y-64569463D01*
X106448815Y-64648815D01*
X106377000Y-64736322D01*
X106377000Y-64623750D01*
X106288379Y-64535129D01*
X106314250Y-64535000D01*
X106473000Y-64376250D01*
X106473000Y-63077000D01*
X104127000Y-63077000D01*
X104127000Y-64376250D01*
X104285750Y-64535000D01*
X105150000Y-64538072D01*
X105274482Y-64525812D01*
X105394180Y-64489502D01*
X105425000Y-64473028D01*
X105455820Y-64489502D01*
X105575518Y-64525812D01*
X105700000Y-64538072D01*
X105956254Y-64536790D01*
X105887273Y-64575057D01*
X105791831Y-64655908D01*
X105713997Y-64753826D01*
X105656761Y-64865046D01*
X105622323Y-64985296D01*
X105612006Y-65109954D01*
X105615000Y-65514250D01*
X105773750Y-65673000D01*
X106261928Y-65673000D01*
X106261928Y-65927000D01*
X105773750Y-65927000D01*
X105615000Y-66085750D01*
X105612006Y-66490046D01*
X105622323Y-66614704D01*
X105656761Y-66734954D01*
X105713997Y-66846174D01*
X105768864Y-66915199D01*
X105667755Y-66861155D01*
X105521794Y-66816878D01*
X105370000Y-66801928D01*
X105090000Y-66801928D01*
X104938206Y-66816878D01*
X104806509Y-66856828D01*
X104796878Y-66851623D01*
X104677348Y-66814765D01*
X104555750Y-66805000D01*
X104397000Y-66963750D01*
X104397000Y-67233892D01*
X104371155Y-67282245D01*
X104326878Y-67428206D01*
X104311928Y-67580000D01*
X104311928Y-67920000D01*
X104326878Y-68071794D01*
X104371155Y-68217755D01*
X104388390Y-68250000D01*
X104371155Y-68282245D01*
X104326878Y-68428206D01*
X104311928Y-68580000D01*
X104311928Y-68897000D01*
X104143000Y-68897000D01*
X104143000Y-68877000D01*
X103513750Y-68877000D01*
X103355000Y-69035750D01*
X103351935Y-69057077D01*
X103363625Y-69181613D01*
X103399386Y-69301476D01*
X103431343Y-69361928D01*
X103400000Y-69361928D01*
X103275518Y-69374188D01*
X103155820Y-69410498D01*
X103045506Y-69469463D01*
X102948815Y-69548815D01*
X102869463Y-69645506D01*
X102810498Y-69755820D01*
X102774188Y-69875518D01*
X102761928Y-70000000D01*
X102761928Y-70436494D01*
X102754952Y-70443470D01*
X102721184Y-70471183D01*
X102693471Y-70504951D01*
X102693468Y-70504954D01*
X102610590Y-70605941D01*
X102528412Y-70759687D01*
X102477805Y-70926510D01*
X102460719Y-71100000D01*
X102465001Y-71143479D01*
X102465000Y-72315770D01*
X102381329Y-72417725D01*
X102302150Y-72565858D01*
X102253392Y-72726592D01*
X102236928Y-72893750D01*
X102236928Y-73331250D01*
X102253392Y-73498408D01*
X102302150Y-73659142D01*
X102381329Y-73807275D01*
X102457426Y-73900000D01*
X102381329Y-73992725D01*
X102302150Y-74140858D01*
X102253392Y-74301592D01*
X102236928Y-74468750D01*
X102236928Y-74906250D01*
X102253392Y-75073408D01*
X102302150Y-75234142D01*
X102381329Y-75382275D01*
X102397542Y-75402031D01*
X102382382Y-75420503D01*
X102302625Y-75569717D01*
X102253512Y-75731623D01*
X102236928Y-75900000D01*
X102236928Y-76350000D01*
X102253512Y-76518377D01*
X102302625Y-76680283D01*
X102380700Y-76826351D01*
X102344463Y-76870506D01*
X102285498Y-76980820D01*
X102249188Y-77100518D01*
X102236928Y-77225000D01*
X102240000Y-77389250D01*
X102398750Y-77548000D01*
X103223000Y-77548000D01*
X103223000Y-77528000D01*
X103477000Y-77528000D01*
X103477000Y-77548000D01*
X104301250Y-77548000D01*
X104460000Y-77389250D01*
X104463072Y-77225000D01*
X104450812Y-77100518D01*
X104423354Y-77010000D01*
X106668424Y-77010000D01*
X107420352Y-77761928D01*
X107000000Y-77761928D01*
X106875518Y-77774188D01*
X106755820Y-77810498D01*
X106645506Y-77869463D01*
X106600000Y-77906809D01*
X106554494Y-77869463D01*
X106444180Y-77810498D01*
X106324482Y-77774188D01*
X106200000Y-77761928D01*
X105735750Y-77765000D01*
X105577000Y-77923750D01*
X105577000Y-79273000D01*
X105597000Y-79273000D01*
X105597000Y-79527000D01*
X105577000Y-79527000D01*
X105577000Y-79547000D01*
X105323000Y-79547000D01*
X105323000Y-79527000D01*
X105303000Y-79527000D01*
X105303000Y-79273000D01*
X105323000Y-79273000D01*
X105323000Y-77923750D01*
X105164250Y-77765000D01*
X104700000Y-77761928D01*
X104575518Y-77774188D01*
X104455820Y-77810498D01*
X104360629Y-77861379D01*
X104301250Y-77802000D01*
X103477000Y-77802000D01*
X103477000Y-79048000D01*
X103497000Y-79048000D01*
X103497000Y-79302000D01*
X103477000Y-79302000D01*
X103477000Y-79322000D01*
X103223000Y-79322000D01*
X103223000Y-79302000D01*
X102398750Y-79302000D01*
X102240000Y-79460750D01*
X102236928Y-79625000D01*
X102249188Y-79749482D01*
X102285498Y-79869180D01*
X102344463Y-79979494D01*
X102380700Y-80023649D01*
X102302625Y-80169717D01*
X102253512Y-80331623D01*
X102236928Y-80500000D01*
X102236928Y-80950000D01*
X102253512Y-81118377D01*
X102302625Y-81280283D01*
X102334545Y-81340000D01*
X102032279Y-81340000D01*
X101934576Y-81330420D01*
X101871643Y-81311420D01*
X101813594Y-81280554D01*
X101762657Y-81239011D01*
X101720752Y-81188356D01*
X101689485Y-81130529D01*
X101670044Y-81067728D01*
X101660000Y-80972165D01*
X101660000Y-78125000D01*
X102236928Y-78125000D01*
X102249188Y-78249482D01*
X102285498Y-78369180D01*
X102315335Y-78425000D01*
X102285498Y-78480820D01*
X102249188Y-78600518D01*
X102236928Y-78725000D01*
X102240000Y-78889250D01*
X102398750Y-79048000D01*
X103223000Y-79048000D01*
X103223000Y-77802000D01*
X102398750Y-77802000D01*
X102240000Y-77960750D01*
X102236928Y-78125000D01*
X101660000Y-78125000D01*
X101660000Y-68057077D01*
X103351935Y-68057077D01*
X103363625Y-68181613D01*
X103384028Y-68249999D01*
X103363625Y-68318387D01*
X103351935Y-68442923D01*
X103355000Y-68464250D01*
X103513750Y-68623000D01*
X103696164Y-68623000D01*
X103743122Y-68648377D01*
X103862652Y-68685235D01*
X103984250Y-68695000D01*
X104056250Y-68623000D01*
X104143000Y-68623000D01*
X104143000Y-67877000D01*
X104056250Y-67877000D01*
X103984250Y-67805000D01*
X103862652Y-67814765D01*
X103743122Y-67851623D01*
X103696164Y-67877000D01*
X103513750Y-67877000D01*
X103355000Y-68035750D01*
X103351935Y-68057077D01*
X101660000Y-68057077D01*
X101660000Y-67442923D01*
X103351935Y-67442923D01*
X103355000Y-67464250D01*
X103513750Y-67623000D01*
X104143000Y-67623000D01*
X104143000Y-66963750D01*
X103984250Y-66805000D01*
X103862652Y-66814765D01*
X103743122Y-66851623D01*
X103633079Y-66911092D01*
X103536753Y-66990887D01*
X103457844Y-67087941D01*
X103399386Y-67198524D01*
X103363625Y-67318387D01*
X103351935Y-67442923D01*
X101660000Y-67442923D01*
X101660000Y-63900000D01*
X102211928Y-63900000D01*
X102224188Y-64024482D01*
X102260498Y-64144180D01*
X102319463Y-64254494D01*
X102398815Y-64351185D01*
X102495506Y-64430537D01*
X102605820Y-64489502D01*
X102725518Y-64525812D01*
X102850000Y-64538072D01*
X103714250Y-64535000D01*
X103873000Y-64376250D01*
X103873000Y-63077000D01*
X102373750Y-63077000D01*
X102215000Y-63235750D01*
X102211928Y-63900000D01*
X101660000Y-63900000D01*
X101660000Y-62000000D01*
X102211928Y-62000000D01*
X102215000Y-62664250D01*
X102373750Y-62823000D01*
X103873000Y-62823000D01*
X103873000Y-61523750D01*
X104127000Y-61523750D01*
X104127000Y-62823000D01*
X106473000Y-62823000D01*
X106473000Y-61523750D01*
X106727000Y-61523750D01*
X106727000Y-62823000D01*
X108773000Y-62823000D01*
X108773000Y-61523750D01*
X109027000Y-61523750D01*
X109027000Y-62823000D01*
X111373000Y-62823000D01*
X111373000Y-61523750D01*
X111627000Y-61523750D01*
X111627000Y-62823000D01*
X113126250Y-62823000D01*
X113285000Y-62664250D01*
X113288072Y-62000000D01*
X113275812Y-61875518D01*
X113239502Y-61755820D01*
X113180537Y-61645506D01*
X113101185Y-61548815D01*
X113004494Y-61469463D01*
X112894180Y-61410498D01*
X112774482Y-61374188D01*
X112650000Y-61361928D01*
X111785750Y-61365000D01*
X111627000Y-61523750D01*
X111373000Y-61523750D01*
X111214250Y-61365000D01*
X110350000Y-61361928D01*
X110225518Y-61374188D01*
X110105820Y-61410498D01*
X110075000Y-61426972D01*
X110044180Y-61410498D01*
X109924482Y-61374188D01*
X109800000Y-61361928D01*
X109185750Y-61365000D01*
X109027000Y-61523750D01*
X108773000Y-61523750D01*
X108614250Y-61365000D01*
X108000000Y-61361928D01*
X107875518Y-61374188D01*
X107755820Y-61410498D01*
X107750000Y-61413609D01*
X107744180Y-61410498D01*
X107624482Y-61374188D01*
X107500000Y-61361928D01*
X106885750Y-61365000D01*
X106727000Y-61523750D01*
X106473000Y-61523750D01*
X106314250Y-61365000D01*
X105700000Y-61361928D01*
X105575518Y-61374188D01*
X105455820Y-61410498D01*
X105425000Y-61426972D01*
X105394180Y-61410498D01*
X105274482Y-61374188D01*
X105150000Y-61361928D01*
X104285750Y-61365000D01*
X104127000Y-61523750D01*
X103873000Y-61523750D01*
X103714250Y-61365000D01*
X102850000Y-61361928D01*
X102725518Y-61374188D01*
X102605820Y-61410498D01*
X102495506Y-61469463D01*
X102398815Y-61548815D01*
X102319463Y-61645506D01*
X102260498Y-61755820D01*
X102224188Y-61875518D01*
X102211928Y-62000000D01*
X101660000Y-62000000D01*
X101660000Y-61032279D01*
X101669580Y-60934576D01*
X101688580Y-60871644D01*
X101719445Y-60813595D01*
X101760989Y-60762657D01*
X101811644Y-60720752D01*
X101869471Y-60689485D01*
X101932272Y-60670044D01*
X102027835Y-60660000D01*
X121467721Y-60660000D01*
X122051010Y-60717192D01*
%TA.AperFunction,Conductor*%
D25*
G36*
X122051010Y-60717192D02*
G01*
X122581036Y-60877216D01*
X123069879Y-61137140D01*
X123498931Y-61487065D01*
X123851844Y-61913664D01*
X124115173Y-62400681D01*
X124278894Y-62929578D01*
X124340000Y-63510960D01*
X124340001Y-80967711D01*
X124330420Y-81065424D01*
X124311420Y-81128357D01*
X124280554Y-81186406D01*
X124239011Y-81237343D01*
X124188356Y-81279248D01*
X124130529Y-81310515D01*
X124067728Y-81329956D01*
X123972165Y-81340000D01*
X107321580Y-81340000D01*
X107623508Y-81038072D01*
X108500000Y-81038072D01*
X108624482Y-81025812D01*
X108744180Y-80989502D01*
X108854494Y-80930537D01*
X108900000Y-80893191D01*
X108945506Y-80930537D01*
X109055820Y-80989502D01*
X109175518Y-81025812D01*
X109300000Y-81038072D01*
X110800000Y-81038072D01*
X110924482Y-81025812D01*
X111044180Y-80989502D01*
X111154494Y-80930537D01*
X111251185Y-80851185D01*
X111330537Y-80754494D01*
X111389502Y-80644180D01*
X111425812Y-80524482D01*
X111438072Y-80400000D01*
X111438072Y-78400000D01*
X111425812Y-78275518D01*
X111389502Y-78155820D01*
X111330537Y-78045506D01*
X111251185Y-77948815D01*
X111154494Y-77869463D01*
X111044180Y-77810498D01*
X110924482Y-77774188D01*
X110800000Y-77761928D01*
X109923509Y-77761928D01*
X108126079Y-75964499D01*
X108240256Y-75917205D01*
X108409774Y-75803937D01*
X108553937Y-75659774D01*
X108667205Y-75490256D01*
X108745226Y-75301898D01*
X108785000Y-75101939D01*
X108785000Y-74898061D01*
X108753176Y-74738072D01*
X109650000Y-74738072D01*
X109740000Y-74729208D01*
X109740000Y-75522677D01*
X109736324Y-75560000D01*
X109740000Y-75597322D01*
X109740000Y-75597332D01*
X109750997Y-75708985D01*
X109794358Y-75851928D01*
X109794454Y-75852246D01*
X109865026Y-75984276D01*
X109874013Y-75995226D01*
X109959999Y-76100001D01*
X109989003Y-76123804D01*
X112741928Y-78876731D01*
X112741928Y-78895000D01*
X112756782Y-79045819D01*
X112800775Y-79190842D01*
X112872214Y-79324496D01*
X112968356Y-79441644D01*
X113085504Y-79537786D01*
X113219158Y-79609225D01*
X113364181Y-79653218D01*
X113515000Y-79668072D01*
X113885000Y-79668072D01*
X114035819Y-79653218D01*
X114175000Y-79610997D01*
X114314181Y-79653218D01*
X114465000Y-79668072D01*
X114835000Y-79668072D01*
X114985819Y-79653218D01*
X115130842Y-79609225D01*
X115264496Y-79537786D01*
X115381644Y-79441644D01*
X115477786Y-79324496D01*
X115549225Y-79190842D01*
X115593218Y-79045819D01*
X115596067Y-79016890D01*
X118808524Y-79016890D01*
X118853175Y-79164099D01*
X118978359Y-79426920D01*
X119152412Y-79660269D01*
X119368645Y-79855178D01*
X119618748Y-80004157D01*
X119893109Y-80101481D01*
X120123000Y-79980814D01*
X120123000Y-78787000D01*
X118929845Y-78787000D01*
X118808524Y-79016890D01*
X115596067Y-79016890D01*
X115608072Y-78895000D01*
X115608072Y-78625000D01*
X115593218Y-78474181D01*
X115563132Y-78375000D01*
X116336928Y-78375000D01*
X116349188Y-78499482D01*
X116385498Y-78619180D01*
X116444463Y-78729494D01*
X116523815Y-78826185D01*
X116620506Y-78905537D01*
X116730820Y-78964502D01*
X116850518Y-79000812D01*
X116975000Y-79013072D01*
X117164250Y-79010000D01*
X117323000Y-78851250D01*
X117323000Y-78052000D01*
X117577000Y-78052000D01*
X117577000Y-78851250D01*
X117735750Y-79010000D01*
X117925000Y-79013072D01*
X118049482Y-79000812D01*
X118169180Y-78964502D01*
X118279494Y-78905537D01*
X118376185Y-78826185D01*
X118455537Y-78729494D01*
X118514502Y-78619180D01*
X118550812Y-78499482D01*
X118563072Y-78375000D01*
X118560000Y-78210750D01*
X118401250Y-78052000D01*
X117577000Y-78052000D01*
X117323000Y-78052000D01*
X116498750Y-78052000D01*
X116340000Y-78210750D01*
X116336928Y-78375000D01*
X115563132Y-78375000D01*
X115549225Y-78329158D01*
X115506914Y-78250000D01*
X115549225Y-78170842D01*
X115593218Y-78025819D01*
X115608072Y-77875000D01*
X115608072Y-77605000D01*
X115593218Y-77454181D01*
X115549225Y-77309158D01*
X115528429Y-77270252D01*
X115548274Y-77233125D01*
X115592977Y-77085757D01*
X115608072Y-76932500D01*
X115608072Y-76637500D01*
X115592977Y-76484243D01*
X115548274Y-76336875D01*
X115528564Y-76300000D01*
X115548274Y-76263125D01*
X115592977Y-76115757D01*
X115608072Y-75962500D01*
X115608072Y-75667500D01*
X115601557Y-75601359D01*
X116336928Y-76336730D01*
X116336928Y-76600000D01*
X116353512Y-76768377D01*
X116402625Y-76930283D01*
X116480700Y-77076351D01*
X116444463Y-77120506D01*
X116385498Y-77230820D01*
X116349188Y-77350518D01*
X116336928Y-77475000D01*
X116340000Y-77639250D01*
X116498750Y-77798000D01*
X117323000Y-77798000D01*
X117323000Y-77778000D01*
X117577000Y-77778000D01*
X117577000Y-77798000D01*
X118401250Y-77798000D01*
X118560000Y-77639250D01*
X118563072Y-77475000D01*
X118550812Y-77350518D01*
X118514502Y-77230820D01*
X118455537Y-77120506D01*
X118419300Y-77076351D01*
X118497375Y-76930283D01*
X118546488Y-76768377D01*
X118563072Y-76600000D01*
X118563072Y-76150000D01*
X118546488Y-75981623D01*
X118497375Y-75819717D01*
X118417618Y-75670503D01*
X118310284Y-75539716D01*
X118179497Y-75432382D01*
X118030283Y-75352625D01*
X117868377Y-75303512D01*
X117700000Y-75286928D01*
X117436730Y-75286928D01*
X116460000Y-74310199D01*
X116460000Y-73412227D01*
X116500825Y-73424611D01*
X116637500Y-73438072D01*
X116762500Y-73438072D01*
X116899175Y-73424611D01*
X117030597Y-73384744D01*
X117151717Y-73320004D01*
X117245901Y-73242709D01*
X117215000Y-73398061D01*
X117215000Y-73601939D01*
X117254774Y-73801898D01*
X117332795Y-73990256D01*
X117446063Y-74159774D01*
X117590226Y-74303937D01*
X117759744Y-74417205D01*
X117948102Y-74495226D01*
X118148061Y-74535000D01*
X118351939Y-74535000D01*
X118551898Y-74495226D01*
X118740256Y-74417205D01*
X118909774Y-74303937D01*
X118932923Y-74280788D01*
X118934010Y-74283411D01*
X119096525Y-74526632D01*
X119303368Y-74733475D01*
X119477760Y-74850000D01*
X119303368Y-74966525D01*
X119096525Y-75173368D01*
X118934010Y-75416589D01*
X118822068Y-75686842D01*
X118765000Y-75973740D01*
X118765000Y-76266260D01*
X118822068Y-76553158D01*
X118934010Y-76823411D01*
X119096525Y-77066632D01*
X119303368Y-77273475D01*
X119485534Y-77395195D01*
X119368645Y-77464822D01*
X119152412Y-77659731D01*
X118978359Y-77893080D01*
X118853175Y-78155901D01*
X118808524Y-78303110D01*
X118929845Y-78533000D01*
X120123000Y-78533000D01*
X120123000Y-78513000D01*
X120377000Y-78513000D01*
X120377000Y-78533000D01*
X120397000Y-78533000D01*
X120397000Y-78787000D01*
X120377000Y-78787000D01*
X120377000Y-79980814D01*
X120606891Y-80101481D01*
X120881252Y-80004157D01*
X121131355Y-79855178D01*
X121347588Y-79660269D01*
X121518900Y-79430594D01*
X121636525Y-79606632D01*
X121843368Y-79813475D01*
X122086589Y-79975990D01*
X122356842Y-80087932D01*
X122643740Y-80145000D01*
X122936260Y-80145000D01*
X123223158Y-80087932D01*
X123493411Y-79975990D01*
X123736632Y-79813475D01*
X123943475Y-79606632D01*
X124105990Y-79363411D01*
X124217932Y-79093158D01*
X124275000Y-78806260D01*
X124275000Y-78513740D01*
X124217932Y-78226842D01*
X124105990Y-77956589D01*
X123943475Y-77713368D01*
X123736632Y-77506525D01*
X123562240Y-77390000D01*
X123736632Y-77273475D01*
X123943475Y-77066632D01*
X124105990Y-76823411D01*
X124217932Y-76553158D01*
X124275000Y-76266260D01*
X124275000Y-75973740D01*
X124217932Y-75686842D01*
X124105990Y-75416589D01*
X123943475Y-75173368D01*
X123736632Y-74966525D01*
X123554466Y-74844805D01*
X123671355Y-74775178D01*
X123887588Y-74580269D01*
X124061641Y-74346920D01*
X124186825Y-74084099D01*
X124231476Y-73936890D01*
X124110155Y-73707000D01*
X122917000Y-73707000D01*
X122917000Y-73727000D01*
X122663000Y-73727000D01*
X122663000Y-73707000D01*
X122643000Y-73707000D01*
X122643000Y-73453000D01*
X122663000Y-73453000D01*
X122663000Y-73433000D01*
X122917000Y-73433000D01*
X122917000Y-73453000D01*
X124110155Y-73453000D01*
X124231476Y-73223110D01*
X124186825Y-73075901D01*
X124061641Y-72813080D01*
X123887588Y-72579731D01*
X123671355Y-72384822D01*
X123554466Y-72315195D01*
X123736632Y-72193475D01*
X123943475Y-71986632D01*
X124105990Y-71743411D01*
X124217932Y-71473158D01*
X124275000Y-71186260D01*
X124275000Y-70893740D01*
X124217932Y-70606842D01*
X124105990Y-70336589D01*
X123943475Y-70093368D01*
X123736632Y-69886525D01*
X123675000Y-69845344D01*
X123675000Y-69694656D01*
X123736632Y-69653475D01*
X123943475Y-69446632D01*
X124105990Y-69203411D01*
X124217932Y-68933158D01*
X124275000Y-68646260D01*
X124275000Y-68353740D01*
X124217932Y-68066842D01*
X124105990Y-67796589D01*
X123943475Y-67553368D01*
X123736632Y-67346525D01*
X123493411Y-67184010D01*
X123223158Y-67072068D01*
X122936260Y-67015000D01*
X122643740Y-67015000D01*
X122356842Y-67072068D01*
X122086589Y-67184010D01*
X121843368Y-67346525D01*
X121711513Y-67478380D01*
X121689502Y-67405820D01*
X121630537Y-67295506D01*
X121551185Y-67198815D01*
X121454494Y-67119463D01*
X121344180Y-67060498D01*
X121224482Y-67024188D01*
X121100000Y-67011928D01*
X119400000Y-67011928D01*
X119275518Y-67024188D01*
X119155820Y-67060498D01*
X119045506Y-67119463D01*
X118948815Y-67198815D01*
X118869463Y-67295506D01*
X118810498Y-67405820D01*
X118774188Y-67525518D01*
X118761928Y-67650000D01*
X118761928Y-69350000D01*
X118774188Y-69474482D01*
X118810498Y-69594180D01*
X118869463Y-69704494D01*
X118948815Y-69801185D01*
X119045506Y-69880537D01*
X119155820Y-69939502D01*
X119228380Y-69961513D01*
X119096525Y-70093368D01*
X119046617Y-70168061D01*
X119040001Y-70159999D01*
X118924276Y-70065026D01*
X118792247Y-69994454D01*
X118648986Y-69950997D01*
X118537333Y-69940000D01*
X118537322Y-69940000D01*
X118500000Y-69936324D01*
X118462678Y-69940000D01*
X118412227Y-69940000D01*
X118424611Y-69899175D01*
X118438072Y-69762500D01*
X118438072Y-69637500D01*
X118424611Y-69500825D01*
X118409193Y-69450000D01*
X118424611Y-69399175D01*
X118438072Y-69262500D01*
X118438072Y-69137500D01*
X118424611Y-69000825D01*
X118384744Y-68869403D01*
X118320004Y-68748283D01*
X118232879Y-68642121D01*
X118126717Y-68554996D01*
X118005597Y-68490256D01*
X117874175Y-68450389D01*
X117737500Y-68436928D01*
X117463072Y-68436928D01*
X117463072Y-68162500D01*
X117449611Y-68025825D01*
X117409744Y-67894403D01*
X117345004Y-67773283D01*
X117257879Y-67667121D01*
X117151717Y-67579996D01*
X117030597Y-67515256D01*
X116899175Y-67475389D01*
X116762500Y-67461928D01*
X116637500Y-67461928D01*
X116500825Y-67475389D01*
X116478710Y-67482098D01*
X116463911Y-67477232D01*
X116375397Y-67466936D01*
X116373961Y-67464250D01*
X116334974Y-67391311D01*
X116263799Y-67304585D01*
X116240001Y-67275587D01*
X116211004Y-67251790D01*
X115970288Y-67011074D01*
X116118377Y-66996488D01*
X116280283Y-66947375D01*
X116426351Y-66869300D01*
X116470506Y-66905537D01*
X116580820Y-66964502D01*
X116700518Y-67000812D01*
X116825000Y-67013072D01*
X116989250Y-67010000D01*
X117148000Y-66851250D01*
X117148000Y-66027000D01*
X117402000Y-66027000D01*
X117402000Y-66851250D01*
X117560750Y-67010000D01*
X117725000Y-67013072D01*
X117849482Y-67000812D01*
X117969180Y-66964502D01*
X118079494Y-66905537D01*
X118176185Y-66826185D01*
X118255537Y-66729494D01*
X118314502Y-66619180D01*
X118350812Y-66499482D01*
X118363072Y-66375000D01*
X118360000Y-66185750D01*
X118201250Y-66027000D01*
X117402000Y-66027000D01*
X117148000Y-66027000D01*
X117128000Y-66027000D01*
X117128000Y-65773000D01*
X117148000Y-65773000D01*
X117148000Y-64948750D01*
X117402000Y-64948750D01*
X117402000Y-65773000D01*
X118201250Y-65773000D01*
X118360000Y-65614250D01*
X118363072Y-65425000D01*
X118350812Y-65300518D01*
X118314502Y-65180820D01*
X118255537Y-65070506D01*
X118176185Y-64973815D01*
X118079494Y-64894463D01*
X117969180Y-64835498D01*
X117849482Y-64799188D01*
X117725000Y-64786928D01*
X117560750Y-64790000D01*
X117402000Y-64948750D01*
X117148000Y-64948750D01*
X116989250Y-64790000D01*
X116825000Y-64786928D01*
X116700518Y-64799188D01*
X116580820Y-64835498D01*
X116470506Y-64894463D01*
X116426351Y-64930700D01*
X116388248Y-64910334D01*
X116411724Y-64890578D01*
X116489876Y-64792914D01*
X116547473Y-64681879D01*
X116582301Y-64561742D01*
X116593023Y-64437119D01*
X116590000Y-64410750D01*
X116431250Y-64252000D01*
X115812000Y-64252000D01*
X115812000Y-64272000D01*
X115592802Y-64272000D01*
X115806730Y-64058072D01*
X115807500Y-64058072D01*
X115960757Y-64042977D01*
X116108125Y-63998274D01*
X116108638Y-63998000D01*
X116431250Y-63998000D01*
X116590000Y-63839250D01*
X116593023Y-63812881D01*
X116582301Y-63688258D01*
X116547473Y-63568121D01*
X116539471Y-63552695D01*
X116577977Y-63425757D01*
X116589779Y-63305926D01*
X119529534Y-63305926D01*
X119529534Y-63694074D01*
X119605258Y-64074764D01*
X119753796Y-64433366D01*
X119969439Y-64756099D01*
X120243901Y-65030561D01*
X120566634Y-65246204D01*
X120925236Y-65394742D01*
X121305926Y-65470466D01*
X121694074Y-65470466D01*
X122074764Y-65394742D01*
X122433366Y-65246204D01*
X122756099Y-65030561D01*
X123030561Y-64756099D01*
X123246204Y-64433366D01*
X123394742Y-64074764D01*
X123470466Y-63694074D01*
X123470466Y-63305926D01*
X123394742Y-62925236D01*
X123246204Y-62566634D01*
X123030561Y-62243901D01*
X122756099Y-61969439D01*
X122433366Y-61753796D01*
X122074764Y-61605258D01*
X121694074Y-61529534D01*
X121305926Y-61529534D01*
X120925236Y-61605258D01*
X120566634Y-61753796D01*
X120243901Y-61969439D01*
X119969439Y-62243901D01*
X119753796Y-62566634D01*
X119605258Y-62925236D01*
X119529534Y-63305926D01*
X116589779Y-63305926D01*
X116593072Y-63272500D01*
X116593072Y-62927500D01*
X116577977Y-62774243D01*
X116533274Y-62626875D01*
X116460679Y-62491060D01*
X116362983Y-62372017D01*
X116243940Y-62274321D01*
X116108125Y-62201726D01*
X115960757Y-62157023D01*
X115807500Y-62141928D01*
X115512500Y-62141928D01*
X115359243Y-62157023D01*
X115211875Y-62201726D01*
X115175000Y-62221436D01*
X115138125Y-62201726D01*
X114990757Y-62157023D01*
X114837500Y-62141928D01*
X114542500Y-62141928D01*
X114389243Y-62157023D01*
X114241875Y-62201726D01*
X114106060Y-62274321D01*
X113987017Y-62372017D01*
X113889321Y-62491060D01*
X113816726Y-62626875D01*
X113772023Y-62774243D01*
X113756928Y-62927500D01*
X113756928Y-62958271D01*
X113558988Y-63156211D01*
X113529990Y-63180009D01*
X113506192Y-63209007D01*
X113506191Y-63209008D01*
X113435016Y-63295734D01*
X113364444Y-63427764D01*
X113349248Y-63477862D01*
X113320988Y-63571024D01*
X113311167Y-63670733D01*
X113306314Y-63720010D01*
X113309991Y-63757342D01*
X113309990Y-64657667D01*
X113306314Y-64694990D01*
X113309990Y-64732312D01*
X113309990Y-64732322D01*
X113320987Y-64843975D01*
X113361767Y-64978411D01*
X113364444Y-64987236D01*
X113435016Y-65119266D01*
X113472571Y-65165026D01*
X113529989Y-65234991D01*
X113558992Y-65258793D01*
X114140198Y-65840000D01*
X112245535Y-65840000D01*
X112142889Y-65771414D01*
X111972729Y-65700932D01*
X111792089Y-65665000D01*
X111607911Y-65665000D01*
X111427271Y-65700932D01*
X111257111Y-65771414D01*
X111103972Y-65873738D01*
X110973738Y-66003972D01*
X110871414Y-66157111D01*
X110800932Y-66327271D01*
X110765000Y-66507911D01*
X110765000Y-66692089D01*
X110800932Y-66872729D01*
X110871414Y-67042889D01*
X110973738Y-67196028D01*
X111103972Y-67326262D01*
X111251744Y-67425000D01*
X111103972Y-67523738D01*
X110973738Y-67653972D01*
X110871414Y-67807111D01*
X110850000Y-67858809D01*
X110828586Y-67807111D01*
X110726262Y-67653972D01*
X110596028Y-67523738D01*
X110442889Y-67421414D01*
X110408923Y-67407345D01*
X109935000Y-66933422D01*
X109935000Y-65756523D01*
X109922195Y-65626510D01*
X109888072Y-65514023D01*
X109888072Y-65100000D01*
X109875812Y-64975518D01*
X109839502Y-64855820D01*
X109780537Y-64745506D01*
X109701185Y-64648815D01*
X109604494Y-64569463D01*
X109543365Y-64536789D01*
X109800000Y-64538072D01*
X109924482Y-64525812D01*
X110044180Y-64489502D01*
X110075000Y-64473028D01*
X110105820Y-64489502D01*
X110225518Y-64525812D01*
X110350000Y-64538072D01*
X111214250Y-64535000D01*
X111373000Y-64376250D01*
X111373000Y-63077000D01*
X111627000Y-63077000D01*
X111627000Y-64376250D01*
X111785750Y-64535000D01*
X112650000Y-64538072D01*
X112774482Y-64525812D01*
X112894180Y-64489502D01*
X113004494Y-64430537D01*
X113101185Y-64351185D01*
X113180537Y-64254494D01*
X113239502Y-64144180D01*
X113275812Y-64024482D01*
X113288072Y-63900000D01*
X113285000Y-63235750D01*
X113126250Y-63077000D01*
X111627000Y-63077000D01*
X111373000Y-63077000D01*
X109027000Y-63077000D01*
X109027000Y-63097000D01*
X108773000Y-63097000D01*
X108773000Y-63077000D01*
X106727000Y-63077000D01*
X106727000Y-64376250D01*
X106820507Y-64469757D01*
X106775518Y-64474188D01*
X106772936Y-64474971D01*
X106681750Y-64465000D01*
X106613782Y-64532968D01*
X106545506Y-64569463D01*
X106448815Y-64648815D01*
X106377000Y-64736322D01*
X106377000Y-64623750D01*
X106288379Y-64535129D01*
X106314250Y-64535000D01*
X106473000Y-64376250D01*
X106473000Y-63077000D01*
X104127000Y-63077000D01*
X104127000Y-64376250D01*
X104285750Y-64535000D01*
X105150000Y-64538072D01*
X105274482Y-64525812D01*
X105394180Y-64489502D01*
X105425000Y-64473028D01*
X105455820Y-64489502D01*
X105575518Y-64525812D01*
X105700000Y-64538072D01*
X105956254Y-64536790D01*
X105887273Y-64575057D01*
X105791831Y-64655908D01*
X105713997Y-64753826D01*
X105656761Y-64865046D01*
X105622323Y-64985296D01*
X105612006Y-65109954D01*
X105615000Y-65514250D01*
X105773750Y-65673000D01*
X106261928Y-65673000D01*
X106261928Y-65927000D01*
X105773750Y-65927000D01*
X105615000Y-66085750D01*
X105612006Y-66490046D01*
X105622323Y-66614704D01*
X105656761Y-66734954D01*
X105713997Y-66846174D01*
X105768864Y-66915199D01*
X105667755Y-66861155D01*
X105521794Y-66816878D01*
X105370000Y-66801928D01*
X105090000Y-66801928D01*
X104938206Y-66816878D01*
X104806509Y-66856828D01*
X104796878Y-66851623D01*
X104677348Y-66814765D01*
X104555750Y-66805000D01*
X104397000Y-66963750D01*
X104397000Y-67233892D01*
X104371155Y-67282245D01*
X104326878Y-67428206D01*
X104311928Y-67580000D01*
X104311928Y-67920000D01*
X104326878Y-68071794D01*
X104371155Y-68217755D01*
X104388390Y-68250000D01*
X104371155Y-68282245D01*
X104326878Y-68428206D01*
X104311928Y-68580000D01*
X104311928Y-68897000D01*
X104143000Y-68897000D01*
X104143000Y-68877000D01*
X103513750Y-68877000D01*
X103355000Y-69035750D01*
X103351935Y-69057077D01*
X103363625Y-69181613D01*
X103399386Y-69301476D01*
X103431343Y-69361928D01*
X103400000Y-69361928D01*
X103275518Y-69374188D01*
X103155820Y-69410498D01*
X103045506Y-69469463D01*
X102948815Y-69548815D01*
X102869463Y-69645506D01*
X102810498Y-69755820D01*
X102774188Y-69875518D01*
X102761928Y-70000000D01*
X102761928Y-70436494D01*
X102754952Y-70443470D01*
X102721184Y-70471183D01*
X102693471Y-70504951D01*
X102693468Y-70504954D01*
X102610590Y-70605941D01*
X102528412Y-70759687D01*
X102477805Y-70926510D01*
X102460719Y-71100000D01*
X102465001Y-71143479D01*
X102465000Y-72315770D01*
X102381329Y-72417725D01*
X102302150Y-72565858D01*
X102253392Y-72726592D01*
X102236928Y-72893750D01*
X102236928Y-73331250D01*
X102253392Y-73498408D01*
X102302150Y-73659142D01*
X102381329Y-73807275D01*
X102457426Y-73900000D01*
X102381329Y-73992725D01*
X102302150Y-74140858D01*
X102253392Y-74301592D01*
X102236928Y-74468750D01*
X102236928Y-74906250D01*
X102253392Y-75073408D01*
X102302150Y-75234142D01*
X102381329Y-75382275D01*
X102397542Y-75402031D01*
X102382382Y-75420503D01*
X102302625Y-75569717D01*
X102253512Y-75731623D01*
X102236928Y-75900000D01*
X102236928Y-76350000D01*
X102253512Y-76518377D01*
X102302625Y-76680283D01*
X102380700Y-76826351D01*
X102344463Y-76870506D01*
X102285498Y-76980820D01*
X102249188Y-77100518D01*
X102236928Y-77225000D01*
X102240000Y-77389250D01*
X102398750Y-77548000D01*
X103223000Y-77548000D01*
X103223000Y-77528000D01*
X103477000Y-77528000D01*
X103477000Y-77548000D01*
X104301250Y-77548000D01*
X104460000Y-77389250D01*
X104463072Y-77225000D01*
X104450812Y-77100518D01*
X104423354Y-77010000D01*
X106668424Y-77010000D01*
X107420352Y-77761928D01*
X107000000Y-77761928D01*
X106875518Y-77774188D01*
X106755820Y-77810498D01*
X106645506Y-77869463D01*
X106600000Y-77906809D01*
X106554494Y-77869463D01*
X106444180Y-77810498D01*
X106324482Y-77774188D01*
X106200000Y-77761928D01*
X105735750Y-77765000D01*
X105577000Y-77923750D01*
X105577000Y-79273000D01*
X105597000Y-79273000D01*
X105597000Y-79527000D01*
X105577000Y-79527000D01*
X105577000Y-79547000D01*
X105323000Y-79547000D01*
X105323000Y-79527000D01*
X105303000Y-79527000D01*
X105303000Y-79273000D01*
X105323000Y-79273000D01*
X105323000Y-77923750D01*
X105164250Y-77765000D01*
X104700000Y-77761928D01*
X104575518Y-77774188D01*
X104455820Y-77810498D01*
X104360629Y-77861379D01*
X104301250Y-77802000D01*
X103477000Y-77802000D01*
X103477000Y-79048000D01*
X103497000Y-79048000D01*
X103497000Y-79302000D01*
X103477000Y-79302000D01*
X103477000Y-79322000D01*
X103223000Y-79322000D01*
X103223000Y-79302000D01*
X102398750Y-79302000D01*
X102240000Y-79460750D01*
X102236928Y-79625000D01*
X102249188Y-79749482D01*
X102285498Y-79869180D01*
X102344463Y-79979494D01*
X102380700Y-80023649D01*
X102302625Y-80169717D01*
X102253512Y-80331623D01*
X102236928Y-80500000D01*
X102236928Y-80950000D01*
X102253512Y-81118377D01*
X102302625Y-81280283D01*
X102334545Y-81340000D01*
X102032279Y-81340000D01*
X101934576Y-81330420D01*
X101871643Y-81311420D01*
X101813594Y-81280554D01*
X101762657Y-81239011D01*
X101720752Y-81188356D01*
X101689485Y-81130529D01*
X101670044Y-81067728D01*
X101660000Y-80972165D01*
X101660000Y-78125000D01*
X102236928Y-78125000D01*
X102249188Y-78249482D01*
X102285498Y-78369180D01*
X102315335Y-78425000D01*
X102285498Y-78480820D01*
X102249188Y-78600518D01*
X102236928Y-78725000D01*
X102240000Y-78889250D01*
X102398750Y-79048000D01*
X103223000Y-79048000D01*
X103223000Y-77802000D01*
X102398750Y-77802000D01*
X102240000Y-77960750D01*
X102236928Y-78125000D01*
X101660000Y-78125000D01*
X101660000Y-68057077D01*
X103351935Y-68057077D01*
X103363625Y-68181613D01*
X103384028Y-68249999D01*
X103363625Y-68318387D01*
X103351935Y-68442923D01*
X103355000Y-68464250D01*
X103513750Y-68623000D01*
X103696164Y-68623000D01*
X103743122Y-68648377D01*
X103862652Y-68685235D01*
X103984250Y-68695000D01*
X104056250Y-68623000D01*
X104143000Y-68623000D01*
X104143000Y-67877000D01*
X104056250Y-67877000D01*
X103984250Y-67805000D01*
X103862652Y-67814765D01*
X103743122Y-67851623D01*
X103696164Y-67877000D01*
X103513750Y-67877000D01*
X103355000Y-68035750D01*
X103351935Y-68057077D01*
X101660000Y-68057077D01*
X101660000Y-67442923D01*
X103351935Y-67442923D01*
X103355000Y-67464250D01*
X103513750Y-67623000D01*
X104143000Y-67623000D01*
X104143000Y-66963750D01*
X103984250Y-66805000D01*
X103862652Y-66814765D01*
X103743122Y-66851623D01*
X103633079Y-66911092D01*
X103536753Y-66990887D01*
X103457844Y-67087941D01*
X103399386Y-67198524D01*
X103363625Y-67318387D01*
X103351935Y-67442923D01*
X101660000Y-67442923D01*
X101660000Y-63900000D01*
X102211928Y-63900000D01*
X102224188Y-64024482D01*
X102260498Y-64144180D01*
X102319463Y-64254494D01*
X102398815Y-64351185D01*
X102495506Y-64430537D01*
X102605820Y-64489502D01*
X102725518Y-64525812D01*
X102850000Y-64538072D01*
X103714250Y-64535000D01*
X103873000Y-64376250D01*
X103873000Y-63077000D01*
X102373750Y-63077000D01*
X102215000Y-63235750D01*
X102211928Y-63900000D01*
X101660000Y-63900000D01*
X101660000Y-62000000D01*
X102211928Y-62000000D01*
X102215000Y-62664250D01*
X102373750Y-62823000D01*
X103873000Y-62823000D01*
X103873000Y-61523750D01*
X104127000Y-61523750D01*
X104127000Y-62823000D01*
X106473000Y-62823000D01*
X106473000Y-61523750D01*
X106727000Y-61523750D01*
X106727000Y-62823000D01*
X108773000Y-62823000D01*
X108773000Y-61523750D01*
X109027000Y-61523750D01*
X109027000Y-62823000D01*
X111373000Y-62823000D01*
X111373000Y-61523750D01*
X111627000Y-61523750D01*
X111627000Y-62823000D01*
X113126250Y-62823000D01*
X113285000Y-62664250D01*
X113288072Y-62000000D01*
X113275812Y-61875518D01*
X113239502Y-61755820D01*
X113180537Y-61645506D01*
X113101185Y-61548815D01*
X113004494Y-61469463D01*
X112894180Y-61410498D01*
X112774482Y-61374188D01*
X112650000Y-61361928D01*
X111785750Y-61365000D01*
X111627000Y-61523750D01*
X111373000Y-61523750D01*
X111214250Y-61365000D01*
X110350000Y-61361928D01*
X110225518Y-61374188D01*
X110105820Y-61410498D01*
X110075000Y-61426972D01*
X110044180Y-61410498D01*
X109924482Y-61374188D01*
X109800000Y-61361928D01*
X109185750Y-61365000D01*
X109027000Y-61523750D01*
X108773000Y-61523750D01*
X108614250Y-61365000D01*
X108000000Y-61361928D01*
X107875518Y-61374188D01*
X107755820Y-61410498D01*
X107750000Y-61413609D01*
X107744180Y-61410498D01*
X107624482Y-61374188D01*
X107500000Y-61361928D01*
X106885750Y-61365000D01*
X106727000Y-61523750D01*
X106473000Y-61523750D01*
X106314250Y-61365000D01*
X105700000Y-61361928D01*
X105575518Y-61374188D01*
X105455820Y-61410498D01*
X105425000Y-61426972D01*
X105394180Y-61410498D01*
X105274482Y-61374188D01*
X105150000Y-61361928D01*
X104285750Y-61365000D01*
X104127000Y-61523750D01*
X103873000Y-61523750D01*
X103714250Y-61365000D01*
X102850000Y-61361928D01*
X102725518Y-61374188D01*
X102605820Y-61410498D01*
X102495506Y-61469463D01*
X102398815Y-61548815D01*
X102319463Y-61645506D01*
X102260498Y-61755820D01*
X102224188Y-61875518D01*
X102211928Y-62000000D01*
X101660000Y-62000000D01*
X101660000Y-61032279D01*
X101669580Y-60934576D01*
X101688580Y-60871644D01*
X101719445Y-60813595D01*
X101760989Y-60762657D01*
X101811644Y-60720752D01*
X101869471Y-60689485D01*
X101932272Y-60670044D01*
X102027835Y-60660000D01*
X121467721Y-60660000D01*
X122051010Y-60717192D01*
G37*
%TD.AperFunction*%
D24*
X115577000Y-70323000D02*
X115597000Y-70323000D01*
X115597000Y-70577000D01*
X115577000Y-70577000D01*
X115577000Y-70597000D01*
X115323000Y-70597000D01*
X115323000Y-70577000D01*
X115303000Y-70577000D01*
X115303000Y-70323000D01*
X115323000Y-70323000D01*
X115323000Y-70303000D01*
X115577000Y-70303000D01*
X115577000Y-70323000D01*
%TA.AperFunction,Conductor*%
D25*
G36*
X115577000Y-70323000D02*
G01*
X115597000Y-70323000D01*
X115597000Y-70577000D01*
X115577000Y-70577000D01*
X115577000Y-70597000D01*
X115323000Y-70597000D01*
X115323000Y-70577000D01*
X115303000Y-70577000D01*
X115303000Y-70323000D01*
X115323000Y-70323000D01*
X115323000Y-70303000D01*
X115577000Y-70303000D01*
X115577000Y-70323000D01*
G37*
%TD.AperFunction*%
%TD*%
M02*
