%TF.GenerationSoftware,KiCad,Pcbnew,5.1.8*%
%TF.CreationDate,2020-11-25T09:49:16+09:00*%
%TF.ProjectId,rasp_usb,72617370-5f75-4736-922e-6b696361645f,rev?*%
%TF.SameCoordinates,Original*%
%TF.FileFunction,Legend,Top*%
%TF.FilePolarity,Positive*%
%FSLAX46Y46*%
G04 Gerber Fmt 4.6, Leading zero omitted, Abs format (unit mm)*
G04 Created by KiCad (PCBNEW 5.1.8) date 2020-11-25 09:49:16*
%MOMM*%
%LPD*%
G01*
G04 APERTURE LIST*
%ADD10C,0.120000*%
%ADD11C,0.150000*%
G04 APERTURE END LIST*
D10*
%TO.C,U1*%
X111160000Y-74340000D02*
X109900000Y-74340000D01*
X104340000Y-74340000D02*
X105600000Y-74340000D01*
X111160000Y-78100000D02*
X111160000Y-74340000D01*
X104340000Y-80350000D02*
X104340000Y-74340000D01*
%TO.C,C1*%
X114490000Y-74390580D02*
X114490000Y-74109420D01*
X115510000Y-74390580D02*
X115510000Y-74109420D01*
%TO.C,C2*%
X113760000Y-74390580D02*
X113760000Y-74109420D01*
X112740000Y-74390580D02*
X112740000Y-74109420D01*
%TO.C,C3*%
X116240000Y-74390580D02*
X116240000Y-74109420D01*
X117260000Y-74390580D02*
X117260000Y-74109420D01*
%TO.C,C4*%
X104857836Y-67140000D02*
X104642164Y-67140000D01*
X104857836Y-67860000D02*
X104642164Y-67860000D01*
%TO.C,C5*%
X103860000Y-76759420D02*
X103860000Y-77040580D01*
X102840000Y-76759420D02*
X102840000Y-77040580D01*
%TO.C,C6*%
X104857836Y-68860000D02*
X104642164Y-68860000D01*
X104857836Y-68140000D02*
X104642164Y-68140000D01*
%TO.C,C7*%
X116642164Y-66190000D02*
X116857836Y-66190000D01*
X116642164Y-66910000D02*
X116857836Y-66910000D01*
%TO.C,C8*%
X103860000Y-80090580D02*
X103860000Y-79809420D01*
X102840000Y-80090580D02*
X102840000Y-79809420D01*
%TO.C,D2*%
X114275000Y-78322500D02*
X116560000Y-78322500D01*
X116560000Y-78322500D02*
X116560000Y-76852500D01*
X116560000Y-76852500D02*
X114275000Y-76852500D01*
%TO.C,FB1*%
X109337221Y-70490000D02*
X109662779Y-70490000D01*
X109337221Y-71510000D02*
X109662779Y-71510000D01*
%TO.C,R3*%
X108370000Y-67596359D02*
X108370000Y-67903641D01*
X109130000Y-67596359D02*
X109130000Y-67903641D01*
%TO.C,R4*%
X107655000Y-66846359D02*
X107655000Y-67153641D01*
X106895000Y-66846359D02*
X106895000Y-67153641D01*
%TO.C,R5*%
X114837742Y-78852500D02*
X115312258Y-78852500D01*
X114837742Y-79897500D02*
X115312258Y-79897500D01*
%TO.C,U2*%
X117110000Y-71135000D02*
X117110000Y-71860000D01*
X117110000Y-71860000D02*
X116385000Y-71860000D01*
X112890000Y-68365000D02*
X112890000Y-67640000D01*
X112890000Y-67640000D02*
X113615000Y-67640000D01*
X112890000Y-71135000D02*
X112890000Y-71860000D01*
X112890000Y-71860000D02*
X113615000Y-71860000D01*
X117110000Y-68365000D02*
X117110000Y-67640000D01*
%TO.C,J1*%
X111425000Y-63065000D02*
X111425000Y-64615000D01*
X111425000Y-63065000D02*
X111125000Y-63065000D01*
X111125000Y-60265000D02*
X111125000Y-63065000D01*
X103125000Y-63065000D02*
X103125000Y-64615000D01*
X103425000Y-63065000D02*
X103125000Y-63065000D01*
X103425000Y-60265000D02*
X103425000Y-63065000D01*
X108175000Y-66315000D02*
X108575000Y-65865000D01*
X108975000Y-66315000D02*
X108175000Y-66315000D01*
X108575000Y-65865000D02*
X108975000Y-66315000D01*
%TO.C,F1*%
X102840000Y-73737221D02*
X102840000Y-74062779D01*
X103860000Y-73737221D02*
X103860000Y-74062779D01*
%TO.C,D1*%
X103250000Y-69600000D02*
X107150000Y-69600000D01*
X103250000Y-71600000D02*
X107150000Y-71600000D01*
X103250000Y-69600000D02*
X103250000Y-71600000D01*
%TO.C,U1*%
D11*
X106988095Y-80702380D02*
X106988095Y-81511904D01*
X107035714Y-81607142D01*
X107083333Y-81654761D01*
X107178571Y-81702380D01*
X107369047Y-81702380D01*
X107464285Y-81654761D01*
X107511904Y-81607142D01*
X107559523Y-81511904D01*
X107559523Y-80702380D01*
X108559523Y-81702380D02*
X107988095Y-81702380D01*
X108273809Y-81702380D02*
X108273809Y-80702380D01*
X108178571Y-80845238D01*
X108083333Y-80940476D01*
X107988095Y-80988095D01*
%TO.C,C1*%
X114833333Y-76607142D02*
X114785714Y-76654761D01*
X114642857Y-76702380D01*
X114547619Y-76702380D01*
X114404761Y-76654761D01*
X114309523Y-76559523D01*
X114261904Y-76464285D01*
X114214285Y-76273809D01*
X114214285Y-76130952D01*
X114261904Y-75940476D01*
X114309523Y-75845238D01*
X114404761Y-75750000D01*
X114547619Y-75702380D01*
X114642857Y-75702380D01*
X114785714Y-75750000D01*
X114833333Y-75797619D01*
X115785714Y-76702380D02*
X115214285Y-76702380D01*
X115500000Y-76702380D02*
X115500000Y-75702380D01*
X115404761Y-75845238D01*
X115309523Y-75940476D01*
X115214285Y-75988095D01*
%TO.C,C2*%
X113083333Y-76607142D02*
X113035714Y-76654761D01*
X112892857Y-76702380D01*
X112797619Y-76702380D01*
X112654761Y-76654761D01*
X112559523Y-76559523D01*
X112511904Y-76464285D01*
X112464285Y-76273809D01*
X112464285Y-76130952D01*
X112511904Y-75940476D01*
X112559523Y-75845238D01*
X112654761Y-75750000D01*
X112797619Y-75702380D01*
X112892857Y-75702380D01*
X113035714Y-75750000D01*
X113083333Y-75797619D01*
X113464285Y-75797619D02*
X113511904Y-75750000D01*
X113607142Y-75702380D01*
X113845238Y-75702380D01*
X113940476Y-75750000D01*
X113988095Y-75797619D01*
X114035714Y-75892857D01*
X114035714Y-75988095D01*
X113988095Y-76130952D01*
X113416666Y-76702380D01*
X114035714Y-76702380D01*
%TO.C,C3*%
X116633333Y-76657142D02*
X116585714Y-76704761D01*
X116442857Y-76752380D01*
X116347619Y-76752380D01*
X116204761Y-76704761D01*
X116109523Y-76609523D01*
X116061904Y-76514285D01*
X116014285Y-76323809D01*
X116014285Y-76180952D01*
X116061904Y-75990476D01*
X116109523Y-75895238D01*
X116204761Y-75800000D01*
X116347619Y-75752380D01*
X116442857Y-75752380D01*
X116585714Y-75800000D01*
X116633333Y-75847619D01*
X116966666Y-75752380D02*
X117585714Y-75752380D01*
X117252380Y-76133333D01*
X117395238Y-76133333D01*
X117490476Y-76180952D01*
X117538095Y-76228571D01*
X117585714Y-76323809D01*
X117585714Y-76561904D01*
X117538095Y-76657142D01*
X117490476Y-76704761D01*
X117395238Y-76752380D01*
X117109523Y-76752380D01*
X117014285Y-76704761D01*
X116966666Y-76657142D01*
%TO.C,C4*%
X102583333Y-67857142D02*
X102535714Y-67904761D01*
X102392857Y-67952380D01*
X102297619Y-67952380D01*
X102154761Y-67904761D01*
X102059523Y-67809523D01*
X102011904Y-67714285D01*
X101964285Y-67523809D01*
X101964285Y-67380952D01*
X102011904Y-67190476D01*
X102059523Y-67095238D01*
X102154761Y-67000000D01*
X102297619Y-66952380D01*
X102392857Y-66952380D01*
X102535714Y-67000000D01*
X102583333Y-67047619D01*
X103440476Y-67285714D02*
X103440476Y-67952380D01*
X103202380Y-66904761D02*
X102964285Y-67619047D01*
X103583333Y-67619047D01*
%TO.C,C5*%
X102457142Y-77066666D02*
X102504761Y-77114285D01*
X102552380Y-77257142D01*
X102552380Y-77352380D01*
X102504761Y-77495238D01*
X102409523Y-77590476D01*
X102314285Y-77638095D01*
X102123809Y-77685714D01*
X101980952Y-77685714D01*
X101790476Y-77638095D01*
X101695238Y-77590476D01*
X101600000Y-77495238D01*
X101552380Y-77352380D01*
X101552380Y-77257142D01*
X101600000Y-77114285D01*
X101647619Y-77066666D01*
X101552380Y-76161904D02*
X101552380Y-76638095D01*
X102028571Y-76685714D01*
X101980952Y-76638095D01*
X101933333Y-76542857D01*
X101933333Y-76304761D01*
X101980952Y-76209523D01*
X102028571Y-76161904D01*
X102123809Y-76114285D01*
X102361904Y-76114285D01*
X102457142Y-76161904D01*
X102504761Y-76209523D01*
X102552380Y-76304761D01*
X102552380Y-76542857D01*
X102504761Y-76638095D01*
X102457142Y-76685714D01*
%TO.C,C6*%
X102583333Y-69107142D02*
X102535714Y-69154761D01*
X102392857Y-69202380D01*
X102297619Y-69202380D01*
X102154761Y-69154761D01*
X102059523Y-69059523D01*
X102011904Y-68964285D01*
X101964285Y-68773809D01*
X101964285Y-68630952D01*
X102011904Y-68440476D01*
X102059523Y-68345238D01*
X102154761Y-68250000D01*
X102297619Y-68202380D01*
X102392857Y-68202380D01*
X102535714Y-68250000D01*
X102583333Y-68297619D01*
X103440476Y-68202380D02*
X103250000Y-68202380D01*
X103154761Y-68250000D01*
X103107142Y-68297619D01*
X103011904Y-68440476D01*
X102964285Y-68630952D01*
X102964285Y-69011904D01*
X103011904Y-69107142D01*
X103059523Y-69154761D01*
X103154761Y-69202380D01*
X103345238Y-69202380D01*
X103440476Y-69154761D01*
X103488095Y-69107142D01*
X103535714Y-69011904D01*
X103535714Y-68773809D01*
X103488095Y-68678571D01*
X103440476Y-68630952D01*
X103345238Y-68583333D01*
X103154761Y-68583333D01*
X103059523Y-68630952D01*
X103011904Y-68678571D01*
X102964285Y-68773809D01*
%TO.C,C7*%
X116583333Y-65607142D02*
X116535714Y-65654761D01*
X116392857Y-65702380D01*
X116297619Y-65702380D01*
X116154761Y-65654761D01*
X116059523Y-65559523D01*
X116011904Y-65464285D01*
X115964285Y-65273809D01*
X115964285Y-65130952D01*
X116011904Y-64940476D01*
X116059523Y-64845238D01*
X116154761Y-64750000D01*
X116297619Y-64702380D01*
X116392857Y-64702380D01*
X116535714Y-64750000D01*
X116583333Y-64797619D01*
X116916666Y-64702380D02*
X117583333Y-64702380D01*
X117154761Y-65702380D01*
%TO.C,C8*%
X102457142Y-80116666D02*
X102504761Y-80164285D01*
X102552380Y-80307142D01*
X102552380Y-80402380D01*
X102504761Y-80545238D01*
X102409523Y-80640476D01*
X102314285Y-80688095D01*
X102123809Y-80735714D01*
X101980952Y-80735714D01*
X101790476Y-80688095D01*
X101695238Y-80640476D01*
X101600000Y-80545238D01*
X101552380Y-80402380D01*
X101552380Y-80307142D01*
X101600000Y-80164285D01*
X101647619Y-80116666D01*
X101980952Y-79545238D02*
X101933333Y-79640476D01*
X101885714Y-79688095D01*
X101790476Y-79735714D01*
X101742857Y-79735714D01*
X101647619Y-79688095D01*
X101600000Y-79640476D01*
X101552380Y-79545238D01*
X101552380Y-79354761D01*
X101600000Y-79259523D01*
X101647619Y-79211904D01*
X101742857Y-79164285D01*
X101790476Y-79164285D01*
X101885714Y-79211904D01*
X101933333Y-79259523D01*
X101980952Y-79354761D01*
X101980952Y-79545238D01*
X102028571Y-79640476D01*
X102076190Y-79688095D01*
X102171428Y-79735714D01*
X102361904Y-79735714D01*
X102457142Y-79688095D01*
X102504761Y-79640476D01*
X102552380Y-79545238D01*
X102552380Y-79354761D01*
X102504761Y-79259523D01*
X102457142Y-79211904D01*
X102361904Y-79164285D01*
X102171428Y-79164285D01*
X102076190Y-79211904D01*
X102028571Y-79259523D01*
X101980952Y-79354761D01*
%TO.C,D2*%
X112011904Y-78202380D02*
X112011904Y-77202380D01*
X112250000Y-77202380D01*
X112392857Y-77250000D01*
X112488095Y-77345238D01*
X112535714Y-77440476D01*
X112583333Y-77630952D01*
X112583333Y-77773809D01*
X112535714Y-77964285D01*
X112488095Y-78059523D01*
X112392857Y-78154761D01*
X112250000Y-78202380D01*
X112011904Y-78202380D01*
X112964285Y-77297619D02*
X113011904Y-77250000D01*
X113107142Y-77202380D01*
X113345238Y-77202380D01*
X113440476Y-77250000D01*
X113488095Y-77297619D01*
X113535714Y-77392857D01*
X113535714Y-77488095D01*
X113488095Y-77630952D01*
X112916666Y-78202380D01*
X113535714Y-78202380D01*
%TO.C,FB1*%
X108716666Y-69678571D02*
X108383333Y-69678571D01*
X108383333Y-70202380D02*
X108383333Y-69202380D01*
X108859523Y-69202380D01*
X109573809Y-69678571D02*
X109716666Y-69726190D01*
X109764285Y-69773809D01*
X109811904Y-69869047D01*
X109811904Y-70011904D01*
X109764285Y-70107142D01*
X109716666Y-70154761D01*
X109621428Y-70202380D01*
X109240476Y-70202380D01*
X109240476Y-69202380D01*
X109573809Y-69202380D01*
X109669047Y-69250000D01*
X109716666Y-69297619D01*
X109764285Y-69392857D01*
X109764285Y-69488095D01*
X109716666Y-69583333D01*
X109669047Y-69630952D01*
X109573809Y-69678571D01*
X109240476Y-69678571D01*
X110764285Y-70202380D02*
X110192857Y-70202380D01*
X110478571Y-70202380D02*
X110478571Y-69202380D01*
X110383333Y-69345238D01*
X110288095Y-69440476D01*
X110192857Y-69488095D01*
%TO.C,R3*%
X110083333Y-67952380D02*
X109750000Y-67476190D01*
X109511904Y-67952380D02*
X109511904Y-66952380D01*
X109892857Y-66952380D01*
X109988095Y-67000000D01*
X110035714Y-67047619D01*
X110083333Y-67142857D01*
X110083333Y-67285714D01*
X110035714Y-67380952D01*
X109988095Y-67428571D01*
X109892857Y-67476190D01*
X109511904Y-67476190D01*
X110416666Y-66952380D02*
X111035714Y-66952380D01*
X110702380Y-67333333D01*
X110845238Y-67333333D01*
X110940476Y-67380952D01*
X110988095Y-67428571D01*
X111035714Y-67523809D01*
X111035714Y-67761904D01*
X110988095Y-67857142D01*
X110940476Y-67904761D01*
X110845238Y-67952380D01*
X110559523Y-67952380D01*
X110464285Y-67904761D01*
X110416666Y-67857142D01*
%TO.C,R4*%
X107083333Y-68952380D02*
X106750000Y-68476190D01*
X106511904Y-68952380D02*
X106511904Y-67952380D01*
X106892857Y-67952380D01*
X106988095Y-68000000D01*
X107035714Y-68047619D01*
X107083333Y-68142857D01*
X107083333Y-68285714D01*
X107035714Y-68380952D01*
X106988095Y-68428571D01*
X106892857Y-68476190D01*
X106511904Y-68476190D01*
X107940476Y-68285714D02*
X107940476Y-68952380D01*
X107702380Y-67904761D02*
X107464285Y-68619047D01*
X108083333Y-68619047D01*
%TO.C,R5*%
X112583333Y-79952380D02*
X112250000Y-79476190D01*
X112011904Y-79952380D02*
X112011904Y-78952380D01*
X112392857Y-78952380D01*
X112488095Y-79000000D01*
X112535714Y-79047619D01*
X112583333Y-79142857D01*
X112583333Y-79285714D01*
X112535714Y-79380952D01*
X112488095Y-79428571D01*
X112392857Y-79476190D01*
X112011904Y-79476190D01*
X113488095Y-78952380D02*
X113011904Y-78952380D01*
X112964285Y-79428571D01*
X113011904Y-79380952D01*
X113107142Y-79333333D01*
X113345238Y-79333333D01*
X113440476Y-79380952D01*
X113488095Y-79428571D01*
X113535714Y-79523809D01*
X113535714Y-79761904D01*
X113488095Y-79857142D01*
X113440476Y-79904761D01*
X113345238Y-79952380D01*
X113107142Y-79952380D01*
X113011904Y-79904761D01*
X112964285Y-79857142D01*
%TO.C,U2*%
X112488095Y-65952380D02*
X112488095Y-66761904D01*
X112535714Y-66857142D01*
X112583333Y-66904761D01*
X112678571Y-66952380D01*
X112869047Y-66952380D01*
X112964285Y-66904761D01*
X113011904Y-66857142D01*
X113059523Y-66761904D01*
X113059523Y-65952380D01*
X113488095Y-66047619D02*
X113535714Y-66000000D01*
X113630952Y-65952380D01*
X113869047Y-65952380D01*
X113964285Y-66000000D01*
X114011904Y-66047619D01*
X114059523Y-66142857D01*
X114059523Y-66238095D01*
X114011904Y-66380952D01*
X113440476Y-66952380D01*
X114059523Y-66952380D01*
%TO.C,H1*%
X117488095Y-62202380D02*
X117488095Y-61202380D01*
X117488095Y-61678571D02*
X118059523Y-61678571D01*
X118059523Y-62202380D02*
X118059523Y-61202380D01*
X119059523Y-62202380D02*
X118488095Y-62202380D01*
X118773809Y-62202380D02*
X118773809Y-61202380D01*
X118678571Y-61345238D01*
X118583333Y-61440476D01*
X118488095Y-61488095D01*
%TO.C,J1*%
X106916666Y-62702380D02*
X106916666Y-63416666D01*
X106869047Y-63559523D01*
X106773809Y-63654761D01*
X106630952Y-63702380D01*
X106535714Y-63702380D01*
X107916666Y-63702380D02*
X107345238Y-63702380D01*
X107630952Y-63702380D02*
X107630952Y-62702380D01*
X107535714Y-62845238D01*
X107440476Y-62940476D01*
X107345238Y-62988095D01*
%TO.C,F1*%
X101928571Y-74133333D02*
X101928571Y-74466666D01*
X102452380Y-74466666D02*
X101452380Y-74466666D01*
X101452380Y-73990476D01*
X102452380Y-73085714D02*
X102452380Y-73657142D01*
X102452380Y-73371428D02*
X101452380Y-73371428D01*
X101595238Y-73466666D01*
X101690476Y-73561904D01*
X101738095Y-73657142D01*
%TO.C,D1*%
X101561904Y-71052380D02*
X101561904Y-70052380D01*
X101800000Y-70052380D01*
X101942857Y-70100000D01*
X102038095Y-70195238D01*
X102085714Y-70290476D01*
X102133333Y-70480952D01*
X102133333Y-70623809D01*
X102085714Y-70814285D01*
X102038095Y-70909523D01*
X101942857Y-71004761D01*
X101800000Y-71052380D01*
X101561904Y-71052380D01*
X103085714Y-71052380D02*
X102514285Y-71052380D01*
X102800000Y-71052380D02*
X102800000Y-70052380D01*
X102704761Y-70195238D01*
X102609523Y-70290476D01*
X102514285Y-70338095D01*
%TD*%
M02*
