%TF.GenerationSoftware,KiCad,Pcbnew,5.1.8*%
%TF.CreationDate,2020-11-23T13:22:29+09:00*%
%TF.ProjectId,rasp_usb,72617370-5f75-4736-922e-6b696361645f,rev?*%
%TF.SameCoordinates,Original*%
%TF.FileFunction,Copper,L1,Top*%
%TF.FilePolarity,Positive*%
%FSLAX46Y46*%
G04 Gerber Fmt 4.6, Leading zero omitted, Abs format (unit mm)*
G04 Created by KiCad (PCBNEW 5.1.8) date 2020-11-23 13:22:29*
%MOMM*%
%LPD*%
G01*
G04 APERTURE LIST*
%TA.AperFunction,ComponentPad*%
%ADD10R,1.700000X1.700000*%
%TD*%
%TA.AperFunction,ComponentPad*%
%ADD11O,1.700000X1.700000*%
%TD*%
%TA.AperFunction,SMDPad,CuDef*%
%ADD12R,3.800000X2.000000*%
%TD*%
%TA.AperFunction,SMDPad,CuDef*%
%ADD13R,1.500000X2.000000*%
%TD*%
%TA.AperFunction,SMDPad,CuDef*%
%ADD14R,2.100000X2.100000*%
%TD*%
%TA.AperFunction,SMDPad,CuDef*%
%ADD15R,1.350000X2.000000*%
%TD*%
%TA.AperFunction,SMDPad,CuDef*%
%ADD16R,1.825000X0.700000*%
%TD*%
%TA.AperFunction,SMDPad,CuDef*%
%ADD17R,2.000000X1.500000*%
%TD*%
%TA.AperFunction,SMDPad,CuDef*%
%ADD18R,0.400000X1.650000*%
%TD*%
%TA.AperFunction,ComponentPad*%
%ADD19O,1.100000X1.500000*%
%TD*%
%TA.AperFunction,ComponentPad*%
%ADD20O,1.350000X1.700000*%
%TD*%
%TA.AperFunction,SMDPad,CuDef*%
%ADD21R,1.430000X2.500000*%
%TD*%
%TA.AperFunction,SMDPad,CuDef*%
%ADD22R,0.900000X1.200000*%
%TD*%
%TA.AperFunction,ViaPad*%
%ADD23C,0.800000*%
%TD*%
%TA.AperFunction,ViaPad*%
%ADD24C,0.600000*%
%TD*%
%TA.AperFunction,Conductor*%
%ADD25C,0.300000*%
%TD*%
%TA.AperFunction,Conductor*%
%ADD26C,0.500000*%
%TD*%
%TA.AperFunction,Conductor*%
%ADD27C,0.250000*%
%TD*%
%TA.AperFunction,Conductor*%
%ADD28C,0.254000*%
%TD*%
%TA.AperFunction,Conductor*%
%ADD29C,0.100000*%
%TD*%
G04 APERTURE END LIST*
D10*
%TO.P,J2,1*%
%TO.N,3V3*%
X120250000Y-68500000D03*
D11*
%TO.P,J2,2*%
%TO.N,5V*%
X122790000Y-68500000D03*
%TO.P,J2,3*%
%TO.N,Net-(J2-Pad3)*%
X120250000Y-71040000D03*
%TO.P,J2,4*%
%TO.N,5V*%
X122790000Y-71040000D03*
%TO.P,J2,5*%
%TO.N,Net-(J2-Pad5)*%
X120250000Y-73580000D03*
%TO.P,J2,6*%
%TO.N,GND*%
X122790000Y-73580000D03*
%TO.P,J2,7*%
%TO.N,Net-(J2-Pad7)*%
X120250000Y-76120000D03*
%TO.P,J2,8*%
%TO.N,UART_TXD*%
X122790000Y-76120000D03*
%TO.P,J2,9*%
%TO.N,GND*%
X120250000Y-78660000D03*
%TO.P,J2,10*%
%TO.N,UART_RXD*%
X122790000Y-78660000D03*
%TD*%
D12*
%TO.P,U1,2*%
%TO.N,+5V*%
X107750000Y-73100000D03*
D13*
X107750000Y-79400000D03*
%TO.P,U1,3*%
%TO.N,Net-(C5-Pad1)*%
X110050000Y-79400000D03*
%TO.P,U1,1*%
%TO.N,GND*%
X105450000Y-79400000D03*
%TD*%
%TO.P,C1,1*%
%TO.N,+5V*%
%TA.AperFunction,SMDPad,CuDef*%
G36*
G01*
X115250000Y-75475000D02*
X114750000Y-75475000D01*
G75*
G02*
X114525000Y-75250000I0J225000D01*
G01*
X114525000Y-74800000D01*
G75*
G02*
X114750000Y-74575000I225000J0D01*
G01*
X115250000Y-74575000D01*
G75*
G02*
X115475000Y-74800000I0J-225000D01*
G01*
X115475000Y-75250000D01*
G75*
G02*
X115250000Y-75475000I-225000J0D01*
G01*
G37*
%TD.AperFunction*%
%TO.P,C1,2*%
%TO.N,GND*%
%TA.AperFunction,SMDPad,CuDef*%
G36*
G01*
X115250000Y-73925000D02*
X114750000Y-73925000D01*
G75*
G02*
X114525000Y-73700000I0J225000D01*
G01*
X114525000Y-73250000D01*
G75*
G02*
X114750000Y-73025000I225000J0D01*
G01*
X115250000Y-73025000D01*
G75*
G02*
X115475000Y-73250000I0J-225000D01*
G01*
X115475000Y-73700000D01*
G75*
G02*
X115250000Y-73925000I-225000J0D01*
G01*
G37*
%TD.AperFunction*%
%TD*%
%TO.P,C2,2*%
%TO.N,GND*%
%TA.AperFunction,SMDPad,CuDef*%
G36*
G01*
X113500000Y-73925000D02*
X113000000Y-73925000D01*
G75*
G02*
X112775000Y-73700000I0J225000D01*
G01*
X112775000Y-73250000D01*
G75*
G02*
X113000000Y-73025000I225000J0D01*
G01*
X113500000Y-73025000D01*
G75*
G02*
X113725000Y-73250000I0J-225000D01*
G01*
X113725000Y-73700000D01*
G75*
G02*
X113500000Y-73925000I-225000J0D01*
G01*
G37*
%TD.AperFunction*%
%TO.P,C2,1*%
%TO.N,+5V*%
%TA.AperFunction,SMDPad,CuDef*%
G36*
G01*
X113500000Y-75475000D02*
X113000000Y-75475000D01*
G75*
G02*
X112775000Y-75250000I0J225000D01*
G01*
X112775000Y-74800000D01*
G75*
G02*
X113000000Y-74575000I225000J0D01*
G01*
X113500000Y-74575000D01*
G75*
G02*
X113725000Y-74800000I0J-225000D01*
G01*
X113725000Y-75250000D01*
G75*
G02*
X113500000Y-75475000I-225000J0D01*
G01*
G37*
%TD.AperFunction*%
%TD*%
%TO.P,C3,1*%
%TO.N,+5V*%
%TA.AperFunction,SMDPad,CuDef*%
G36*
G01*
X117000000Y-75475000D02*
X116500000Y-75475000D01*
G75*
G02*
X116275000Y-75250000I0J225000D01*
G01*
X116275000Y-74800000D01*
G75*
G02*
X116500000Y-74575000I225000J0D01*
G01*
X117000000Y-74575000D01*
G75*
G02*
X117225000Y-74800000I0J-225000D01*
G01*
X117225000Y-75250000D01*
G75*
G02*
X117000000Y-75475000I-225000J0D01*
G01*
G37*
%TD.AperFunction*%
%TO.P,C3,2*%
%TO.N,GND*%
%TA.AperFunction,SMDPad,CuDef*%
G36*
G01*
X117000000Y-73925000D02*
X116500000Y-73925000D01*
G75*
G02*
X116275000Y-73700000I0J225000D01*
G01*
X116275000Y-73250000D01*
G75*
G02*
X116500000Y-73025000I225000J0D01*
G01*
X117000000Y-73025000D01*
G75*
G02*
X117225000Y-73250000I0J-225000D01*
G01*
X117225000Y-73700000D01*
G75*
G02*
X117000000Y-73925000I-225000J0D01*
G01*
G37*
%TD.AperFunction*%
%TD*%
%TO.P,C4,2*%
%TO.N,GND*%
%TA.AperFunction,SMDPad,CuDef*%
G36*
G01*
X104550000Y-67330000D02*
X104550000Y-67670000D01*
G75*
G02*
X104410000Y-67810000I-140000J0D01*
G01*
X104130000Y-67810000D01*
G75*
G02*
X103990000Y-67670000I0J140000D01*
G01*
X103990000Y-67330000D01*
G75*
G02*
X104130000Y-67190000I140000J0D01*
G01*
X104410000Y-67190000D01*
G75*
G02*
X104550000Y-67330000I0J-140000D01*
G01*
G37*
%TD.AperFunction*%
%TO.P,C4,1*%
%TO.N,USB_DP*%
%TA.AperFunction,SMDPad,CuDef*%
G36*
G01*
X105510000Y-67330000D02*
X105510000Y-67670000D01*
G75*
G02*
X105370000Y-67810000I-140000J0D01*
G01*
X105090000Y-67810000D01*
G75*
G02*
X104950000Y-67670000I0J140000D01*
G01*
X104950000Y-67330000D01*
G75*
G02*
X105090000Y-67190000I140000J0D01*
G01*
X105370000Y-67190000D01*
G75*
G02*
X105510000Y-67330000I0J-140000D01*
G01*
G37*
%TD.AperFunction*%
%TD*%
%TO.P,C5,1*%
%TO.N,Net-(C5-Pad1)*%
%TA.AperFunction,SMDPad,CuDef*%
G36*
G01*
X103100000Y-75675000D02*
X103600000Y-75675000D01*
G75*
G02*
X103825000Y-75900000I0J-225000D01*
G01*
X103825000Y-76350000D01*
G75*
G02*
X103600000Y-76575000I-225000J0D01*
G01*
X103100000Y-76575000D01*
G75*
G02*
X102875000Y-76350000I0J225000D01*
G01*
X102875000Y-75900000D01*
G75*
G02*
X103100000Y-75675000I225000J0D01*
G01*
G37*
%TD.AperFunction*%
%TO.P,C5,2*%
%TO.N,GND*%
%TA.AperFunction,SMDPad,CuDef*%
G36*
G01*
X103100000Y-77225000D02*
X103600000Y-77225000D01*
G75*
G02*
X103825000Y-77450000I0J-225000D01*
G01*
X103825000Y-77900000D01*
G75*
G02*
X103600000Y-78125000I-225000J0D01*
G01*
X103100000Y-78125000D01*
G75*
G02*
X102875000Y-77900000I0J225000D01*
G01*
X102875000Y-77450000D01*
G75*
G02*
X103100000Y-77225000I225000J0D01*
G01*
G37*
%TD.AperFunction*%
%TD*%
%TO.P,C6,1*%
%TO.N,USB_DM*%
%TA.AperFunction,SMDPad,CuDef*%
G36*
G01*
X105510000Y-68330000D02*
X105510000Y-68670000D01*
G75*
G02*
X105370000Y-68810000I-140000J0D01*
G01*
X105090000Y-68810000D01*
G75*
G02*
X104950000Y-68670000I0J140000D01*
G01*
X104950000Y-68330000D01*
G75*
G02*
X105090000Y-68190000I140000J0D01*
G01*
X105370000Y-68190000D01*
G75*
G02*
X105510000Y-68330000I0J-140000D01*
G01*
G37*
%TD.AperFunction*%
%TO.P,C6,2*%
%TO.N,GND*%
%TA.AperFunction,SMDPad,CuDef*%
G36*
G01*
X104550000Y-68330000D02*
X104550000Y-68670000D01*
G75*
G02*
X104410000Y-68810000I-140000J0D01*
G01*
X104130000Y-68810000D01*
G75*
G02*
X103990000Y-68670000I0J140000D01*
G01*
X103990000Y-68330000D01*
G75*
G02*
X104130000Y-68190000I140000J0D01*
G01*
X104410000Y-68190000D01*
G75*
G02*
X104550000Y-68330000I0J-140000D01*
G01*
G37*
%TD.AperFunction*%
%TD*%
%TO.P,C7,1*%
%TO.N,Net-(C7-Pad1)*%
%TA.AperFunction,SMDPad,CuDef*%
G36*
G01*
X115990000Y-66720000D02*
X115990000Y-66380000D01*
G75*
G02*
X116130000Y-66240000I140000J0D01*
G01*
X116410000Y-66240000D01*
G75*
G02*
X116550000Y-66380000I0J-140000D01*
G01*
X116550000Y-66720000D01*
G75*
G02*
X116410000Y-66860000I-140000J0D01*
G01*
X116130000Y-66860000D01*
G75*
G02*
X115990000Y-66720000I0J140000D01*
G01*
G37*
%TD.AperFunction*%
%TO.P,C7,2*%
%TO.N,GND*%
%TA.AperFunction,SMDPad,CuDef*%
G36*
G01*
X116950000Y-66720000D02*
X116950000Y-66380000D01*
G75*
G02*
X117090000Y-66240000I140000J0D01*
G01*
X117370000Y-66240000D01*
G75*
G02*
X117510000Y-66380000I0J-140000D01*
G01*
X117510000Y-66720000D01*
G75*
G02*
X117370000Y-66860000I-140000J0D01*
G01*
X117090000Y-66860000D01*
G75*
G02*
X116950000Y-66720000I0J140000D01*
G01*
G37*
%TD.AperFunction*%
%TD*%
%TO.P,C8,2*%
%TO.N,GND*%
%TA.AperFunction,SMDPad,CuDef*%
G36*
G01*
X103600000Y-79625000D02*
X103100000Y-79625000D01*
G75*
G02*
X102875000Y-79400000I0J225000D01*
G01*
X102875000Y-78950000D01*
G75*
G02*
X103100000Y-78725000I225000J0D01*
G01*
X103600000Y-78725000D01*
G75*
G02*
X103825000Y-78950000I0J-225000D01*
G01*
X103825000Y-79400000D01*
G75*
G02*
X103600000Y-79625000I-225000J0D01*
G01*
G37*
%TD.AperFunction*%
%TO.P,C8,1*%
%TO.N,+5V*%
%TA.AperFunction,SMDPad,CuDef*%
G36*
G01*
X103600000Y-81175000D02*
X103100000Y-81175000D01*
G75*
G02*
X102875000Y-80950000I0J225000D01*
G01*
X102875000Y-80500000D01*
G75*
G02*
X103100000Y-80275000I225000J0D01*
G01*
X103600000Y-80275000D01*
G75*
G02*
X103825000Y-80500000I0J-225000D01*
G01*
X103825000Y-80950000D01*
G75*
G02*
X103600000Y-81175000I-225000J0D01*
G01*
G37*
%TD.AperFunction*%
%TD*%
%TO.P,D2,1*%
%TO.N,Net-(D2-Pad1)*%
%TA.AperFunction,SMDPad,CuDef*%
G36*
G01*
X116300000Y-77331250D02*
X116300000Y-77843750D01*
G75*
G02*
X116081250Y-78062500I-218750J0D01*
G01*
X115643750Y-78062500D01*
G75*
G02*
X115425000Y-77843750I0J218750D01*
G01*
X115425000Y-77331250D01*
G75*
G02*
X115643750Y-77112500I218750J0D01*
G01*
X116081250Y-77112500D01*
G75*
G02*
X116300000Y-77331250I0J-218750D01*
G01*
G37*
%TD.AperFunction*%
%TO.P,D2,2*%
%TO.N,+5V*%
%TA.AperFunction,SMDPad,CuDef*%
G36*
G01*
X114725000Y-77331250D02*
X114725000Y-77843750D01*
G75*
G02*
X114506250Y-78062500I-218750J0D01*
G01*
X114068750Y-78062500D01*
G75*
G02*
X113850000Y-77843750I0J218750D01*
G01*
X113850000Y-77331250D01*
G75*
G02*
X114068750Y-77112500I218750J0D01*
G01*
X114506250Y-77112500D01*
G75*
G02*
X114725000Y-77331250I0J-218750D01*
G01*
G37*
%TD.AperFunction*%
%TD*%
%TO.P,FB1,1*%
%TO.N,Net-(D1-Pad2)*%
%TA.AperFunction,SMDPad,CuDef*%
G36*
G01*
X108275000Y-71256250D02*
X108275000Y-70743750D01*
G75*
G02*
X108493750Y-70525000I218750J0D01*
G01*
X108931250Y-70525000D01*
G75*
G02*
X109150000Y-70743750I0J-218750D01*
G01*
X109150000Y-71256250D01*
G75*
G02*
X108931250Y-71475000I-218750J0D01*
G01*
X108493750Y-71475000D01*
G75*
G02*
X108275000Y-71256250I0J218750D01*
G01*
G37*
%TD.AperFunction*%
%TO.P,FB1,2*%
%TO.N,VBUS*%
%TA.AperFunction,SMDPad,CuDef*%
G36*
G01*
X109850000Y-71256250D02*
X109850000Y-70743750D01*
G75*
G02*
X110068750Y-70525000I218750J0D01*
G01*
X110506250Y-70525000D01*
G75*
G02*
X110725000Y-70743750I0J-218750D01*
G01*
X110725000Y-71256250D01*
G75*
G02*
X110506250Y-71475000I-218750J0D01*
G01*
X110068750Y-71475000D01*
G75*
G02*
X109850000Y-71256250I0J218750D01*
G01*
G37*
%TD.AperFunction*%
%TD*%
%TO.P,R3,2*%
%TO.N,Net-(R3-Pad2)*%
%TA.AperFunction,SMDPad,CuDef*%
G36*
G01*
X108565000Y-67990000D02*
X108935000Y-67990000D01*
G75*
G02*
X109070000Y-68125000I0J-135000D01*
G01*
X109070000Y-68395000D01*
G75*
G02*
X108935000Y-68530000I-135000J0D01*
G01*
X108565000Y-68530000D01*
G75*
G02*
X108430000Y-68395000I0J135000D01*
G01*
X108430000Y-68125000D01*
G75*
G02*
X108565000Y-67990000I135000J0D01*
G01*
G37*
%TD.AperFunction*%
%TO.P,R3,1*%
%TO.N,USB_DM*%
%TA.AperFunction,SMDPad,CuDef*%
G36*
G01*
X108565000Y-66970000D02*
X108935000Y-66970000D01*
G75*
G02*
X109070000Y-67105000I0J-135000D01*
G01*
X109070000Y-67375000D01*
G75*
G02*
X108935000Y-67510000I-135000J0D01*
G01*
X108565000Y-67510000D01*
G75*
G02*
X108430000Y-67375000I0J135000D01*
G01*
X108430000Y-67105000D01*
G75*
G02*
X108565000Y-66970000I135000J0D01*
G01*
G37*
%TD.AperFunction*%
%TD*%
%TO.P,R4,1*%
%TO.N,USB_DP*%
%TA.AperFunction,SMDPad,CuDef*%
G36*
G01*
X107090000Y-66220000D02*
X107460000Y-66220000D01*
G75*
G02*
X107595000Y-66355000I0J-135000D01*
G01*
X107595000Y-66625000D01*
G75*
G02*
X107460000Y-66760000I-135000J0D01*
G01*
X107090000Y-66760000D01*
G75*
G02*
X106955000Y-66625000I0J135000D01*
G01*
X106955000Y-66355000D01*
G75*
G02*
X107090000Y-66220000I135000J0D01*
G01*
G37*
%TD.AperFunction*%
%TO.P,R4,2*%
%TO.N,Net-(R4-Pad2)*%
%TA.AperFunction,SMDPad,CuDef*%
G36*
G01*
X107090000Y-67240000D02*
X107460000Y-67240000D01*
G75*
G02*
X107595000Y-67375000I0J-135000D01*
G01*
X107595000Y-67645000D01*
G75*
G02*
X107460000Y-67780000I-135000J0D01*
G01*
X107090000Y-67780000D01*
G75*
G02*
X106955000Y-67645000I0J135000D01*
G01*
X106955000Y-67375000D01*
G75*
G02*
X107090000Y-67240000I135000J0D01*
G01*
G37*
%TD.AperFunction*%
%TD*%
%TO.P,R5,1*%
%TO.N,Net-(D2-Pad1)*%
%TA.AperFunction,SMDPad,CuDef*%
G36*
G01*
X113850000Y-79650000D02*
X113850000Y-79100000D01*
G75*
G02*
X114050000Y-78900000I200000J0D01*
G01*
X114450000Y-78900000D01*
G75*
G02*
X114650000Y-79100000I0J-200000D01*
G01*
X114650000Y-79650000D01*
G75*
G02*
X114450000Y-79850000I-200000J0D01*
G01*
X114050000Y-79850000D01*
G75*
G02*
X113850000Y-79650000I0J200000D01*
G01*
G37*
%TD.AperFunction*%
%TO.P,R5,2*%
%TO.N,GND*%
%TA.AperFunction,SMDPad,CuDef*%
G36*
G01*
X115500000Y-79650000D02*
X115500000Y-79100000D01*
G75*
G02*
X115700000Y-78900000I200000J0D01*
G01*
X116100000Y-78900000D01*
G75*
G02*
X116300000Y-79100000I0J-200000D01*
G01*
X116300000Y-79650000D01*
G75*
G02*
X116100000Y-79850000I-200000J0D01*
G01*
X115700000Y-79850000D01*
G75*
G02*
X115500000Y-79650000I0J200000D01*
G01*
G37*
%TD.AperFunction*%
%TD*%
%TO.P,U2,1*%
%TO.N,Net-(C7-Pad1)*%
%TA.AperFunction,SMDPad,CuDef*%
G36*
G01*
X115900000Y-67375000D02*
X116050000Y-67375000D01*
G75*
G02*
X116125000Y-67450000I0J-75000D01*
G01*
X116125000Y-68150000D01*
G75*
G02*
X116050000Y-68225000I-75000J0D01*
G01*
X115900000Y-68225000D01*
G75*
G02*
X115825000Y-68150000I0J75000D01*
G01*
X115825000Y-67450000D01*
G75*
G02*
X115900000Y-67375000I75000J0D01*
G01*
G37*
%TD.AperFunction*%
%TO.P,U2,2*%
%TO.N,UART_TXD*%
%TA.AperFunction,SMDPad,CuDef*%
G36*
G01*
X115250000Y-67375000D02*
X115400000Y-67375000D01*
G75*
G02*
X115475000Y-67450000I0J-75000D01*
G01*
X115475000Y-68150000D01*
G75*
G02*
X115400000Y-68225000I-75000J0D01*
G01*
X115250000Y-68225000D01*
G75*
G02*
X115175000Y-68150000I0J75000D01*
G01*
X115175000Y-67450000D01*
G75*
G02*
X115250000Y-67375000I75000J0D01*
G01*
G37*
%TD.AperFunction*%
%TO.P,U2,3*%
%TO.N,GND*%
%TA.AperFunction,SMDPad,CuDef*%
G36*
G01*
X114600000Y-67375000D02*
X114750000Y-67375000D01*
G75*
G02*
X114825000Y-67450000I0J-75000D01*
G01*
X114825000Y-68150000D01*
G75*
G02*
X114750000Y-68225000I-75000J0D01*
G01*
X114600000Y-68225000D01*
G75*
G02*
X114525000Y-68150000I0J75000D01*
G01*
X114525000Y-67450000D01*
G75*
G02*
X114600000Y-67375000I75000J0D01*
G01*
G37*
%TD.AperFunction*%
%TO.P,U2,4*%
%TO.N,Net-(U2-Pad4)*%
%TA.AperFunction,SMDPad,CuDef*%
G36*
G01*
X113950000Y-67375000D02*
X114100000Y-67375000D01*
G75*
G02*
X114175000Y-67450000I0J-75000D01*
G01*
X114175000Y-68150000D01*
G75*
G02*
X114100000Y-68225000I-75000J0D01*
G01*
X113950000Y-68225000D01*
G75*
G02*
X113875000Y-68150000I0J75000D01*
G01*
X113875000Y-67450000D01*
G75*
G02*
X113950000Y-67375000I75000J0D01*
G01*
G37*
%TD.AperFunction*%
%TO.P,U2,5*%
%TO.N,Net-(U2-Pad5)*%
%TA.AperFunction,SMDPad,CuDef*%
G36*
G01*
X112700000Y-68625000D02*
X113400000Y-68625000D01*
G75*
G02*
X113475000Y-68700000I0J-75000D01*
G01*
X113475000Y-68850000D01*
G75*
G02*
X113400000Y-68925000I-75000J0D01*
G01*
X112700000Y-68925000D01*
G75*
G02*
X112625000Y-68850000I0J75000D01*
G01*
X112625000Y-68700000D01*
G75*
G02*
X112700000Y-68625000I75000J0D01*
G01*
G37*
%TD.AperFunction*%
%TO.P,U2,6*%
%TO.N,Net-(R4-Pad2)*%
%TA.AperFunction,SMDPad,CuDef*%
G36*
G01*
X112700000Y-69275000D02*
X113400000Y-69275000D01*
G75*
G02*
X113475000Y-69350000I0J-75000D01*
G01*
X113475000Y-69500000D01*
G75*
G02*
X113400000Y-69575000I-75000J0D01*
G01*
X112700000Y-69575000D01*
G75*
G02*
X112625000Y-69500000I0J75000D01*
G01*
X112625000Y-69350000D01*
G75*
G02*
X112700000Y-69275000I75000J0D01*
G01*
G37*
%TD.AperFunction*%
%TO.P,U2,7*%
%TO.N,Net-(R3-Pad2)*%
%TA.AperFunction,SMDPad,CuDef*%
G36*
G01*
X112700000Y-69925000D02*
X113400000Y-69925000D01*
G75*
G02*
X113475000Y-70000000I0J-75000D01*
G01*
X113475000Y-70150000D01*
G75*
G02*
X113400000Y-70225000I-75000J0D01*
G01*
X112700000Y-70225000D01*
G75*
G02*
X112625000Y-70150000I0J75000D01*
G01*
X112625000Y-70000000D01*
G75*
G02*
X112700000Y-69925000I75000J0D01*
G01*
G37*
%TD.AperFunction*%
%TO.P,U2,8*%
%TO.N,Net-(C7-Pad1)*%
%TA.AperFunction,SMDPad,CuDef*%
G36*
G01*
X112700000Y-70575000D02*
X113400000Y-70575000D01*
G75*
G02*
X113475000Y-70650000I0J-75000D01*
G01*
X113475000Y-70800000D01*
G75*
G02*
X113400000Y-70875000I-75000J0D01*
G01*
X112700000Y-70875000D01*
G75*
G02*
X112625000Y-70800000I0J75000D01*
G01*
X112625000Y-70650000D01*
G75*
G02*
X112700000Y-70575000I75000J0D01*
G01*
G37*
%TD.AperFunction*%
%TO.P,U2,9*%
%TA.AperFunction,SMDPad,CuDef*%
G36*
G01*
X113950000Y-71275000D02*
X114100000Y-71275000D01*
G75*
G02*
X114175000Y-71350000I0J-75000D01*
G01*
X114175000Y-72050000D01*
G75*
G02*
X114100000Y-72125000I-75000J0D01*
G01*
X113950000Y-72125000D01*
G75*
G02*
X113875000Y-72050000I0J75000D01*
G01*
X113875000Y-71350000D01*
G75*
G02*
X113950000Y-71275000I75000J0D01*
G01*
G37*
%TD.AperFunction*%
%TO.P,U2,10*%
%TO.N,+5V*%
%TA.AperFunction,SMDPad,CuDef*%
G36*
G01*
X114600000Y-71275000D02*
X114750000Y-71275000D01*
G75*
G02*
X114825000Y-71350000I0J-75000D01*
G01*
X114825000Y-72050000D01*
G75*
G02*
X114750000Y-72125000I-75000J0D01*
G01*
X114600000Y-72125000D01*
G75*
G02*
X114525000Y-72050000I0J75000D01*
G01*
X114525000Y-71350000D01*
G75*
G02*
X114600000Y-71275000I75000J0D01*
G01*
G37*
%TD.AperFunction*%
%TO.P,U2,11*%
%TO.N,Net-(U2-Pad11)*%
%TA.AperFunction,SMDPad,CuDef*%
G36*
G01*
X115250000Y-71275000D02*
X115400000Y-71275000D01*
G75*
G02*
X115475000Y-71350000I0J-75000D01*
G01*
X115475000Y-72050000D01*
G75*
G02*
X115400000Y-72125000I-75000J0D01*
G01*
X115250000Y-72125000D01*
G75*
G02*
X115175000Y-72050000I0J75000D01*
G01*
X115175000Y-71350000D01*
G75*
G02*
X115250000Y-71275000I75000J0D01*
G01*
G37*
%TD.AperFunction*%
%TO.P,U2,12*%
%TO.N,Net-(U2-Pad12)*%
%TA.AperFunction,SMDPad,CuDef*%
G36*
G01*
X115900000Y-71275000D02*
X116050000Y-71275000D01*
G75*
G02*
X116125000Y-71350000I0J-75000D01*
G01*
X116125000Y-72050000D01*
G75*
G02*
X116050000Y-72125000I-75000J0D01*
G01*
X115900000Y-72125000D01*
G75*
G02*
X115825000Y-72050000I0J75000D01*
G01*
X115825000Y-71350000D01*
G75*
G02*
X115900000Y-71275000I75000J0D01*
G01*
G37*
%TD.AperFunction*%
%TO.P,U2,13*%
%TO.N,GND*%
%TA.AperFunction,SMDPad,CuDef*%
G36*
G01*
X116600000Y-70575000D02*
X117300000Y-70575000D01*
G75*
G02*
X117375000Y-70650000I0J-75000D01*
G01*
X117375000Y-70800000D01*
G75*
G02*
X117300000Y-70875000I-75000J0D01*
G01*
X116600000Y-70875000D01*
G75*
G02*
X116525000Y-70800000I0J75000D01*
G01*
X116525000Y-70650000D01*
G75*
G02*
X116600000Y-70575000I75000J0D01*
G01*
G37*
%TD.AperFunction*%
%TO.P,U2,14*%
%TO.N,Net-(U2-Pad14)*%
%TA.AperFunction,SMDPad,CuDef*%
G36*
G01*
X116600000Y-69925000D02*
X117300000Y-69925000D01*
G75*
G02*
X117375000Y-70000000I0J-75000D01*
G01*
X117375000Y-70150000D01*
G75*
G02*
X117300000Y-70225000I-75000J0D01*
G01*
X116600000Y-70225000D01*
G75*
G02*
X116525000Y-70150000I0J75000D01*
G01*
X116525000Y-70000000D01*
G75*
G02*
X116600000Y-69925000I75000J0D01*
G01*
G37*
%TD.AperFunction*%
%TO.P,U2,15*%
%TO.N,UART_RXD*%
%TA.AperFunction,SMDPad,CuDef*%
G36*
G01*
X116600000Y-69275000D02*
X117300000Y-69275000D01*
G75*
G02*
X117375000Y-69350000I0J-75000D01*
G01*
X117375000Y-69500000D01*
G75*
G02*
X117300000Y-69575000I-75000J0D01*
G01*
X116600000Y-69575000D01*
G75*
G02*
X116525000Y-69500000I0J75000D01*
G01*
X116525000Y-69350000D01*
G75*
G02*
X116600000Y-69275000I75000J0D01*
G01*
G37*
%TD.AperFunction*%
%TO.P,U2,16*%
%TO.N,Net-(U2-Pad16)*%
%TA.AperFunction,SMDPad,CuDef*%
G36*
G01*
X116600000Y-68625000D02*
X117300000Y-68625000D01*
G75*
G02*
X117375000Y-68700000I0J-75000D01*
G01*
X117375000Y-68850000D01*
G75*
G02*
X117300000Y-68925000I-75000J0D01*
G01*
X116600000Y-68925000D01*
G75*
G02*
X116525000Y-68850000I0J75000D01*
G01*
X116525000Y-68700000D01*
G75*
G02*
X116600000Y-68625000I75000J0D01*
G01*
G37*
%TD.AperFunction*%
D14*
%TO.P,U2,17*%
%TO.N,GND*%
X115000000Y-69750000D03*
%TD*%
D15*
%TO.P,J1,6*%
%TO.N,GND*%
X104525000Y-62815000D03*
X110005000Y-62815000D03*
D16*
X110225000Y-63565000D03*
X104275000Y-63565000D03*
D17*
X110125000Y-64865000D03*
X104375000Y-64885000D03*
D18*
%TO.P,J1,1*%
%TO.N,VBUS*%
X108575000Y-64765000D03*
%TO.P,J1,2*%
%TO.N,USB_DM*%
X107925000Y-64765000D03*
%TO.P,J1,3*%
%TO.N,USB_DP*%
X107275000Y-64765000D03*
%TO.P,J1,4*%
%TO.N,Net-(J1-Pad4)*%
X106625000Y-64765000D03*
%TO.P,J1,5*%
%TO.N,GND*%
X105975000Y-64765000D03*
D19*
%TO.P,J1,6*%
X109695000Y-64885000D03*
X104855000Y-64885000D03*
D20*
X110005000Y-61885000D03*
X104545000Y-61885000D03*
D21*
X108235000Y-61615000D03*
X106315000Y-61615000D03*
%TD*%
%TO.P,F1,1*%
%TO.N,Net-(D1-Pad1)*%
%TA.AperFunction,SMDPad,CuDef*%
G36*
G01*
X103093750Y-72675000D02*
X103606250Y-72675000D01*
G75*
G02*
X103825000Y-72893750I0J-218750D01*
G01*
X103825000Y-73331250D01*
G75*
G02*
X103606250Y-73550000I-218750J0D01*
G01*
X103093750Y-73550000D01*
G75*
G02*
X102875000Y-73331250I0J218750D01*
G01*
X102875000Y-72893750D01*
G75*
G02*
X103093750Y-72675000I218750J0D01*
G01*
G37*
%TD.AperFunction*%
%TO.P,F1,2*%
%TO.N,Net-(C5-Pad1)*%
%TA.AperFunction,SMDPad,CuDef*%
G36*
G01*
X103093750Y-74250000D02*
X103606250Y-74250000D01*
G75*
G02*
X103825000Y-74468750I0J-218750D01*
G01*
X103825000Y-74906250D01*
G75*
G02*
X103606250Y-75125000I-218750J0D01*
G01*
X103093750Y-75125000D01*
G75*
G02*
X102875000Y-74906250I0J218750D01*
G01*
X102875000Y-74468750D01*
G75*
G02*
X103093750Y-74250000I218750J0D01*
G01*
G37*
%TD.AperFunction*%
%TD*%
D22*
%TO.P,D1,1*%
%TO.N,Net-(D1-Pad1)*%
X103850000Y-70600000D03*
%TO.P,D1,2*%
%TO.N,Net-(D1-Pad2)*%
X107150000Y-70600000D03*
%TD*%
D23*
%TO.N,+5V*%
X107750000Y-73250000D03*
X107750000Y-79400000D03*
X110500000Y-73750000D03*
X105000000Y-73750000D03*
X107750000Y-75000000D03*
X113250000Y-75025000D03*
D24*
%TO.N,GND*%
X117225000Y-66600000D03*
D23*
X105500000Y-79500000D03*
X103350000Y-79200000D03*
X103350000Y-77650000D03*
D24*
X114025000Y-66625000D03*
%TO.N,USB_DP*%
X107275000Y-66490000D03*
%TO.N,USB_DM*%
X108742500Y-67232500D03*
%TO.N,Net-(C7-Pad1)*%
X111525000Y-70900000D03*
X117025000Y-67725000D03*
%TO.N,Net-(R3-Pad2)*%
X108750000Y-68250000D03*
X111525000Y-69925000D03*
%TO.N,Net-(R4-Pad2)*%
X107275000Y-67525000D03*
X111525000Y-69000000D03*
%TD*%
D25*
%TO.N,+5V*%
X107750000Y-79400000D02*
X107750000Y-79400000D01*
D26*
X107100000Y-73750000D02*
X107750000Y-73100000D01*
X105000000Y-73750000D02*
X107100000Y-73750000D01*
X108400000Y-73750000D02*
X107750000Y-73100000D01*
X110500000Y-73750000D02*
X108400000Y-73750000D01*
X107750000Y-75000000D02*
X107750000Y-73100000D01*
X113250000Y-75025000D02*
X113250000Y-75025000D01*
X113250000Y-75025000D02*
X116750000Y-75025000D01*
D27*
X114265692Y-72450010D02*
X114675000Y-72040702D01*
X114675000Y-72040702D02*
X114675000Y-71700000D01*
X113022156Y-72450010D02*
X114265692Y-72450010D01*
X112449990Y-73022176D02*
X113022156Y-72450010D01*
X112449990Y-74224990D02*
X112449990Y-73022176D01*
X113250000Y-75025000D02*
X112449990Y-74224990D01*
X114287500Y-76062500D02*
X113250000Y-75025000D01*
X114287500Y-77587500D02*
X114287500Y-76062500D01*
D26*
X107750000Y-79660002D02*
X107750000Y-79400000D01*
X106560001Y-80850001D02*
X107750000Y-79660002D01*
X103475001Y-80850001D02*
X106560001Y-80850001D01*
X103350000Y-80725000D02*
X103475001Y-80850001D01*
%TO.N,GND*%
X113250000Y-73475000D02*
X116750000Y-73475000D01*
D27*
X114675000Y-69425000D02*
X115000000Y-69750000D01*
X114675000Y-67800000D02*
X114675000Y-69425000D01*
X115975000Y-70725000D02*
X115000000Y-69750000D01*
X116950000Y-70725000D02*
X115975000Y-70725000D01*
X115015702Y-69750000D02*
X115000000Y-69750000D01*
X116750000Y-71484298D02*
X115015702Y-69750000D01*
X116750000Y-73475000D02*
X116750000Y-71484298D01*
D26*
X106315000Y-61615000D02*
X108235000Y-61615000D01*
X110005000Y-64745000D02*
X110125000Y-64865000D01*
X110005000Y-62815000D02*
X110005000Y-64745000D01*
X104525000Y-64735000D02*
X104375000Y-64885000D01*
X104525000Y-62815000D02*
X104525000Y-64735000D01*
X104975000Y-64765000D02*
X104855000Y-64885000D01*
X105975000Y-64765000D02*
X104975000Y-64765000D01*
X104855000Y-64885000D02*
X104375000Y-64885000D01*
X109715000Y-64865000D02*
X109695000Y-64885000D01*
X110125000Y-64865000D02*
X109715000Y-64865000D01*
D27*
X114675000Y-67275000D02*
X114675000Y-67800000D01*
X114025000Y-66625000D02*
X114675000Y-67275000D01*
%TO.N,USB_DP*%
X107275000Y-64765000D02*
X107275000Y-66490000D01*
X107275000Y-66490000D02*
X107275000Y-66490000D01*
X106265000Y-67500000D02*
X107275000Y-66490000D01*
X105230000Y-67500000D02*
X106265000Y-67500000D01*
D25*
%TO.N,Net-(C5-Pad1)*%
X110050000Y-79319998D02*
X110050000Y-79400000D01*
D26*
X103350000Y-74687500D02*
X103350000Y-76125000D01*
X110050000Y-79139998D02*
X110050000Y-79400000D01*
X107035002Y-76125000D02*
X110050000Y-79139998D01*
X103350000Y-76125000D02*
X107035002Y-76125000D01*
D27*
%TO.N,USB_DM*%
X107925000Y-66415000D02*
X108742500Y-67232500D01*
X107925000Y-64765000D02*
X107925000Y-66415000D01*
X108742500Y-67232500D02*
X108750000Y-67240000D01*
X107255554Y-68500000D02*
X105230000Y-68500000D01*
X107925000Y-67830554D02*
X107255554Y-68500000D01*
X107925000Y-66415000D02*
X107925000Y-67830554D01*
%TO.N,Net-(C7-Pad1)*%
X115975000Y-66845000D02*
X116270000Y-66550000D01*
X115975000Y-67800000D02*
X115975000Y-66845000D01*
X113050000Y-70725000D02*
X114025000Y-71700000D01*
X111700000Y-70725000D02*
X111525000Y-70900000D01*
X113050000Y-70725000D02*
X111700000Y-70725000D01*
X116050000Y-67725000D02*
X115975000Y-67800000D01*
X117025000Y-67725000D02*
X116050000Y-67725000D01*
D26*
%TO.N,Net-(D1-Pad2)*%
X107550000Y-71000000D02*
X107150000Y-70600000D01*
X108712500Y-71000000D02*
X107550000Y-71000000D01*
D27*
%TO.N,Net-(D2-Pad1)*%
X114250000Y-79200000D02*
X115862500Y-77587500D01*
X114250000Y-79375000D02*
X114250000Y-79200000D01*
%TO.N,UART_TXD*%
X119685999Y-74755001D02*
X121425001Y-74755001D01*
X119074999Y-74144001D02*
X119685999Y-74755001D01*
X119074999Y-67427373D02*
X119074999Y-74144001D01*
X121425001Y-74755001D02*
X122790000Y-76120000D01*
X117562616Y-65914990D02*
X119074999Y-67427373D01*
X115937384Y-65914990D02*
X117562616Y-65914990D01*
X115325000Y-66527374D02*
X115937384Y-65914990D01*
X115325000Y-67800000D02*
X115325000Y-66527374D01*
%TO.N,UART_RXD*%
X117375000Y-69425000D02*
X117750000Y-69800000D01*
X116950000Y-69425000D02*
X117375000Y-69425000D01*
X121425001Y-77295001D02*
X122790000Y-78660000D01*
X119685999Y-77295001D02*
X121425001Y-77295001D01*
X117750000Y-75359002D02*
X119685999Y-77295001D01*
X117750000Y-69800000D02*
X117750000Y-75359002D01*
%TO.N,Net-(R3-Pad2)*%
X111675000Y-70075000D02*
X111525000Y-69925000D01*
X113050000Y-70075000D02*
X111675000Y-70075000D01*
%TO.N,Net-(R4-Pad2)*%
X111950000Y-69425000D02*
X113050000Y-69425000D01*
X111525000Y-69000000D02*
X111950000Y-69425000D01*
D25*
%TO.N,VBUS*%
X108575000Y-64765000D02*
X108575000Y-65575000D01*
D26*
%TO.N,Net-(D1-Pad1)*%
X103350000Y-71100000D02*
X103850000Y-70600000D01*
X103350000Y-73112500D02*
X103350000Y-71100000D01*
%TD*%
D28*
%TO.N,GND*%
X124065424Y-60669580D02*
X124128356Y-60688580D01*
X124186405Y-60719445D01*
X124237343Y-60760989D01*
X124279248Y-60811644D01*
X124310515Y-60869471D01*
X124329956Y-60932272D01*
X124340000Y-61027835D01*
X124340001Y-80967711D01*
X124330420Y-81065424D01*
X124311420Y-81128357D01*
X124280554Y-81186406D01*
X124239011Y-81237343D01*
X124188356Y-81279248D01*
X124130529Y-81310515D01*
X124067728Y-81329956D01*
X123972165Y-81340000D01*
X107321580Y-81340000D01*
X107623508Y-81038072D01*
X108500000Y-81038072D01*
X108624482Y-81025812D01*
X108744180Y-80989502D01*
X108854494Y-80930537D01*
X108900000Y-80893191D01*
X108945506Y-80930537D01*
X109055820Y-80989502D01*
X109175518Y-81025812D01*
X109300000Y-81038072D01*
X110800000Y-81038072D01*
X110924482Y-81025812D01*
X111044180Y-80989502D01*
X111154494Y-80930537D01*
X111251185Y-80851185D01*
X111330537Y-80754494D01*
X111389502Y-80644180D01*
X111425812Y-80524482D01*
X111438072Y-80400000D01*
X111438072Y-78400000D01*
X111425812Y-78275518D01*
X111389502Y-78155820D01*
X111330537Y-78045506D01*
X111251185Y-77948815D01*
X111154494Y-77869463D01*
X111044180Y-77810498D01*
X110924482Y-77774188D01*
X110800000Y-77761928D01*
X109923509Y-77761928D01*
X108126079Y-75964499D01*
X108240256Y-75917205D01*
X108409774Y-75803937D01*
X108553937Y-75659774D01*
X108667205Y-75490256D01*
X108745226Y-75301898D01*
X108785000Y-75101939D01*
X108785000Y-74898061D01*
X108753176Y-74738072D01*
X109650000Y-74738072D01*
X109774482Y-74725812D01*
X109894180Y-74689502D01*
X109976923Y-74645274D01*
X110009744Y-74667205D01*
X110198102Y-74745226D01*
X110398061Y-74785000D01*
X110601939Y-74785000D01*
X110801898Y-74745226D01*
X110990256Y-74667205D01*
X111159774Y-74553937D01*
X111303937Y-74409774D01*
X111417205Y-74240256D01*
X111495226Y-74051898D01*
X111535000Y-73851939D01*
X111535000Y-73648061D01*
X111495226Y-73448102D01*
X111417205Y-73259744D01*
X111303937Y-73090226D01*
X111159774Y-72946063D01*
X110990256Y-72832795D01*
X110801898Y-72754774D01*
X110601939Y-72715000D01*
X110398061Y-72715000D01*
X110288072Y-72736878D01*
X110288072Y-72113072D01*
X110506250Y-72113072D01*
X110673408Y-72096608D01*
X110834142Y-72047850D01*
X110982275Y-71968671D01*
X111112115Y-71862115D01*
X111186286Y-71771736D01*
X111252271Y-71799068D01*
X111432911Y-71835000D01*
X111617089Y-71835000D01*
X111797729Y-71799068D01*
X111967889Y-71728586D01*
X112121028Y-71626262D01*
X112251262Y-71496028D01*
X112258631Y-71485000D01*
X112513512Y-71485000D01*
X112560887Y-71499371D01*
X112700000Y-71513072D01*
X112763271Y-71513072D01*
X112944209Y-71694010D01*
X112873170Y-71701007D01*
X112746570Y-71739410D01*
X112729909Y-71744464D01*
X112597879Y-71815036D01*
X112514239Y-71883678D01*
X112482155Y-71910009D01*
X112458356Y-71939008D01*
X111938988Y-72458377D01*
X111909990Y-72482175D01*
X111886192Y-72511173D01*
X111886191Y-72511174D01*
X111815016Y-72597900D01*
X111744444Y-72729930D01*
X111726312Y-72789705D01*
X111700988Y-72873190D01*
X111698963Y-72893750D01*
X111686314Y-73022176D01*
X111689991Y-73059508D01*
X111689990Y-74187667D01*
X111686314Y-74224990D01*
X111689990Y-74262312D01*
X111689990Y-74262322D01*
X111700987Y-74373975D01*
X111730030Y-74469717D01*
X111744444Y-74517236D01*
X111815016Y-74649266D01*
X111844086Y-74684687D01*
X111909989Y-74764991D01*
X111938992Y-74788793D01*
X112136928Y-74986729D01*
X112136928Y-75250000D01*
X112153512Y-75418377D01*
X112202625Y-75580283D01*
X112282382Y-75729497D01*
X112389716Y-75860284D01*
X112520503Y-75967618D01*
X112669717Y-76047375D01*
X112831623Y-76096488D01*
X113000000Y-76113072D01*
X113263270Y-76113072D01*
X113527501Y-76377303D01*
X113527501Y-76672357D01*
X113462885Y-76725385D01*
X113356329Y-76855225D01*
X113277150Y-77003358D01*
X113228392Y-77164092D01*
X113211928Y-77331250D01*
X113211928Y-77843750D01*
X113228392Y-78010908D01*
X113277150Y-78171642D01*
X113356329Y-78319775D01*
X113462885Y-78449615D01*
X113495342Y-78476251D01*
X113457394Y-78507394D01*
X113353169Y-78634392D01*
X113275722Y-78779284D01*
X113228031Y-78936500D01*
X113211928Y-79100000D01*
X113211928Y-79650000D01*
X113228031Y-79813500D01*
X113275722Y-79970716D01*
X113353169Y-80115608D01*
X113457394Y-80242606D01*
X113584392Y-80346831D01*
X113729284Y-80424278D01*
X113886500Y-80471969D01*
X114050000Y-80488072D01*
X114450000Y-80488072D01*
X114613500Y-80471969D01*
X114770716Y-80424278D01*
X114915608Y-80346831D01*
X115017590Y-80263137D01*
X115048815Y-80301185D01*
X115145506Y-80380537D01*
X115255820Y-80439502D01*
X115375518Y-80475812D01*
X115500000Y-80488072D01*
X115614250Y-80485000D01*
X115773000Y-80326250D01*
X115773000Y-79502000D01*
X116027000Y-79502000D01*
X116027000Y-80326250D01*
X116185750Y-80485000D01*
X116300000Y-80488072D01*
X116424482Y-80475812D01*
X116544180Y-80439502D01*
X116654494Y-80380537D01*
X116751185Y-80301185D01*
X116830537Y-80204494D01*
X116889502Y-80094180D01*
X116925812Y-79974482D01*
X116938072Y-79850000D01*
X116935000Y-79660750D01*
X116776250Y-79502000D01*
X116027000Y-79502000D01*
X115773000Y-79502000D01*
X115753000Y-79502000D01*
X115753000Y-79248000D01*
X115773000Y-79248000D01*
X115773000Y-79228000D01*
X116027000Y-79228000D01*
X116027000Y-79248000D01*
X116776250Y-79248000D01*
X116935000Y-79089250D01*
X116936174Y-79016890D01*
X118808524Y-79016890D01*
X118853175Y-79164099D01*
X118978359Y-79426920D01*
X119152412Y-79660269D01*
X119368645Y-79855178D01*
X119618748Y-80004157D01*
X119893109Y-80101481D01*
X120123000Y-79980814D01*
X120123000Y-78787000D01*
X118929845Y-78787000D01*
X118808524Y-79016890D01*
X116936174Y-79016890D01*
X116938072Y-78900000D01*
X116925812Y-78775518D01*
X116889502Y-78655820D01*
X116830537Y-78545506D01*
X116751185Y-78448815D01*
X116713292Y-78417717D01*
X116793671Y-78319775D01*
X116872850Y-78171642D01*
X116921608Y-78010908D01*
X116938072Y-77843750D01*
X116938072Y-77331250D01*
X116921608Y-77164092D01*
X116872850Y-77003358D01*
X116793671Y-76855225D01*
X116687115Y-76725385D01*
X116557275Y-76618829D01*
X116409142Y-76539650D01*
X116248408Y-76490892D01*
X116081250Y-76474428D01*
X115643750Y-76474428D01*
X115476592Y-76490892D01*
X115315858Y-76539650D01*
X115167725Y-76618829D01*
X115075000Y-76694926D01*
X115047500Y-76672357D01*
X115047500Y-76113072D01*
X115250000Y-76113072D01*
X115418377Y-76096488D01*
X115580283Y-76047375D01*
X115729497Y-75967618D01*
X115799705Y-75910000D01*
X115950295Y-75910000D01*
X116020503Y-75967618D01*
X116169717Y-76047375D01*
X116331623Y-76096488D01*
X116500000Y-76113072D01*
X117000000Y-76113072D01*
X117168377Y-76096488D01*
X117330283Y-76047375D01*
X117351976Y-76035780D01*
X119077013Y-77760817D01*
X118978359Y-77893080D01*
X118853175Y-78155901D01*
X118808524Y-78303110D01*
X118929845Y-78533000D01*
X120123000Y-78533000D01*
X120123000Y-78513000D01*
X120377000Y-78513000D01*
X120377000Y-78533000D01*
X120397000Y-78533000D01*
X120397000Y-78787000D01*
X120377000Y-78787000D01*
X120377000Y-79980814D01*
X120606891Y-80101481D01*
X120881252Y-80004157D01*
X121131355Y-79855178D01*
X121347588Y-79660269D01*
X121518900Y-79430594D01*
X121636525Y-79606632D01*
X121843368Y-79813475D01*
X122086589Y-79975990D01*
X122356842Y-80087932D01*
X122643740Y-80145000D01*
X122936260Y-80145000D01*
X123223158Y-80087932D01*
X123493411Y-79975990D01*
X123736632Y-79813475D01*
X123943475Y-79606632D01*
X124105990Y-79363411D01*
X124217932Y-79093158D01*
X124275000Y-78806260D01*
X124275000Y-78513740D01*
X124217932Y-78226842D01*
X124105990Y-77956589D01*
X123943475Y-77713368D01*
X123736632Y-77506525D01*
X123562240Y-77390000D01*
X123736632Y-77273475D01*
X123943475Y-77066632D01*
X124105990Y-76823411D01*
X124217932Y-76553158D01*
X124275000Y-76266260D01*
X124275000Y-75973740D01*
X124217932Y-75686842D01*
X124105990Y-75416589D01*
X123943475Y-75173368D01*
X123736632Y-74966525D01*
X123554466Y-74844805D01*
X123671355Y-74775178D01*
X123887588Y-74580269D01*
X124061641Y-74346920D01*
X124186825Y-74084099D01*
X124231476Y-73936890D01*
X124110155Y-73707000D01*
X122917000Y-73707000D01*
X122917000Y-73727000D01*
X122663000Y-73727000D01*
X122663000Y-73707000D01*
X122643000Y-73707000D01*
X122643000Y-73453000D01*
X122663000Y-73453000D01*
X122663000Y-73433000D01*
X122917000Y-73433000D01*
X122917000Y-73453000D01*
X124110155Y-73453000D01*
X124231476Y-73223110D01*
X124186825Y-73075901D01*
X124061641Y-72813080D01*
X123887588Y-72579731D01*
X123671355Y-72384822D01*
X123554466Y-72315195D01*
X123736632Y-72193475D01*
X123943475Y-71986632D01*
X124105990Y-71743411D01*
X124217932Y-71473158D01*
X124275000Y-71186260D01*
X124275000Y-70893740D01*
X124217932Y-70606842D01*
X124105990Y-70336589D01*
X123943475Y-70093368D01*
X123736632Y-69886525D01*
X123562240Y-69770000D01*
X123736632Y-69653475D01*
X123943475Y-69446632D01*
X124105990Y-69203411D01*
X124217932Y-68933158D01*
X124275000Y-68646260D01*
X124275000Y-68353740D01*
X124217932Y-68066842D01*
X124105990Y-67796589D01*
X123943475Y-67553368D01*
X123736632Y-67346525D01*
X123493411Y-67184010D01*
X123223158Y-67072068D01*
X122936260Y-67015000D01*
X122643740Y-67015000D01*
X122356842Y-67072068D01*
X122086589Y-67184010D01*
X121843368Y-67346525D01*
X121711513Y-67478380D01*
X121689502Y-67405820D01*
X121630537Y-67295506D01*
X121551185Y-67198815D01*
X121454494Y-67119463D01*
X121344180Y-67060498D01*
X121224482Y-67024188D01*
X121100000Y-67011928D01*
X119714693Y-67011928D01*
X119709973Y-67003097D01*
X119615000Y-66887372D01*
X119586003Y-66863575D01*
X118126420Y-65403993D01*
X118102617Y-65374989D01*
X117986892Y-65280016D01*
X117854863Y-65209444D01*
X117711602Y-65165987D01*
X117599949Y-65154990D01*
X117599938Y-65154990D01*
X117562616Y-65151314D01*
X117525294Y-65154990D01*
X115974709Y-65154990D01*
X115937384Y-65151314D01*
X115900059Y-65154990D01*
X115900051Y-65154990D01*
X115788398Y-65165987D01*
X115645137Y-65209444D01*
X115513108Y-65280016D01*
X115397383Y-65374989D01*
X115373584Y-65403988D01*
X114813998Y-65963575D01*
X114785000Y-65987373D01*
X114761202Y-66016371D01*
X114761201Y-66016372D01*
X114690026Y-66103098D01*
X114619454Y-66235128D01*
X114598260Y-66304999D01*
X114576217Y-66377668D01*
X114575998Y-66378389D01*
X114561324Y-66527374D01*
X114565001Y-66564706D01*
X114565001Y-66740000D01*
X114547998Y-66740000D01*
X114547998Y-66794748D01*
X114493250Y-66740000D01*
X114387170Y-66751992D01*
X114318065Y-66774579D01*
X114239113Y-66750629D01*
X114100000Y-66736928D01*
X113950000Y-66736928D01*
X113810887Y-66750629D01*
X113677119Y-66791207D01*
X113553838Y-66857102D01*
X113445782Y-66945782D01*
X113357102Y-67053838D01*
X113291207Y-67177119D01*
X113250629Y-67310887D01*
X113236928Y-67450000D01*
X113236928Y-67986928D01*
X112700000Y-67986928D01*
X112560887Y-68000629D01*
X112427119Y-68041207D01*
X112303838Y-68107102D01*
X112195782Y-68195782D01*
X112126947Y-68279657D01*
X112121028Y-68273738D01*
X111967889Y-68171414D01*
X111797729Y-68100932D01*
X111617089Y-68065000D01*
X111432911Y-68065000D01*
X111252271Y-68100932D01*
X111082111Y-68171414D01*
X110928972Y-68273738D01*
X110798738Y-68403972D01*
X110696414Y-68557111D01*
X110625932Y-68727271D01*
X110590000Y-68907911D01*
X110590000Y-69092089D01*
X110625932Y-69272729D01*
X110696414Y-69442889D01*
X110709518Y-69462500D01*
X110696414Y-69482111D01*
X110625932Y-69652271D01*
X110590000Y-69832911D01*
X110590000Y-69895177D01*
X110506250Y-69886928D01*
X110068750Y-69886928D01*
X109901592Y-69903392D01*
X109740858Y-69952150D01*
X109592725Y-70031329D01*
X109500000Y-70107426D01*
X109407275Y-70031329D01*
X109259142Y-69952150D01*
X109098408Y-69903392D01*
X108931250Y-69886928D01*
X108493750Y-69886928D01*
X108326592Y-69903392D01*
X108231401Y-69932268D01*
X108225812Y-69875518D01*
X108189502Y-69755820D01*
X108130537Y-69645506D01*
X108051185Y-69548815D01*
X107954494Y-69469463D01*
X107844180Y-69410498D01*
X107724482Y-69374188D01*
X107600000Y-69361928D01*
X106700000Y-69361928D01*
X106575518Y-69374188D01*
X106455820Y-69410498D01*
X106345506Y-69469463D01*
X106248815Y-69548815D01*
X106169463Y-69645506D01*
X106110498Y-69755820D01*
X106074188Y-69875518D01*
X106061928Y-70000000D01*
X106061928Y-71200000D01*
X106074188Y-71324482D01*
X106110498Y-71444180D01*
X106119985Y-71461928D01*
X105850000Y-71461928D01*
X105725518Y-71474188D01*
X105605820Y-71510498D01*
X105495506Y-71569463D01*
X105398815Y-71648815D01*
X105319463Y-71745506D01*
X105260498Y-71855820D01*
X105224188Y-71975518D01*
X105211928Y-72100000D01*
X105211928Y-72736878D01*
X105101939Y-72715000D01*
X104898061Y-72715000D01*
X104698102Y-72754774D01*
X104509744Y-72832795D01*
X104460321Y-72865818D01*
X104446608Y-72726592D01*
X104397850Y-72565858D01*
X104318671Y-72417725D01*
X104235000Y-72315771D01*
X104235000Y-71838072D01*
X104300000Y-71838072D01*
X104424482Y-71825812D01*
X104544180Y-71789502D01*
X104654494Y-71730537D01*
X104751185Y-71651185D01*
X104830537Y-71554494D01*
X104889502Y-71444180D01*
X104925812Y-71324482D01*
X104938072Y-71200000D01*
X104938072Y-70000000D01*
X104925812Y-69875518D01*
X104889502Y-69755820D01*
X104830537Y-69645506D01*
X104751185Y-69548815D01*
X104654494Y-69469463D01*
X104601808Y-69441301D01*
X104677348Y-69435235D01*
X104796878Y-69398377D01*
X104806509Y-69393172D01*
X104938206Y-69433122D01*
X105090000Y-69448072D01*
X105370000Y-69448072D01*
X105521794Y-69433122D01*
X105667755Y-69388845D01*
X105802274Y-69316943D01*
X105871659Y-69260000D01*
X107218232Y-69260000D01*
X107255554Y-69263676D01*
X107292876Y-69260000D01*
X107292887Y-69260000D01*
X107404540Y-69249003D01*
X107547801Y-69205546D01*
X107679830Y-69134974D01*
X107795555Y-69040001D01*
X107819357Y-69010998D01*
X107959918Y-68870438D01*
X108018356Y-68941644D01*
X108135504Y-69037786D01*
X108269158Y-69109225D01*
X108414181Y-69153218D01*
X108565000Y-69168072D01*
X108572809Y-69168072D01*
X108657911Y-69185000D01*
X108842089Y-69185000D01*
X108927191Y-69168072D01*
X108935000Y-69168072D01*
X109085819Y-69153218D01*
X109230842Y-69109225D01*
X109364496Y-69037786D01*
X109481644Y-68941644D01*
X109577786Y-68824496D01*
X109649225Y-68690842D01*
X109693218Y-68545819D01*
X109708072Y-68395000D01*
X109708072Y-68125000D01*
X109693218Y-67974181D01*
X109649225Y-67829158D01*
X109606914Y-67750000D01*
X109649225Y-67670842D01*
X109693218Y-67525819D01*
X109708072Y-67375000D01*
X109708072Y-67105000D01*
X109693218Y-66954181D01*
X109649225Y-66809158D01*
X109577786Y-66675504D01*
X109481644Y-66558356D01*
X109364496Y-66462214D01*
X109230842Y-66390775D01*
X109085819Y-66346782D01*
X109035493Y-66341825D01*
X109015229Y-66333432D01*
X108894149Y-66309347D01*
X108884482Y-66299680D01*
X108996754Y-66239670D01*
X109000518Y-66240812D01*
X109125000Y-66253072D01*
X109839250Y-66250000D01*
X109919181Y-66170069D01*
X110004744Y-66228803D01*
X110043526Y-66224011D01*
X110259039Y-66134131D01*
X110280480Y-66119730D01*
X110410750Y-66250000D01*
X111125000Y-66253072D01*
X111249482Y-66240812D01*
X111369180Y-66204502D01*
X111479494Y-66145537D01*
X111576185Y-66066185D01*
X111655537Y-65969494D01*
X111714502Y-65859180D01*
X111750812Y-65739482D01*
X111763072Y-65615000D01*
X111760000Y-65150750D01*
X111601250Y-64992000D01*
X110252000Y-64992000D01*
X110252000Y-65012000D01*
X109998000Y-65012000D01*
X109998000Y-64992000D01*
X109978000Y-64992000D01*
X109978000Y-64758000D01*
X110725152Y-64758000D01*
X110741797Y-64738000D01*
X111601250Y-64738000D01*
X111760000Y-64579250D01*
X111763072Y-64115000D01*
X111757516Y-64058588D01*
X111763312Y-64039482D01*
X111775572Y-63915000D01*
X111772500Y-63850750D01*
X111613750Y-63692000D01*
X111599316Y-63692000D01*
X111576185Y-63663815D01*
X111479494Y-63584463D01*
X111369180Y-63525498D01*
X111316758Y-63509596D01*
X111316451Y-63438000D01*
X111613750Y-63438000D01*
X111747255Y-63304495D01*
X119515000Y-63304495D01*
X119515000Y-63695505D01*
X119591282Y-64079003D01*
X119740915Y-64440250D01*
X119958149Y-64765364D01*
X120234636Y-65041851D01*
X120559750Y-65259085D01*
X120920997Y-65408718D01*
X121304495Y-65485000D01*
X121695505Y-65485000D01*
X122079003Y-65408718D01*
X122440250Y-65259085D01*
X122765364Y-65041851D01*
X123041851Y-64765364D01*
X123259085Y-64440250D01*
X123408718Y-64079003D01*
X123485000Y-63695505D01*
X123485000Y-63304495D01*
X123408718Y-62920997D01*
X123259085Y-62559750D01*
X123041851Y-62234636D01*
X122765364Y-61958149D01*
X122440250Y-61740915D01*
X122079003Y-61591282D01*
X121695505Y-61515000D01*
X121304495Y-61515000D01*
X120920997Y-61591282D01*
X120559750Y-61740915D01*
X120234636Y-61958149D01*
X119958149Y-62234636D01*
X119740915Y-62559750D01*
X119591282Y-62920997D01*
X119515000Y-63304495D01*
X111747255Y-63304495D01*
X111772500Y-63279250D01*
X111775572Y-63215000D01*
X111763312Y-63090518D01*
X111727002Y-62970820D01*
X111668037Y-62860506D01*
X111588685Y-62763815D01*
X111491994Y-62684463D01*
X111381680Y-62625498D01*
X111261982Y-62589188D01*
X111255682Y-62588568D01*
X111315000Y-62529250D01*
X111318072Y-61815000D01*
X111315000Y-61783808D01*
X111315000Y-61757998D01*
X111312458Y-61757998D01*
X111305812Y-61690518D01*
X111277005Y-61595555D01*
X111308675Y-61552116D01*
X111252824Y-61300815D01*
X111149019Y-61065239D01*
X111001250Y-60854441D01*
X110815196Y-60676522D01*
X110789231Y-60660000D01*
X123967721Y-60660000D01*
X124065424Y-60669580D01*
%TA.AperFunction,Conductor*%
D29*
G36*
X124065424Y-60669580D02*
G01*
X124128356Y-60688580D01*
X124186405Y-60719445D01*
X124237343Y-60760989D01*
X124279248Y-60811644D01*
X124310515Y-60869471D01*
X124329956Y-60932272D01*
X124340000Y-61027835D01*
X124340001Y-80967711D01*
X124330420Y-81065424D01*
X124311420Y-81128357D01*
X124280554Y-81186406D01*
X124239011Y-81237343D01*
X124188356Y-81279248D01*
X124130529Y-81310515D01*
X124067728Y-81329956D01*
X123972165Y-81340000D01*
X107321580Y-81340000D01*
X107623508Y-81038072D01*
X108500000Y-81038072D01*
X108624482Y-81025812D01*
X108744180Y-80989502D01*
X108854494Y-80930537D01*
X108900000Y-80893191D01*
X108945506Y-80930537D01*
X109055820Y-80989502D01*
X109175518Y-81025812D01*
X109300000Y-81038072D01*
X110800000Y-81038072D01*
X110924482Y-81025812D01*
X111044180Y-80989502D01*
X111154494Y-80930537D01*
X111251185Y-80851185D01*
X111330537Y-80754494D01*
X111389502Y-80644180D01*
X111425812Y-80524482D01*
X111438072Y-80400000D01*
X111438072Y-78400000D01*
X111425812Y-78275518D01*
X111389502Y-78155820D01*
X111330537Y-78045506D01*
X111251185Y-77948815D01*
X111154494Y-77869463D01*
X111044180Y-77810498D01*
X110924482Y-77774188D01*
X110800000Y-77761928D01*
X109923509Y-77761928D01*
X108126079Y-75964499D01*
X108240256Y-75917205D01*
X108409774Y-75803937D01*
X108553937Y-75659774D01*
X108667205Y-75490256D01*
X108745226Y-75301898D01*
X108785000Y-75101939D01*
X108785000Y-74898061D01*
X108753176Y-74738072D01*
X109650000Y-74738072D01*
X109774482Y-74725812D01*
X109894180Y-74689502D01*
X109976923Y-74645274D01*
X110009744Y-74667205D01*
X110198102Y-74745226D01*
X110398061Y-74785000D01*
X110601939Y-74785000D01*
X110801898Y-74745226D01*
X110990256Y-74667205D01*
X111159774Y-74553937D01*
X111303937Y-74409774D01*
X111417205Y-74240256D01*
X111495226Y-74051898D01*
X111535000Y-73851939D01*
X111535000Y-73648061D01*
X111495226Y-73448102D01*
X111417205Y-73259744D01*
X111303937Y-73090226D01*
X111159774Y-72946063D01*
X110990256Y-72832795D01*
X110801898Y-72754774D01*
X110601939Y-72715000D01*
X110398061Y-72715000D01*
X110288072Y-72736878D01*
X110288072Y-72113072D01*
X110506250Y-72113072D01*
X110673408Y-72096608D01*
X110834142Y-72047850D01*
X110982275Y-71968671D01*
X111112115Y-71862115D01*
X111186286Y-71771736D01*
X111252271Y-71799068D01*
X111432911Y-71835000D01*
X111617089Y-71835000D01*
X111797729Y-71799068D01*
X111967889Y-71728586D01*
X112121028Y-71626262D01*
X112251262Y-71496028D01*
X112258631Y-71485000D01*
X112513512Y-71485000D01*
X112560887Y-71499371D01*
X112700000Y-71513072D01*
X112763271Y-71513072D01*
X112944209Y-71694010D01*
X112873170Y-71701007D01*
X112746570Y-71739410D01*
X112729909Y-71744464D01*
X112597879Y-71815036D01*
X112514239Y-71883678D01*
X112482155Y-71910009D01*
X112458356Y-71939008D01*
X111938988Y-72458377D01*
X111909990Y-72482175D01*
X111886192Y-72511173D01*
X111886191Y-72511174D01*
X111815016Y-72597900D01*
X111744444Y-72729930D01*
X111726312Y-72789705D01*
X111700988Y-72873190D01*
X111698963Y-72893750D01*
X111686314Y-73022176D01*
X111689991Y-73059508D01*
X111689990Y-74187667D01*
X111686314Y-74224990D01*
X111689990Y-74262312D01*
X111689990Y-74262322D01*
X111700987Y-74373975D01*
X111730030Y-74469717D01*
X111744444Y-74517236D01*
X111815016Y-74649266D01*
X111844086Y-74684687D01*
X111909989Y-74764991D01*
X111938992Y-74788793D01*
X112136928Y-74986729D01*
X112136928Y-75250000D01*
X112153512Y-75418377D01*
X112202625Y-75580283D01*
X112282382Y-75729497D01*
X112389716Y-75860284D01*
X112520503Y-75967618D01*
X112669717Y-76047375D01*
X112831623Y-76096488D01*
X113000000Y-76113072D01*
X113263270Y-76113072D01*
X113527501Y-76377303D01*
X113527501Y-76672357D01*
X113462885Y-76725385D01*
X113356329Y-76855225D01*
X113277150Y-77003358D01*
X113228392Y-77164092D01*
X113211928Y-77331250D01*
X113211928Y-77843750D01*
X113228392Y-78010908D01*
X113277150Y-78171642D01*
X113356329Y-78319775D01*
X113462885Y-78449615D01*
X113495342Y-78476251D01*
X113457394Y-78507394D01*
X113353169Y-78634392D01*
X113275722Y-78779284D01*
X113228031Y-78936500D01*
X113211928Y-79100000D01*
X113211928Y-79650000D01*
X113228031Y-79813500D01*
X113275722Y-79970716D01*
X113353169Y-80115608D01*
X113457394Y-80242606D01*
X113584392Y-80346831D01*
X113729284Y-80424278D01*
X113886500Y-80471969D01*
X114050000Y-80488072D01*
X114450000Y-80488072D01*
X114613500Y-80471969D01*
X114770716Y-80424278D01*
X114915608Y-80346831D01*
X115017590Y-80263137D01*
X115048815Y-80301185D01*
X115145506Y-80380537D01*
X115255820Y-80439502D01*
X115375518Y-80475812D01*
X115500000Y-80488072D01*
X115614250Y-80485000D01*
X115773000Y-80326250D01*
X115773000Y-79502000D01*
X116027000Y-79502000D01*
X116027000Y-80326250D01*
X116185750Y-80485000D01*
X116300000Y-80488072D01*
X116424482Y-80475812D01*
X116544180Y-80439502D01*
X116654494Y-80380537D01*
X116751185Y-80301185D01*
X116830537Y-80204494D01*
X116889502Y-80094180D01*
X116925812Y-79974482D01*
X116938072Y-79850000D01*
X116935000Y-79660750D01*
X116776250Y-79502000D01*
X116027000Y-79502000D01*
X115773000Y-79502000D01*
X115753000Y-79502000D01*
X115753000Y-79248000D01*
X115773000Y-79248000D01*
X115773000Y-79228000D01*
X116027000Y-79228000D01*
X116027000Y-79248000D01*
X116776250Y-79248000D01*
X116935000Y-79089250D01*
X116936174Y-79016890D01*
X118808524Y-79016890D01*
X118853175Y-79164099D01*
X118978359Y-79426920D01*
X119152412Y-79660269D01*
X119368645Y-79855178D01*
X119618748Y-80004157D01*
X119893109Y-80101481D01*
X120123000Y-79980814D01*
X120123000Y-78787000D01*
X118929845Y-78787000D01*
X118808524Y-79016890D01*
X116936174Y-79016890D01*
X116938072Y-78900000D01*
X116925812Y-78775518D01*
X116889502Y-78655820D01*
X116830537Y-78545506D01*
X116751185Y-78448815D01*
X116713292Y-78417717D01*
X116793671Y-78319775D01*
X116872850Y-78171642D01*
X116921608Y-78010908D01*
X116938072Y-77843750D01*
X116938072Y-77331250D01*
X116921608Y-77164092D01*
X116872850Y-77003358D01*
X116793671Y-76855225D01*
X116687115Y-76725385D01*
X116557275Y-76618829D01*
X116409142Y-76539650D01*
X116248408Y-76490892D01*
X116081250Y-76474428D01*
X115643750Y-76474428D01*
X115476592Y-76490892D01*
X115315858Y-76539650D01*
X115167725Y-76618829D01*
X115075000Y-76694926D01*
X115047500Y-76672357D01*
X115047500Y-76113072D01*
X115250000Y-76113072D01*
X115418377Y-76096488D01*
X115580283Y-76047375D01*
X115729497Y-75967618D01*
X115799705Y-75910000D01*
X115950295Y-75910000D01*
X116020503Y-75967618D01*
X116169717Y-76047375D01*
X116331623Y-76096488D01*
X116500000Y-76113072D01*
X117000000Y-76113072D01*
X117168377Y-76096488D01*
X117330283Y-76047375D01*
X117351976Y-76035780D01*
X119077013Y-77760817D01*
X118978359Y-77893080D01*
X118853175Y-78155901D01*
X118808524Y-78303110D01*
X118929845Y-78533000D01*
X120123000Y-78533000D01*
X120123000Y-78513000D01*
X120377000Y-78513000D01*
X120377000Y-78533000D01*
X120397000Y-78533000D01*
X120397000Y-78787000D01*
X120377000Y-78787000D01*
X120377000Y-79980814D01*
X120606891Y-80101481D01*
X120881252Y-80004157D01*
X121131355Y-79855178D01*
X121347588Y-79660269D01*
X121518900Y-79430594D01*
X121636525Y-79606632D01*
X121843368Y-79813475D01*
X122086589Y-79975990D01*
X122356842Y-80087932D01*
X122643740Y-80145000D01*
X122936260Y-80145000D01*
X123223158Y-80087932D01*
X123493411Y-79975990D01*
X123736632Y-79813475D01*
X123943475Y-79606632D01*
X124105990Y-79363411D01*
X124217932Y-79093158D01*
X124275000Y-78806260D01*
X124275000Y-78513740D01*
X124217932Y-78226842D01*
X124105990Y-77956589D01*
X123943475Y-77713368D01*
X123736632Y-77506525D01*
X123562240Y-77390000D01*
X123736632Y-77273475D01*
X123943475Y-77066632D01*
X124105990Y-76823411D01*
X124217932Y-76553158D01*
X124275000Y-76266260D01*
X124275000Y-75973740D01*
X124217932Y-75686842D01*
X124105990Y-75416589D01*
X123943475Y-75173368D01*
X123736632Y-74966525D01*
X123554466Y-74844805D01*
X123671355Y-74775178D01*
X123887588Y-74580269D01*
X124061641Y-74346920D01*
X124186825Y-74084099D01*
X124231476Y-73936890D01*
X124110155Y-73707000D01*
X122917000Y-73707000D01*
X122917000Y-73727000D01*
X122663000Y-73727000D01*
X122663000Y-73707000D01*
X122643000Y-73707000D01*
X122643000Y-73453000D01*
X122663000Y-73453000D01*
X122663000Y-73433000D01*
X122917000Y-73433000D01*
X122917000Y-73453000D01*
X124110155Y-73453000D01*
X124231476Y-73223110D01*
X124186825Y-73075901D01*
X124061641Y-72813080D01*
X123887588Y-72579731D01*
X123671355Y-72384822D01*
X123554466Y-72315195D01*
X123736632Y-72193475D01*
X123943475Y-71986632D01*
X124105990Y-71743411D01*
X124217932Y-71473158D01*
X124275000Y-71186260D01*
X124275000Y-70893740D01*
X124217932Y-70606842D01*
X124105990Y-70336589D01*
X123943475Y-70093368D01*
X123736632Y-69886525D01*
X123562240Y-69770000D01*
X123736632Y-69653475D01*
X123943475Y-69446632D01*
X124105990Y-69203411D01*
X124217932Y-68933158D01*
X124275000Y-68646260D01*
X124275000Y-68353740D01*
X124217932Y-68066842D01*
X124105990Y-67796589D01*
X123943475Y-67553368D01*
X123736632Y-67346525D01*
X123493411Y-67184010D01*
X123223158Y-67072068D01*
X122936260Y-67015000D01*
X122643740Y-67015000D01*
X122356842Y-67072068D01*
X122086589Y-67184010D01*
X121843368Y-67346525D01*
X121711513Y-67478380D01*
X121689502Y-67405820D01*
X121630537Y-67295506D01*
X121551185Y-67198815D01*
X121454494Y-67119463D01*
X121344180Y-67060498D01*
X121224482Y-67024188D01*
X121100000Y-67011928D01*
X119714693Y-67011928D01*
X119709973Y-67003097D01*
X119615000Y-66887372D01*
X119586003Y-66863575D01*
X118126420Y-65403993D01*
X118102617Y-65374989D01*
X117986892Y-65280016D01*
X117854863Y-65209444D01*
X117711602Y-65165987D01*
X117599949Y-65154990D01*
X117599938Y-65154990D01*
X117562616Y-65151314D01*
X117525294Y-65154990D01*
X115974709Y-65154990D01*
X115937384Y-65151314D01*
X115900059Y-65154990D01*
X115900051Y-65154990D01*
X115788398Y-65165987D01*
X115645137Y-65209444D01*
X115513108Y-65280016D01*
X115397383Y-65374989D01*
X115373584Y-65403988D01*
X114813998Y-65963575D01*
X114785000Y-65987373D01*
X114761202Y-66016371D01*
X114761201Y-66016372D01*
X114690026Y-66103098D01*
X114619454Y-66235128D01*
X114598260Y-66304999D01*
X114576217Y-66377668D01*
X114575998Y-66378389D01*
X114561324Y-66527374D01*
X114565001Y-66564706D01*
X114565001Y-66740000D01*
X114547998Y-66740000D01*
X114547998Y-66794748D01*
X114493250Y-66740000D01*
X114387170Y-66751992D01*
X114318065Y-66774579D01*
X114239113Y-66750629D01*
X114100000Y-66736928D01*
X113950000Y-66736928D01*
X113810887Y-66750629D01*
X113677119Y-66791207D01*
X113553838Y-66857102D01*
X113445782Y-66945782D01*
X113357102Y-67053838D01*
X113291207Y-67177119D01*
X113250629Y-67310887D01*
X113236928Y-67450000D01*
X113236928Y-67986928D01*
X112700000Y-67986928D01*
X112560887Y-68000629D01*
X112427119Y-68041207D01*
X112303838Y-68107102D01*
X112195782Y-68195782D01*
X112126947Y-68279657D01*
X112121028Y-68273738D01*
X111967889Y-68171414D01*
X111797729Y-68100932D01*
X111617089Y-68065000D01*
X111432911Y-68065000D01*
X111252271Y-68100932D01*
X111082111Y-68171414D01*
X110928972Y-68273738D01*
X110798738Y-68403972D01*
X110696414Y-68557111D01*
X110625932Y-68727271D01*
X110590000Y-68907911D01*
X110590000Y-69092089D01*
X110625932Y-69272729D01*
X110696414Y-69442889D01*
X110709518Y-69462500D01*
X110696414Y-69482111D01*
X110625932Y-69652271D01*
X110590000Y-69832911D01*
X110590000Y-69895177D01*
X110506250Y-69886928D01*
X110068750Y-69886928D01*
X109901592Y-69903392D01*
X109740858Y-69952150D01*
X109592725Y-70031329D01*
X109500000Y-70107426D01*
X109407275Y-70031329D01*
X109259142Y-69952150D01*
X109098408Y-69903392D01*
X108931250Y-69886928D01*
X108493750Y-69886928D01*
X108326592Y-69903392D01*
X108231401Y-69932268D01*
X108225812Y-69875518D01*
X108189502Y-69755820D01*
X108130537Y-69645506D01*
X108051185Y-69548815D01*
X107954494Y-69469463D01*
X107844180Y-69410498D01*
X107724482Y-69374188D01*
X107600000Y-69361928D01*
X106700000Y-69361928D01*
X106575518Y-69374188D01*
X106455820Y-69410498D01*
X106345506Y-69469463D01*
X106248815Y-69548815D01*
X106169463Y-69645506D01*
X106110498Y-69755820D01*
X106074188Y-69875518D01*
X106061928Y-70000000D01*
X106061928Y-71200000D01*
X106074188Y-71324482D01*
X106110498Y-71444180D01*
X106119985Y-71461928D01*
X105850000Y-71461928D01*
X105725518Y-71474188D01*
X105605820Y-71510498D01*
X105495506Y-71569463D01*
X105398815Y-71648815D01*
X105319463Y-71745506D01*
X105260498Y-71855820D01*
X105224188Y-71975518D01*
X105211928Y-72100000D01*
X105211928Y-72736878D01*
X105101939Y-72715000D01*
X104898061Y-72715000D01*
X104698102Y-72754774D01*
X104509744Y-72832795D01*
X104460321Y-72865818D01*
X104446608Y-72726592D01*
X104397850Y-72565858D01*
X104318671Y-72417725D01*
X104235000Y-72315771D01*
X104235000Y-71838072D01*
X104300000Y-71838072D01*
X104424482Y-71825812D01*
X104544180Y-71789502D01*
X104654494Y-71730537D01*
X104751185Y-71651185D01*
X104830537Y-71554494D01*
X104889502Y-71444180D01*
X104925812Y-71324482D01*
X104938072Y-71200000D01*
X104938072Y-70000000D01*
X104925812Y-69875518D01*
X104889502Y-69755820D01*
X104830537Y-69645506D01*
X104751185Y-69548815D01*
X104654494Y-69469463D01*
X104601808Y-69441301D01*
X104677348Y-69435235D01*
X104796878Y-69398377D01*
X104806509Y-69393172D01*
X104938206Y-69433122D01*
X105090000Y-69448072D01*
X105370000Y-69448072D01*
X105521794Y-69433122D01*
X105667755Y-69388845D01*
X105802274Y-69316943D01*
X105871659Y-69260000D01*
X107218232Y-69260000D01*
X107255554Y-69263676D01*
X107292876Y-69260000D01*
X107292887Y-69260000D01*
X107404540Y-69249003D01*
X107547801Y-69205546D01*
X107679830Y-69134974D01*
X107795555Y-69040001D01*
X107819357Y-69010998D01*
X107959918Y-68870438D01*
X108018356Y-68941644D01*
X108135504Y-69037786D01*
X108269158Y-69109225D01*
X108414181Y-69153218D01*
X108565000Y-69168072D01*
X108572809Y-69168072D01*
X108657911Y-69185000D01*
X108842089Y-69185000D01*
X108927191Y-69168072D01*
X108935000Y-69168072D01*
X109085819Y-69153218D01*
X109230842Y-69109225D01*
X109364496Y-69037786D01*
X109481644Y-68941644D01*
X109577786Y-68824496D01*
X109649225Y-68690842D01*
X109693218Y-68545819D01*
X109708072Y-68395000D01*
X109708072Y-68125000D01*
X109693218Y-67974181D01*
X109649225Y-67829158D01*
X109606914Y-67750000D01*
X109649225Y-67670842D01*
X109693218Y-67525819D01*
X109708072Y-67375000D01*
X109708072Y-67105000D01*
X109693218Y-66954181D01*
X109649225Y-66809158D01*
X109577786Y-66675504D01*
X109481644Y-66558356D01*
X109364496Y-66462214D01*
X109230842Y-66390775D01*
X109085819Y-66346782D01*
X109035493Y-66341825D01*
X109015229Y-66333432D01*
X108894149Y-66309347D01*
X108884482Y-66299680D01*
X108996754Y-66239670D01*
X109000518Y-66240812D01*
X109125000Y-66253072D01*
X109839250Y-66250000D01*
X109919181Y-66170069D01*
X110004744Y-66228803D01*
X110043526Y-66224011D01*
X110259039Y-66134131D01*
X110280480Y-66119730D01*
X110410750Y-66250000D01*
X111125000Y-66253072D01*
X111249482Y-66240812D01*
X111369180Y-66204502D01*
X111479494Y-66145537D01*
X111576185Y-66066185D01*
X111655537Y-65969494D01*
X111714502Y-65859180D01*
X111750812Y-65739482D01*
X111763072Y-65615000D01*
X111760000Y-65150750D01*
X111601250Y-64992000D01*
X110252000Y-64992000D01*
X110252000Y-65012000D01*
X109998000Y-65012000D01*
X109998000Y-64992000D01*
X109978000Y-64992000D01*
X109978000Y-64758000D01*
X110725152Y-64758000D01*
X110741797Y-64738000D01*
X111601250Y-64738000D01*
X111760000Y-64579250D01*
X111763072Y-64115000D01*
X111757516Y-64058588D01*
X111763312Y-64039482D01*
X111775572Y-63915000D01*
X111772500Y-63850750D01*
X111613750Y-63692000D01*
X111599316Y-63692000D01*
X111576185Y-63663815D01*
X111479494Y-63584463D01*
X111369180Y-63525498D01*
X111316758Y-63509596D01*
X111316451Y-63438000D01*
X111613750Y-63438000D01*
X111747255Y-63304495D01*
X119515000Y-63304495D01*
X119515000Y-63695505D01*
X119591282Y-64079003D01*
X119740915Y-64440250D01*
X119958149Y-64765364D01*
X120234636Y-65041851D01*
X120559750Y-65259085D01*
X120920997Y-65408718D01*
X121304495Y-65485000D01*
X121695505Y-65485000D01*
X122079003Y-65408718D01*
X122440250Y-65259085D01*
X122765364Y-65041851D01*
X123041851Y-64765364D01*
X123259085Y-64440250D01*
X123408718Y-64079003D01*
X123485000Y-63695505D01*
X123485000Y-63304495D01*
X123408718Y-62920997D01*
X123259085Y-62559750D01*
X123041851Y-62234636D01*
X122765364Y-61958149D01*
X122440250Y-61740915D01*
X122079003Y-61591282D01*
X121695505Y-61515000D01*
X121304495Y-61515000D01*
X120920997Y-61591282D01*
X120559750Y-61740915D01*
X120234636Y-61958149D01*
X119958149Y-62234636D01*
X119740915Y-62559750D01*
X119591282Y-62920997D01*
X119515000Y-63304495D01*
X111747255Y-63304495D01*
X111772500Y-63279250D01*
X111775572Y-63215000D01*
X111763312Y-63090518D01*
X111727002Y-62970820D01*
X111668037Y-62860506D01*
X111588685Y-62763815D01*
X111491994Y-62684463D01*
X111381680Y-62625498D01*
X111261982Y-62589188D01*
X111255682Y-62588568D01*
X111315000Y-62529250D01*
X111318072Y-61815000D01*
X111315000Y-61783808D01*
X111315000Y-61757998D01*
X111312458Y-61757998D01*
X111305812Y-61690518D01*
X111277005Y-61595555D01*
X111308675Y-61552116D01*
X111252824Y-61300815D01*
X111149019Y-61065239D01*
X111001250Y-60854441D01*
X110815196Y-60676522D01*
X110789231Y-60660000D01*
X123967721Y-60660000D01*
X124065424Y-60669580D01*
G37*
%TD.AperFunction*%
D28*
X103734804Y-60676522D02*
X103548750Y-60854441D01*
X103400981Y-61065239D01*
X103297176Y-61300815D01*
X103241325Y-61552116D01*
X103258871Y-61576183D01*
X103224188Y-61690518D01*
X103211928Y-61815000D01*
X103215000Y-62529250D01*
X103271628Y-62585878D01*
X103238018Y-62589188D01*
X103118320Y-62625498D01*
X103008006Y-62684463D01*
X102911315Y-62763815D01*
X102831963Y-62860506D01*
X102772998Y-62970820D01*
X102736688Y-63090518D01*
X102724428Y-63215000D01*
X102727500Y-63279250D01*
X102886250Y-63438000D01*
X103213549Y-63438000D01*
X103213195Y-63520510D01*
X103130820Y-63545498D01*
X103020506Y-63604463D01*
X102923815Y-63683815D01*
X102917098Y-63692000D01*
X102886250Y-63692000D01*
X102727500Y-63850750D01*
X102724428Y-63915000D01*
X102736688Y-64039482D01*
X102743971Y-64063490D01*
X102736928Y-64135000D01*
X102740000Y-64599250D01*
X102898750Y-64758000D01*
X104522000Y-64758000D01*
X104522000Y-65012000D01*
X102898750Y-65012000D01*
X102740000Y-65170750D01*
X102736928Y-65635000D01*
X102749188Y-65759482D01*
X102785498Y-65879180D01*
X102844463Y-65989494D01*
X102923815Y-66086185D01*
X103020506Y-66165537D01*
X103130820Y-66224502D01*
X103250518Y-66260812D01*
X103375000Y-66273072D01*
X104089250Y-66270000D01*
X104248000Y-66111250D01*
X104248000Y-66105275D01*
X104290961Y-66134131D01*
X104506474Y-66224011D01*
X104545256Y-66228803D01*
X104589312Y-66198562D01*
X104660750Y-66270000D01*
X105375000Y-66273072D01*
X105499482Y-66260812D01*
X105619180Y-66224502D01*
X105639925Y-66213413D01*
X105641836Y-66214022D01*
X105743250Y-66225000D01*
X105902000Y-66066250D01*
X105902000Y-65993804D01*
X105905537Y-65989494D01*
X105915735Y-65970415D01*
X105973815Y-66041185D01*
X106070506Y-66120537D01*
X106138782Y-66157032D01*
X106206750Y-66225000D01*
X106298180Y-66215103D01*
X106300518Y-66215812D01*
X106330347Y-66218750D01*
X106316928Y-66355000D01*
X106316928Y-66373270D01*
X105950199Y-66740000D01*
X105871659Y-66740000D01*
X105802274Y-66683057D01*
X105667755Y-66611155D01*
X105521794Y-66566878D01*
X105370000Y-66551928D01*
X105090000Y-66551928D01*
X104938206Y-66566878D01*
X104806509Y-66606828D01*
X104796878Y-66601623D01*
X104677348Y-66564765D01*
X104555750Y-66555000D01*
X104397000Y-66713750D01*
X104397000Y-66983892D01*
X104371155Y-67032245D01*
X104326878Y-67178206D01*
X104311928Y-67330000D01*
X104311928Y-67670000D01*
X104326878Y-67821794D01*
X104371155Y-67967755D01*
X104388390Y-68000000D01*
X104371155Y-68032245D01*
X104326878Y-68178206D01*
X104311928Y-68330000D01*
X104311928Y-68647000D01*
X104143000Y-68647000D01*
X104143000Y-68627000D01*
X103513750Y-68627000D01*
X103355000Y-68785750D01*
X103351935Y-68807077D01*
X103363625Y-68931613D01*
X103399386Y-69051476D01*
X103457844Y-69162059D01*
X103536753Y-69259113D01*
X103633079Y-69338908D01*
X103675676Y-69361928D01*
X103400000Y-69361928D01*
X103275518Y-69374188D01*
X103155820Y-69410498D01*
X103045506Y-69469463D01*
X102948815Y-69548815D01*
X102869463Y-69645506D01*
X102810498Y-69755820D01*
X102774188Y-69875518D01*
X102761928Y-70000000D01*
X102761928Y-70436494D01*
X102754952Y-70443470D01*
X102721184Y-70471183D01*
X102693471Y-70504951D01*
X102693468Y-70504954D01*
X102610590Y-70605941D01*
X102528412Y-70759687D01*
X102477805Y-70926510D01*
X102460719Y-71100000D01*
X102465001Y-71143479D01*
X102465000Y-72315770D01*
X102381329Y-72417725D01*
X102302150Y-72565858D01*
X102253392Y-72726592D01*
X102236928Y-72893750D01*
X102236928Y-73331250D01*
X102253392Y-73498408D01*
X102302150Y-73659142D01*
X102381329Y-73807275D01*
X102457426Y-73900000D01*
X102381329Y-73992725D01*
X102302150Y-74140858D01*
X102253392Y-74301592D01*
X102236928Y-74468750D01*
X102236928Y-74906250D01*
X102253392Y-75073408D01*
X102302150Y-75234142D01*
X102381329Y-75382275D01*
X102397542Y-75402031D01*
X102382382Y-75420503D01*
X102302625Y-75569717D01*
X102253512Y-75731623D01*
X102236928Y-75900000D01*
X102236928Y-76350000D01*
X102253512Y-76518377D01*
X102302625Y-76680283D01*
X102380700Y-76826351D01*
X102344463Y-76870506D01*
X102285498Y-76980820D01*
X102249188Y-77100518D01*
X102236928Y-77225000D01*
X102240000Y-77389250D01*
X102398750Y-77548000D01*
X103223000Y-77548000D01*
X103223000Y-77528000D01*
X103477000Y-77528000D01*
X103477000Y-77548000D01*
X104301250Y-77548000D01*
X104460000Y-77389250D01*
X104463072Y-77225000D01*
X104450812Y-77100518D01*
X104423354Y-77010000D01*
X106668424Y-77010000D01*
X107420352Y-77761928D01*
X107000000Y-77761928D01*
X106875518Y-77774188D01*
X106755820Y-77810498D01*
X106645506Y-77869463D01*
X106600000Y-77906809D01*
X106554494Y-77869463D01*
X106444180Y-77810498D01*
X106324482Y-77774188D01*
X106200000Y-77761928D01*
X105735750Y-77765000D01*
X105577000Y-77923750D01*
X105577000Y-79273000D01*
X105597000Y-79273000D01*
X105597000Y-79527000D01*
X105577000Y-79527000D01*
X105577000Y-79547000D01*
X105323000Y-79547000D01*
X105323000Y-79527000D01*
X105303000Y-79527000D01*
X105303000Y-79273000D01*
X105323000Y-79273000D01*
X105323000Y-77923750D01*
X105164250Y-77765000D01*
X104700000Y-77761928D01*
X104575518Y-77774188D01*
X104455820Y-77810498D01*
X104360629Y-77861379D01*
X104301250Y-77802000D01*
X103477000Y-77802000D01*
X103477000Y-79048000D01*
X103497000Y-79048000D01*
X103497000Y-79302000D01*
X103477000Y-79302000D01*
X103477000Y-79322000D01*
X103223000Y-79322000D01*
X103223000Y-79302000D01*
X102398750Y-79302000D01*
X102240000Y-79460750D01*
X102236928Y-79625000D01*
X102249188Y-79749482D01*
X102285498Y-79869180D01*
X102344463Y-79979494D01*
X102380700Y-80023649D01*
X102302625Y-80169717D01*
X102253512Y-80331623D01*
X102236928Y-80500000D01*
X102236928Y-80950000D01*
X102253512Y-81118377D01*
X102302625Y-81280283D01*
X102334545Y-81340000D01*
X102032279Y-81340000D01*
X101934576Y-81330420D01*
X101871643Y-81311420D01*
X101813594Y-81280554D01*
X101762657Y-81239011D01*
X101720752Y-81188356D01*
X101689485Y-81130529D01*
X101670044Y-81067728D01*
X101660000Y-80972165D01*
X101660000Y-78125000D01*
X102236928Y-78125000D01*
X102249188Y-78249482D01*
X102285498Y-78369180D01*
X102315335Y-78425000D01*
X102285498Y-78480820D01*
X102249188Y-78600518D01*
X102236928Y-78725000D01*
X102240000Y-78889250D01*
X102398750Y-79048000D01*
X103223000Y-79048000D01*
X103223000Y-77802000D01*
X102398750Y-77802000D01*
X102240000Y-77960750D01*
X102236928Y-78125000D01*
X101660000Y-78125000D01*
X101660000Y-67807077D01*
X103351935Y-67807077D01*
X103363625Y-67931613D01*
X103384028Y-68000000D01*
X103363625Y-68068387D01*
X103351935Y-68192923D01*
X103355000Y-68214250D01*
X103513750Y-68373000D01*
X103696164Y-68373000D01*
X103743122Y-68398377D01*
X103862652Y-68435235D01*
X103984250Y-68445000D01*
X104056250Y-68373000D01*
X104143000Y-68373000D01*
X104143000Y-67627000D01*
X104056250Y-67627000D01*
X103984250Y-67555000D01*
X103862652Y-67564765D01*
X103743122Y-67601623D01*
X103696164Y-67627000D01*
X103513750Y-67627000D01*
X103355000Y-67785750D01*
X103351935Y-67807077D01*
X101660000Y-67807077D01*
X101660000Y-67192923D01*
X103351935Y-67192923D01*
X103355000Y-67214250D01*
X103513750Y-67373000D01*
X104143000Y-67373000D01*
X104143000Y-66713750D01*
X103984250Y-66555000D01*
X103862652Y-66564765D01*
X103743122Y-66601623D01*
X103633079Y-66661092D01*
X103536753Y-66740887D01*
X103457844Y-66837941D01*
X103399386Y-66948524D01*
X103363625Y-67068387D01*
X103351935Y-67192923D01*
X101660000Y-67192923D01*
X101660000Y-61032279D01*
X101669580Y-60934576D01*
X101688580Y-60871644D01*
X101719445Y-60813595D01*
X101760989Y-60762657D01*
X101811644Y-60720752D01*
X101869471Y-60689485D01*
X101932272Y-60670044D01*
X102027835Y-60660000D01*
X103760769Y-60660000D01*
X103734804Y-60676522D01*
%TA.AperFunction,Conductor*%
D29*
G36*
X103734804Y-60676522D02*
G01*
X103548750Y-60854441D01*
X103400981Y-61065239D01*
X103297176Y-61300815D01*
X103241325Y-61552116D01*
X103258871Y-61576183D01*
X103224188Y-61690518D01*
X103211928Y-61815000D01*
X103215000Y-62529250D01*
X103271628Y-62585878D01*
X103238018Y-62589188D01*
X103118320Y-62625498D01*
X103008006Y-62684463D01*
X102911315Y-62763815D01*
X102831963Y-62860506D01*
X102772998Y-62970820D01*
X102736688Y-63090518D01*
X102724428Y-63215000D01*
X102727500Y-63279250D01*
X102886250Y-63438000D01*
X103213549Y-63438000D01*
X103213195Y-63520510D01*
X103130820Y-63545498D01*
X103020506Y-63604463D01*
X102923815Y-63683815D01*
X102917098Y-63692000D01*
X102886250Y-63692000D01*
X102727500Y-63850750D01*
X102724428Y-63915000D01*
X102736688Y-64039482D01*
X102743971Y-64063490D01*
X102736928Y-64135000D01*
X102740000Y-64599250D01*
X102898750Y-64758000D01*
X104522000Y-64758000D01*
X104522000Y-65012000D01*
X102898750Y-65012000D01*
X102740000Y-65170750D01*
X102736928Y-65635000D01*
X102749188Y-65759482D01*
X102785498Y-65879180D01*
X102844463Y-65989494D01*
X102923815Y-66086185D01*
X103020506Y-66165537D01*
X103130820Y-66224502D01*
X103250518Y-66260812D01*
X103375000Y-66273072D01*
X104089250Y-66270000D01*
X104248000Y-66111250D01*
X104248000Y-66105275D01*
X104290961Y-66134131D01*
X104506474Y-66224011D01*
X104545256Y-66228803D01*
X104589312Y-66198562D01*
X104660750Y-66270000D01*
X105375000Y-66273072D01*
X105499482Y-66260812D01*
X105619180Y-66224502D01*
X105639925Y-66213413D01*
X105641836Y-66214022D01*
X105743250Y-66225000D01*
X105902000Y-66066250D01*
X105902000Y-65993804D01*
X105905537Y-65989494D01*
X105915735Y-65970415D01*
X105973815Y-66041185D01*
X106070506Y-66120537D01*
X106138782Y-66157032D01*
X106206750Y-66225000D01*
X106298180Y-66215103D01*
X106300518Y-66215812D01*
X106330347Y-66218750D01*
X106316928Y-66355000D01*
X106316928Y-66373270D01*
X105950199Y-66740000D01*
X105871659Y-66740000D01*
X105802274Y-66683057D01*
X105667755Y-66611155D01*
X105521794Y-66566878D01*
X105370000Y-66551928D01*
X105090000Y-66551928D01*
X104938206Y-66566878D01*
X104806509Y-66606828D01*
X104796878Y-66601623D01*
X104677348Y-66564765D01*
X104555750Y-66555000D01*
X104397000Y-66713750D01*
X104397000Y-66983892D01*
X104371155Y-67032245D01*
X104326878Y-67178206D01*
X104311928Y-67330000D01*
X104311928Y-67670000D01*
X104326878Y-67821794D01*
X104371155Y-67967755D01*
X104388390Y-68000000D01*
X104371155Y-68032245D01*
X104326878Y-68178206D01*
X104311928Y-68330000D01*
X104311928Y-68647000D01*
X104143000Y-68647000D01*
X104143000Y-68627000D01*
X103513750Y-68627000D01*
X103355000Y-68785750D01*
X103351935Y-68807077D01*
X103363625Y-68931613D01*
X103399386Y-69051476D01*
X103457844Y-69162059D01*
X103536753Y-69259113D01*
X103633079Y-69338908D01*
X103675676Y-69361928D01*
X103400000Y-69361928D01*
X103275518Y-69374188D01*
X103155820Y-69410498D01*
X103045506Y-69469463D01*
X102948815Y-69548815D01*
X102869463Y-69645506D01*
X102810498Y-69755820D01*
X102774188Y-69875518D01*
X102761928Y-70000000D01*
X102761928Y-70436494D01*
X102754952Y-70443470D01*
X102721184Y-70471183D01*
X102693471Y-70504951D01*
X102693468Y-70504954D01*
X102610590Y-70605941D01*
X102528412Y-70759687D01*
X102477805Y-70926510D01*
X102460719Y-71100000D01*
X102465001Y-71143479D01*
X102465000Y-72315770D01*
X102381329Y-72417725D01*
X102302150Y-72565858D01*
X102253392Y-72726592D01*
X102236928Y-72893750D01*
X102236928Y-73331250D01*
X102253392Y-73498408D01*
X102302150Y-73659142D01*
X102381329Y-73807275D01*
X102457426Y-73900000D01*
X102381329Y-73992725D01*
X102302150Y-74140858D01*
X102253392Y-74301592D01*
X102236928Y-74468750D01*
X102236928Y-74906250D01*
X102253392Y-75073408D01*
X102302150Y-75234142D01*
X102381329Y-75382275D01*
X102397542Y-75402031D01*
X102382382Y-75420503D01*
X102302625Y-75569717D01*
X102253512Y-75731623D01*
X102236928Y-75900000D01*
X102236928Y-76350000D01*
X102253512Y-76518377D01*
X102302625Y-76680283D01*
X102380700Y-76826351D01*
X102344463Y-76870506D01*
X102285498Y-76980820D01*
X102249188Y-77100518D01*
X102236928Y-77225000D01*
X102240000Y-77389250D01*
X102398750Y-77548000D01*
X103223000Y-77548000D01*
X103223000Y-77528000D01*
X103477000Y-77528000D01*
X103477000Y-77548000D01*
X104301250Y-77548000D01*
X104460000Y-77389250D01*
X104463072Y-77225000D01*
X104450812Y-77100518D01*
X104423354Y-77010000D01*
X106668424Y-77010000D01*
X107420352Y-77761928D01*
X107000000Y-77761928D01*
X106875518Y-77774188D01*
X106755820Y-77810498D01*
X106645506Y-77869463D01*
X106600000Y-77906809D01*
X106554494Y-77869463D01*
X106444180Y-77810498D01*
X106324482Y-77774188D01*
X106200000Y-77761928D01*
X105735750Y-77765000D01*
X105577000Y-77923750D01*
X105577000Y-79273000D01*
X105597000Y-79273000D01*
X105597000Y-79527000D01*
X105577000Y-79527000D01*
X105577000Y-79547000D01*
X105323000Y-79547000D01*
X105323000Y-79527000D01*
X105303000Y-79527000D01*
X105303000Y-79273000D01*
X105323000Y-79273000D01*
X105323000Y-77923750D01*
X105164250Y-77765000D01*
X104700000Y-77761928D01*
X104575518Y-77774188D01*
X104455820Y-77810498D01*
X104360629Y-77861379D01*
X104301250Y-77802000D01*
X103477000Y-77802000D01*
X103477000Y-79048000D01*
X103497000Y-79048000D01*
X103497000Y-79302000D01*
X103477000Y-79302000D01*
X103477000Y-79322000D01*
X103223000Y-79322000D01*
X103223000Y-79302000D01*
X102398750Y-79302000D01*
X102240000Y-79460750D01*
X102236928Y-79625000D01*
X102249188Y-79749482D01*
X102285498Y-79869180D01*
X102344463Y-79979494D01*
X102380700Y-80023649D01*
X102302625Y-80169717D01*
X102253512Y-80331623D01*
X102236928Y-80500000D01*
X102236928Y-80950000D01*
X102253512Y-81118377D01*
X102302625Y-81280283D01*
X102334545Y-81340000D01*
X102032279Y-81340000D01*
X101934576Y-81330420D01*
X101871643Y-81311420D01*
X101813594Y-81280554D01*
X101762657Y-81239011D01*
X101720752Y-81188356D01*
X101689485Y-81130529D01*
X101670044Y-81067728D01*
X101660000Y-80972165D01*
X101660000Y-78125000D01*
X102236928Y-78125000D01*
X102249188Y-78249482D01*
X102285498Y-78369180D01*
X102315335Y-78425000D01*
X102285498Y-78480820D01*
X102249188Y-78600518D01*
X102236928Y-78725000D01*
X102240000Y-78889250D01*
X102398750Y-79048000D01*
X103223000Y-79048000D01*
X103223000Y-77802000D01*
X102398750Y-77802000D01*
X102240000Y-77960750D01*
X102236928Y-78125000D01*
X101660000Y-78125000D01*
X101660000Y-67807077D01*
X103351935Y-67807077D01*
X103363625Y-67931613D01*
X103384028Y-68000000D01*
X103363625Y-68068387D01*
X103351935Y-68192923D01*
X103355000Y-68214250D01*
X103513750Y-68373000D01*
X103696164Y-68373000D01*
X103743122Y-68398377D01*
X103862652Y-68435235D01*
X103984250Y-68445000D01*
X104056250Y-68373000D01*
X104143000Y-68373000D01*
X104143000Y-67627000D01*
X104056250Y-67627000D01*
X103984250Y-67555000D01*
X103862652Y-67564765D01*
X103743122Y-67601623D01*
X103696164Y-67627000D01*
X103513750Y-67627000D01*
X103355000Y-67785750D01*
X103351935Y-67807077D01*
X101660000Y-67807077D01*
X101660000Y-67192923D01*
X103351935Y-67192923D01*
X103355000Y-67214250D01*
X103513750Y-67373000D01*
X104143000Y-67373000D01*
X104143000Y-66713750D01*
X103984250Y-66555000D01*
X103862652Y-66564765D01*
X103743122Y-66601623D01*
X103633079Y-66661092D01*
X103536753Y-66740887D01*
X103457844Y-66837941D01*
X103399386Y-66948524D01*
X103363625Y-67068387D01*
X103351935Y-67192923D01*
X101660000Y-67192923D01*
X101660000Y-61032279D01*
X101669580Y-60934576D01*
X101688580Y-60871644D01*
X101719445Y-60813595D01*
X101760989Y-60762657D01*
X101811644Y-60720752D01*
X101869471Y-60689485D01*
X101932272Y-60670044D01*
X102027835Y-60660000D01*
X103760769Y-60660000D01*
X103734804Y-60676522D01*
G37*
%TD.AperFunction*%
D28*
X116990000Y-72435750D02*
X116877000Y-72548750D01*
X116877000Y-73348000D01*
X116897000Y-73348000D01*
X116897000Y-73602000D01*
X116877000Y-73602000D01*
X116877000Y-73622000D01*
X116623000Y-73622000D01*
X116623000Y-73602000D01*
X115127000Y-73602000D01*
X115127000Y-73622000D01*
X114873000Y-73622000D01*
X114873000Y-73602000D01*
X113377000Y-73602000D01*
X113377000Y-73622000D01*
X113209990Y-73622000D01*
X113209990Y-73336977D01*
X113218967Y-73328000D01*
X113377000Y-73328000D01*
X113377000Y-73348000D01*
X114873000Y-73348000D01*
X114873000Y-73328000D01*
X115127000Y-73328000D01*
X115127000Y-73348000D01*
X116623000Y-73348000D01*
X116623000Y-72548750D01*
X116587687Y-72513437D01*
X116642898Y-72446162D01*
X116708793Y-72322881D01*
X116749371Y-72189113D01*
X116763072Y-72050000D01*
X116763072Y-71411178D01*
X116823000Y-71351250D01*
X116823000Y-70863072D01*
X116990000Y-70863072D01*
X116990000Y-72435750D01*
%TA.AperFunction,Conductor*%
D29*
G36*
X116990000Y-72435750D02*
G01*
X116877000Y-72548750D01*
X116877000Y-73348000D01*
X116897000Y-73348000D01*
X116897000Y-73602000D01*
X116877000Y-73602000D01*
X116877000Y-73622000D01*
X116623000Y-73622000D01*
X116623000Y-73602000D01*
X115127000Y-73602000D01*
X115127000Y-73622000D01*
X114873000Y-73622000D01*
X114873000Y-73602000D01*
X113377000Y-73602000D01*
X113377000Y-73622000D01*
X113209990Y-73622000D01*
X113209990Y-73336977D01*
X113218967Y-73328000D01*
X113377000Y-73328000D01*
X113377000Y-73348000D01*
X114873000Y-73348000D01*
X114873000Y-73328000D01*
X115127000Y-73328000D01*
X115127000Y-73348000D01*
X116623000Y-73348000D01*
X116623000Y-72548750D01*
X116587687Y-72513437D01*
X116642898Y-72446162D01*
X116708793Y-72322881D01*
X116749371Y-72189113D01*
X116763072Y-72050000D01*
X116763072Y-71411178D01*
X116823000Y-71351250D01*
X116823000Y-70863072D01*
X116990000Y-70863072D01*
X116990000Y-72435750D01*
G37*
%TD.AperFunction*%
D28*
X115127000Y-69623000D02*
X115147000Y-69623000D01*
X115147000Y-69877000D01*
X115127000Y-69877000D01*
X115127000Y-69897000D01*
X114873000Y-69897000D01*
X114873000Y-69877000D01*
X114853000Y-69877000D01*
X114853000Y-69623000D01*
X114873000Y-69623000D01*
X114873000Y-69603000D01*
X115127000Y-69603000D01*
X115127000Y-69623000D01*
%TA.AperFunction,Conductor*%
D29*
G36*
X115127000Y-69623000D02*
G01*
X115147000Y-69623000D01*
X115147000Y-69877000D01*
X115127000Y-69877000D01*
X115127000Y-69897000D01*
X114873000Y-69897000D01*
X114873000Y-69877000D01*
X114853000Y-69877000D01*
X114853000Y-69623000D01*
X114873000Y-69623000D01*
X114873000Y-69603000D01*
X115127000Y-69603000D01*
X115127000Y-69623000D01*
G37*
%TD.AperFunction*%
D28*
X117269825Y-66697000D02*
X117188072Y-66697000D01*
X117188072Y-66674990D01*
X117247815Y-66674990D01*
X117269825Y-66697000D01*
%TA.AperFunction,Conductor*%
D29*
G36*
X117269825Y-66697000D02*
G01*
X117188072Y-66697000D01*
X117188072Y-66674990D01*
X117247815Y-66674990D01*
X117269825Y-66697000D01*
G37*
%TD.AperFunction*%
D28*
X110132000Y-62032000D02*
X109878000Y-62032000D01*
X109878000Y-61738000D01*
X110132000Y-61738000D01*
X110132000Y-62032000D01*
%TA.AperFunction,Conductor*%
D29*
G36*
X110132000Y-62032000D02*
G01*
X109878000Y-62032000D01*
X109878000Y-61738000D01*
X110132000Y-61738000D01*
X110132000Y-62032000D01*
G37*
%TD.AperFunction*%
D28*
X104652000Y-62032000D02*
X104418000Y-62032000D01*
X104418000Y-62012000D01*
X104398000Y-62012000D01*
X104398000Y-61758000D01*
X104418000Y-61758000D01*
X104418000Y-61738000D01*
X104652000Y-61738000D01*
X104652000Y-62032000D01*
%TA.AperFunction,Conductor*%
D29*
G36*
X104652000Y-62032000D02*
G01*
X104418000Y-62032000D01*
X104418000Y-62012000D01*
X104398000Y-62012000D01*
X104398000Y-61758000D01*
X104418000Y-61758000D01*
X104418000Y-61738000D01*
X104652000Y-61738000D01*
X104652000Y-62032000D01*
G37*
%TD.AperFunction*%
D28*
X106442000Y-61488000D02*
X108108000Y-61488000D01*
X108108000Y-61468000D01*
X108362000Y-61468000D01*
X108362000Y-61488000D01*
X108382000Y-61488000D01*
X108382000Y-61742000D01*
X108362000Y-61742000D01*
X108362000Y-61762000D01*
X108108000Y-61762000D01*
X108108000Y-61742000D01*
X106442000Y-61742000D01*
X106442000Y-61762000D01*
X106188000Y-61762000D01*
X106188000Y-61742000D01*
X106168000Y-61742000D01*
X106168000Y-61488000D01*
X106188000Y-61488000D01*
X106188000Y-61468000D01*
X106442000Y-61468000D01*
X106442000Y-61488000D01*
%TA.AperFunction,Conductor*%
D29*
G36*
X106442000Y-61488000D02*
G01*
X108108000Y-61488000D01*
X108108000Y-61468000D01*
X108362000Y-61468000D01*
X108362000Y-61488000D01*
X108382000Y-61488000D01*
X108382000Y-61742000D01*
X108362000Y-61742000D01*
X108362000Y-61762000D01*
X108108000Y-61762000D01*
X108108000Y-61742000D01*
X106442000Y-61742000D01*
X106442000Y-61762000D01*
X106188000Y-61762000D01*
X106188000Y-61742000D01*
X106168000Y-61742000D01*
X106168000Y-61488000D01*
X106188000Y-61488000D01*
X106188000Y-61468000D01*
X106442000Y-61468000D01*
X106442000Y-61488000D01*
G37*
%TD.AperFunction*%
%TD*%
M02*
