%TF.GenerationSoftware,KiCad,Pcbnew,5.1.8*%
%TF.CreationDate,2021-01-14T21:39:32+09:00*%
%TF.ProjectId,rasp_usb,72617370-5f75-4736-922e-6b696361645f,rev?*%
%TF.SameCoordinates,Original*%
%TF.FileFunction,Copper,L2,Bot*%
%TF.FilePolarity,Positive*%
%FSLAX46Y46*%
G04 Gerber Fmt 4.6, Leading zero omitted, Abs format (unit mm)*
G04 Created by KiCad (PCBNEW 5.1.8) date 2021-01-14 21:39:32*
%MOMM*%
%LPD*%
G01*
G04 APERTURE LIST*
%TA.AperFunction,ComponentPad*%
%ADD10R,1.700000X1.700000*%
%TD*%
%TA.AperFunction,ComponentPad*%
%ADD11O,1.700000X1.700000*%
%TD*%
%TA.AperFunction,ViaPad*%
%ADD12C,0.600000*%
%TD*%
%TA.AperFunction,ViaPad*%
%ADD13C,0.800000*%
%TD*%
%TA.AperFunction,Conductor*%
%ADD14C,0.250000*%
%TD*%
%TA.AperFunction,Conductor*%
%ADD15C,0.500000*%
%TD*%
%TA.AperFunction,Conductor*%
%ADD16C,0.254000*%
%TD*%
%TA.AperFunction,Conductor*%
%ADD17C,0.100000*%
%TD*%
G04 APERTURE END LIST*
D10*
%TO.P,J2,1*%
%TO.N,+3V3*%
X120250000Y-68500000D03*
D11*
%TO.P,J2,2*%
%TO.N,+5V*%
X122790000Y-68500000D03*
%TO.P,J2,3*%
%TO.N,Net-(J2-Pad3)*%
X120250000Y-71040000D03*
%TO.P,J2,4*%
%TO.N,+5V*%
X122790000Y-71040000D03*
%TO.P,J2,5*%
%TO.N,Net-(J2-Pad5)*%
X120250000Y-73580000D03*
%TO.P,J2,6*%
%TO.N,GND*%
X122790000Y-73580000D03*
%TO.P,J2,7*%
%TO.N,Net-(J2-Pad7)*%
X120250000Y-76120000D03*
%TO.P,J2,8*%
%TO.N,UART_TXD*%
X122790000Y-76120000D03*
%TO.P,J2,9*%
%TO.N,GND*%
X120250000Y-78660000D03*
%TO.P,J2,10*%
%TO.N,UART_RXD*%
X122790000Y-78660000D03*
%TD*%
D12*
%TO.N,GND*%
X108750000Y-85250000D03*
D13*
X110750000Y-79000000D03*
X108600000Y-78700000D03*
X108600000Y-77150000D03*
D12*
X110437500Y-83687500D03*
D13*
%TO.N,+5V*%
X115850000Y-73250000D03*
D12*
%TO.N,UART_RXD*%
X115250000Y-81000000D03*
%TO.N,Net-(R3-Pad2)*%
X114000000Y-68750000D03*
X111750000Y-85000000D03*
%TO.N,Net-(R4-Pad2)*%
X112500000Y-68250000D03*
X111750000Y-83750000D03*
%TO.N,VBUS*%
X115500000Y-70500000D03*
X115250000Y-67750000D03*
%TO.N,Net-(D3-Pad1)*%
X119000000Y-86600000D03*
X121100000Y-87900000D03*
%TO.N,+5V*%
X121100000Y-85000000D03*
X119900000Y-85000000D03*
D13*
X113000000Y-72750000D03*
X113000000Y-78900000D03*
X110250000Y-73250000D03*
X113000000Y-74500000D03*
D12*
X114000000Y-87800000D03*
X110400000Y-85300000D03*
%TD*%
D14*
%TO.N,GND*%
X110312500Y-83687500D02*
X108750000Y-85250000D01*
X110437500Y-83687500D02*
X110312500Y-83687500D01*
%TO.N,UART_TXD*%
X122790000Y-76710000D02*
X122790000Y-76120000D01*
%TO.N,UART_RXD*%
X115250000Y-81000000D02*
X116000000Y-80250000D01*
X121200000Y-80250000D02*
X122790000Y-78660000D01*
X116000000Y-80250000D02*
X121200000Y-80250000D01*
%TO.N,Net-(R3-Pad2)*%
X114000000Y-83074998D02*
X114000000Y-68750000D01*
X113500000Y-85250000D02*
X114000000Y-84750000D01*
X111750000Y-85000000D02*
X112000000Y-85250000D01*
X114000000Y-84750000D02*
X114000000Y-83074998D01*
X112000000Y-85250000D02*
X113500000Y-85250000D01*
%TO.N,Net-(R4-Pad2)*%
X111750000Y-83750000D02*
X111750000Y-69000000D01*
X111750000Y-69000000D02*
X112500000Y-68250000D01*
D15*
%TO.N,VBUS*%
X115500000Y-68000000D02*
X115250000Y-67750000D01*
X115500000Y-70500000D02*
X115500000Y-68000000D01*
D14*
%TO.N,Net-(D3-Pad1)*%
X120400000Y-87900000D02*
X121100000Y-87900000D01*
X119000000Y-86600000D02*
X119000000Y-87100000D01*
X119000000Y-87100000D02*
X119400000Y-87500000D01*
X120000000Y-87500000D02*
X120400000Y-87900000D01*
X119400000Y-87500000D02*
X120000000Y-87500000D01*
D15*
%TO.N,+5V*%
X113000000Y-74500000D02*
X113000000Y-78900000D01*
%TD*%
D16*
%TO.N,GND*%
X122051010Y-60717192D02*
X122581036Y-60877216D01*
X123069879Y-61137140D01*
X123498931Y-61487065D01*
X123851844Y-61913664D01*
X124115173Y-62400681D01*
X124278894Y-62929578D01*
X124340000Y-63510960D01*
X124340001Y-91467711D01*
X124330420Y-91565424D01*
X124311420Y-91628357D01*
X124280554Y-91686406D01*
X124239011Y-91737343D01*
X124188356Y-91779248D01*
X124130529Y-91810515D01*
X124067728Y-91829956D01*
X123972165Y-91840000D01*
X106032279Y-91840000D01*
X105934576Y-91830420D01*
X105871643Y-91811420D01*
X105813594Y-91780554D01*
X105762657Y-91739011D01*
X105720752Y-91688356D01*
X105689485Y-91630529D01*
X105670044Y-91567728D01*
X105660000Y-91472165D01*
X105660000Y-87707911D01*
X113065000Y-87707911D01*
X113065000Y-87892089D01*
X113100932Y-88072729D01*
X113171414Y-88242889D01*
X113273738Y-88396028D01*
X113403972Y-88526262D01*
X113557111Y-88628586D01*
X113727271Y-88699068D01*
X113907911Y-88735000D01*
X114092089Y-88735000D01*
X114272729Y-88699068D01*
X114442889Y-88628586D01*
X114596028Y-88526262D01*
X114726262Y-88396028D01*
X114828586Y-88242889D01*
X114899068Y-88072729D01*
X114935000Y-87892089D01*
X114935000Y-87707911D01*
X114899068Y-87527271D01*
X114828586Y-87357111D01*
X114726262Y-87203972D01*
X114596028Y-87073738D01*
X114442889Y-86971414D01*
X114272729Y-86900932D01*
X114092089Y-86865000D01*
X113907911Y-86865000D01*
X113727271Y-86900932D01*
X113557111Y-86971414D01*
X113403972Y-87073738D01*
X113273738Y-87203972D01*
X113171414Y-87357111D01*
X113100932Y-87527271D01*
X113065000Y-87707911D01*
X105660000Y-87707911D01*
X105660000Y-86507911D01*
X118065000Y-86507911D01*
X118065000Y-86692089D01*
X118100932Y-86872729D01*
X118171414Y-87042889D01*
X118240948Y-87146954D01*
X118250997Y-87248986D01*
X118294454Y-87392247D01*
X118365026Y-87524276D01*
X118460000Y-87640001D01*
X118488998Y-87663799D01*
X118836200Y-88011002D01*
X118859999Y-88040001D01*
X118975724Y-88134974D01*
X119107753Y-88205546D01*
X119251014Y-88249003D01*
X119362667Y-88260000D01*
X119362676Y-88260000D01*
X119399999Y-88263676D01*
X119437322Y-88260000D01*
X119685198Y-88260000D01*
X119836200Y-88411002D01*
X119859999Y-88440001D01*
X119975724Y-88534974D01*
X120107753Y-88605546D01*
X120251014Y-88649003D01*
X120362667Y-88660000D01*
X120362676Y-88660000D01*
X120399999Y-88663676D01*
X120437322Y-88660000D01*
X120554465Y-88660000D01*
X120657111Y-88728586D01*
X120827271Y-88799068D01*
X121007911Y-88835000D01*
X121192089Y-88835000D01*
X121372729Y-88799068D01*
X121542889Y-88728586D01*
X121696028Y-88626262D01*
X121826262Y-88496028D01*
X121928586Y-88342889D01*
X121999068Y-88172729D01*
X122035000Y-87992089D01*
X122035000Y-87807911D01*
X121999068Y-87627271D01*
X121928586Y-87457111D01*
X121826262Y-87303972D01*
X121696028Y-87173738D01*
X121542889Y-87071414D01*
X121372729Y-87000932D01*
X121192089Y-86965000D01*
X121007911Y-86965000D01*
X120827271Y-87000932D01*
X120657111Y-87071414D01*
X120650580Y-87075778D01*
X120563803Y-86989002D01*
X120540001Y-86959999D01*
X120424276Y-86865026D01*
X120292247Y-86794454D01*
X120148986Y-86750997D01*
X120037333Y-86740000D01*
X120037322Y-86740000D01*
X120000000Y-86736324D01*
X119962678Y-86740000D01*
X119925470Y-86740000D01*
X119935000Y-86692089D01*
X119935000Y-86507911D01*
X119899068Y-86327271D01*
X119828586Y-86157111D01*
X119726262Y-86003972D01*
X119617177Y-85894887D01*
X119627271Y-85899068D01*
X119807911Y-85935000D01*
X119992089Y-85935000D01*
X120172729Y-85899068D01*
X120342889Y-85828586D01*
X120496028Y-85726262D01*
X120500000Y-85722290D01*
X120503972Y-85726262D01*
X120657111Y-85828586D01*
X120827271Y-85899068D01*
X121007911Y-85935000D01*
X121192089Y-85935000D01*
X121372729Y-85899068D01*
X121542889Y-85828586D01*
X121696028Y-85726262D01*
X121826262Y-85596028D01*
X121928586Y-85442889D01*
X121999068Y-85272729D01*
X122035000Y-85092089D01*
X122035000Y-84907911D01*
X121999068Y-84727271D01*
X121928586Y-84557111D01*
X121826262Y-84403972D01*
X121696028Y-84273738D01*
X121542889Y-84171414D01*
X121372729Y-84100932D01*
X121192089Y-84065000D01*
X121007911Y-84065000D01*
X120827271Y-84100932D01*
X120657111Y-84171414D01*
X120503972Y-84273738D01*
X120500000Y-84277710D01*
X120496028Y-84273738D01*
X120342889Y-84171414D01*
X120172729Y-84100932D01*
X119992089Y-84065000D01*
X119807911Y-84065000D01*
X119627271Y-84100932D01*
X119457111Y-84171414D01*
X119303972Y-84273738D01*
X119173738Y-84403972D01*
X119071414Y-84557111D01*
X119000932Y-84727271D01*
X118965000Y-84907911D01*
X118965000Y-85092089D01*
X119000932Y-85272729D01*
X119071414Y-85442889D01*
X119173738Y-85596028D01*
X119282823Y-85705113D01*
X119272729Y-85700932D01*
X119092089Y-85665000D01*
X118907911Y-85665000D01*
X118727271Y-85700932D01*
X118557111Y-85771414D01*
X118403972Y-85873738D01*
X118273738Y-86003972D01*
X118171414Y-86157111D01*
X118100932Y-86327271D01*
X118065000Y-86507911D01*
X105660000Y-86507911D01*
X105660000Y-73148061D01*
X109215000Y-73148061D01*
X109215000Y-73351939D01*
X109254774Y-73551898D01*
X109332795Y-73740256D01*
X109446063Y-73909774D01*
X109590226Y-74053937D01*
X109759744Y-74167205D01*
X109948102Y-74245226D01*
X110148061Y-74285000D01*
X110351939Y-74285000D01*
X110551898Y-74245226D01*
X110740256Y-74167205D01*
X110909774Y-74053937D01*
X110990001Y-73973710D01*
X110990000Y-83204465D01*
X110921414Y-83307111D01*
X110850932Y-83477271D01*
X110815000Y-83657911D01*
X110815000Y-83842089D01*
X110850932Y-84022729D01*
X110921414Y-84192889D01*
X111023738Y-84346028D01*
X111052710Y-84375000D01*
X111023738Y-84403972D01*
X110936763Y-84534139D01*
X110842889Y-84471414D01*
X110672729Y-84400932D01*
X110492089Y-84365000D01*
X110307911Y-84365000D01*
X110127271Y-84400932D01*
X109957111Y-84471414D01*
X109803972Y-84573738D01*
X109673738Y-84703972D01*
X109571414Y-84857111D01*
X109500932Y-85027271D01*
X109465000Y-85207911D01*
X109465000Y-85392089D01*
X109500932Y-85572729D01*
X109571414Y-85742889D01*
X109673738Y-85896028D01*
X109803972Y-86026262D01*
X109957111Y-86128586D01*
X110127271Y-86199068D01*
X110307911Y-86235000D01*
X110492089Y-86235000D01*
X110672729Y-86199068D01*
X110842889Y-86128586D01*
X110996028Y-86026262D01*
X111126262Y-85896028D01*
X111213237Y-85765861D01*
X111307111Y-85828586D01*
X111477271Y-85899068D01*
X111657911Y-85935000D01*
X111669315Y-85935000D01*
X111707753Y-85955546D01*
X111851014Y-85999003D01*
X111962667Y-86010000D01*
X111962676Y-86010000D01*
X111999999Y-86013676D01*
X112037322Y-86010000D01*
X113462678Y-86010000D01*
X113500000Y-86013676D01*
X113537322Y-86010000D01*
X113537333Y-86010000D01*
X113648986Y-85999003D01*
X113792247Y-85955546D01*
X113924276Y-85884974D01*
X114040001Y-85790001D01*
X114063804Y-85760997D01*
X114510998Y-85313803D01*
X114540001Y-85290001D01*
X114634974Y-85174276D01*
X114705546Y-85042247D01*
X114749003Y-84898986D01*
X114760000Y-84787333D01*
X114760000Y-84787325D01*
X114763676Y-84750000D01*
X114760000Y-84712675D01*
X114760000Y-81797108D01*
X114807111Y-81828586D01*
X114977271Y-81899068D01*
X115157911Y-81935000D01*
X115342089Y-81935000D01*
X115522729Y-81899068D01*
X115692889Y-81828586D01*
X115846028Y-81726262D01*
X115976262Y-81596028D01*
X116078586Y-81442889D01*
X116149068Y-81272729D01*
X116173153Y-81151649D01*
X116314802Y-81010000D01*
X121162678Y-81010000D01*
X121200000Y-81013676D01*
X121237322Y-81010000D01*
X121237333Y-81010000D01*
X121348986Y-80999003D01*
X121492247Y-80955546D01*
X121624276Y-80884974D01*
X121740001Y-80790001D01*
X121763804Y-80760997D01*
X122423592Y-80101209D01*
X122643740Y-80145000D01*
X122936260Y-80145000D01*
X123223158Y-80087932D01*
X123493411Y-79975990D01*
X123736632Y-79813475D01*
X123943475Y-79606632D01*
X124105990Y-79363411D01*
X124217932Y-79093158D01*
X124275000Y-78806260D01*
X124275000Y-78513740D01*
X124217932Y-78226842D01*
X124105990Y-77956589D01*
X123943475Y-77713368D01*
X123736632Y-77506525D01*
X123562240Y-77390000D01*
X123736632Y-77273475D01*
X123943475Y-77066632D01*
X124105990Y-76823411D01*
X124217932Y-76553158D01*
X124275000Y-76266260D01*
X124275000Y-75973740D01*
X124217932Y-75686842D01*
X124105990Y-75416589D01*
X123943475Y-75173368D01*
X123736632Y-74966525D01*
X123554466Y-74844805D01*
X123671355Y-74775178D01*
X123887588Y-74580269D01*
X124061641Y-74346920D01*
X124186825Y-74084099D01*
X124231476Y-73936890D01*
X124110155Y-73707000D01*
X122917000Y-73707000D01*
X122917000Y-73727000D01*
X122663000Y-73727000D01*
X122663000Y-73707000D01*
X122643000Y-73707000D01*
X122643000Y-73453000D01*
X122663000Y-73453000D01*
X122663000Y-73433000D01*
X122917000Y-73433000D01*
X122917000Y-73453000D01*
X124110155Y-73453000D01*
X124231476Y-73223110D01*
X124186825Y-73075901D01*
X124061641Y-72813080D01*
X123887588Y-72579731D01*
X123671355Y-72384822D01*
X123554466Y-72315195D01*
X123736632Y-72193475D01*
X123943475Y-71986632D01*
X124105990Y-71743411D01*
X124217932Y-71473158D01*
X124275000Y-71186260D01*
X124275000Y-70893740D01*
X124217932Y-70606842D01*
X124105990Y-70336589D01*
X123943475Y-70093368D01*
X123736632Y-69886525D01*
X123562240Y-69770000D01*
X123736632Y-69653475D01*
X123943475Y-69446632D01*
X124105990Y-69203411D01*
X124217932Y-68933158D01*
X124275000Y-68646260D01*
X124275000Y-68353740D01*
X124217932Y-68066842D01*
X124105990Y-67796589D01*
X123943475Y-67553368D01*
X123736632Y-67346525D01*
X123493411Y-67184010D01*
X123223158Y-67072068D01*
X122936260Y-67015000D01*
X122643740Y-67015000D01*
X122356842Y-67072068D01*
X122086589Y-67184010D01*
X121843368Y-67346525D01*
X121711513Y-67478380D01*
X121689502Y-67405820D01*
X121630537Y-67295506D01*
X121551185Y-67198815D01*
X121454494Y-67119463D01*
X121344180Y-67060498D01*
X121224482Y-67024188D01*
X121100000Y-67011928D01*
X119400000Y-67011928D01*
X119275518Y-67024188D01*
X119155820Y-67060498D01*
X119045506Y-67119463D01*
X118948815Y-67198815D01*
X118869463Y-67295506D01*
X118810498Y-67405820D01*
X118774188Y-67525518D01*
X118761928Y-67650000D01*
X118761928Y-69350000D01*
X118774188Y-69474482D01*
X118810498Y-69594180D01*
X118869463Y-69704494D01*
X118948815Y-69801185D01*
X119045506Y-69880537D01*
X119155820Y-69939502D01*
X119228380Y-69961513D01*
X119096525Y-70093368D01*
X118934010Y-70336589D01*
X118822068Y-70606842D01*
X118765000Y-70893740D01*
X118765000Y-71186260D01*
X118822068Y-71473158D01*
X118934010Y-71743411D01*
X119096525Y-71986632D01*
X119303368Y-72193475D01*
X119477760Y-72310000D01*
X119303368Y-72426525D01*
X119096525Y-72633368D01*
X118934010Y-72876589D01*
X118822068Y-73146842D01*
X118765000Y-73433740D01*
X118765000Y-73726260D01*
X118822068Y-74013158D01*
X118934010Y-74283411D01*
X119096525Y-74526632D01*
X119303368Y-74733475D01*
X119477760Y-74850000D01*
X119303368Y-74966525D01*
X119096525Y-75173368D01*
X118934010Y-75416589D01*
X118822068Y-75686842D01*
X118765000Y-75973740D01*
X118765000Y-76266260D01*
X118822068Y-76553158D01*
X118934010Y-76823411D01*
X119096525Y-77066632D01*
X119303368Y-77273475D01*
X119485534Y-77395195D01*
X119368645Y-77464822D01*
X119152412Y-77659731D01*
X118978359Y-77893080D01*
X118853175Y-78155901D01*
X118808524Y-78303110D01*
X118929845Y-78533000D01*
X120123000Y-78533000D01*
X120123000Y-78513000D01*
X120377000Y-78513000D01*
X120377000Y-78533000D01*
X120397000Y-78533000D01*
X120397000Y-78787000D01*
X120377000Y-78787000D01*
X120377000Y-78807000D01*
X120123000Y-78807000D01*
X120123000Y-78787000D01*
X118929845Y-78787000D01*
X118808524Y-79016890D01*
X118853175Y-79164099D01*
X118978359Y-79426920D01*
X119025410Y-79490000D01*
X116037322Y-79490000D01*
X115999999Y-79486324D01*
X115962676Y-79490000D01*
X115962667Y-79490000D01*
X115851014Y-79500997D01*
X115707753Y-79544454D01*
X115575724Y-79615026D01*
X115459999Y-79709999D01*
X115436201Y-79738998D01*
X115098351Y-80076847D01*
X114977271Y-80100932D01*
X114807111Y-80171414D01*
X114760000Y-80202892D01*
X114760000Y-73148061D01*
X114815000Y-73148061D01*
X114815000Y-73351939D01*
X114854774Y-73551898D01*
X114932795Y-73740256D01*
X115046063Y-73909774D01*
X115190226Y-74053937D01*
X115359744Y-74167205D01*
X115548102Y-74245226D01*
X115748061Y-74285000D01*
X115951939Y-74285000D01*
X116151898Y-74245226D01*
X116340256Y-74167205D01*
X116509774Y-74053937D01*
X116653937Y-73909774D01*
X116767205Y-73740256D01*
X116845226Y-73551898D01*
X116885000Y-73351939D01*
X116885000Y-73148061D01*
X116845226Y-72948102D01*
X116767205Y-72759744D01*
X116653937Y-72590226D01*
X116509774Y-72446063D01*
X116340256Y-72332795D01*
X116151898Y-72254774D01*
X115951939Y-72215000D01*
X115748061Y-72215000D01*
X115548102Y-72254774D01*
X115359744Y-72332795D01*
X115190226Y-72446063D01*
X115046063Y-72590226D01*
X114932795Y-72759744D01*
X114854774Y-72948102D01*
X114815000Y-73148061D01*
X114760000Y-73148061D01*
X114760000Y-71075468D01*
X114773738Y-71096028D01*
X114903972Y-71226262D01*
X115057111Y-71328586D01*
X115227271Y-71399068D01*
X115407911Y-71435000D01*
X115592089Y-71435000D01*
X115772729Y-71399068D01*
X115942889Y-71328586D01*
X116096028Y-71226262D01*
X116226262Y-71096028D01*
X116328586Y-70942889D01*
X116399068Y-70772729D01*
X116435000Y-70592089D01*
X116435000Y-70407911D01*
X116399068Y-70227271D01*
X116385000Y-70193308D01*
X116385000Y-68043465D01*
X116389281Y-67999999D01*
X116385000Y-67956533D01*
X116385000Y-67956523D01*
X116372195Y-67826510D01*
X116321589Y-67659687D01*
X116239411Y-67505941D01*
X116128817Y-67371183D01*
X116095044Y-67343466D01*
X116092655Y-67341077D01*
X116078586Y-67307111D01*
X115976262Y-67153972D01*
X115846028Y-67023738D01*
X115692889Y-66921414D01*
X115522729Y-66850932D01*
X115342089Y-66815000D01*
X115157911Y-66815000D01*
X114977271Y-66850932D01*
X114807111Y-66921414D01*
X114653972Y-67023738D01*
X114523738Y-67153972D01*
X114421414Y-67307111D01*
X114350932Y-67477271D01*
X114315000Y-67657911D01*
X114315000Y-67842089D01*
X114320712Y-67870807D01*
X114272729Y-67850932D01*
X114092089Y-67815000D01*
X113907911Y-67815000D01*
X113727271Y-67850932D01*
X113557111Y-67921414D01*
X113407802Y-68021179D01*
X113399068Y-67977271D01*
X113328586Y-67807111D01*
X113226262Y-67653972D01*
X113096028Y-67523738D01*
X112942889Y-67421414D01*
X112772729Y-67350932D01*
X112592089Y-67315000D01*
X112407911Y-67315000D01*
X112227271Y-67350932D01*
X112057111Y-67421414D01*
X111903972Y-67523738D01*
X111773738Y-67653972D01*
X111671414Y-67807111D01*
X111600932Y-67977271D01*
X111576847Y-68098351D01*
X111238998Y-68436201D01*
X111210000Y-68459999D01*
X111186202Y-68488997D01*
X111186201Y-68488998D01*
X111115026Y-68575724D01*
X111044454Y-68707754D01*
X111042964Y-68712667D01*
X111002511Y-68846028D01*
X111000998Y-68851015D01*
X110986324Y-69000000D01*
X110990001Y-69037332D01*
X110990001Y-72526290D01*
X110909774Y-72446063D01*
X110740256Y-72332795D01*
X110551898Y-72254774D01*
X110351939Y-72215000D01*
X110148061Y-72215000D01*
X109948102Y-72254774D01*
X109759744Y-72332795D01*
X109590226Y-72446063D01*
X109446063Y-72590226D01*
X109332795Y-72759744D01*
X109254774Y-72948102D01*
X109215000Y-73148061D01*
X105660000Y-73148061D01*
X105660000Y-63305926D01*
X119529534Y-63305926D01*
X119529534Y-63694074D01*
X119605258Y-64074764D01*
X119753796Y-64433366D01*
X119969439Y-64756099D01*
X120243901Y-65030561D01*
X120566634Y-65246204D01*
X120925236Y-65394742D01*
X121305926Y-65470466D01*
X121694074Y-65470466D01*
X122074764Y-65394742D01*
X122433366Y-65246204D01*
X122756099Y-65030561D01*
X123030561Y-64756099D01*
X123246204Y-64433366D01*
X123394742Y-64074764D01*
X123470466Y-63694074D01*
X123470466Y-63305926D01*
X123394742Y-62925236D01*
X123246204Y-62566634D01*
X123030561Y-62243901D01*
X122756099Y-61969439D01*
X122433366Y-61753796D01*
X122074764Y-61605258D01*
X121694074Y-61529534D01*
X121305926Y-61529534D01*
X120925236Y-61605258D01*
X120566634Y-61753796D01*
X120243901Y-61969439D01*
X119969439Y-62243901D01*
X119753796Y-62566634D01*
X119605258Y-62925236D01*
X119529534Y-63305926D01*
X105660000Y-63305926D01*
X105660000Y-61032279D01*
X105669580Y-60934576D01*
X105688580Y-60871644D01*
X105719445Y-60813595D01*
X105760989Y-60762657D01*
X105811644Y-60720752D01*
X105869471Y-60689485D01*
X105932272Y-60670044D01*
X106027835Y-60660000D01*
X121467721Y-60660000D01*
X122051010Y-60717192D01*
%TA.AperFunction,Conductor*%
D17*
G36*
X122051010Y-60717192D02*
G01*
X122581036Y-60877216D01*
X123069879Y-61137140D01*
X123498931Y-61487065D01*
X123851844Y-61913664D01*
X124115173Y-62400681D01*
X124278894Y-62929578D01*
X124340000Y-63510960D01*
X124340001Y-91467711D01*
X124330420Y-91565424D01*
X124311420Y-91628357D01*
X124280554Y-91686406D01*
X124239011Y-91737343D01*
X124188356Y-91779248D01*
X124130529Y-91810515D01*
X124067728Y-91829956D01*
X123972165Y-91840000D01*
X106032279Y-91840000D01*
X105934576Y-91830420D01*
X105871643Y-91811420D01*
X105813594Y-91780554D01*
X105762657Y-91739011D01*
X105720752Y-91688356D01*
X105689485Y-91630529D01*
X105670044Y-91567728D01*
X105660000Y-91472165D01*
X105660000Y-87707911D01*
X113065000Y-87707911D01*
X113065000Y-87892089D01*
X113100932Y-88072729D01*
X113171414Y-88242889D01*
X113273738Y-88396028D01*
X113403972Y-88526262D01*
X113557111Y-88628586D01*
X113727271Y-88699068D01*
X113907911Y-88735000D01*
X114092089Y-88735000D01*
X114272729Y-88699068D01*
X114442889Y-88628586D01*
X114596028Y-88526262D01*
X114726262Y-88396028D01*
X114828586Y-88242889D01*
X114899068Y-88072729D01*
X114935000Y-87892089D01*
X114935000Y-87707911D01*
X114899068Y-87527271D01*
X114828586Y-87357111D01*
X114726262Y-87203972D01*
X114596028Y-87073738D01*
X114442889Y-86971414D01*
X114272729Y-86900932D01*
X114092089Y-86865000D01*
X113907911Y-86865000D01*
X113727271Y-86900932D01*
X113557111Y-86971414D01*
X113403972Y-87073738D01*
X113273738Y-87203972D01*
X113171414Y-87357111D01*
X113100932Y-87527271D01*
X113065000Y-87707911D01*
X105660000Y-87707911D01*
X105660000Y-86507911D01*
X118065000Y-86507911D01*
X118065000Y-86692089D01*
X118100932Y-86872729D01*
X118171414Y-87042889D01*
X118240948Y-87146954D01*
X118250997Y-87248986D01*
X118294454Y-87392247D01*
X118365026Y-87524276D01*
X118460000Y-87640001D01*
X118488998Y-87663799D01*
X118836200Y-88011002D01*
X118859999Y-88040001D01*
X118975724Y-88134974D01*
X119107753Y-88205546D01*
X119251014Y-88249003D01*
X119362667Y-88260000D01*
X119362676Y-88260000D01*
X119399999Y-88263676D01*
X119437322Y-88260000D01*
X119685198Y-88260000D01*
X119836200Y-88411002D01*
X119859999Y-88440001D01*
X119975724Y-88534974D01*
X120107753Y-88605546D01*
X120251014Y-88649003D01*
X120362667Y-88660000D01*
X120362676Y-88660000D01*
X120399999Y-88663676D01*
X120437322Y-88660000D01*
X120554465Y-88660000D01*
X120657111Y-88728586D01*
X120827271Y-88799068D01*
X121007911Y-88835000D01*
X121192089Y-88835000D01*
X121372729Y-88799068D01*
X121542889Y-88728586D01*
X121696028Y-88626262D01*
X121826262Y-88496028D01*
X121928586Y-88342889D01*
X121999068Y-88172729D01*
X122035000Y-87992089D01*
X122035000Y-87807911D01*
X121999068Y-87627271D01*
X121928586Y-87457111D01*
X121826262Y-87303972D01*
X121696028Y-87173738D01*
X121542889Y-87071414D01*
X121372729Y-87000932D01*
X121192089Y-86965000D01*
X121007911Y-86965000D01*
X120827271Y-87000932D01*
X120657111Y-87071414D01*
X120650580Y-87075778D01*
X120563803Y-86989002D01*
X120540001Y-86959999D01*
X120424276Y-86865026D01*
X120292247Y-86794454D01*
X120148986Y-86750997D01*
X120037333Y-86740000D01*
X120037322Y-86740000D01*
X120000000Y-86736324D01*
X119962678Y-86740000D01*
X119925470Y-86740000D01*
X119935000Y-86692089D01*
X119935000Y-86507911D01*
X119899068Y-86327271D01*
X119828586Y-86157111D01*
X119726262Y-86003972D01*
X119617177Y-85894887D01*
X119627271Y-85899068D01*
X119807911Y-85935000D01*
X119992089Y-85935000D01*
X120172729Y-85899068D01*
X120342889Y-85828586D01*
X120496028Y-85726262D01*
X120500000Y-85722290D01*
X120503972Y-85726262D01*
X120657111Y-85828586D01*
X120827271Y-85899068D01*
X121007911Y-85935000D01*
X121192089Y-85935000D01*
X121372729Y-85899068D01*
X121542889Y-85828586D01*
X121696028Y-85726262D01*
X121826262Y-85596028D01*
X121928586Y-85442889D01*
X121999068Y-85272729D01*
X122035000Y-85092089D01*
X122035000Y-84907911D01*
X121999068Y-84727271D01*
X121928586Y-84557111D01*
X121826262Y-84403972D01*
X121696028Y-84273738D01*
X121542889Y-84171414D01*
X121372729Y-84100932D01*
X121192089Y-84065000D01*
X121007911Y-84065000D01*
X120827271Y-84100932D01*
X120657111Y-84171414D01*
X120503972Y-84273738D01*
X120500000Y-84277710D01*
X120496028Y-84273738D01*
X120342889Y-84171414D01*
X120172729Y-84100932D01*
X119992089Y-84065000D01*
X119807911Y-84065000D01*
X119627271Y-84100932D01*
X119457111Y-84171414D01*
X119303972Y-84273738D01*
X119173738Y-84403972D01*
X119071414Y-84557111D01*
X119000932Y-84727271D01*
X118965000Y-84907911D01*
X118965000Y-85092089D01*
X119000932Y-85272729D01*
X119071414Y-85442889D01*
X119173738Y-85596028D01*
X119282823Y-85705113D01*
X119272729Y-85700932D01*
X119092089Y-85665000D01*
X118907911Y-85665000D01*
X118727271Y-85700932D01*
X118557111Y-85771414D01*
X118403972Y-85873738D01*
X118273738Y-86003972D01*
X118171414Y-86157111D01*
X118100932Y-86327271D01*
X118065000Y-86507911D01*
X105660000Y-86507911D01*
X105660000Y-73148061D01*
X109215000Y-73148061D01*
X109215000Y-73351939D01*
X109254774Y-73551898D01*
X109332795Y-73740256D01*
X109446063Y-73909774D01*
X109590226Y-74053937D01*
X109759744Y-74167205D01*
X109948102Y-74245226D01*
X110148061Y-74285000D01*
X110351939Y-74285000D01*
X110551898Y-74245226D01*
X110740256Y-74167205D01*
X110909774Y-74053937D01*
X110990001Y-73973710D01*
X110990000Y-83204465D01*
X110921414Y-83307111D01*
X110850932Y-83477271D01*
X110815000Y-83657911D01*
X110815000Y-83842089D01*
X110850932Y-84022729D01*
X110921414Y-84192889D01*
X111023738Y-84346028D01*
X111052710Y-84375000D01*
X111023738Y-84403972D01*
X110936763Y-84534139D01*
X110842889Y-84471414D01*
X110672729Y-84400932D01*
X110492089Y-84365000D01*
X110307911Y-84365000D01*
X110127271Y-84400932D01*
X109957111Y-84471414D01*
X109803972Y-84573738D01*
X109673738Y-84703972D01*
X109571414Y-84857111D01*
X109500932Y-85027271D01*
X109465000Y-85207911D01*
X109465000Y-85392089D01*
X109500932Y-85572729D01*
X109571414Y-85742889D01*
X109673738Y-85896028D01*
X109803972Y-86026262D01*
X109957111Y-86128586D01*
X110127271Y-86199068D01*
X110307911Y-86235000D01*
X110492089Y-86235000D01*
X110672729Y-86199068D01*
X110842889Y-86128586D01*
X110996028Y-86026262D01*
X111126262Y-85896028D01*
X111213237Y-85765861D01*
X111307111Y-85828586D01*
X111477271Y-85899068D01*
X111657911Y-85935000D01*
X111669315Y-85935000D01*
X111707753Y-85955546D01*
X111851014Y-85999003D01*
X111962667Y-86010000D01*
X111962676Y-86010000D01*
X111999999Y-86013676D01*
X112037322Y-86010000D01*
X113462678Y-86010000D01*
X113500000Y-86013676D01*
X113537322Y-86010000D01*
X113537333Y-86010000D01*
X113648986Y-85999003D01*
X113792247Y-85955546D01*
X113924276Y-85884974D01*
X114040001Y-85790001D01*
X114063804Y-85760997D01*
X114510998Y-85313803D01*
X114540001Y-85290001D01*
X114634974Y-85174276D01*
X114705546Y-85042247D01*
X114749003Y-84898986D01*
X114760000Y-84787333D01*
X114760000Y-84787325D01*
X114763676Y-84750000D01*
X114760000Y-84712675D01*
X114760000Y-81797108D01*
X114807111Y-81828586D01*
X114977271Y-81899068D01*
X115157911Y-81935000D01*
X115342089Y-81935000D01*
X115522729Y-81899068D01*
X115692889Y-81828586D01*
X115846028Y-81726262D01*
X115976262Y-81596028D01*
X116078586Y-81442889D01*
X116149068Y-81272729D01*
X116173153Y-81151649D01*
X116314802Y-81010000D01*
X121162678Y-81010000D01*
X121200000Y-81013676D01*
X121237322Y-81010000D01*
X121237333Y-81010000D01*
X121348986Y-80999003D01*
X121492247Y-80955546D01*
X121624276Y-80884974D01*
X121740001Y-80790001D01*
X121763804Y-80760997D01*
X122423592Y-80101209D01*
X122643740Y-80145000D01*
X122936260Y-80145000D01*
X123223158Y-80087932D01*
X123493411Y-79975990D01*
X123736632Y-79813475D01*
X123943475Y-79606632D01*
X124105990Y-79363411D01*
X124217932Y-79093158D01*
X124275000Y-78806260D01*
X124275000Y-78513740D01*
X124217932Y-78226842D01*
X124105990Y-77956589D01*
X123943475Y-77713368D01*
X123736632Y-77506525D01*
X123562240Y-77390000D01*
X123736632Y-77273475D01*
X123943475Y-77066632D01*
X124105990Y-76823411D01*
X124217932Y-76553158D01*
X124275000Y-76266260D01*
X124275000Y-75973740D01*
X124217932Y-75686842D01*
X124105990Y-75416589D01*
X123943475Y-75173368D01*
X123736632Y-74966525D01*
X123554466Y-74844805D01*
X123671355Y-74775178D01*
X123887588Y-74580269D01*
X124061641Y-74346920D01*
X124186825Y-74084099D01*
X124231476Y-73936890D01*
X124110155Y-73707000D01*
X122917000Y-73707000D01*
X122917000Y-73727000D01*
X122663000Y-73727000D01*
X122663000Y-73707000D01*
X122643000Y-73707000D01*
X122643000Y-73453000D01*
X122663000Y-73453000D01*
X122663000Y-73433000D01*
X122917000Y-73433000D01*
X122917000Y-73453000D01*
X124110155Y-73453000D01*
X124231476Y-73223110D01*
X124186825Y-73075901D01*
X124061641Y-72813080D01*
X123887588Y-72579731D01*
X123671355Y-72384822D01*
X123554466Y-72315195D01*
X123736632Y-72193475D01*
X123943475Y-71986632D01*
X124105990Y-71743411D01*
X124217932Y-71473158D01*
X124275000Y-71186260D01*
X124275000Y-70893740D01*
X124217932Y-70606842D01*
X124105990Y-70336589D01*
X123943475Y-70093368D01*
X123736632Y-69886525D01*
X123562240Y-69770000D01*
X123736632Y-69653475D01*
X123943475Y-69446632D01*
X124105990Y-69203411D01*
X124217932Y-68933158D01*
X124275000Y-68646260D01*
X124275000Y-68353740D01*
X124217932Y-68066842D01*
X124105990Y-67796589D01*
X123943475Y-67553368D01*
X123736632Y-67346525D01*
X123493411Y-67184010D01*
X123223158Y-67072068D01*
X122936260Y-67015000D01*
X122643740Y-67015000D01*
X122356842Y-67072068D01*
X122086589Y-67184010D01*
X121843368Y-67346525D01*
X121711513Y-67478380D01*
X121689502Y-67405820D01*
X121630537Y-67295506D01*
X121551185Y-67198815D01*
X121454494Y-67119463D01*
X121344180Y-67060498D01*
X121224482Y-67024188D01*
X121100000Y-67011928D01*
X119400000Y-67011928D01*
X119275518Y-67024188D01*
X119155820Y-67060498D01*
X119045506Y-67119463D01*
X118948815Y-67198815D01*
X118869463Y-67295506D01*
X118810498Y-67405820D01*
X118774188Y-67525518D01*
X118761928Y-67650000D01*
X118761928Y-69350000D01*
X118774188Y-69474482D01*
X118810498Y-69594180D01*
X118869463Y-69704494D01*
X118948815Y-69801185D01*
X119045506Y-69880537D01*
X119155820Y-69939502D01*
X119228380Y-69961513D01*
X119096525Y-70093368D01*
X118934010Y-70336589D01*
X118822068Y-70606842D01*
X118765000Y-70893740D01*
X118765000Y-71186260D01*
X118822068Y-71473158D01*
X118934010Y-71743411D01*
X119096525Y-71986632D01*
X119303368Y-72193475D01*
X119477760Y-72310000D01*
X119303368Y-72426525D01*
X119096525Y-72633368D01*
X118934010Y-72876589D01*
X118822068Y-73146842D01*
X118765000Y-73433740D01*
X118765000Y-73726260D01*
X118822068Y-74013158D01*
X118934010Y-74283411D01*
X119096525Y-74526632D01*
X119303368Y-74733475D01*
X119477760Y-74850000D01*
X119303368Y-74966525D01*
X119096525Y-75173368D01*
X118934010Y-75416589D01*
X118822068Y-75686842D01*
X118765000Y-75973740D01*
X118765000Y-76266260D01*
X118822068Y-76553158D01*
X118934010Y-76823411D01*
X119096525Y-77066632D01*
X119303368Y-77273475D01*
X119485534Y-77395195D01*
X119368645Y-77464822D01*
X119152412Y-77659731D01*
X118978359Y-77893080D01*
X118853175Y-78155901D01*
X118808524Y-78303110D01*
X118929845Y-78533000D01*
X120123000Y-78533000D01*
X120123000Y-78513000D01*
X120377000Y-78513000D01*
X120377000Y-78533000D01*
X120397000Y-78533000D01*
X120397000Y-78787000D01*
X120377000Y-78787000D01*
X120377000Y-78807000D01*
X120123000Y-78807000D01*
X120123000Y-78787000D01*
X118929845Y-78787000D01*
X118808524Y-79016890D01*
X118853175Y-79164099D01*
X118978359Y-79426920D01*
X119025410Y-79490000D01*
X116037322Y-79490000D01*
X115999999Y-79486324D01*
X115962676Y-79490000D01*
X115962667Y-79490000D01*
X115851014Y-79500997D01*
X115707753Y-79544454D01*
X115575724Y-79615026D01*
X115459999Y-79709999D01*
X115436201Y-79738998D01*
X115098351Y-80076847D01*
X114977271Y-80100932D01*
X114807111Y-80171414D01*
X114760000Y-80202892D01*
X114760000Y-73148061D01*
X114815000Y-73148061D01*
X114815000Y-73351939D01*
X114854774Y-73551898D01*
X114932795Y-73740256D01*
X115046063Y-73909774D01*
X115190226Y-74053937D01*
X115359744Y-74167205D01*
X115548102Y-74245226D01*
X115748061Y-74285000D01*
X115951939Y-74285000D01*
X116151898Y-74245226D01*
X116340256Y-74167205D01*
X116509774Y-74053937D01*
X116653937Y-73909774D01*
X116767205Y-73740256D01*
X116845226Y-73551898D01*
X116885000Y-73351939D01*
X116885000Y-73148061D01*
X116845226Y-72948102D01*
X116767205Y-72759744D01*
X116653937Y-72590226D01*
X116509774Y-72446063D01*
X116340256Y-72332795D01*
X116151898Y-72254774D01*
X115951939Y-72215000D01*
X115748061Y-72215000D01*
X115548102Y-72254774D01*
X115359744Y-72332795D01*
X115190226Y-72446063D01*
X115046063Y-72590226D01*
X114932795Y-72759744D01*
X114854774Y-72948102D01*
X114815000Y-73148061D01*
X114760000Y-73148061D01*
X114760000Y-71075468D01*
X114773738Y-71096028D01*
X114903972Y-71226262D01*
X115057111Y-71328586D01*
X115227271Y-71399068D01*
X115407911Y-71435000D01*
X115592089Y-71435000D01*
X115772729Y-71399068D01*
X115942889Y-71328586D01*
X116096028Y-71226262D01*
X116226262Y-71096028D01*
X116328586Y-70942889D01*
X116399068Y-70772729D01*
X116435000Y-70592089D01*
X116435000Y-70407911D01*
X116399068Y-70227271D01*
X116385000Y-70193308D01*
X116385000Y-68043465D01*
X116389281Y-67999999D01*
X116385000Y-67956533D01*
X116385000Y-67956523D01*
X116372195Y-67826510D01*
X116321589Y-67659687D01*
X116239411Y-67505941D01*
X116128817Y-67371183D01*
X116095044Y-67343466D01*
X116092655Y-67341077D01*
X116078586Y-67307111D01*
X115976262Y-67153972D01*
X115846028Y-67023738D01*
X115692889Y-66921414D01*
X115522729Y-66850932D01*
X115342089Y-66815000D01*
X115157911Y-66815000D01*
X114977271Y-66850932D01*
X114807111Y-66921414D01*
X114653972Y-67023738D01*
X114523738Y-67153972D01*
X114421414Y-67307111D01*
X114350932Y-67477271D01*
X114315000Y-67657911D01*
X114315000Y-67842089D01*
X114320712Y-67870807D01*
X114272729Y-67850932D01*
X114092089Y-67815000D01*
X113907911Y-67815000D01*
X113727271Y-67850932D01*
X113557111Y-67921414D01*
X113407802Y-68021179D01*
X113399068Y-67977271D01*
X113328586Y-67807111D01*
X113226262Y-67653972D01*
X113096028Y-67523738D01*
X112942889Y-67421414D01*
X112772729Y-67350932D01*
X112592089Y-67315000D01*
X112407911Y-67315000D01*
X112227271Y-67350932D01*
X112057111Y-67421414D01*
X111903972Y-67523738D01*
X111773738Y-67653972D01*
X111671414Y-67807111D01*
X111600932Y-67977271D01*
X111576847Y-68098351D01*
X111238998Y-68436201D01*
X111210000Y-68459999D01*
X111186202Y-68488997D01*
X111186201Y-68488998D01*
X111115026Y-68575724D01*
X111044454Y-68707754D01*
X111042964Y-68712667D01*
X111002511Y-68846028D01*
X111000998Y-68851015D01*
X110986324Y-69000000D01*
X110990001Y-69037332D01*
X110990001Y-72526290D01*
X110909774Y-72446063D01*
X110740256Y-72332795D01*
X110551898Y-72254774D01*
X110351939Y-72215000D01*
X110148061Y-72215000D01*
X109948102Y-72254774D01*
X109759744Y-72332795D01*
X109590226Y-72446063D01*
X109446063Y-72590226D01*
X109332795Y-72759744D01*
X109254774Y-72948102D01*
X109215000Y-73148061D01*
X105660000Y-73148061D01*
X105660000Y-63305926D01*
X119529534Y-63305926D01*
X119529534Y-63694074D01*
X119605258Y-64074764D01*
X119753796Y-64433366D01*
X119969439Y-64756099D01*
X120243901Y-65030561D01*
X120566634Y-65246204D01*
X120925236Y-65394742D01*
X121305926Y-65470466D01*
X121694074Y-65470466D01*
X122074764Y-65394742D01*
X122433366Y-65246204D01*
X122756099Y-65030561D01*
X123030561Y-64756099D01*
X123246204Y-64433366D01*
X123394742Y-64074764D01*
X123470466Y-63694074D01*
X123470466Y-63305926D01*
X123394742Y-62925236D01*
X123246204Y-62566634D01*
X123030561Y-62243901D01*
X122756099Y-61969439D01*
X122433366Y-61753796D01*
X122074764Y-61605258D01*
X121694074Y-61529534D01*
X121305926Y-61529534D01*
X120925236Y-61605258D01*
X120566634Y-61753796D01*
X120243901Y-61969439D01*
X119969439Y-62243901D01*
X119753796Y-62566634D01*
X119605258Y-62925236D01*
X119529534Y-63305926D01*
X105660000Y-63305926D01*
X105660000Y-61032279D01*
X105669580Y-60934576D01*
X105688580Y-60871644D01*
X105719445Y-60813595D01*
X105760989Y-60762657D01*
X105811644Y-60720752D01*
X105869471Y-60689485D01*
X105932272Y-60670044D01*
X106027835Y-60660000D01*
X121467721Y-60660000D01*
X122051010Y-60717192D01*
G37*
%TD.AperFunction*%
%TD*%
M02*
